M48
;DRILL file {KiCad 4.0.1-stable} date 2017/02/17 13:25:51
;FORMAT={-:-/ absolute / metric / decimal}
FMAT,2
METRIC,TZ
T1C0.300
T2C0.600
T3C0.762
T4C0.800
T5C1.000
%
G90
G05
M71
T1
X124.47Y-108.
X125.Y-104.
X125.4Y-108.05
X126.Y-109.
X126.1Y-111.6
X126.701Y-105.25
X126.9Y-111.6
X127.Y-109.
X127.501Y-105.45
X128.Y-109.
X130.47Y-108.
X131.Y-104.
X131.4Y-108.05
X132.1Y-111.6
X132.178Y-108.822
X132.182Y-105.185
X132.742Y-104.872
X132.9Y-111.6
X133.158Y-109.
X134.Y-109.
X137.Y-102.
X137.Y-109.5
X137.Y-110.5
X137.Y-112.
X137.Y-113.
X138.Y-102.
X159.Y-116.
X160.Y-116.
X162.47Y-108.
X163.Y-104.
X163.4Y-108.05
X163.89Y-108.775
X164.Y-105.5
X164.1Y-111.6
X164.875Y-108.724
X164.9Y-111.6
X165.Y-104.5
X166.Y-109.
X168.47Y-108.
X169.Y-104.
X169.4Y-108.05
X169.89Y-108.775
X170.Y-105.5
X170.1Y-111.6
X170.9Y-111.6
X171.Y-104.5
X171.Y-109.
X172.Y-109.
T2
X124.5Y-111.75
X128.5Y-111.75
X130.5Y-111.75
X134.5Y-111.75
X144.25Y-113.
X144.25Y-114.25
X162.5Y-111.75
X166.5Y-111.75
X168.5Y-111.75
X172.5Y-111.75
T3
X130.Y-126.75
X134.Y-126.75
X163.Y-126.75
X167.Y-126.75
T4
X137.9Y-115.8
T5
X149.5Y-120.
T4
X132.333Y-96.382G85X132.727Y-96.313
G05
X136.273Y-95.687G85X136.667Y-95.618
G05
X140.5Y-110.8G85X140.5Y-111.2
G05
X140.5Y-114.8G85X140.5Y-115.2
G05
X141.118Y-91.167G85X141.187Y-90.773
G05
X141.813Y-87.227G85X141.882Y-86.833
G05
X155.118Y-86.833G85X155.187Y-87.227
G05
X155.813Y-90.773G85X155.882Y-91.167
G05
X156.5Y-111.2G85X156.5Y-110.8
G05
X156.5Y-115.2G85X156.5Y-114.8
G05
X160.333Y-95.618G85X160.727Y-95.687
G05
X164.273Y-96.313G85X164.667Y-96.382
G05
T0
M30
