G04 #@! TF.FileFunction,Legend,Top*
%FSLAX46Y46*%
G04 Gerber Fmt 4.6, Leading zero omitted, Abs format (unit mm)*
G04 Created by KiCad (PCBNEW 4.0.1-stable) date 2017/02/17 13:25:48*
%MOMM*%
G01*
G04 APERTURE LIST*
%ADD10C,0.100000*%
%ADD11C,0.150000*%
G04 APERTURE END LIST*
D10*
D11*
X149500000Y-124419417D02*
X149075736Y-123995153D01*
X149500000Y-115580583D02*
X149924264Y-116004847D01*
X145080583Y-120000000D02*
X145504847Y-120424264D01*
X153919417Y-120000000D02*
X153495153Y-120424264D01*
X149500000Y-115580583D02*
X149075736Y-116004847D01*
X145080583Y-120000000D02*
X145504847Y-119575736D01*
X149500000Y-124419417D02*
X149924264Y-123995153D01*
X154375000Y-118600000D02*
X154625000Y-118600000D01*
X154625000Y-119400000D02*
X154375000Y-119400000D01*
X153625000Y-121350000D02*
X153875000Y-121350000D01*
X153875000Y-122150000D02*
X153625000Y-122150000D01*
X168275000Y-114725000D02*
X167700000Y-114725000D01*
X168275000Y-120275000D02*
X167700000Y-120275000D01*
X161725000Y-120275000D02*
X162300000Y-120275000D01*
X161725000Y-114725000D02*
X162300000Y-114725000D01*
X168275000Y-114725000D02*
X168275000Y-120275000D01*
X161725000Y-114725000D02*
X161725000Y-120275000D01*
X167700000Y-114725000D02*
X167700000Y-113450000D01*
X135275000Y-114725000D02*
X134700000Y-114725000D01*
X135275000Y-120275000D02*
X134700000Y-120275000D01*
X128725000Y-120275000D02*
X129300000Y-120275000D01*
X128725000Y-114725000D02*
X129300000Y-114725000D01*
X135275000Y-114725000D02*
X135275000Y-120275000D01*
X128725000Y-114725000D02*
X128725000Y-120275000D01*
X134700000Y-114725000D02*
X134700000Y-113450000D01*
X125700000Y-105700000D02*
X125300000Y-105300000D01*
X127400000Y-104500000D02*
G75*
G03X127400000Y-104500000I-900000J0D01*
G01*
X125300000Y-103300000D02*
X125300000Y-105700000D01*
X125300000Y-105700000D02*
X127700000Y-105700000D01*
X127700000Y-105700000D02*
X127700000Y-103300000D01*
X127700000Y-103300000D02*
X125300000Y-103300000D01*
X154600000Y-120625000D02*
X154600000Y-120375000D01*
X155400000Y-120375000D02*
X155400000Y-120625000D01*
X156600000Y-120625000D02*
X156600000Y-120375000D01*
X157400000Y-120375000D02*
X157400000Y-120625000D01*
X137750000Y-123475000D02*
X138250000Y-123475000D01*
X138250000Y-122525000D02*
X137750000Y-122525000D01*
X126000000Y-107350000D02*
X127000000Y-107350000D01*
X127000000Y-105650000D02*
X126000000Y-105650000D01*
X150600000Y-113125000D02*
X150600000Y-112875000D01*
X151400000Y-112875000D02*
X151400000Y-113125000D01*
X150600000Y-111625000D02*
X150600000Y-111375000D01*
X151400000Y-111375000D02*
X151400000Y-111625000D01*
X139892444Y-88770190D02*
X139729810Y-88607556D01*
X139107556Y-89229810D02*
X139270190Y-89392444D01*
X156440000Y-120615000D02*
X156440000Y-120385000D01*
X155560000Y-120385000D02*
X155560000Y-120615000D01*
X127975000Y-105750000D02*
X127975000Y-106250000D01*
X129025000Y-106250000D02*
X129025000Y-105750000D01*
X128060000Y-109885000D02*
X128060000Y-110115000D01*
X128940000Y-110115000D02*
X128940000Y-109885000D01*
X124060000Y-106885000D02*
X124060000Y-107115000D01*
X124940000Y-107115000D02*
X124940000Y-106885000D01*
X124940000Y-110115000D02*
X124940000Y-109885000D01*
X124060000Y-109885000D02*
X124060000Y-110115000D01*
X134909010Y-92520280D02*
X134979720Y-92590990D01*
X137299999Y-91000000D02*
G75*
G03X137299999Y-91000000I-799999J0D01*
G01*
X136959619Y-88348350D02*
X133848350Y-91459619D01*
X136040381Y-93651650D02*
X139151650Y-90540381D01*
X138020280Y-89409010D02*
X138090990Y-89479720D01*
X158979720Y-89409010D02*
X158909010Y-89479720D01*
X161299999Y-91000000D02*
G75*
G03X161299999Y-91000000I-799999J0D01*
G01*
X163151650Y-91459619D02*
X160040381Y-88348350D01*
X157848350Y-90540381D02*
X160959619Y-93651650D01*
X162090990Y-92520280D02*
X162020280Y-92590990D01*
X154700000Y-125350000D02*
X154700000Y-122150000D01*
X154700000Y-122150000D02*
X157300000Y-122150000D01*
X157300000Y-122150000D02*
X157300000Y-125350000D01*
X157300000Y-125350000D02*
X154700000Y-125350000D01*
X127300000Y-107300000D02*
X127700000Y-107700000D01*
X127400000Y-108500000D02*
G75*
G03X127400000Y-108500000I-900000J0D01*
G01*
X127700000Y-109700000D02*
X127700000Y-107300000D01*
X127700000Y-107300000D02*
X125300000Y-107300000D01*
X125300000Y-107300000D02*
X125300000Y-109700000D01*
X125300000Y-109700000D02*
X127700000Y-109700000D01*
X164000000Y-107350000D02*
X165000000Y-107350000D01*
X165000000Y-105650000D02*
X164000000Y-105650000D01*
X170000000Y-107350000D02*
X171000000Y-107350000D01*
X171000000Y-105650000D02*
X170000000Y-105650000D01*
X132000000Y-107350000D02*
X133000000Y-107350000D01*
X133000000Y-105650000D02*
X132000000Y-105650000D01*
X165300000Y-107300000D02*
X165700000Y-107700000D01*
X165400000Y-108500000D02*
G75*
G03X165400000Y-108500000I-900000J0D01*
G01*
X165700000Y-109700000D02*
X165700000Y-107300000D01*
X165700000Y-107300000D02*
X163300000Y-107300000D01*
X163300000Y-107300000D02*
X163300000Y-109700000D01*
X163300000Y-109700000D02*
X165700000Y-109700000D01*
X163700000Y-105700000D02*
X163300000Y-105300000D01*
X165400000Y-104500000D02*
G75*
G03X165400000Y-104500000I-900000J0D01*
G01*
X163300000Y-103300000D02*
X163300000Y-105700000D01*
X163300000Y-105700000D02*
X165700000Y-105700000D01*
X165700000Y-105700000D02*
X165700000Y-103300000D01*
X165700000Y-103300000D02*
X163300000Y-103300000D01*
X171300000Y-107300000D02*
X171700000Y-107700000D01*
X171400000Y-108500000D02*
G75*
G03X171400000Y-108500000I-900000J0D01*
G01*
X171700000Y-109700000D02*
X171700000Y-107300000D01*
X171700000Y-107300000D02*
X169300000Y-107300000D01*
X169300000Y-107300000D02*
X169300000Y-109700000D01*
X169300000Y-109700000D02*
X171700000Y-109700000D01*
X169700000Y-105700000D02*
X169300000Y-105300000D01*
X171400000Y-104500000D02*
G75*
G03X171400000Y-104500000I-900000J0D01*
G01*
X169300000Y-103300000D02*
X169300000Y-105700000D01*
X169300000Y-105700000D02*
X171700000Y-105700000D01*
X171700000Y-105700000D02*
X171700000Y-103300000D01*
X171700000Y-103300000D02*
X169300000Y-103300000D01*
X133300000Y-107300000D02*
X133700000Y-107700000D01*
X133400000Y-108500000D02*
G75*
G03X133400000Y-108500000I-900000J0D01*
G01*
X133700000Y-109700000D02*
X133700000Y-107300000D01*
X133700000Y-107300000D02*
X131300000Y-107300000D01*
X131300000Y-107300000D02*
X131300000Y-109700000D01*
X131300000Y-109700000D02*
X133700000Y-109700000D01*
X131700000Y-105700000D02*
X131300000Y-105300000D01*
X133400000Y-104500000D02*
G75*
G03X133400000Y-104500000I-900000J0D01*
G01*
X131300000Y-103300000D02*
X131300000Y-105700000D01*
X131300000Y-105700000D02*
X133700000Y-105700000D01*
X133700000Y-105700000D02*
X133700000Y-103300000D01*
X133700000Y-103300000D02*
X131300000Y-103300000D01*
X165975000Y-105750000D02*
X165975000Y-106250000D01*
X167025000Y-106250000D02*
X167025000Y-105750000D01*
X166060000Y-109885000D02*
X166060000Y-110115000D01*
X166940000Y-110115000D02*
X166940000Y-109885000D01*
X162060000Y-106885000D02*
X162060000Y-107115000D01*
X162940000Y-107115000D02*
X162940000Y-106885000D01*
X162940000Y-110115000D02*
X162940000Y-109885000D01*
X162060000Y-109885000D02*
X162060000Y-110115000D01*
X171975000Y-105750000D02*
X171975000Y-106250000D01*
X173025000Y-106250000D02*
X173025000Y-105750000D01*
X172060000Y-109885000D02*
X172060000Y-110115000D01*
X172940000Y-110115000D02*
X172940000Y-109885000D01*
X168060000Y-106885000D02*
X168060000Y-107115000D01*
X168940000Y-107115000D02*
X168940000Y-106885000D01*
X168940000Y-110115000D02*
X168940000Y-109885000D01*
X168060000Y-109885000D02*
X168060000Y-110115000D01*
X134060000Y-109885000D02*
X134060000Y-110115000D01*
X134940000Y-110115000D02*
X134940000Y-109885000D01*
X130060000Y-106885000D02*
X130060000Y-107115000D01*
X130940000Y-107115000D02*
X130940000Y-106885000D01*
X130940000Y-110115000D02*
X130940000Y-109885000D01*
X130060000Y-109885000D02*
X130060000Y-110115000D01*
X133975000Y-105750000D02*
X133975000Y-106250000D01*
X135025000Y-106250000D02*
X135025000Y-105750000D01*
X127750000Y-110500000D02*
G75*
G03X127750000Y-110500000I-250000J0D01*
G01*
X171750000Y-110500000D02*
G75*
G03X171750000Y-110500000I-250000J0D01*
G01*
X165750000Y-110500000D02*
G75*
G03X165750000Y-110500000I-250000J0D01*
G01*
X133750000Y-110500000D02*
G75*
G03X133750000Y-110500000I-250000J0D01*
G01*
X146550000Y-111450000D02*
X142950000Y-111450000D01*
X142950000Y-111450000D02*
X142950000Y-115800000D01*
X142950000Y-115800000D02*
X146550000Y-115800000D01*
X146550000Y-115800000D02*
X146550000Y-111450000D01*
X147050000Y-113000000D02*
X147650000Y-112700000D01*
X147650000Y-112700000D02*
X147650000Y-113300000D01*
X147650000Y-113300000D02*
X147050000Y-113000000D01*
X144250000Y-111450000D02*
X144250000Y-111950000D01*
X144250000Y-111950000D02*
X143450000Y-111950000D01*
X143450000Y-111950000D02*
X143450000Y-115300000D01*
X143450000Y-115300000D02*
X144250000Y-115300000D01*
X144250000Y-115300000D02*
X144250000Y-115800000D01*
X145000000Y-111450000D02*
X145000000Y-111950000D01*
X145000000Y-111950000D02*
X145800000Y-111950000D01*
X145800000Y-111950000D02*
X145800000Y-112450000D01*
X145800000Y-112450000D02*
X146550000Y-112450000D01*
X145000000Y-115800000D02*
X145000000Y-115300000D01*
X145000000Y-115300000D02*
X145800000Y-115300000D01*
X145800000Y-115300000D02*
X145800000Y-114800000D01*
X145800000Y-114800000D02*
X146550000Y-114800000D01*
X145800000Y-112450000D02*
X145800000Y-113250000D01*
X145800000Y-113250000D02*
X146300000Y-113250000D01*
X146300000Y-113250000D02*
X146300000Y-114000000D01*
X146300000Y-114000000D02*
X145800000Y-114000000D01*
X145800000Y-114000000D02*
X145800000Y-113250000D01*
X145800000Y-113250000D02*
X146300000Y-113250000D01*
X146300000Y-113250000D02*
X146300000Y-114000000D01*
X146300000Y-114000000D02*
X145800000Y-114000000D01*
X145800000Y-114000000D02*
X145800000Y-114800000D01*
X146500000Y-112000000D02*
G75*
G03X146500000Y-112000000I-200000J0D01*
G01*
X149700000Y-114600000D02*
X150500000Y-114600000D01*
X150100000Y-114200000D02*
X150100000Y-115000000D01*
X146500000Y-114600000D02*
X147300000Y-114600000D01*
X146900000Y-114200000D02*
X146900000Y-115000000D01*
X149700000Y-111400000D02*
X150500000Y-111400000D01*
X150100000Y-111800000D02*
X150100000Y-111000000D01*
X146900000Y-111800000D02*
X146900000Y-111000000D01*
X147300000Y-111400000D02*
X146500000Y-111400000D01*
X144755000Y-118250000D02*
X144455000Y-118250000D01*
X144755000Y-123750000D02*
X144455000Y-123750000D01*
X139245000Y-123750000D02*
X139545000Y-123750000D01*
X139245000Y-118250000D02*
X139545000Y-118250000D01*
X144755000Y-118250000D02*
X144755000Y-123750000D01*
X139245000Y-118250000D02*
X139245000Y-123750000D01*
X144455000Y-118250000D02*
X144455000Y-116500000D01*
X154250000Y-118225000D02*
X154750000Y-118225000D01*
X154750000Y-117275000D02*
X154250000Y-117275000D01*
X153250000Y-125275000D02*
X153750000Y-125275000D01*
X153750000Y-124325000D02*
X153250000Y-124325000D01*
X154150000Y-122625000D02*
X154150000Y-122875000D01*
X153350000Y-122875000D02*
X153350000Y-122625000D01*
X158625000Y-123400000D02*
X158375000Y-123400000D01*
X158375000Y-122600000D02*
X158625000Y-122600000D01*
X140900000Y-109375000D02*
X140900000Y-109625000D01*
X140100000Y-109625000D02*
X140100000Y-109375000D01*
X143100000Y-90125000D02*
X143100000Y-89875000D01*
X143900000Y-89875000D02*
X143900000Y-90125000D01*
X152400000Y-90875000D02*
X152400000Y-91125000D01*
X151600000Y-91125000D02*
X151600000Y-90875000D01*
X153025000Y-90750000D02*
X153025000Y-91250000D01*
X153975000Y-91250000D02*
X153975000Y-90750000D01*
X148400000Y-93000000D02*
X148600000Y-93250000D01*
X148600000Y-92750000D02*
X148400000Y-93000000D01*
X148750000Y-92475000D02*
X147700000Y-92475000D01*
X148750000Y-93525000D02*
X147700000Y-93525000D01*
X152500000Y-85900000D02*
X152250000Y-86100000D01*
X152750000Y-86100000D02*
X152500000Y-85900000D01*
X153025000Y-86250000D02*
X153025000Y-85200000D01*
X151975000Y-86250000D02*
X151975000Y-85200000D01*
X148500000Y-85900000D02*
X148250000Y-86100000D01*
X148750000Y-86100000D02*
X148500000Y-85900000D01*
X149025000Y-86250000D02*
X149025000Y-85200000D01*
X147975000Y-86250000D02*
X147975000Y-85200000D01*
X144500000Y-85900000D02*
X144250000Y-86100000D01*
X144750000Y-86100000D02*
X144500000Y-85900000D01*
X145025000Y-86250000D02*
X145025000Y-85200000D01*
X143975000Y-86250000D02*
X143975000Y-85200000D01*
X136500000Y-109000000D02*
X136000000Y-109500000D01*
X137750000Y-109000000D02*
X136000000Y-109000000D01*
X136000000Y-109000000D02*
X136000000Y-111000000D01*
X136000000Y-111000000D02*
X137750000Y-111000000D01*
X137750000Y-111000000D02*
X137750000Y-109000000D01*
X136500000Y-111500000D02*
X136000000Y-112000000D01*
X137750000Y-111500000D02*
X136000000Y-111500000D01*
X136000000Y-111500000D02*
X136000000Y-113500000D01*
X136000000Y-113500000D02*
X137750000Y-113500000D01*
X137750000Y-113500000D02*
X137750000Y-111500000D01*
X140541682Y-91963254D02*
G75*
G03X140541682Y-91963254I-250000J0D01*
G01*
X142377647Y-94897748D02*
X140397748Y-96877647D01*
X141811961Y-92776427D02*
X141104854Y-92069320D01*
X141104854Y-92069320D02*
X140468458Y-92705717D01*
X140751301Y-92422874D02*
X141458408Y-93129981D01*
X141458408Y-93129981D02*
X141458408Y-93129981D01*
X141458408Y-93129981D02*
X140751301Y-92422874D01*
X140751301Y-92422874D02*
X140751301Y-92422874D01*
X141175565Y-92847138D02*
X141175565Y-92847138D01*
X141175565Y-92847138D02*
X141529118Y-92493585D01*
X141529118Y-92493585D02*
X141529118Y-92493585D01*
X141529118Y-92493585D02*
X141175565Y-92847138D01*
X138276427Y-96311961D02*
X137569320Y-95604854D01*
X137569320Y-95604854D02*
X138205717Y-94968458D01*
X137922874Y-95251301D02*
X138629981Y-95958408D01*
X138629981Y-95958408D02*
X138629981Y-95958408D01*
X138629981Y-95958408D02*
X137922874Y-95251301D01*
X137922874Y-95251301D02*
X137922874Y-95251301D01*
X138347138Y-95675565D02*
X138347138Y-95675565D01*
X138347138Y-95675565D02*
X137993585Y-96029118D01*
X137993585Y-96029118D02*
X137993585Y-96029118D01*
X137993585Y-96029118D02*
X138347138Y-95675565D01*
X141741250Y-94261351D02*
X142094804Y-94614905D01*
X142094804Y-94614905D02*
X140114905Y-96594804D01*
X140114905Y-96594804D02*
X139761351Y-96241250D01*
X141316986Y-93837087D02*
X140857367Y-93377468D01*
X140857367Y-93377468D02*
X138877468Y-95357367D01*
X138877468Y-95357367D02*
X139337087Y-95816986D01*
X141458408Y-94544194D02*
X141316986Y-94402773D01*
X140751301Y-95251301D02*
X140609880Y-95109880D01*
X140044194Y-95958408D02*
X139902773Y-95816986D01*
X136500000Y-102500000D02*
X137000000Y-103000000D01*
X136500000Y-101250000D02*
X136500000Y-103000000D01*
X136500000Y-103000000D02*
X138500000Y-103000000D01*
X138500000Y-103000000D02*
X138500000Y-101250000D01*
X138500000Y-101250000D02*
X136500000Y-101250000D01*
X156200840Y-95650240D02*
X156249100Y-95650240D01*
X158999820Y-94949200D02*
X158999820Y-95650240D01*
X158999820Y-95650240D02*
X158750900Y-95650240D01*
X156200840Y-95650240D02*
X156000180Y-95650240D01*
X156000180Y-95650240D02*
X156000180Y-94949200D01*
X134700840Y-99650240D02*
X134749100Y-99650240D01*
X137499820Y-98949200D02*
X137499820Y-99650240D01*
X137499820Y-99650240D02*
X137250900Y-99650240D01*
X134700840Y-99650240D02*
X134500180Y-99650240D01*
X134500180Y-99650240D02*
X134500180Y-98949200D01*
X145440000Y-89115000D02*
X145440000Y-88885000D01*
X144560000Y-88885000D02*
X144560000Y-89115000D01*
X150385000Y-93440000D02*
X150615000Y-93440000D01*
X150615000Y-92560000D02*
X150385000Y-92560000D01*
X145440000Y-91115000D02*
X145440000Y-90885000D01*
X144560000Y-90885000D02*
X144560000Y-91115000D01*
X153060000Y-87885000D02*
X153060000Y-88115000D01*
X153940000Y-88115000D02*
X153940000Y-87885000D01*
X150385000Y-87440000D02*
X150615000Y-87440000D01*
X150615000Y-86560000D02*
X150385000Y-86560000D01*
X143060000Y-87885000D02*
X143060000Y-88115000D01*
X143940000Y-88115000D02*
X143940000Y-87885000D01*
X157385000Y-92940000D02*
X157615000Y-92940000D01*
X157615000Y-92060000D02*
X157385000Y-92060000D01*
X138940000Y-100115000D02*
X138940000Y-99885000D01*
X138060000Y-99885000D02*
X138060000Y-100115000D01*
X158000000Y-97900000D02*
X158000000Y-97000000D01*
X158000000Y-97000000D02*
X162000000Y-97000000D01*
X162000000Y-97000000D02*
X162000000Y-97900000D01*
X162000000Y-101000000D02*
X158000000Y-101000000D01*
X158000000Y-101000000D02*
X158000000Y-100100000D01*
X162000000Y-100100000D02*
X162000000Y-101000000D01*
X145551060Y-87150120D02*
X145551060Y-87650500D01*
X146351160Y-86949460D02*
X146749940Y-87399040D01*
X146749940Y-87399040D02*
X145551060Y-87399040D01*
X147199520Y-87698760D02*
X149800480Y-87698760D01*
X149800480Y-92301240D02*
X147199520Y-92301240D01*
X140100000Y-114850000D02*
G75*
G03X140100000Y-114850000I-200000J0D01*
G01*
X139400000Y-116800000D02*
X139400000Y-114800000D01*
X139400000Y-114800000D02*
X136400000Y-114800000D01*
X136400000Y-114800000D02*
X136400000Y-116800000D01*
X136400000Y-116800000D02*
X139400000Y-116800000D01*
X156625000Y-117900000D02*
X156375000Y-117900000D01*
X156375000Y-117100000D02*
X156625000Y-117100000D01*
X157100000Y-119125000D02*
X157100000Y-118875000D01*
X157900000Y-118875000D02*
X157900000Y-119125000D01*
X155600000Y-119125000D02*
X155600000Y-118875000D01*
X156400000Y-118875000D02*
X156400000Y-119125000D01*
X158500000Y-116500000D02*
X159000000Y-117000000D01*
X158500000Y-115250000D02*
X158500000Y-117000000D01*
X158500000Y-117000000D02*
X160500000Y-117000000D01*
X160500000Y-117000000D02*
X160500000Y-115250000D01*
X160500000Y-115250000D02*
X158500000Y-115250000D01*
X151685297Y-123262793D02*
X152257717Y-123835213D01*
X152358732Y-123868885D01*
X152426075Y-123868885D01*
X152527090Y-123835213D01*
X152661778Y-123700525D01*
X152695450Y-123599510D01*
X152695450Y-123532167D01*
X152661778Y-123431152D01*
X152089358Y-122858732D01*
X153503572Y-122858732D02*
X153099510Y-123262793D01*
X153301541Y-123060763D02*
X152594434Y-122353656D01*
X152628106Y-122522015D01*
X152628106Y-122656701D01*
X152594434Y-122757717D01*
X154333334Y-121057143D02*
X154285715Y-121104762D01*
X154142858Y-121152381D01*
X154047620Y-121152381D01*
X153904762Y-121104762D01*
X153809524Y-121009524D01*
X153761905Y-120914286D01*
X153714286Y-120723810D01*
X153714286Y-120580952D01*
X153761905Y-120390476D01*
X153809524Y-120295238D01*
X153904762Y-120200000D01*
X154047620Y-120152381D01*
X154142858Y-120152381D01*
X154285715Y-120200000D01*
X154333334Y-120247619D01*
X155285715Y-121152381D02*
X154714286Y-121152381D01*
X155000000Y-121152381D02*
X155000000Y-120152381D01*
X154904762Y-120295238D01*
X154809524Y-120390476D01*
X154714286Y-120438095D01*
X153583334Y-123807143D02*
X153535715Y-123854762D01*
X153392858Y-123902381D01*
X153297620Y-123902381D01*
X153154762Y-123854762D01*
X153059524Y-123759524D01*
X153011905Y-123664286D01*
X152964286Y-123473810D01*
X152964286Y-123330952D01*
X153011905Y-123140476D01*
X153059524Y-123045238D01*
X153154762Y-122950000D01*
X153297620Y-122902381D01*
X153392858Y-122902381D01*
X153535715Y-122950000D01*
X153583334Y-122997619D01*
X154440477Y-123235714D02*
X154440477Y-123902381D01*
X154202381Y-122854762D02*
X153964286Y-123569048D01*
X154583334Y-123569048D01*
X168652381Y-118738095D02*
X169461905Y-118738095D01*
X169557143Y-118690476D01*
X169604762Y-118642857D01*
X169652381Y-118547619D01*
X169652381Y-118357142D01*
X169604762Y-118261904D01*
X169557143Y-118214285D01*
X169461905Y-118166666D01*
X168652381Y-118166666D01*
X169652381Y-117166666D02*
X169652381Y-117738095D01*
X169652381Y-117452381D02*
X168652381Y-117452381D01*
X168795238Y-117547619D01*
X168890476Y-117642857D01*
X168938095Y-117738095D01*
X169652381Y-116214285D02*
X169652381Y-116785714D01*
X169652381Y-116500000D02*
X168652381Y-116500000D01*
X168795238Y-116595238D01*
X168890476Y-116690476D01*
X168938095Y-116785714D01*
X135652381Y-118738095D02*
X136461905Y-118738095D01*
X136557143Y-118690476D01*
X136604762Y-118642857D01*
X136652381Y-118547619D01*
X136652381Y-118357142D01*
X136604762Y-118261904D01*
X136557143Y-118214285D01*
X136461905Y-118166666D01*
X135652381Y-118166666D01*
X136652381Y-117166666D02*
X136652381Y-117738095D01*
X136652381Y-117452381D02*
X135652381Y-117452381D01*
X135795238Y-117547619D01*
X135890476Y-117642857D01*
X135938095Y-117738095D01*
X135747619Y-116785714D02*
X135700000Y-116738095D01*
X135652381Y-116642857D01*
X135652381Y-116404761D01*
X135700000Y-116309523D01*
X135747619Y-116261904D01*
X135842857Y-116214285D01*
X135938095Y-116214285D01*
X136080952Y-116261904D01*
X136652381Y-116833333D01*
X136652381Y-116214285D01*
X125761905Y-105452381D02*
X125761905Y-104452381D01*
X126000000Y-104452381D01*
X126142858Y-104500000D01*
X126238096Y-104595238D01*
X126285715Y-104690476D01*
X126333334Y-104880952D01*
X126333334Y-105023810D01*
X126285715Y-105214286D01*
X126238096Y-105309524D01*
X126142858Y-105404762D01*
X126000000Y-105452381D01*
X125761905Y-105452381D01*
X126809524Y-105452381D02*
X127000000Y-105452381D01*
X127095239Y-105404762D01*
X127142858Y-105357143D01*
X127238096Y-105214286D01*
X127285715Y-105023810D01*
X127285715Y-104642857D01*
X127238096Y-104547619D01*
X127190477Y-104500000D01*
X127095239Y-104452381D01*
X126904762Y-104452381D01*
X126809524Y-104500000D01*
X126761905Y-104547619D01*
X126714286Y-104642857D01*
X126714286Y-104880952D01*
X126761905Y-104976190D01*
X126809524Y-105023810D01*
X126904762Y-105071429D01*
X127095239Y-105071429D01*
X127190477Y-105023810D01*
X127238096Y-104976190D01*
X127285715Y-104880952D01*
X157057143Y-120666666D02*
X157104762Y-120714285D01*
X157152381Y-120857142D01*
X157152381Y-120952380D01*
X157104762Y-121095238D01*
X157009524Y-121190476D01*
X156914286Y-121238095D01*
X156723810Y-121285714D01*
X156580952Y-121285714D01*
X156390476Y-121238095D01*
X156295238Y-121190476D01*
X156200000Y-121095238D01*
X156152381Y-120952380D01*
X156152381Y-120857142D01*
X156200000Y-120714285D01*
X156247619Y-120666666D01*
X156152381Y-119761904D02*
X156152381Y-120238095D01*
X156628571Y-120285714D01*
X156580952Y-120238095D01*
X156533333Y-120142857D01*
X156533333Y-119904761D01*
X156580952Y-119809523D01*
X156628571Y-119761904D01*
X156723810Y-119714285D01*
X156961905Y-119714285D01*
X157057143Y-119761904D01*
X157104762Y-119809523D01*
X157152381Y-119904761D01*
X157152381Y-120142857D01*
X157104762Y-120238095D01*
X157057143Y-120285714D01*
X159057143Y-120666666D02*
X159104762Y-120714285D01*
X159152381Y-120857142D01*
X159152381Y-120952380D01*
X159104762Y-121095238D01*
X159009524Y-121190476D01*
X158914286Y-121238095D01*
X158723810Y-121285714D01*
X158580952Y-121285714D01*
X158390476Y-121238095D01*
X158295238Y-121190476D01*
X158200000Y-121095238D01*
X158152381Y-120952380D01*
X158152381Y-120857142D01*
X158200000Y-120714285D01*
X158247619Y-120666666D01*
X158152381Y-119809523D02*
X158152381Y-120000000D01*
X158200000Y-120095238D01*
X158247619Y-120142857D01*
X158390476Y-120238095D01*
X158580952Y-120285714D01*
X158961905Y-120285714D01*
X159057143Y-120238095D01*
X159104762Y-120190476D01*
X159152381Y-120095238D01*
X159152381Y-119904761D01*
X159104762Y-119809523D01*
X159057143Y-119761904D01*
X158961905Y-119714285D01*
X158723810Y-119714285D01*
X158628571Y-119761904D01*
X158580952Y-119809523D01*
X158533333Y-119904761D01*
X158533333Y-120095238D01*
X158580952Y-120190476D01*
X158628571Y-120238095D01*
X158723810Y-120285714D01*
X137833334Y-125057143D02*
X137785715Y-125104762D01*
X137642858Y-125152381D01*
X137547620Y-125152381D01*
X137404762Y-125104762D01*
X137309524Y-125009524D01*
X137261905Y-124914286D01*
X137214286Y-124723810D01*
X137214286Y-124580952D01*
X137261905Y-124390476D01*
X137309524Y-124295238D01*
X137404762Y-124200000D01*
X137547620Y-124152381D01*
X137642858Y-124152381D01*
X137785715Y-124200000D01*
X137833334Y-124247619D01*
X138309524Y-125152381D02*
X138500000Y-125152381D01*
X138595239Y-125104762D01*
X138642858Y-125057143D01*
X138738096Y-124914286D01*
X138785715Y-124723810D01*
X138785715Y-124342857D01*
X138738096Y-124247619D01*
X138690477Y-124200000D01*
X138595239Y-124152381D01*
X138404762Y-124152381D01*
X138309524Y-124200000D01*
X138261905Y-124247619D01*
X138214286Y-124342857D01*
X138214286Y-124580952D01*
X138261905Y-124676190D01*
X138309524Y-124723810D01*
X138404762Y-124771429D01*
X138595239Y-124771429D01*
X138690477Y-124723810D01*
X138738096Y-124676190D01*
X138785715Y-124580952D01*
X125857143Y-108957143D02*
X125809524Y-109004762D01*
X125666667Y-109052381D01*
X125571429Y-109052381D01*
X125428571Y-109004762D01*
X125333333Y-108909524D01*
X125285714Y-108814286D01*
X125238095Y-108623810D01*
X125238095Y-108480952D01*
X125285714Y-108290476D01*
X125333333Y-108195238D01*
X125428571Y-108100000D01*
X125571429Y-108052381D01*
X125666667Y-108052381D01*
X125809524Y-108100000D01*
X125857143Y-108147619D01*
X126238095Y-108147619D02*
X126285714Y-108100000D01*
X126380952Y-108052381D01*
X126619048Y-108052381D01*
X126714286Y-108100000D01*
X126761905Y-108147619D01*
X126809524Y-108242857D01*
X126809524Y-108338095D01*
X126761905Y-108480952D01*
X126190476Y-109052381D01*
X126809524Y-109052381D01*
X127714286Y-108052381D02*
X127238095Y-108052381D01*
X127190476Y-108528571D01*
X127238095Y-108480952D01*
X127333333Y-108433333D01*
X127571429Y-108433333D01*
X127666667Y-108480952D01*
X127714286Y-108528571D01*
X127761905Y-108623810D01*
X127761905Y-108861905D01*
X127714286Y-108957143D01*
X127666667Y-109004762D01*
X127571429Y-109052381D01*
X127333333Y-109052381D01*
X127238095Y-109004762D01*
X127190476Y-108957143D01*
X153057143Y-113642857D02*
X153104762Y-113690476D01*
X153152381Y-113833333D01*
X153152381Y-113928571D01*
X153104762Y-114071429D01*
X153009524Y-114166667D01*
X152914286Y-114214286D01*
X152723810Y-114261905D01*
X152580952Y-114261905D01*
X152390476Y-114214286D01*
X152295238Y-114166667D01*
X152200000Y-114071429D01*
X152152381Y-113928571D01*
X152152381Y-113833333D01*
X152200000Y-113690476D01*
X152247619Y-113642857D01*
X152247619Y-113261905D02*
X152200000Y-113214286D01*
X152152381Y-113119048D01*
X152152381Y-112880952D01*
X152200000Y-112785714D01*
X152247619Y-112738095D01*
X152342857Y-112690476D01*
X152438095Y-112690476D01*
X152580952Y-112738095D01*
X153152381Y-113309524D01*
X153152381Y-112690476D01*
X152152381Y-111833333D02*
X152152381Y-112023810D01*
X152200000Y-112119048D01*
X152247619Y-112166667D01*
X152390476Y-112261905D01*
X152580952Y-112309524D01*
X152961905Y-112309524D01*
X153057143Y-112261905D01*
X153104762Y-112214286D01*
X153152381Y-112119048D01*
X153152381Y-111928571D01*
X153104762Y-111833333D01*
X153057143Y-111785714D01*
X152961905Y-111738095D01*
X152723810Y-111738095D01*
X152628571Y-111785714D01*
X152580952Y-111833333D01*
X152533333Y-111928571D01*
X152533333Y-112119048D01*
X152580952Y-112214286D01*
X152628571Y-112261905D01*
X152723810Y-112309524D01*
X153057143Y-112142857D02*
X153104762Y-112190476D01*
X153152381Y-112333333D01*
X153152381Y-112428571D01*
X153104762Y-112571429D01*
X153009524Y-112666667D01*
X152914286Y-112714286D01*
X152723810Y-112761905D01*
X152580952Y-112761905D01*
X152390476Y-112714286D01*
X152295238Y-112666667D01*
X152200000Y-112571429D01*
X152152381Y-112428571D01*
X152152381Y-112333333D01*
X152200000Y-112190476D01*
X152247619Y-112142857D01*
X152247619Y-111761905D02*
X152200000Y-111714286D01*
X152152381Y-111619048D01*
X152152381Y-111380952D01*
X152200000Y-111285714D01*
X152247619Y-111238095D01*
X152342857Y-111190476D01*
X152438095Y-111190476D01*
X152580952Y-111238095D01*
X153152381Y-111809524D01*
X153152381Y-111190476D01*
X152152381Y-110857143D02*
X152152381Y-110190476D01*
X153152381Y-110619048D01*
X140264350Y-87999949D02*
X140365365Y-87427528D01*
X139860288Y-87595888D02*
X140567395Y-86888781D01*
X140836770Y-87158155D01*
X140870441Y-87259171D01*
X140870441Y-87326514D01*
X140836770Y-87427529D01*
X140735754Y-87528544D01*
X140634739Y-87562216D01*
X140567396Y-87562216D01*
X140466381Y-87528544D01*
X140197006Y-87259170D01*
X140937785Y-88673384D02*
X140533723Y-88269323D01*
X140735754Y-88471353D02*
X141442860Y-87764246D01*
X141274502Y-87797918D01*
X141139815Y-87797918D01*
X141038800Y-87764246D01*
X158152381Y-120666666D02*
X157676190Y-121000000D01*
X158152381Y-121238095D02*
X157152381Y-121238095D01*
X157152381Y-120857142D01*
X157200000Y-120761904D01*
X157247619Y-120714285D01*
X157342857Y-120666666D01*
X157485714Y-120666666D01*
X157580952Y-120714285D01*
X157628571Y-120761904D01*
X157676190Y-120857142D01*
X157676190Y-121238095D01*
X157247619Y-120285714D02*
X157200000Y-120238095D01*
X157152381Y-120142857D01*
X157152381Y-119904761D01*
X157200000Y-119809523D01*
X157247619Y-119761904D01*
X157342857Y-119714285D01*
X157438095Y-119714285D01*
X157580952Y-119761904D01*
X158152381Y-120333333D01*
X158152381Y-119714285D01*
X127152381Y-106642857D02*
X126676190Y-106976191D01*
X127152381Y-107214286D02*
X126152381Y-107214286D01*
X126152381Y-106833333D01*
X126200000Y-106738095D01*
X126247619Y-106690476D01*
X126342857Y-106642857D01*
X126485714Y-106642857D01*
X126580952Y-106690476D01*
X126628571Y-106738095D01*
X126676190Y-106833333D01*
X126676190Y-107214286D01*
X126247619Y-106261905D02*
X126200000Y-106214286D01*
X126152381Y-106119048D01*
X126152381Y-105880952D01*
X126200000Y-105785714D01*
X126247619Y-105738095D01*
X126342857Y-105690476D01*
X126438095Y-105690476D01*
X126580952Y-105738095D01*
X127152381Y-106309524D01*
X127152381Y-105690476D01*
X126485714Y-104833333D02*
X127152381Y-104833333D01*
X126104762Y-105071429D02*
X126819048Y-105309524D01*
X126819048Y-104690476D01*
X127252381Y-110642857D02*
X126776190Y-110976191D01*
X127252381Y-111214286D02*
X126252381Y-111214286D01*
X126252381Y-110833333D01*
X126300000Y-110738095D01*
X126347619Y-110690476D01*
X126442857Y-110642857D01*
X126585714Y-110642857D01*
X126680952Y-110690476D01*
X126728571Y-110738095D01*
X126776190Y-110833333D01*
X126776190Y-111214286D01*
X126347619Y-110261905D02*
X126300000Y-110214286D01*
X126252381Y-110119048D01*
X126252381Y-109880952D01*
X126300000Y-109785714D01*
X126347619Y-109738095D01*
X126442857Y-109690476D01*
X126538095Y-109690476D01*
X126680952Y-109738095D01*
X127252381Y-110309524D01*
X127252381Y-109690476D01*
X126252381Y-108833333D02*
X126252381Y-109023810D01*
X126300000Y-109119048D01*
X126347619Y-109166667D01*
X126490476Y-109261905D01*
X126680952Y-109309524D01*
X127061905Y-109309524D01*
X127157143Y-109261905D01*
X127204762Y-109214286D01*
X127252381Y-109119048D01*
X127252381Y-108928571D01*
X127204762Y-108833333D01*
X127157143Y-108785714D01*
X127061905Y-108738095D01*
X126823810Y-108738095D01*
X126728571Y-108785714D01*
X126680952Y-108833333D01*
X126633333Y-108928571D01*
X126633333Y-109119048D01*
X126680952Y-109214286D01*
X126728571Y-109261905D01*
X126823810Y-109309524D01*
X123252381Y-107642857D02*
X122776190Y-107976191D01*
X123252381Y-108214286D02*
X122252381Y-108214286D01*
X122252381Y-107833333D01*
X122300000Y-107738095D01*
X122347619Y-107690476D01*
X122442857Y-107642857D01*
X122585714Y-107642857D01*
X122680952Y-107690476D01*
X122728571Y-107738095D01*
X122776190Y-107833333D01*
X122776190Y-108214286D01*
X122347619Y-107261905D02*
X122300000Y-107214286D01*
X122252381Y-107119048D01*
X122252381Y-106880952D01*
X122300000Y-106785714D01*
X122347619Y-106738095D01*
X122442857Y-106690476D01*
X122538095Y-106690476D01*
X122680952Y-106738095D01*
X123252381Y-107309524D01*
X123252381Y-106690476D01*
X122252381Y-106357143D02*
X122252381Y-105690476D01*
X123252381Y-106119048D01*
X126652381Y-110642857D02*
X126176190Y-110976191D01*
X126652381Y-111214286D02*
X125652381Y-111214286D01*
X125652381Y-110833333D01*
X125700000Y-110738095D01*
X125747619Y-110690476D01*
X125842857Y-110642857D01*
X125985714Y-110642857D01*
X126080952Y-110690476D01*
X126128571Y-110738095D01*
X126176190Y-110833333D01*
X126176190Y-111214286D01*
X125747619Y-110261905D02*
X125700000Y-110214286D01*
X125652381Y-110119048D01*
X125652381Y-109880952D01*
X125700000Y-109785714D01*
X125747619Y-109738095D01*
X125842857Y-109690476D01*
X125938095Y-109690476D01*
X126080952Y-109738095D01*
X126652381Y-110309524D01*
X126652381Y-109690476D01*
X126080952Y-109119048D02*
X126033333Y-109214286D01*
X125985714Y-109261905D01*
X125890476Y-109309524D01*
X125842857Y-109309524D01*
X125747619Y-109261905D01*
X125700000Y-109214286D01*
X125652381Y-109119048D01*
X125652381Y-108928571D01*
X125700000Y-108833333D01*
X125747619Y-108785714D01*
X125842857Y-108738095D01*
X125890476Y-108738095D01*
X125985714Y-108785714D01*
X126033333Y-108833333D01*
X126080952Y-108928571D01*
X126080952Y-109119048D01*
X126128571Y-109214286D01*
X126176190Y-109261905D01*
X126271429Y-109309524D01*
X126461905Y-109309524D01*
X126557143Y-109261905D01*
X126604762Y-109214286D01*
X126652381Y-109119048D01*
X126652381Y-108928571D01*
X126604762Y-108833333D01*
X126557143Y-108785714D01*
X126461905Y-108738095D01*
X126271429Y-108738095D01*
X126176190Y-108785714D01*
X126128571Y-108833333D01*
X126080952Y-108928571D01*
X137575813Y-93961431D02*
X137710500Y-93894087D01*
X137878859Y-93725728D01*
X137912531Y-93624713D01*
X137912531Y-93557369D01*
X137878859Y-93456354D01*
X137811516Y-93389011D01*
X137710501Y-93355339D01*
X137643157Y-93355339D01*
X137542141Y-93389010D01*
X137373782Y-93490026D01*
X137272767Y-93523698D01*
X137205424Y-93523698D01*
X137104408Y-93490026D01*
X137037065Y-93422683D01*
X137003393Y-93321667D01*
X137003393Y-93254324D01*
X137037065Y-93153309D01*
X137205424Y-92984950D01*
X137340111Y-92917606D01*
X137542141Y-92648232D02*
X138417607Y-93186981D01*
X138047218Y-92547216D01*
X138686981Y-92917606D01*
X138148233Y-92042141D01*
X139495103Y-92109484D02*
X139091042Y-92513545D01*
X139293072Y-92311515D02*
X138585965Y-91604408D01*
X138619637Y-91772767D01*
X138619637Y-91907454D01*
X138585965Y-92008469D01*
X157538569Y-92075813D02*
X157605913Y-92210500D01*
X157774272Y-92378859D01*
X157875287Y-92412531D01*
X157942631Y-92412531D01*
X158043646Y-92378859D01*
X158110989Y-92311516D01*
X158144661Y-92210501D01*
X158144661Y-92143157D01*
X158110990Y-92042141D01*
X158009974Y-91873782D01*
X157976302Y-91772767D01*
X157976302Y-91705424D01*
X158009974Y-91604408D01*
X158077317Y-91537065D01*
X158178333Y-91503393D01*
X158245676Y-91503393D01*
X158346691Y-91537065D01*
X158515050Y-91705424D01*
X158582394Y-91840111D01*
X158851768Y-92042141D02*
X158313019Y-92917607D01*
X158952784Y-92547218D01*
X158582394Y-93186981D01*
X159457859Y-92648233D01*
X159626218Y-92951279D02*
X159693561Y-92951279D01*
X159794576Y-92984950D01*
X159962936Y-93153310D01*
X159996607Y-93254325D01*
X159996607Y-93321668D01*
X159962936Y-93422683D01*
X159895592Y-93490027D01*
X159760905Y-93557370D01*
X158952783Y-93557370D01*
X159390516Y-93995103D01*
X153152381Y-124611905D02*
X153961905Y-124611905D01*
X154057143Y-124564286D01*
X154104762Y-124516667D01*
X154152381Y-124421429D01*
X154152381Y-124230952D01*
X154104762Y-124135714D01*
X154057143Y-124088095D01*
X153961905Y-124040476D01*
X153152381Y-124040476D01*
X153247619Y-123611905D02*
X153200000Y-123564286D01*
X153152381Y-123469048D01*
X153152381Y-123230952D01*
X153200000Y-123135714D01*
X153247619Y-123088095D01*
X153342857Y-123040476D01*
X153438095Y-123040476D01*
X153580952Y-123088095D01*
X154152381Y-123659524D01*
X154152381Y-123040476D01*
X125761905Y-108452381D02*
X125761905Y-107452381D01*
X126000000Y-107452381D01*
X126142858Y-107500000D01*
X126238096Y-107595238D01*
X126285715Y-107690476D01*
X126333334Y-107880952D01*
X126333334Y-108023810D01*
X126285715Y-108214286D01*
X126238096Y-108309524D01*
X126142858Y-108404762D01*
X126000000Y-108452381D01*
X125761905Y-108452381D01*
X126904762Y-107880952D02*
X126809524Y-107833333D01*
X126761905Y-107785714D01*
X126714286Y-107690476D01*
X126714286Y-107642857D01*
X126761905Y-107547619D01*
X126809524Y-107500000D01*
X126904762Y-107452381D01*
X127095239Y-107452381D01*
X127190477Y-107500000D01*
X127238096Y-107547619D01*
X127285715Y-107642857D01*
X127285715Y-107690476D01*
X127238096Y-107785714D01*
X127190477Y-107833333D01*
X127095239Y-107880952D01*
X126904762Y-107880952D01*
X126809524Y-107928571D01*
X126761905Y-107976190D01*
X126714286Y-108071429D01*
X126714286Y-108261905D01*
X126761905Y-108357143D01*
X126809524Y-108404762D01*
X126904762Y-108452381D01*
X127095239Y-108452381D01*
X127190477Y-108404762D01*
X127238096Y-108357143D01*
X127285715Y-108261905D01*
X127285715Y-108071429D01*
X127238096Y-107976190D01*
X127190477Y-107928571D01*
X127095239Y-107880952D01*
X163857143Y-108957143D02*
X163809524Y-109004762D01*
X163666667Y-109052381D01*
X163571429Y-109052381D01*
X163428571Y-109004762D01*
X163333333Y-108909524D01*
X163285714Y-108814286D01*
X163238095Y-108623810D01*
X163238095Y-108480952D01*
X163285714Y-108290476D01*
X163333333Y-108195238D01*
X163428571Y-108100000D01*
X163571429Y-108052381D01*
X163666667Y-108052381D01*
X163809524Y-108100000D01*
X163857143Y-108147619D01*
X164809524Y-109052381D02*
X164238095Y-109052381D01*
X164523809Y-109052381D02*
X164523809Y-108052381D01*
X164428571Y-108195238D01*
X164333333Y-108290476D01*
X164238095Y-108338095D01*
X165666667Y-108052381D02*
X165476190Y-108052381D01*
X165380952Y-108100000D01*
X165333333Y-108147619D01*
X165238095Y-108290476D01*
X165190476Y-108480952D01*
X165190476Y-108861905D01*
X165238095Y-108957143D01*
X165285714Y-109004762D01*
X165380952Y-109052381D01*
X165571429Y-109052381D01*
X165666667Y-109004762D01*
X165714286Y-108957143D01*
X165761905Y-108861905D01*
X165761905Y-108623810D01*
X165714286Y-108528571D01*
X165666667Y-108480952D01*
X165571429Y-108433333D01*
X165380952Y-108433333D01*
X165285714Y-108480952D01*
X165238095Y-108528571D01*
X165190476Y-108623810D01*
X169857143Y-108957143D02*
X169809524Y-109004762D01*
X169666667Y-109052381D01*
X169571429Y-109052381D01*
X169428571Y-109004762D01*
X169333333Y-108909524D01*
X169285714Y-108814286D01*
X169238095Y-108623810D01*
X169238095Y-108480952D01*
X169285714Y-108290476D01*
X169333333Y-108195238D01*
X169428571Y-108100000D01*
X169571429Y-108052381D01*
X169666667Y-108052381D01*
X169809524Y-108100000D01*
X169857143Y-108147619D01*
X170809524Y-109052381D02*
X170238095Y-109052381D01*
X170523809Y-109052381D02*
X170523809Y-108052381D01*
X170428571Y-108195238D01*
X170333333Y-108290476D01*
X170238095Y-108338095D01*
X171285714Y-109052381D02*
X171476190Y-109052381D01*
X171571429Y-109004762D01*
X171619048Y-108957143D01*
X171714286Y-108814286D01*
X171761905Y-108623810D01*
X171761905Y-108242857D01*
X171714286Y-108147619D01*
X171666667Y-108100000D01*
X171571429Y-108052381D01*
X171380952Y-108052381D01*
X171285714Y-108100000D01*
X171238095Y-108147619D01*
X171190476Y-108242857D01*
X171190476Y-108480952D01*
X171238095Y-108576190D01*
X171285714Y-108623810D01*
X171380952Y-108671429D01*
X171571429Y-108671429D01*
X171666667Y-108623810D01*
X171714286Y-108576190D01*
X171761905Y-108480952D01*
X131857143Y-108957143D02*
X131809524Y-109004762D01*
X131666667Y-109052381D01*
X131571429Y-109052381D01*
X131428571Y-109004762D01*
X131333333Y-108909524D01*
X131285714Y-108814286D01*
X131238095Y-108623810D01*
X131238095Y-108480952D01*
X131285714Y-108290476D01*
X131333333Y-108195238D01*
X131428571Y-108100000D01*
X131571429Y-108052381D01*
X131666667Y-108052381D01*
X131809524Y-108100000D01*
X131857143Y-108147619D01*
X132238095Y-108147619D02*
X132285714Y-108100000D01*
X132380952Y-108052381D01*
X132619048Y-108052381D01*
X132714286Y-108100000D01*
X132761905Y-108147619D01*
X132809524Y-108242857D01*
X132809524Y-108338095D01*
X132761905Y-108480952D01*
X132190476Y-109052381D01*
X132809524Y-109052381D01*
X133190476Y-108147619D02*
X133238095Y-108100000D01*
X133333333Y-108052381D01*
X133571429Y-108052381D01*
X133666667Y-108100000D01*
X133714286Y-108147619D01*
X133761905Y-108242857D01*
X133761905Y-108338095D01*
X133714286Y-108480952D01*
X133142857Y-109052381D01*
X133761905Y-109052381D01*
X163761905Y-108452381D02*
X163761905Y-107452381D01*
X164000000Y-107452381D01*
X164142858Y-107500000D01*
X164238096Y-107595238D01*
X164285715Y-107690476D01*
X164333334Y-107880952D01*
X164333334Y-108023810D01*
X164285715Y-108214286D01*
X164238096Y-108309524D01*
X164142858Y-108404762D01*
X164000000Y-108452381D01*
X163761905Y-108452381D01*
X164714286Y-107547619D02*
X164761905Y-107500000D01*
X164857143Y-107452381D01*
X165095239Y-107452381D01*
X165190477Y-107500000D01*
X165238096Y-107547619D01*
X165285715Y-107642857D01*
X165285715Y-107738095D01*
X165238096Y-107880952D01*
X164666667Y-108452381D01*
X165285715Y-108452381D01*
X163761905Y-105452381D02*
X163761905Y-104452381D01*
X164000000Y-104452381D01*
X164142858Y-104500000D01*
X164238096Y-104595238D01*
X164285715Y-104690476D01*
X164333334Y-104880952D01*
X164333334Y-105023810D01*
X164285715Y-105214286D01*
X164238096Y-105309524D01*
X164142858Y-105404762D01*
X164000000Y-105452381D01*
X163761905Y-105452381D01*
X164666667Y-104452381D02*
X165285715Y-104452381D01*
X164952381Y-104833333D01*
X165095239Y-104833333D01*
X165190477Y-104880952D01*
X165238096Y-104928571D01*
X165285715Y-105023810D01*
X165285715Y-105261905D01*
X165238096Y-105357143D01*
X165190477Y-105404762D01*
X165095239Y-105452381D01*
X164809524Y-105452381D01*
X164714286Y-105404762D01*
X164666667Y-105357143D01*
X169761905Y-108452381D02*
X169761905Y-107452381D01*
X170000000Y-107452381D01*
X170142858Y-107500000D01*
X170238096Y-107595238D01*
X170285715Y-107690476D01*
X170333334Y-107880952D01*
X170333334Y-108023810D01*
X170285715Y-108214286D01*
X170238096Y-108309524D01*
X170142858Y-108404762D01*
X170000000Y-108452381D01*
X169761905Y-108452381D01*
X171190477Y-107785714D02*
X171190477Y-108452381D01*
X170952381Y-107404762D02*
X170714286Y-108119048D01*
X171333334Y-108119048D01*
X169761905Y-105452381D02*
X169761905Y-104452381D01*
X170000000Y-104452381D01*
X170142858Y-104500000D01*
X170238096Y-104595238D01*
X170285715Y-104690476D01*
X170333334Y-104880952D01*
X170333334Y-105023810D01*
X170285715Y-105214286D01*
X170238096Y-105309524D01*
X170142858Y-105404762D01*
X170000000Y-105452381D01*
X169761905Y-105452381D01*
X171238096Y-104452381D02*
X170761905Y-104452381D01*
X170714286Y-104928571D01*
X170761905Y-104880952D01*
X170857143Y-104833333D01*
X171095239Y-104833333D01*
X171190477Y-104880952D01*
X171238096Y-104928571D01*
X171285715Y-105023810D01*
X171285715Y-105261905D01*
X171238096Y-105357143D01*
X171190477Y-105404762D01*
X171095239Y-105452381D01*
X170857143Y-105452381D01*
X170761905Y-105404762D01*
X170714286Y-105357143D01*
X131761905Y-108452381D02*
X131761905Y-107452381D01*
X132000000Y-107452381D01*
X132142858Y-107500000D01*
X132238096Y-107595238D01*
X132285715Y-107690476D01*
X132333334Y-107880952D01*
X132333334Y-108023810D01*
X132285715Y-108214286D01*
X132238096Y-108309524D01*
X132142858Y-108404762D01*
X132000000Y-108452381D01*
X131761905Y-108452381D01*
X133190477Y-107452381D02*
X133000000Y-107452381D01*
X132904762Y-107500000D01*
X132857143Y-107547619D01*
X132761905Y-107690476D01*
X132714286Y-107880952D01*
X132714286Y-108261905D01*
X132761905Y-108357143D01*
X132809524Y-108404762D01*
X132904762Y-108452381D01*
X133095239Y-108452381D01*
X133190477Y-108404762D01*
X133238096Y-108357143D01*
X133285715Y-108261905D01*
X133285715Y-108023810D01*
X133238096Y-107928571D01*
X133190477Y-107880952D01*
X133095239Y-107833333D01*
X132904762Y-107833333D01*
X132809524Y-107880952D01*
X132761905Y-107928571D01*
X132714286Y-108023810D01*
X131761905Y-105452381D02*
X131761905Y-104452381D01*
X132000000Y-104452381D01*
X132142858Y-104500000D01*
X132238096Y-104595238D01*
X132285715Y-104690476D01*
X132333334Y-104880952D01*
X132333334Y-105023810D01*
X132285715Y-105214286D01*
X132238096Y-105309524D01*
X132142858Y-105404762D01*
X132000000Y-105452381D01*
X131761905Y-105452381D01*
X132666667Y-104452381D02*
X133333334Y-104452381D01*
X132904762Y-105452381D01*
X165152381Y-106166666D02*
X164676190Y-106500000D01*
X165152381Y-106738095D02*
X164152381Y-106738095D01*
X164152381Y-106357142D01*
X164200000Y-106261904D01*
X164247619Y-106214285D01*
X164342857Y-106166666D01*
X164485714Y-106166666D01*
X164580952Y-106214285D01*
X164628571Y-106261904D01*
X164676190Y-106357142D01*
X164676190Y-106738095D01*
X164152381Y-105309523D02*
X164152381Y-105500000D01*
X164200000Y-105595238D01*
X164247619Y-105642857D01*
X164390476Y-105738095D01*
X164580952Y-105785714D01*
X164961905Y-105785714D01*
X165057143Y-105738095D01*
X165104762Y-105690476D01*
X165152381Y-105595238D01*
X165152381Y-105404761D01*
X165104762Y-105309523D01*
X165057143Y-105261904D01*
X164961905Y-105214285D01*
X164723810Y-105214285D01*
X164628571Y-105261904D01*
X164580952Y-105309523D01*
X164533333Y-105404761D01*
X164533333Y-105595238D01*
X164580952Y-105690476D01*
X164628571Y-105738095D01*
X164723810Y-105785714D01*
X165252381Y-110166666D02*
X164776190Y-110500000D01*
X165252381Y-110738095D02*
X164252381Y-110738095D01*
X164252381Y-110357142D01*
X164300000Y-110261904D01*
X164347619Y-110214285D01*
X164442857Y-110166666D01*
X164585714Y-110166666D01*
X164680952Y-110214285D01*
X164728571Y-110261904D01*
X164776190Y-110357142D01*
X164776190Y-110738095D01*
X164680952Y-109595238D02*
X164633333Y-109690476D01*
X164585714Y-109738095D01*
X164490476Y-109785714D01*
X164442857Y-109785714D01*
X164347619Y-109738095D01*
X164300000Y-109690476D01*
X164252381Y-109595238D01*
X164252381Y-109404761D01*
X164300000Y-109309523D01*
X164347619Y-109261904D01*
X164442857Y-109214285D01*
X164490476Y-109214285D01*
X164585714Y-109261904D01*
X164633333Y-109309523D01*
X164680952Y-109404761D01*
X164680952Y-109595238D01*
X164728571Y-109690476D01*
X164776190Y-109738095D01*
X164871429Y-109785714D01*
X165061905Y-109785714D01*
X165157143Y-109738095D01*
X165204762Y-109690476D01*
X165252381Y-109595238D01*
X165252381Y-109404761D01*
X165204762Y-109309523D01*
X165157143Y-109261904D01*
X165061905Y-109214285D01*
X164871429Y-109214285D01*
X164776190Y-109261904D01*
X164728571Y-109309523D01*
X164680952Y-109404761D01*
X161252381Y-107166666D02*
X160776190Y-107500000D01*
X161252381Y-107738095D02*
X160252381Y-107738095D01*
X160252381Y-107357142D01*
X160300000Y-107261904D01*
X160347619Y-107214285D01*
X160442857Y-107166666D01*
X160585714Y-107166666D01*
X160680952Y-107214285D01*
X160728571Y-107261904D01*
X160776190Y-107357142D01*
X160776190Y-107738095D01*
X161252381Y-106690476D02*
X161252381Y-106500000D01*
X161204762Y-106404761D01*
X161157143Y-106357142D01*
X161014286Y-106261904D01*
X160823810Y-106214285D01*
X160442857Y-106214285D01*
X160347619Y-106261904D01*
X160300000Y-106309523D01*
X160252381Y-106404761D01*
X160252381Y-106595238D01*
X160300000Y-106690476D01*
X160347619Y-106738095D01*
X160442857Y-106785714D01*
X160680952Y-106785714D01*
X160776190Y-106738095D01*
X160823810Y-106690476D01*
X160871429Y-106595238D01*
X160871429Y-106404761D01*
X160823810Y-106309523D01*
X160776190Y-106261904D01*
X160680952Y-106214285D01*
X164652381Y-110642857D02*
X164176190Y-110976191D01*
X164652381Y-111214286D02*
X163652381Y-111214286D01*
X163652381Y-110833333D01*
X163700000Y-110738095D01*
X163747619Y-110690476D01*
X163842857Y-110642857D01*
X163985714Y-110642857D01*
X164080952Y-110690476D01*
X164128571Y-110738095D01*
X164176190Y-110833333D01*
X164176190Y-111214286D01*
X164652381Y-109690476D02*
X164652381Y-110261905D01*
X164652381Y-109976191D02*
X163652381Y-109976191D01*
X163795238Y-110071429D01*
X163890476Y-110166667D01*
X163938095Y-110261905D01*
X163652381Y-109071429D02*
X163652381Y-108976190D01*
X163700000Y-108880952D01*
X163747619Y-108833333D01*
X163842857Y-108785714D01*
X164033333Y-108738095D01*
X164271429Y-108738095D01*
X164461905Y-108785714D01*
X164557143Y-108833333D01*
X164604762Y-108880952D01*
X164652381Y-108976190D01*
X164652381Y-109071429D01*
X164604762Y-109166667D01*
X164557143Y-109214286D01*
X164461905Y-109261905D01*
X164271429Y-109309524D01*
X164033333Y-109309524D01*
X163842857Y-109261905D01*
X163747619Y-109214286D01*
X163700000Y-109166667D01*
X163652381Y-109071429D01*
X171152381Y-106642857D02*
X170676190Y-106976191D01*
X171152381Y-107214286D02*
X170152381Y-107214286D01*
X170152381Y-106833333D01*
X170200000Y-106738095D01*
X170247619Y-106690476D01*
X170342857Y-106642857D01*
X170485714Y-106642857D01*
X170580952Y-106690476D01*
X170628571Y-106738095D01*
X170676190Y-106833333D01*
X170676190Y-107214286D01*
X171152381Y-105690476D02*
X171152381Y-106261905D01*
X171152381Y-105976191D02*
X170152381Y-105976191D01*
X170295238Y-106071429D01*
X170390476Y-106166667D01*
X170438095Y-106261905D01*
X170247619Y-105309524D02*
X170200000Y-105261905D01*
X170152381Y-105166667D01*
X170152381Y-104928571D01*
X170200000Y-104833333D01*
X170247619Y-104785714D01*
X170342857Y-104738095D01*
X170438095Y-104738095D01*
X170580952Y-104785714D01*
X171152381Y-105357143D01*
X171152381Y-104738095D01*
X171252381Y-110642857D02*
X170776190Y-110976191D01*
X171252381Y-111214286D02*
X170252381Y-111214286D01*
X170252381Y-110833333D01*
X170300000Y-110738095D01*
X170347619Y-110690476D01*
X170442857Y-110642857D01*
X170585714Y-110642857D01*
X170680952Y-110690476D01*
X170728571Y-110738095D01*
X170776190Y-110833333D01*
X170776190Y-111214286D01*
X171252381Y-109690476D02*
X171252381Y-110261905D01*
X171252381Y-109976191D02*
X170252381Y-109976191D01*
X170395238Y-110071429D01*
X170490476Y-110166667D01*
X170538095Y-110261905D01*
X170585714Y-108833333D02*
X171252381Y-108833333D01*
X170204762Y-109071429D02*
X170919048Y-109309524D01*
X170919048Y-108690476D01*
X167252381Y-107642857D02*
X166776190Y-107976191D01*
X167252381Y-108214286D02*
X166252381Y-108214286D01*
X166252381Y-107833333D01*
X166300000Y-107738095D01*
X166347619Y-107690476D01*
X166442857Y-107642857D01*
X166585714Y-107642857D01*
X166680952Y-107690476D01*
X166728571Y-107738095D01*
X166776190Y-107833333D01*
X166776190Y-108214286D01*
X167252381Y-106690476D02*
X167252381Y-107261905D01*
X167252381Y-106976191D02*
X166252381Y-106976191D01*
X166395238Y-107071429D01*
X166490476Y-107166667D01*
X166538095Y-107261905D01*
X166252381Y-105785714D02*
X166252381Y-106261905D01*
X166728571Y-106309524D01*
X166680952Y-106261905D01*
X166633333Y-106166667D01*
X166633333Y-105928571D01*
X166680952Y-105833333D01*
X166728571Y-105785714D01*
X166823810Y-105738095D01*
X167061905Y-105738095D01*
X167157143Y-105785714D01*
X167204762Y-105833333D01*
X167252381Y-105928571D01*
X167252381Y-106166667D01*
X167204762Y-106261905D01*
X167157143Y-106309524D01*
X170652381Y-110642857D02*
X170176190Y-110976191D01*
X170652381Y-111214286D02*
X169652381Y-111214286D01*
X169652381Y-110833333D01*
X169700000Y-110738095D01*
X169747619Y-110690476D01*
X169842857Y-110642857D01*
X169985714Y-110642857D01*
X170080952Y-110690476D01*
X170128571Y-110738095D01*
X170176190Y-110833333D01*
X170176190Y-111214286D01*
X170652381Y-109690476D02*
X170652381Y-110261905D01*
X170652381Y-109976191D02*
X169652381Y-109976191D01*
X169795238Y-110071429D01*
X169890476Y-110166667D01*
X169938095Y-110261905D01*
X169652381Y-108833333D02*
X169652381Y-109023810D01*
X169700000Y-109119048D01*
X169747619Y-109166667D01*
X169890476Y-109261905D01*
X170080952Y-109309524D01*
X170461905Y-109309524D01*
X170557143Y-109261905D01*
X170604762Y-109214286D01*
X170652381Y-109119048D01*
X170652381Y-108928571D01*
X170604762Y-108833333D01*
X170557143Y-108785714D01*
X170461905Y-108738095D01*
X170223810Y-108738095D01*
X170128571Y-108785714D01*
X170080952Y-108833333D01*
X170033333Y-108928571D01*
X170033333Y-109119048D01*
X170080952Y-109214286D01*
X170128571Y-109261905D01*
X170223810Y-109309524D01*
X133252381Y-110642857D02*
X132776190Y-110976191D01*
X133252381Y-111214286D02*
X132252381Y-111214286D01*
X132252381Y-110833333D01*
X132300000Y-110738095D01*
X132347619Y-110690476D01*
X132442857Y-110642857D01*
X132585714Y-110642857D01*
X132680952Y-110690476D01*
X132728571Y-110738095D01*
X132776190Y-110833333D01*
X132776190Y-111214286D01*
X132347619Y-110261905D02*
X132300000Y-110214286D01*
X132252381Y-110119048D01*
X132252381Y-109880952D01*
X132300000Y-109785714D01*
X132347619Y-109738095D01*
X132442857Y-109690476D01*
X132538095Y-109690476D01*
X132680952Y-109738095D01*
X133252381Y-110309524D01*
X133252381Y-109690476D01*
X132252381Y-109071429D02*
X132252381Y-108976190D01*
X132300000Y-108880952D01*
X132347619Y-108833333D01*
X132442857Y-108785714D01*
X132633333Y-108738095D01*
X132871429Y-108738095D01*
X133061905Y-108785714D01*
X133157143Y-108833333D01*
X133204762Y-108880952D01*
X133252381Y-108976190D01*
X133252381Y-109071429D01*
X133204762Y-109166667D01*
X133157143Y-109214286D01*
X133061905Y-109261905D01*
X132871429Y-109309524D01*
X132633333Y-109309524D01*
X132442857Y-109261905D01*
X132347619Y-109214286D01*
X132300000Y-109166667D01*
X132252381Y-109071429D01*
X129252381Y-107642857D02*
X128776190Y-107976191D01*
X129252381Y-108214286D02*
X128252381Y-108214286D01*
X128252381Y-107833333D01*
X128300000Y-107738095D01*
X128347619Y-107690476D01*
X128442857Y-107642857D01*
X128585714Y-107642857D01*
X128680952Y-107690476D01*
X128728571Y-107738095D01*
X128776190Y-107833333D01*
X128776190Y-108214286D01*
X128347619Y-107261905D02*
X128300000Y-107214286D01*
X128252381Y-107119048D01*
X128252381Y-106880952D01*
X128300000Y-106785714D01*
X128347619Y-106738095D01*
X128442857Y-106690476D01*
X128538095Y-106690476D01*
X128680952Y-106738095D01*
X129252381Y-107309524D01*
X129252381Y-106690476D01*
X129252381Y-105738095D02*
X129252381Y-106309524D01*
X129252381Y-106023810D02*
X128252381Y-106023810D01*
X128395238Y-106119048D01*
X128490476Y-106214286D01*
X128538095Y-106309524D01*
X132652381Y-110642857D02*
X132176190Y-110976191D01*
X132652381Y-111214286D02*
X131652381Y-111214286D01*
X131652381Y-110833333D01*
X131700000Y-110738095D01*
X131747619Y-110690476D01*
X131842857Y-110642857D01*
X131985714Y-110642857D01*
X132080952Y-110690476D01*
X132128571Y-110738095D01*
X132176190Y-110833333D01*
X132176190Y-111214286D01*
X131747619Y-110261905D02*
X131700000Y-110214286D01*
X131652381Y-110119048D01*
X131652381Y-109880952D01*
X131700000Y-109785714D01*
X131747619Y-109738095D01*
X131842857Y-109690476D01*
X131938095Y-109690476D01*
X132080952Y-109738095D01*
X132652381Y-110309524D01*
X132652381Y-109690476D01*
X131747619Y-109309524D02*
X131700000Y-109261905D01*
X131652381Y-109166667D01*
X131652381Y-108928571D01*
X131700000Y-108833333D01*
X131747619Y-108785714D01*
X131842857Y-108738095D01*
X131938095Y-108738095D01*
X132080952Y-108785714D01*
X132652381Y-109357143D01*
X132652381Y-108738095D01*
X133152381Y-106642857D02*
X132676190Y-106976191D01*
X133152381Y-107214286D02*
X132152381Y-107214286D01*
X132152381Y-106833333D01*
X132200000Y-106738095D01*
X132247619Y-106690476D01*
X132342857Y-106642857D01*
X132485714Y-106642857D01*
X132580952Y-106690476D01*
X132628571Y-106738095D01*
X132676190Y-106833333D01*
X132676190Y-107214286D01*
X133152381Y-105690476D02*
X133152381Y-106261905D01*
X133152381Y-105976191D02*
X132152381Y-105976191D01*
X132295238Y-106071429D01*
X132390476Y-106166667D01*
X132438095Y-106261905D01*
X132580952Y-105119048D02*
X132533333Y-105214286D01*
X132485714Y-105261905D01*
X132390476Y-105309524D01*
X132342857Y-105309524D01*
X132247619Y-105261905D01*
X132200000Y-105214286D01*
X132152381Y-105119048D01*
X132152381Y-104928571D01*
X132200000Y-104833333D01*
X132247619Y-104785714D01*
X132342857Y-104738095D01*
X132390476Y-104738095D01*
X132485714Y-104785714D01*
X132533333Y-104833333D01*
X132580952Y-104928571D01*
X132580952Y-105119048D01*
X132628571Y-105214286D01*
X132676190Y-105261905D01*
X132771429Y-105309524D01*
X132961905Y-105309524D01*
X133057143Y-105261905D01*
X133104762Y-105214286D01*
X133152381Y-105119048D01*
X133152381Y-104928571D01*
X133104762Y-104833333D01*
X133057143Y-104785714D01*
X132961905Y-104738095D01*
X132771429Y-104738095D01*
X132676190Y-104785714D01*
X132628571Y-104833333D01*
X132580952Y-104928571D01*
X125285714Y-111952381D02*
X125285714Y-110952381D01*
X125666667Y-110952381D01*
X125761905Y-111000000D01*
X125809524Y-111047619D01*
X125857143Y-111142857D01*
X125857143Y-111285714D01*
X125809524Y-111380952D01*
X125761905Y-111428571D01*
X125666667Y-111476190D01*
X125285714Y-111476190D01*
X126809524Y-111952381D02*
X126238095Y-111952381D01*
X126523809Y-111952381D02*
X126523809Y-110952381D01*
X126428571Y-111095238D01*
X126333333Y-111190476D01*
X126238095Y-111238095D01*
X127761905Y-111952381D02*
X127190476Y-111952381D01*
X127476190Y-111952381D02*
X127476190Y-110952381D01*
X127380952Y-111095238D01*
X127285714Y-111190476D01*
X127190476Y-111238095D01*
X169761905Y-111952381D02*
X169761905Y-110952381D01*
X170142858Y-110952381D01*
X170238096Y-111000000D01*
X170285715Y-111047619D01*
X170333334Y-111142857D01*
X170333334Y-111285714D01*
X170285715Y-111380952D01*
X170238096Y-111428571D01*
X170142858Y-111476190D01*
X169761905Y-111476190D01*
X170666667Y-110952381D02*
X171333334Y-110952381D01*
X170904762Y-111952381D01*
X163761905Y-111952381D02*
X163761905Y-110952381D01*
X164142858Y-110952381D01*
X164238096Y-111000000D01*
X164285715Y-111047619D01*
X164333334Y-111142857D01*
X164333334Y-111285714D01*
X164285715Y-111380952D01*
X164238096Y-111428571D01*
X164142858Y-111476190D01*
X163761905Y-111476190D01*
X165238096Y-110952381D02*
X164761905Y-110952381D01*
X164714286Y-111428571D01*
X164761905Y-111380952D01*
X164857143Y-111333333D01*
X165095239Y-111333333D01*
X165190477Y-111380952D01*
X165238096Y-111428571D01*
X165285715Y-111523810D01*
X165285715Y-111761905D01*
X165238096Y-111857143D01*
X165190477Y-111904762D01*
X165095239Y-111952381D01*
X164857143Y-111952381D01*
X164761905Y-111904762D01*
X164714286Y-111857143D01*
X131761905Y-111952381D02*
X131761905Y-110952381D01*
X132142858Y-110952381D01*
X132238096Y-111000000D01*
X132285715Y-111047619D01*
X132333334Y-111142857D01*
X132333334Y-111285714D01*
X132285715Y-111380952D01*
X132238096Y-111428571D01*
X132142858Y-111476190D01*
X131761905Y-111476190D01*
X132809524Y-111952381D02*
X133000000Y-111952381D01*
X133095239Y-111904762D01*
X133142858Y-111857143D01*
X133238096Y-111714286D01*
X133285715Y-111523810D01*
X133285715Y-111142857D01*
X133238096Y-111047619D01*
X133190477Y-111000000D01*
X133095239Y-110952381D01*
X132904762Y-110952381D01*
X132809524Y-111000000D01*
X132761905Y-111047619D01*
X132714286Y-111142857D01*
X132714286Y-111380952D01*
X132761905Y-111476190D01*
X132809524Y-111523810D01*
X132904762Y-111571429D01*
X133095239Y-111571429D01*
X133190477Y-111523810D01*
X133238096Y-111476190D01*
X133285715Y-111380952D01*
X161607739Y-96809743D02*
X161781387Y-95824936D01*
X162156553Y-95891088D01*
X162242075Y-95954521D01*
X162280702Y-96009685D01*
X162311059Y-96111746D01*
X162286252Y-96252432D01*
X162222819Y-96337954D01*
X162167654Y-96376581D01*
X162065594Y-96406939D01*
X161690429Y-96340787D01*
X162832461Y-96445451D02*
X162746939Y-96382017D01*
X162708312Y-96326853D01*
X162677955Y-96224793D01*
X162686224Y-96177897D01*
X162749657Y-96092375D01*
X162804822Y-96053748D01*
X162906882Y-96023391D01*
X163094465Y-96056467D01*
X163179987Y-96119900D01*
X163218614Y-96175065D01*
X163248971Y-96277125D01*
X163240703Y-96324020D01*
X163177269Y-96409543D01*
X163122105Y-96448169D01*
X163020044Y-96478527D01*
X162832461Y-96445451D01*
X162730401Y-96475808D01*
X162675237Y-96514435D01*
X162611803Y-96599958D01*
X162578727Y-96787540D01*
X162609085Y-96889601D01*
X162647711Y-96944765D01*
X162733234Y-97008198D01*
X162920817Y-97041274D01*
X163022877Y-97010917D01*
X163078041Y-96972290D01*
X163141475Y-96886768D01*
X163174551Y-96699186D01*
X163144193Y-96597125D01*
X163105567Y-96541960D01*
X163020044Y-96478527D01*
X154351229Y-87969541D02*
X155336037Y-87795893D01*
X155402189Y-88171058D01*
X155371831Y-88273118D01*
X155333204Y-88328283D01*
X155247682Y-88391716D01*
X155106996Y-88416523D01*
X155004935Y-88386165D01*
X154949771Y-88347539D01*
X154886338Y-88262017D01*
X154820186Y-87886851D01*
X154615836Y-89470201D02*
X154516608Y-88907453D01*
X154566222Y-89188826D02*
X155551030Y-89015178D01*
X155393805Y-88946194D01*
X155283476Y-88868941D01*
X155220043Y-88783419D01*
X155708140Y-89906195D02*
X155724678Y-89999987D01*
X155694321Y-90102047D01*
X155655694Y-90157212D01*
X155570172Y-90220645D01*
X155390858Y-90300616D01*
X155156380Y-90341961D01*
X154960528Y-90328142D01*
X154858468Y-90297784D01*
X154803304Y-90259157D01*
X154739870Y-90173635D01*
X154723332Y-90079843D01*
X154753690Y-89977783D01*
X154792317Y-89922618D01*
X154877839Y-89859185D01*
X155057152Y-89779214D01*
X155291631Y-89737869D01*
X155487482Y-89751688D01*
X155589542Y-89782046D01*
X155644707Y-89820673D01*
X155708140Y-89906195D01*
X142309743Y-89892261D02*
X141324936Y-89718613D01*
X141391088Y-89343447D01*
X141454521Y-89257925D01*
X141509685Y-89219298D01*
X141611746Y-89188941D01*
X141752432Y-89213748D01*
X141837954Y-89277181D01*
X141876581Y-89332346D01*
X141906939Y-89434406D01*
X141840787Y-89809571D01*
X141901274Y-88369627D02*
X142557812Y-88485392D01*
X141484764Y-88537954D02*
X142146854Y-88896466D01*
X142254350Y-88286823D01*
X133938497Y-97066081D02*
X133764849Y-96081273D01*
X134140015Y-96015122D01*
X134242075Y-96045479D01*
X134297239Y-96084106D01*
X134360673Y-96169628D01*
X134385480Y-96310315D01*
X134355122Y-96412375D01*
X134316495Y-96467539D01*
X134230973Y-96530973D01*
X133855808Y-96597125D01*
X135171718Y-95833204D02*
X134984135Y-95866280D01*
X134898613Y-95929714D01*
X134859986Y-95984878D01*
X134791002Y-96142103D01*
X134777182Y-96337954D01*
X134843334Y-96713120D01*
X134906767Y-96798642D01*
X134961932Y-96837268D01*
X135063992Y-96867626D01*
X135251575Y-96834550D01*
X135337097Y-96771117D01*
X135375724Y-96715952D01*
X135406082Y-96613892D01*
X135364737Y-96379414D01*
X135301303Y-96293891D01*
X135246139Y-96255265D01*
X135144079Y-96224907D01*
X134956495Y-96257983D01*
X134870973Y-96321416D01*
X134832347Y-96376581D01*
X134801989Y-96478642D01*
X148702381Y-114363095D02*
X147702381Y-114363095D01*
X147702381Y-113982142D01*
X147750000Y-113886904D01*
X147797619Y-113839285D01*
X147892857Y-113791666D01*
X148035714Y-113791666D01*
X148130952Y-113839285D01*
X148178571Y-113886904D01*
X148226190Y-113982142D01*
X148226190Y-114363095D01*
X147702381Y-113458333D02*
X147702381Y-112839285D01*
X148083333Y-113172619D01*
X148083333Y-113029761D01*
X148130952Y-112934523D01*
X148178571Y-112886904D01*
X148273810Y-112839285D01*
X148511905Y-112839285D01*
X148607143Y-112886904D01*
X148654762Y-112934523D01*
X148702381Y-113029761D01*
X148702381Y-113315476D01*
X148654762Y-113410714D01*
X148607143Y-113458333D01*
X147261905Y-109452381D02*
X147261905Y-110261905D01*
X147309524Y-110357143D01*
X147357143Y-110404762D01*
X147452381Y-110452381D01*
X147642858Y-110452381D01*
X147738096Y-110404762D01*
X147785715Y-110357143D01*
X147833334Y-110261905D01*
X147833334Y-109452381D01*
X148833334Y-110452381D02*
X148261905Y-110452381D01*
X148547619Y-110452381D02*
X148547619Y-109452381D01*
X148452381Y-109595238D01*
X148357143Y-109690476D01*
X148261905Y-109738095D01*
X149452381Y-109452381D02*
X149547620Y-109452381D01*
X149642858Y-109500000D01*
X149690477Y-109547619D01*
X149738096Y-109642857D01*
X149785715Y-109833333D01*
X149785715Y-110071429D01*
X149738096Y-110261905D01*
X149690477Y-110357143D01*
X149642858Y-110404762D01*
X149547620Y-110452381D01*
X149452381Y-110452381D01*
X149357143Y-110404762D01*
X149309524Y-110357143D01*
X149261905Y-110261905D01*
X149214286Y-110071429D01*
X149214286Y-109833333D01*
X149261905Y-109642857D01*
X149309524Y-109547619D01*
X149357143Y-109500000D01*
X149452381Y-109452381D01*
X145132381Y-121761905D02*
X145941905Y-121761905D01*
X146037143Y-121714286D01*
X146084762Y-121666667D01*
X146132381Y-121571429D01*
X146132381Y-121380952D01*
X146084762Y-121285714D01*
X146037143Y-121238095D01*
X145941905Y-121190476D01*
X145132381Y-121190476D01*
X145132381Y-120809524D02*
X145132381Y-120190476D01*
X145513333Y-120523810D01*
X145513333Y-120380952D01*
X145560952Y-120285714D01*
X145608571Y-120238095D01*
X145703810Y-120190476D01*
X145941905Y-120190476D01*
X146037143Y-120238095D01*
X146084762Y-120285714D01*
X146132381Y-120380952D01*
X146132381Y-120666667D01*
X146084762Y-120761905D01*
X146037143Y-120809524D01*
X154333334Y-119807143D02*
X154285715Y-119854762D01*
X154142858Y-119902381D01*
X154047620Y-119902381D01*
X153904762Y-119854762D01*
X153809524Y-119759524D01*
X153761905Y-119664286D01*
X153714286Y-119473810D01*
X153714286Y-119330952D01*
X153761905Y-119140476D01*
X153809524Y-119045238D01*
X153904762Y-118950000D01*
X154047620Y-118902381D01*
X154142858Y-118902381D01*
X154285715Y-118950000D01*
X154333334Y-118997619D01*
X154714286Y-118997619D02*
X154761905Y-118950000D01*
X154857143Y-118902381D01*
X155095239Y-118902381D01*
X155190477Y-118950000D01*
X155238096Y-118997619D01*
X155285715Y-119092857D01*
X155285715Y-119188095D01*
X155238096Y-119330952D01*
X154666667Y-119902381D01*
X155285715Y-119902381D01*
X153333334Y-126857143D02*
X153285715Y-126904762D01*
X153142858Y-126952381D01*
X153047620Y-126952381D01*
X152904762Y-126904762D01*
X152809524Y-126809524D01*
X152761905Y-126714286D01*
X152714286Y-126523810D01*
X152714286Y-126380952D01*
X152761905Y-126190476D01*
X152809524Y-126095238D01*
X152904762Y-126000000D01*
X153047620Y-125952381D01*
X153142858Y-125952381D01*
X153285715Y-126000000D01*
X153333334Y-126047619D01*
X153666667Y-125952381D02*
X154285715Y-125952381D01*
X153952381Y-126333333D01*
X154095239Y-126333333D01*
X154190477Y-126380952D01*
X154238096Y-126428571D01*
X154285715Y-126523810D01*
X154285715Y-126761905D01*
X154238096Y-126857143D01*
X154190477Y-126904762D01*
X154095239Y-126952381D01*
X153809524Y-126952381D01*
X153714286Y-126904762D01*
X153666667Y-126857143D01*
X152407143Y-122916666D02*
X152454762Y-122964285D01*
X152502381Y-123107142D01*
X152502381Y-123202380D01*
X152454762Y-123345238D01*
X152359524Y-123440476D01*
X152264286Y-123488095D01*
X152073810Y-123535714D01*
X151930952Y-123535714D01*
X151740476Y-123488095D01*
X151645238Y-123440476D01*
X151550000Y-123345238D01*
X151502381Y-123202380D01*
X151502381Y-123107142D01*
X151550000Y-122964285D01*
X151597619Y-122916666D01*
X151502381Y-122583333D02*
X151502381Y-121916666D01*
X152502381Y-122345238D01*
X158333334Y-121657143D02*
X158285715Y-121704762D01*
X158142858Y-121752381D01*
X158047620Y-121752381D01*
X157904762Y-121704762D01*
X157809524Y-121609524D01*
X157761905Y-121514286D01*
X157714286Y-121323810D01*
X157714286Y-121180952D01*
X157761905Y-120990476D01*
X157809524Y-120895238D01*
X157904762Y-120800000D01*
X158047620Y-120752381D01*
X158142858Y-120752381D01*
X158285715Y-120800000D01*
X158333334Y-120847619D01*
X158904762Y-121180952D02*
X158809524Y-121133333D01*
X158761905Y-121085714D01*
X158714286Y-120990476D01*
X158714286Y-120942857D01*
X158761905Y-120847619D01*
X158809524Y-120800000D01*
X158904762Y-120752381D01*
X159095239Y-120752381D01*
X159190477Y-120800000D01*
X159238096Y-120847619D01*
X159285715Y-120942857D01*
X159285715Y-120990476D01*
X159238096Y-121085714D01*
X159190477Y-121133333D01*
X159095239Y-121180952D01*
X158904762Y-121180952D01*
X158809524Y-121228571D01*
X158761905Y-121276190D01*
X158714286Y-121371429D01*
X158714286Y-121561905D01*
X158761905Y-121657143D01*
X158809524Y-121704762D01*
X158904762Y-121752381D01*
X159095239Y-121752381D01*
X159190477Y-121704762D01*
X159238096Y-121657143D01*
X159285715Y-121561905D01*
X159285715Y-121371429D01*
X159238096Y-121276190D01*
X159190477Y-121228571D01*
X159095239Y-121180952D01*
X139157143Y-110142857D02*
X139204762Y-110190476D01*
X139252381Y-110333333D01*
X139252381Y-110428571D01*
X139204762Y-110571429D01*
X139109524Y-110666667D01*
X139014286Y-110714286D01*
X138823810Y-110761905D01*
X138680952Y-110761905D01*
X138490476Y-110714286D01*
X138395238Y-110666667D01*
X138300000Y-110571429D01*
X138252381Y-110428571D01*
X138252381Y-110333333D01*
X138300000Y-110190476D01*
X138347619Y-110142857D01*
X139252381Y-109190476D02*
X139252381Y-109761905D01*
X139252381Y-109476191D02*
X138252381Y-109476191D01*
X138395238Y-109571429D01*
X138490476Y-109666667D01*
X138538095Y-109761905D01*
X138252381Y-108571429D02*
X138252381Y-108476190D01*
X138300000Y-108380952D01*
X138347619Y-108333333D01*
X138442857Y-108285714D01*
X138633333Y-108238095D01*
X138871429Y-108238095D01*
X139061905Y-108285714D01*
X139157143Y-108333333D01*
X139204762Y-108380952D01*
X139252381Y-108476190D01*
X139252381Y-108571429D01*
X139204762Y-108666667D01*
X139157143Y-108714286D01*
X139061905Y-108761905D01*
X138871429Y-108809524D01*
X138633333Y-108809524D01*
X138442857Y-108761905D01*
X138347619Y-108714286D01*
X138300000Y-108666667D01*
X138252381Y-108571429D01*
X145557143Y-90642857D02*
X145604762Y-90690476D01*
X145652381Y-90833333D01*
X145652381Y-90928571D01*
X145604762Y-91071429D01*
X145509524Y-91166667D01*
X145414286Y-91214286D01*
X145223810Y-91261905D01*
X145080952Y-91261905D01*
X144890476Y-91214286D01*
X144795238Y-91166667D01*
X144700000Y-91071429D01*
X144652381Y-90928571D01*
X144652381Y-90833333D01*
X144700000Y-90690476D01*
X144747619Y-90642857D01*
X145652381Y-89690476D02*
X145652381Y-90261905D01*
X145652381Y-89976191D02*
X144652381Y-89976191D01*
X144795238Y-90071429D01*
X144890476Y-90166667D01*
X144938095Y-90261905D01*
X145652381Y-88738095D02*
X145652381Y-89309524D01*
X145652381Y-89023810D02*
X144652381Y-89023810D01*
X144795238Y-89119048D01*
X144890476Y-89214286D01*
X144938095Y-89309524D01*
X150657143Y-91642857D02*
X150704762Y-91690476D01*
X150752381Y-91833333D01*
X150752381Y-91928571D01*
X150704762Y-92071429D01*
X150609524Y-92166667D01*
X150514286Y-92214286D01*
X150323810Y-92261905D01*
X150180952Y-92261905D01*
X149990476Y-92214286D01*
X149895238Y-92166667D01*
X149800000Y-92071429D01*
X149752381Y-91928571D01*
X149752381Y-91833333D01*
X149800000Y-91690476D01*
X149847619Y-91642857D01*
X150752381Y-90690476D02*
X150752381Y-91261905D01*
X150752381Y-90976191D02*
X149752381Y-90976191D01*
X149895238Y-91071429D01*
X149990476Y-91166667D01*
X150038095Y-91261905D01*
X149847619Y-90309524D02*
X149800000Y-90261905D01*
X149752381Y-90166667D01*
X149752381Y-89928571D01*
X149800000Y-89833333D01*
X149847619Y-89785714D01*
X149942857Y-89738095D01*
X150038095Y-89738095D01*
X150180952Y-89785714D01*
X150752381Y-90357143D01*
X150752381Y-89738095D01*
X152157143Y-91642857D02*
X152204762Y-91690476D01*
X152252381Y-91833333D01*
X152252381Y-91928571D01*
X152204762Y-92071429D01*
X152109524Y-92166667D01*
X152014286Y-92214286D01*
X151823810Y-92261905D01*
X151680952Y-92261905D01*
X151490476Y-92214286D01*
X151395238Y-92166667D01*
X151300000Y-92071429D01*
X151252381Y-91928571D01*
X151252381Y-91833333D01*
X151300000Y-91690476D01*
X151347619Y-91642857D01*
X152252381Y-90690476D02*
X152252381Y-91261905D01*
X152252381Y-90976191D02*
X151252381Y-90976191D01*
X151395238Y-91071429D01*
X151490476Y-91166667D01*
X151538095Y-91261905D01*
X151252381Y-90357143D02*
X151252381Y-89738095D01*
X151633333Y-90071429D01*
X151633333Y-89928571D01*
X151680952Y-89833333D01*
X151728571Y-89785714D01*
X151823810Y-89738095D01*
X152061905Y-89738095D01*
X152157143Y-89785714D01*
X152204762Y-89833333D01*
X152252381Y-89928571D01*
X152252381Y-90214286D01*
X152204762Y-90309524D01*
X152157143Y-90357143D01*
X147761905Y-91652381D02*
X147761905Y-90652381D01*
X148000000Y-90652381D01*
X148142858Y-90700000D01*
X148238096Y-90795238D01*
X148285715Y-90890476D01*
X148333334Y-91080952D01*
X148333334Y-91223810D01*
X148285715Y-91414286D01*
X148238096Y-91509524D01*
X148142858Y-91604762D01*
X148000000Y-91652381D01*
X147761905Y-91652381D01*
X149285715Y-91652381D02*
X148714286Y-91652381D01*
X149000000Y-91652381D02*
X149000000Y-90652381D01*
X148904762Y-90795238D01*
X148809524Y-90890476D01*
X148714286Y-90938095D01*
X154752381Y-87214286D02*
X153752381Y-87214286D01*
X153752381Y-86976191D01*
X153800000Y-86833333D01*
X153895238Y-86738095D01*
X153990476Y-86690476D01*
X154180952Y-86642857D01*
X154323810Y-86642857D01*
X154514286Y-86690476D01*
X154609524Y-86738095D01*
X154704762Y-86833333D01*
X154752381Y-86976191D01*
X154752381Y-87214286D01*
X154752381Y-85690476D02*
X154752381Y-86261905D01*
X154752381Y-85976191D02*
X153752381Y-85976191D01*
X153895238Y-86071429D01*
X153990476Y-86166667D01*
X154038095Y-86261905D01*
X153752381Y-85071429D02*
X153752381Y-84976190D01*
X153800000Y-84880952D01*
X153847619Y-84833333D01*
X153942857Y-84785714D01*
X154133333Y-84738095D01*
X154371429Y-84738095D01*
X154561905Y-84785714D01*
X154657143Y-84833333D01*
X154704762Y-84880952D01*
X154752381Y-84976190D01*
X154752381Y-85071429D01*
X154704762Y-85166667D01*
X154657143Y-85214286D01*
X154561905Y-85261905D01*
X154371429Y-85309524D01*
X154133333Y-85309524D01*
X153942857Y-85261905D01*
X153847619Y-85214286D01*
X153800000Y-85166667D01*
X153752381Y-85071429D01*
X150752381Y-87214286D02*
X149752381Y-87214286D01*
X149752381Y-86976191D01*
X149800000Y-86833333D01*
X149895238Y-86738095D01*
X149990476Y-86690476D01*
X150180952Y-86642857D01*
X150323810Y-86642857D01*
X150514286Y-86690476D01*
X150609524Y-86738095D01*
X150704762Y-86833333D01*
X150752381Y-86976191D01*
X150752381Y-87214286D01*
X150752381Y-85690476D02*
X150752381Y-86261905D01*
X150752381Y-85976191D02*
X149752381Y-85976191D01*
X149895238Y-86071429D01*
X149990476Y-86166667D01*
X150038095Y-86261905D01*
X150752381Y-84738095D02*
X150752381Y-85309524D01*
X150752381Y-85023810D02*
X149752381Y-85023810D01*
X149895238Y-85119048D01*
X149990476Y-85214286D01*
X150038095Y-85309524D01*
X146752381Y-87214286D02*
X145752381Y-87214286D01*
X145752381Y-86976191D01*
X145800000Y-86833333D01*
X145895238Y-86738095D01*
X145990476Y-86690476D01*
X146180952Y-86642857D01*
X146323810Y-86642857D01*
X146514286Y-86690476D01*
X146609524Y-86738095D01*
X146704762Y-86833333D01*
X146752381Y-86976191D01*
X146752381Y-87214286D01*
X146752381Y-85690476D02*
X146752381Y-86261905D01*
X146752381Y-85976191D02*
X145752381Y-85976191D01*
X145895238Y-86071429D01*
X145990476Y-86166667D01*
X146038095Y-86261905D01*
X145847619Y-85309524D02*
X145800000Y-85261905D01*
X145752381Y-85166667D01*
X145752381Y-84928571D01*
X145800000Y-84833333D01*
X145847619Y-84785714D01*
X145942857Y-84738095D01*
X146038095Y-84738095D01*
X146180952Y-84785714D01*
X146752381Y-85357143D01*
X146752381Y-84738095D01*
X138952381Y-110738095D02*
X137952381Y-110738095D01*
X137952381Y-110357142D01*
X138000000Y-110261904D01*
X138047619Y-110214285D01*
X138142857Y-110166666D01*
X138285714Y-110166666D01*
X138380952Y-110214285D01*
X138428571Y-110261904D01*
X138476190Y-110357142D01*
X138476190Y-110738095D01*
X138952381Y-109214285D02*
X138952381Y-109785714D01*
X138952381Y-109500000D02*
X137952381Y-109500000D01*
X138095238Y-109595238D01*
X138190476Y-109690476D01*
X138238095Y-109785714D01*
X138952381Y-113238095D02*
X137952381Y-113238095D01*
X137952381Y-112857142D01*
X138000000Y-112761904D01*
X138047619Y-112714285D01*
X138142857Y-112666666D01*
X138285714Y-112666666D01*
X138380952Y-112714285D01*
X138428571Y-112761904D01*
X138476190Y-112857142D01*
X138476190Y-113238095D01*
X138047619Y-112285714D02*
X138000000Y-112238095D01*
X137952381Y-112142857D01*
X137952381Y-111904761D01*
X138000000Y-111809523D01*
X138047619Y-111761904D01*
X138142857Y-111714285D01*
X138238095Y-111714285D01*
X138380952Y-111761904D01*
X138952381Y-112333333D01*
X138952381Y-111714285D01*
X142643233Y-97446279D02*
X141936126Y-96739172D01*
X142205500Y-96469797D01*
X142306516Y-96436126D01*
X142373859Y-96436126D01*
X142474874Y-96469797D01*
X142575889Y-96570812D01*
X142609561Y-96671828D01*
X142609561Y-96739171D01*
X142575889Y-96840186D01*
X142306515Y-97109561D01*
X143720729Y-96368782D02*
X143316668Y-96772843D01*
X143518698Y-96570813D02*
X142811591Y-95863706D01*
X142845263Y-96032065D01*
X142845263Y-96166752D01*
X142811591Y-96267767D01*
X143619714Y-95055584D02*
X143485026Y-95190271D01*
X143451355Y-95291286D01*
X143451355Y-95358630D01*
X143485026Y-95526989D01*
X143586042Y-95695347D01*
X143855416Y-95964722D01*
X143956431Y-95998393D01*
X144023775Y-95998393D01*
X144124790Y-95964722D01*
X144259477Y-95830034D01*
X144293149Y-95729019D01*
X144293149Y-95661675D01*
X144259477Y-95560660D01*
X144091119Y-95392302D01*
X143990103Y-95358629D01*
X143922759Y-95358629D01*
X143821744Y-95392301D01*
X143687057Y-95526989D01*
X143653385Y-95628004D01*
X143653385Y-95695347D01*
X143687057Y-95796363D01*
X136285714Y-100952381D02*
X136285714Y-99952381D01*
X136666667Y-99952381D01*
X136761905Y-100000000D01*
X136809524Y-100047619D01*
X136857143Y-100142857D01*
X136857143Y-100285714D01*
X136809524Y-100380952D01*
X136761905Y-100428571D01*
X136666667Y-100476190D01*
X136285714Y-100476190D01*
X137809524Y-100952381D02*
X137238095Y-100952381D01*
X137523809Y-100952381D02*
X137523809Y-99952381D01*
X137428571Y-100095238D01*
X137333333Y-100190476D01*
X137238095Y-100238095D01*
X138142857Y-99952381D02*
X138809524Y-99952381D01*
X138380952Y-100952381D01*
X157404762Y-97797619D02*
X157309524Y-97750000D01*
X157214286Y-97654762D01*
X157071429Y-97511905D01*
X156976190Y-97464286D01*
X156880952Y-97464286D01*
X156928571Y-97702381D02*
X156833333Y-97654762D01*
X156738095Y-97559524D01*
X156690476Y-97369048D01*
X156690476Y-97035714D01*
X156738095Y-96845238D01*
X156833333Y-96750000D01*
X156928571Y-96702381D01*
X157119048Y-96702381D01*
X157214286Y-96750000D01*
X157309524Y-96845238D01*
X157357143Y-97035714D01*
X157357143Y-97369048D01*
X157309524Y-97559524D01*
X157214286Y-97654762D01*
X157119048Y-97702381D01*
X156928571Y-97702381D01*
X158261905Y-96702381D02*
X157785714Y-96702381D01*
X157738095Y-97178571D01*
X157785714Y-97130952D01*
X157880952Y-97083333D01*
X158119048Y-97083333D01*
X158214286Y-97130952D01*
X158261905Y-97178571D01*
X158309524Y-97273810D01*
X158309524Y-97511905D01*
X158261905Y-97607143D01*
X158214286Y-97654762D01*
X158119048Y-97702381D01*
X157880952Y-97702381D01*
X157785714Y-97654762D01*
X157738095Y-97607143D01*
X135904762Y-101797619D02*
X135809524Y-101750000D01*
X135714286Y-101654762D01*
X135571429Y-101511905D01*
X135476190Y-101464286D01*
X135380952Y-101464286D01*
X135428571Y-101702381D02*
X135333333Y-101654762D01*
X135238095Y-101559524D01*
X135190476Y-101369048D01*
X135190476Y-101035714D01*
X135238095Y-100845238D01*
X135333333Y-100750000D01*
X135428571Y-100702381D01*
X135619048Y-100702381D01*
X135714286Y-100750000D01*
X135809524Y-100845238D01*
X135857143Y-101035714D01*
X135857143Y-101369048D01*
X135809524Y-101559524D01*
X135714286Y-101654762D01*
X135619048Y-101702381D01*
X135428571Y-101702381D01*
X136714286Y-100702381D02*
X136523809Y-100702381D01*
X136428571Y-100750000D01*
X136380952Y-100797619D01*
X136285714Y-100940476D01*
X136238095Y-101130952D01*
X136238095Y-101511905D01*
X136285714Y-101607143D01*
X136333333Y-101654762D01*
X136428571Y-101702381D01*
X136619048Y-101702381D01*
X136714286Y-101654762D01*
X136761905Y-101607143D01*
X136809524Y-101511905D01*
X136809524Y-101273810D01*
X136761905Y-101178571D01*
X136714286Y-101130952D01*
X136619048Y-101083333D01*
X136428571Y-101083333D01*
X136333333Y-101130952D01*
X136285714Y-101178571D01*
X136238095Y-101273810D01*
X147152381Y-89166666D02*
X146676190Y-89500000D01*
X147152381Y-89738095D02*
X146152381Y-89738095D01*
X146152381Y-89357142D01*
X146200000Y-89261904D01*
X146247619Y-89214285D01*
X146342857Y-89166666D01*
X146485714Y-89166666D01*
X146580952Y-89214285D01*
X146628571Y-89261904D01*
X146676190Y-89357142D01*
X146676190Y-89738095D01*
X146152381Y-88833333D02*
X146152381Y-88214285D01*
X146533333Y-88547619D01*
X146533333Y-88404761D01*
X146580952Y-88309523D01*
X146628571Y-88261904D01*
X146723810Y-88214285D01*
X146961905Y-88214285D01*
X147057143Y-88261904D01*
X147104762Y-88309523D01*
X147152381Y-88404761D01*
X147152381Y-88690476D01*
X147104762Y-88785714D01*
X147057143Y-88833333D01*
X150333334Y-95152381D02*
X150000000Y-94676190D01*
X149761905Y-95152381D02*
X149761905Y-94152381D01*
X150142858Y-94152381D01*
X150238096Y-94200000D01*
X150285715Y-94247619D01*
X150333334Y-94342857D01*
X150333334Y-94485714D01*
X150285715Y-94580952D01*
X150238096Y-94628571D01*
X150142858Y-94676190D01*
X149761905Y-94676190D01*
X151190477Y-94485714D02*
X151190477Y-95152381D01*
X150952381Y-94104762D02*
X150714286Y-94819048D01*
X151333334Y-94819048D01*
X147152381Y-91166666D02*
X146676190Y-91500000D01*
X147152381Y-91738095D02*
X146152381Y-91738095D01*
X146152381Y-91357142D01*
X146200000Y-91261904D01*
X146247619Y-91214285D01*
X146342857Y-91166666D01*
X146485714Y-91166666D01*
X146580952Y-91214285D01*
X146628571Y-91261904D01*
X146676190Y-91357142D01*
X146676190Y-91738095D01*
X146152381Y-90261904D02*
X146152381Y-90738095D01*
X146628571Y-90785714D01*
X146580952Y-90738095D01*
X146533333Y-90642857D01*
X146533333Y-90404761D01*
X146580952Y-90309523D01*
X146628571Y-90261904D01*
X146723810Y-90214285D01*
X146961905Y-90214285D01*
X147057143Y-90261904D01*
X147104762Y-90309523D01*
X147152381Y-90404761D01*
X147152381Y-90642857D01*
X147104762Y-90738095D01*
X147057143Y-90785714D01*
X152252381Y-88642857D02*
X151776190Y-88976191D01*
X152252381Y-89214286D02*
X151252381Y-89214286D01*
X151252381Y-88833333D01*
X151300000Y-88738095D01*
X151347619Y-88690476D01*
X151442857Y-88642857D01*
X151585714Y-88642857D01*
X151680952Y-88690476D01*
X151728571Y-88738095D01*
X151776190Y-88833333D01*
X151776190Y-89214286D01*
X151252381Y-88309524D02*
X151252381Y-87690476D01*
X151633333Y-88023810D01*
X151633333Y-87880952D01*
X151680952Y-87785714D01*
X151728571Y-87738095D01*
X151823810Y-87690476D01*
X152061905Y-87690476D01*
X152157143Y-87738095D01*
X152204762Y-87785714D01*
X152252381Y-87880952D01*
X152252381Y-88166667D01*
X152204762Y-88261905D01*
X152157143Y-88309524D01*
X151252381Y-87071429D02*
X151252381Y-86976190D01*
X151300000Y-86880952D01*
X151347619Y-86833333D01*
X151442857Y-86785714D01*
X151633333Y-86738095D01*
X151871429Y-86738095D01*
X152061905Y-86785714D01*
X152157143Y-86833333D01*
X152204762Y-86880952D01*
X152252381Y-86976190D01*
X152252381Y-87071429D01*
X152204762Y-87166667D01*
X152157143Y-87214286D01*
X152061905Y-87261905D01*
X151871429Y-87309524D01*
X151633333Y-87309524D01*
X151442857Y-87261905D01*
X151347619Y-87214286D01*
X151300000Y-87166667D01*
X151252381Y-87071429D01*
X149857143Y-89152381D02*
X149523809Y-88676190D01*
X149285714Y-89152381D02*
X149285714Y-88152381D01*
X149666667Y-88152381D01*
X149761905Y-88200000D01*
X149809524Y-88247619D01*
X149857143Y-88342857D01*
X149857143Y-88485714D01*
X149809524Y-88580952D01*
X149761905Y-88628571D01*
X149666667Y-88676190D01*
X149285714Y-88676190D01*
X150190476Y-88152381D02*
X150809524Y-88152381D01*
X150476190Y-88533333D01*
X150619048Y-88533333D01*
X150714286Y-88580952D01*
X150761905Y-88628571D01*
X150809524Y-88723810D01*
X150809524Y-88961905D01*
X150761905Y-89057143D01*
X150714286Y-89104762D01*
X150619048Y-89152381D01*
X150333333Y-89152381D01*
X150238095Y-89104762D01*
X150190476Y-89057143D01*
X151761905Y-89152381D02*
X151190476Y-89152381D01*
X151476190Y-89152381D02*
X151476190Y-88152381D01*
X151380952Y-88295238D01*
X151285714Y-88390476D01*
X151190476Y-88438095D01*
X142252381Y-88642857D02*
X141776190Y-88976191D01*
X142252381Y-89214286D02*
X141252381Y-89214286D01*
X141252381Y-88833333D01*
X141300000Y-88738095D01*
X141347619Y-88690476D01*
X141442857Y-88642857D01*
X141585714Y-88642857D01*
X141680952Y-88690476D01*
X141728571Y-88738095D01*
X141776190Y-88833333D01*
X141776190Y-89214286D01*
X141252381Y-88309524D02*
X141252381Y-87690476D01*
X141633333Y-88023810D01*
X141633333Y-87880952D01*
X141680952Y-87785714D01*
X141728571Y-87738095D01*
X141823810Y-87690476D01*
X142061905Y-87690476D01*
X142157143Y-87738095D01*
X142204762Y-87785714D01*
X142252381Y-87880952D01*
X142252381Y-88166667D01*
X142204762Y-88261905D01*
X142157143Y-88309524D01*
X141347619Y-87309524D02*
X141300000Y-87261905D01*
X141252381Y-87166667D01*
X141252381Y-86928571D01*
X141300000Y-86833333D01*
X141347619Y-86785714D01*
X141442857Y-86738095D01*
X141538095Y-86738095D01*
X141680952Y-86785714D01*
X142252381Y-87357143D01*
X142252381Y-86738095D01*
X156857143Y-94652381D02*
X156523809Y-94176190D01*
X156285714Y-94652381D02*
X156285714Y-93652381D01*
X156666667Y-93652381D01*
X156761905Y-93700000D01*
X156809524Y-93747619D01*
X156857143Y-93842857D01*
X156857143Y-93985714D01*
X156809524Y-94080952D01*
X156761905Y-94128571D01*
X156666667Y-94176190D01*
X156285714Y-94176190D01*
X157190476Y-93652381D02*
X157809524Y-93652381D01*
X157476190Y-94033333D01*
X157619048Y-94033333D01*
X157714286Y-94080952D01*
X157761905Y-94128571D01*
X157809524Y-94223810D01*
X157809524Y-94461905D01*
X157761905Y-94557143D01*
X157714286Y-94604762D01*
X157619048Y-94652381D01*
X157333333Y-94652381D01*
X157238095Y-94604762D01*
X157190476Y-94557143D01*
X158142857Y-93652381D02*
X158761905Y-93652381D01*
X158428571Y-94033333D01*
X158571429Y-94033333D01*
X158666667Y-94080952D01*
X158714286Y-94128571D01*
X158761905Y-94223810D01*
X158761905Y-94461905D01*
X158714286Y-94557143D01*
X158666667Y-94604762D01*
X158571429Y-94652381D01*
X158285714Y-94652381D01*
X158190476Y-94604762D01*
X158142857Y-94557143D01*
X140652381Y-100642857D02*
X140176190Y-100976191D01*
X140652381Y-101214286D02*
X139652381Y-101214286D01*
X139652381Y-100833333D01*
X139700000Y-100738095D01*
X139747619Y-100690476D01*
X139842857Y-100642857D01*
X139985714Y-100642857D01*
X140080952Y-100690476D01*
X140128571Y-100738095D01*
X140176190Y-100833333D01*
X140176190Y-101214286D01*
X139652381Y-100309524D02*
X139652381Y-99690476D01*
X140033333Y-100023810D01*
X140033333Y-99880952D01*
X140080952Y-99785714D01*
X140128571Y-99738095D01*
X140223810Y-99690476D01*
X140461905Y-99690476D01*
X140557143Y-99738095D01*
X140604762Y-99785714D01*
X140652381Y-99880952D01*
X140652381Y-100166667D01*
X140604762Y-100261905D01*
X140557143Y-100309524D01*
X139985714Y-98833333D02*
X140652381Y-98833333D01*
X139604762Y-99071429D02*
X140319048Y-99309524D01*
X140319048Y-98690476D01*
X156654762Y-100261905D02*
X156702381Y-100119048D01*
X156702381Y-99880952D01*
X156654762Y-99785714D01*
X156607143Y-99738095D01*
X156511905Y-99690476D01*
X156416667Y-99690476D01*
X156321429Y-99738095D01*
X156273810Y-99785714D01*
X156226190Y-99880952D01*
X156178571Y-100071429D01*
X156130952Y-100166667D01*
X156083333Y-100214286D01*
X155988095Y-100261905D01*
X155892857Y-100261905D01*
X155797619Y-100214286D01*
X155750000Y-100166667D01*
X155702381Y-100071429D01*
X155702381Y-99833333D01*
X155750000Y-99690476D01*
X156702381Y-99261905D02*
X155702381Y-99261905D01*
X155702381Y-98880952D01*
X155750000Y-98785714D01*
X155797619Y-98738095D01*
X155892857Y-98690476D01*
X156035714Y-98690476D01*
X156130952Y-98738095D01*
X156178571Y-98785714D01*
X156226190Y-98880952D01*
X156226190Y-99261905D01*
X156702381Y-97738095D02*
X156702381Y-98309524D01*
X156702381Y-98023810D02*
X155702381Y-98023810D01*
X155845238Y-98119048D01*
X155940476Y-98214286D01*
X155988095Y-98309524D01*
X152001141Y-90911765D02*
X152810665Y-90911765D01*
X152905903Y-90864146D01*
X152953522Y-90816527D01*
X153001141Y-90721289D01*
X153001141Y-90530812D01*
X152953522Y-90435574D01*
X152905903Y-90387955D01*
X152810665Y-90340336D01*
X152001141Y-90340336D01*
X152001141Y-89387955D02*
X152001141Y-89864146D01*
X152477331Y-89911765D01*
X152429712Y-89864146D01*
X152382093Y-89768908D01*
X152382093Y-89530812D01*
X152429712Y-89435574D01*
X152477331Y-89387955D01*
X152572570Y-89340336D01*
X152810665Y-89340336D01*
X152905903Y-89387955D01*
X152953522Y-89435574D01*
X153001141Y-89530812D01*
X153001141Y-89768908D01*
X152953522Y-89864146D01*
X152905903Y-89911765D01*
X134138095Y-116752381D02*
X134138095Y-117561905D01*
X134185714Y-117657143D01*
X134233333Y-117704762D01*
X134328571Y-117752381D01*
X134519048Y-117752381D01*
X134614286Y-117704762D01*
X134661905Y-117657143D01*
X134709524Y-117561905D01*
X134709524Y-116752381D01*
X135614286Y-117085714D02*
X135614286Y-117752381D01*
X135376190Y-116704762D02*
X135138095Y-117419048D01*
X135757143Y-117419048D01*
X142452381Y-114214286D02*
X141452381Y-114214286D01*
X141452381Y-113833333D01*
X141500000Y-113738095D01*
X141547619Y-113690476D01*
X141642857Y-113642857D01*
X141785714Y-113642857D01*
X141880952Y-113690476D01*
X141928571Y-113738095D01*
X141976190Y-113833333D01*
X141976190Y-114214286D01*
X142452381Y-112690476D02*
X142452381Y-113261905D01*
X142452381Y-112976191D02*
X141452381Y-112976191D01*
X141595238Y-113071429D01*
X141690476Y-113166667D01*
X141738095Y-113261905D01*
X141547619Y-112309524D02*
X141500000Y-112261905D01*
X141452381Y-112166667D01*
X141452381Y-111928571D01*
X141500000Y-111833333D01*
X141547619Y-111785714D01*
X141642857Y-111738095D01*
X141738095Y-111738095D01*
X141880952Y-111785714D01*
X142452381Y-112357143D01*
X142452381Y-111738095D01*
X155452381Y-114214286D02*
X154452381Y-114214286D01*
X154452381Y-113833333D01*
X154500000Y-113738095D01*
X154547619Y-113690476D01*
X154642857Y-113642857D01*
X154785714Y-113642857D01*
X154880952Y-113690476D01*
X154928571Y-113738095D01*
X154976190Y-113833333D01*
X154976190Y-114214286D01*
X155452381Y-112690476D02*
X155452381Y-113261905D01*
X155452381Y-112976191D02*
X154452381Y-112976191D01*
X154595238Y-113071429D01*
X154690476Y-113166667D01*
X154738095Y-113261905D01*
X154785714Y-111833333D02*
X155452381Y-111833333D01*
X154404762Y-112071429D02*
X155119048Y-112309524D01*
X155119048Y-111690476D01*
X155857143Y-116157143D02*
X155809524Y-116204762D01*
X155666667Y-116252381D01*
X155571429Y-116252381D01*
X155428571Y-116204762D01*
X155333333Y-116109524D01*
X155285714Y-116014286D01*
X155238095Y-115823810D01*
X155238095Y-115680952D01*
X155285714Y-115490476D01*
X155333333Y-115395238D01*
X155428571Y-115300000D01*
X155571429Y-115252381D01*
X155666667Y-115252381D01*
X155809524Y-115300000D01*
X155857143Y-115347619D01*
X156238095Y-115347619D02*
X156285714Y-115300000D01*
X156380952Y-115252381D01*
X156619048Y-115252381D01*
X156714286Y-115300000D01*
X156761905Y-115347619D01*
X156809524Y-115442857D01*
X156809524Y-115538095D01*
X156761905Y-115680952D01*
X156190476Y-116252381D01*
X156809524Y-116252381D01*
X157380952Y-115680952D02*
X157285714Y-115633333D01*
X157238095Y-115585714D01*
X157190476Y-115490476D01*
X157190476Y-115442857D01*
X157238095Y-115347619D01*
X157285714Y-115300000D01*
X157380952Y-115252381D01*
X157571429Y-115252381D01*
X157666667Y-115300000D01*
X157714286Y-115347619D01*
X157761905Y-115442857D01*
X157761905Y-115490476D01*
X157714286Y-115585714D01*
X157666667Y-115633333D01*
X157571429Y-115680952D01*
X157380952Y-115680952D01*
X157285714Y-115728571D01*
X157238095Y-115776190D01*
X157190476Y-115871429D01*
X157190476Y-116061905D01*
X157238095Y-116157143D01*
X157285714Y-116204762D01*
X157380952Y-116252381D01*
X157571429Y-116252381D01*
X157666667Y-116204762D01*
X157714286Y-116157143D01*
X157761905Y-116061905D01*
X157761905Y-115871429D01*
X157714286Y-115776190D01*
X157666667Y-115728571D01*
X157571429Y-115680952D01*
X159557143Y-119642857D02*
X159604762Y-119690476D01*
X159652381Y-119833333D01*
X159652381Y-119928571D01*
X159604762Y-120071429D01*
X159509524Y-120166667D01*
X159414286Y-120214286D01*
X159223810Y-120261905D01*
X159080952Y-120261905D01*
X158890476Y-120214286D01*
X158795238Y-120166667D01*
X158700000Y-120071429D01*
X158652381Y-119928571D01*
X158652381Y-119833333D01*
X158700000Y-119690476D01*
X158747619Y-119642857D01*
X158747619Y-119261905D02*
X158700000Y-119214286D01*
X158652381Y-119119048D01*
X158652381Y-118880952D01*
X158700000Y-118785714D01*
X158747619Y-118738095D01*
X158842857Y-118690476D01*
X158938095Y-118690476D01*
X159080952Y-118738095D01*
X159652381Y-119309524D01*
X159652381Y-118690476D01*
X159652381Y-118214286D02*
X159652381Y-118023810D01*
X159604762Y-117928571D01*
X159557143Y-117880952D01*
X159414286Y-117785714D01*
X159223810Y-117738095D01*
X158842857Y-117738095D01*
X158747619Y-117785714D01*
X158700000Y-117833333D01*
X158652381Y-117928571D01*
X158652381Y-118119048D01*
X158700000Y-118214286D01*
X158747619Y-118261905D01*
X158842857Y-118309524D01*
X159080952Y-118309524D01*
X159176190Y-118261905D01*
X159223810Y-118214286D01*
X159271429Y-118119048D01*
X159271429Y-117928571D01*
X159223810Y-117833333D01*
X159176190Y-117785714D01*
X159080952Y-117738095D01*
X158152381Y-119166666D02*
X158152381Y-119642857D01*
X157152381Y-119642857D01*
X158152381Y-118309523D02*
X158152381Y-118880952D01*
X158152381Y-118595238D02*
X157152381Y-118595238D01*
X157295238Y-118690476D01*
X157390476Y-118785714D01*
X157438095Y-118880952D01*
X158285714Y-114952381D02*
X158285714Y-113952381D01*
X158666667Y-113952381D01*
X158761905Y-114000000D01*
X158809524Y-114047619D01*
X158857143Y-114142857D01*
X158857143Y-114285714D01*
X158809524Y-114380952D01*
X158761905Y-114428571D01*
X158666667Y-114476190D01*
X158285714Y-114476190D01*
X159809524Y-114952381D02*
X159238095Y-114952381D01*
X159523809Y-114952381D02*
X159523809Y-113952381D01*
X159428571Y-114095238D01*
X159333333Y-114190476D01*
X159238095Y-114238095D01*
X160285714Y-114952381D02*
X160476190Y-114952381D01*
X160571429Y-114904762D01*
X160619048Y-114857143D01*
X160714286Y-114714286D01*
X160761905Y-114523810D01*
X160761905Y-114142857D01*
X160714286Y-114047619D01*
X160666667Y-114000000D01*
X160571429Y-113952381D01*
X160380952Y-113952381D01*
X160285714Y-114000000D01*
X160238095Y-114047619D01*
X160190476Y-114142857D01*
X160190476Y-114380952D01*
X160238095Y-114476190D01*
X160285714Y-114523810D01*
X160380952Y-114571429D01*
X160571429Y-114571429D01*
X160666667Y-114523810D01*
X160714286Y-114476190D01*
X160761905Y-114380952D01*
X139785714Y-134952381D02*
X139785714Y-133952381D01*
X140166667Y-133952381D01*
X140261905Y-134000000D01*
X140309524Y-134047619D01*
X140357143Y-134142857D01*
X140357143Y-134285714D01*
X140309524Y-134380952D01*
X140261905Y-134428571D01*
X140166667Y-134476190D01*
X139785714Y-134476190D01*
X141309524Y-134952381D02*
X140738095Y-134952381D01*
X141023809Y-134952381D02*
X141023809Y-133952381D01*
X140928571Y-134095238D01*
X140833333Y-134190476D01*
X140738095Y-134238095D01*
X141880952Y-134380952D02*
X141785714Y-134333333D01*
X141738095Y-134285714D01*
X141690476Y-134190476D01*
X141690476Y-134142857D01*
X141738095Y-134047619D01*
X141785714Y-134000000D01*
X141880952Y-133952381D01*
X142071429Y-133952381D01*
X142166667Y-134000000D01*
X142214286Y-134047619D01*
X142261905Y-134142857D01*
X142261905Y-134190476D01*
X142214286Y-134285714D01*
X142166667Y-134333333D01*
X142071429Y-134380952D01*
X141880952Y-134380952D01*
X141785714Y-134428571D01*
X141738095Y-134476190D01*
X141690476Y-134571429D01*
X141690476Y-134761905D01*
X141738095Y-134857143D01*
X141785714Y-134904762D01*
X141880952Y-134952381D01*
X142071429Y-134952381D01*
X142166667Y-134904762D01*
X142214286Y-134857143D01*
X142261905Y-134761905D01*
X142261905Y-134571429D01*
X142214286Y-134476190D01*
X142166667Y-134428571D01*
X142071429Y-134380952D01*
M02*
