G04 #@! TF.FileFunction,Soldermask,Bot*
%FSLAX46Y46*%
G04 Gerber Fmt 4.6, Leading zero omitted, Abs format (unit mm)*
G04 Created by KiCad (PCBNEW 4.0.1-stable) date 2017/02/17 13:25:48*
%MOMM*%
G01*
G04 APERTURE LIST*
%ADD10C,0.100000*%
%ADD11R,0.350000X0.300000*%
%ADD12R,0.800100X0.800100*%
%ADD13R,0.430000X0.280000*%
%ADD14R,1.060000X0.650000*%
%ADD15R,0.400000X0.800000*%
%ADD16R,1.000000X1.500000*%
%ADD17C,1.200000*%
%ADD18R,1.250000X0.950000*%
%ADD19O,1.250000X0.950000*%
%ADD20R,0.800000X0.500000*%
%ADD21R,0.500000X0.800000*%
%ADD22R,1.800000X0.900000*%
%ADD23O,1.200000X1.600000*%
%ADD24R,1.000000X1.524000*%
G04 APERTURE END LIST*
D10*
G36*
X149500000Y-118868629D02*
X150631371Y-120000000D01*
X149500000Y-121131371D01*
X148368629Y-120000000D01*
X149500000Y-118868629D01*
X149500000Y-118868629D01*
G37*
D11*
X126000000Y-107275000D03*
X126000000Y-106725000D03*
X128500000Y-107275000D03*
X128500000Y-106725000D03*
D12*
X127500760Y-103550000D03*
X127500760Y-105450000D03*
X125501780Y-104500000D03*
D13*
X127000000Y-107255000D03*
X127000000Y-106745000D03*
X128500000Y-104245000D03*
X128500000Y-104755000D03*
D14*
X125400000Y-109950000D03*
X125400000Y-109000000D03*
X125400000Y-108050000D03*
X127600000Y-108050000D03*
X127600000Y-109950000D03*
D11*
X164000000Y-107275000D03*
X164000000Y-106725000D03*
X166500000Y-107275000D03*
X166500000Y-106725000D03*
X170000000Y-107275000D03*
X170000000Y-106725000D03*
X172500000Y-107275000D03*
X172500000Y-106725000D03*
X132000000Y-107275000D03*
X132000000Y-106725000D03*
X134500000Y-107275000D03*
X134500000Y-106725000D03*
D12*
X165500760Y-103550000D03*
X165500760Y-105450000D03*
X163501780Y-104500000D03*
X171500760Y-103550000D03*
X171500760Y-105450000D03*
X169501780Y-104500000D03*
X133500760Y-103550000D03*
X133500760Y-105450000D03*
X131501780Y-104500000D03*
D13*
X165000000Y-107255000D03*
X165000000Y-106745000D03*
X166500000Y-104245000D03*
X166500000Y-104755000D03*
X171000000Y-107255000D03*
X171000000Y-106745000D03*
X172500000Y-104245000D03*
X172500000Y-104755000D03*
X133000000Y-107255000D03*
X133000000Y-106745000D03*
X134500000Y-104245000D03*
X134500000Y-104755000D03*
D14*
X163400000Y-109950000D03*
X163400000Y-109000000D03*
X163400000Y-108050000D03*
X165600000Y-108050000D03*
X165600000Y-109950000D03*
X169400000Y-109950000D03*
X169400000Y-109000000D03*
X169400000Y-108050000D03*
X171600000Y-108050000D03*
X171600000Y-109950000D03*
X131400000Y-109950000D03*
X131400000Y-109000000D03*
X131400000Y-108050000D03*
X133600000Y-108050000D03*
X133600000Y-109950000D03*
D15*
X126900000Y-111600000D03*
D16*
X128500000Y-111750000D03*
X124500000Y-111750000D03*
D15*
X126100000Y-111600000D03*
X170900000Y-111600000D03*
D16*
X172500000Y-111750000D03*
X168500000Y-111750000D03*
D15*
X170100000Y-111600000D03*
X164900000Y-111600000D03*
D16*
X166500000Y-111750000D03*
X162500000Y-111750000D03*
D15*
X164100000Y-111600000D03*
X132900000Y-111600000D03*
D16*
X134500000Y-111750000D03*
X130500000Y-111750000D03*
D15*
X132100000Y-111600000D03*
D17*
X160333422Y-95617974D02*
X160727346Y-95687434D01*
X164272654Y-96312566D02*
X164666578Y-96382026D01*
X155117974Y-86833422D02*
X155187434Y-87227346D01*
X155812566Y-90772654D02*
X155882026Y-91166578D01*
X141117974Y-91166578D02*
X141187434Y-90772654D01*
X141812566Y-87227346D02*
X141882026Y-86833422D01*
X132333422Y-96382026D02*
X132727346Y-96312566D01*
X136272654Y-95687434D02*
X136666578Y-95617974D01*
D18*
X144250000Y-113000000D03*
D19*
X144250000Y-114250000D03*
D20*
X137000000Y-109500000D03*
X137000000Y-110500000D03*
X137000000Y-112000000D03*
X137000000Y-113000000D03*
D21*
X137000000Y-102000000D03*
X138000000Y-102000000D03*
D22*
X137900000Y-115800000D03*
D23*
X140500000Y-111000000D03*
X140500000Y-115000000D03*
X156500000Y-115000000D03*
X156500000Y-111000000D03*
D15*
X132600000Y-126600000D03*
X132200000Y-126600000D03*
X131800000Y-126600000D03*
X131400000Y-126600000D03*
D24*
X134000000Y-126750000D03*
X130000000Y-126750000D03*
D15*
X165600000Y-126600000D03*
X165200000Y-126600000D03*
X164800000Y-126600000D03*
X164400000Y-126600000D03*
D24*
X167000000Y-126750000D03*
X163000000Y-126750000D03*
D21*
X159000000Y-116000000D03*
X160000000Y-116000000D03*
M02*
