G04 #@! TF.FileFunction,Soldermask,Top*
%FSLAX46Y46*%
G04 Gerber Fmt 4.6, Leading zero omitted, Abs format (unit mm)*
G04 Created by KiCad (PCBNEW 4.0.1-stable) date 2017/02/22 22:44:27*
%MOMM*%
G01*
G04 APERTURE LIST*
%ADD10C,0.100000*%
%ADD11R,0.800000X0.600000*%
%ADD12C,1.200000*%
%ADD13R,0.400000X1.500000*%
%ADD14R,0.300000X0.350000*%
%ADD15R,0.400000X1.200000*%
%ADD16R,0.350000X0.300000*%
%ADD17R,0.600000X0.500000*%
%ADD18R,1.000000X1.250000*%
%ADD19R,0.430000X0.280000*%
%ADD20R,0.600000X0.400000*%
%ADD21R,1.250000X0.950000*%
%ADD22O,1.250000X0.950000*%
%ADD23R,0.500000X0.600000*%
%ADD24R,0.800000X0.500000*%
%ADD25R,0.500000X0.800000*%
%ADD26R,0.800100X0.800100*%
%ADD27R,0.280000X0.430000*%
%ADD28R,1.501140X0.701040*%
%ADD29R,1.501140X1.000760*%
%ADD30R,0.800100X1.998980*%
%ADD31R,1.500000X0.900000*%
%ADD32R,1.000000X0.900000*%
%ADD33R,0.300000X0.800000*%
%ADD34R,1.000000X1.000000*%
%ADD35R,1.000000X0.800000*%
%ADD36R,0.800000X0.400000*%
%ADD37O,1.200000X1.600000*%
%ADD38R,0.220000X1.000000*%
%ADD39R,1.000000X0.220000*%
%ADD40R,0.400000X0.800000*%
%ADD41R,1.000000X0.500000*%
G04 APERTURE END LIST*
D10*
D11*
X128300000Y-108500000D03*
X124700000Y-108500000D03*
X166300000Y-108500000D03*
X162700000Y-108500000D03*
X162700000Y-104500000D03*
X166300000Y-104500000D03*
X172300000Y-108500000D03*
X168700000Y-108500000D03*
X168700000Y-104500000D03*
X172300000Y-104500000D03*
X134300000Y-108500000D03*
X130700000Y-108500000D03*
X130700000Y-104500000D03*
X134300000Y-104500000D03*
X124700000Y-104500000D03*
X128300000Y-104500000D03*
D12*
X132333422Y-96382026D02*
X132727346Y-96312566D01*
X136272654Y-95687434D02*
X136666578Y-95617974D01*
D10*
G36*
X134048034Y-96892035D02*
X133770197Y-95316342D01*
X134164120Y-95246883D01*
X134441957Y-96822576D01*
X134048034Y-96892035D01*
X134048034Y-96892035D01*
G37*
G36*
X134835880Y-96753117D02*
X134558043Y-95177424D01*
X134951966Y-95107965D01*
X135229803Y-96683658D01*
X134835880Y-96753117D01*
X134835880Y-96753117D01*
G37*
D12*
X141117974Y-91166578D02*
X141187434Y-90772654D01*
X141812566Y-87227346D02*
X141882026Y-86833422D01*
D10*
G36*
X142183658Y-89729803D02*
X140607965Y-89451966D01*
X140677424Y-89058043D01*
X142253117Y-89335880D01*
X142183658Y-89729803D01*
X142183658Y-89729803D01*
G37*
G36*
X142322576Y-88941957D02*
X140746883Y-88664120D01*
X140816342Y-88270197D01*
X142392035Y-88548034D01*
X142322576Y-88941957D01*
X142322576Y-88941957D01*
G37*
D12*
X155117974Y-86833422D02*
X155187434Y-87227346D01*
X155812566Y-90772654D02*
X155882026Y-91166578D01*
D10*
G36*
X154607965Y-88548034D02*
X156183658Y-88270197D01*
X156253117Y-88664120D01*
X154677424Y-88941957D01*
X154607965Y-88548034D01*
X154607965Y-88548034D01*
G37*
G36*
X154746883Y-89335880D02*
X156322576Y-89058043D01*
X156392035Y-89451966D01*
X154816342Y-89729803D01*
X154746883Y-89335880D01*
X154746883Y-89335880D01*
G37*
D12*
X160333422Y-95617974D02*
X160727346Y-95687434D01*
X164272654Y-96312566D02*
X164666578Y-96382026D01*
D10*
G36*
X161770197Y-96683658D02*
X162048034Y-95107965D01*
X162441957Y-95177424D01*
X162164120Y-96753117D01*
X161770197Y-96683658D01*
X161770197Y-96683658D01*
G37*
G36*
X162558043Y-96822576D02*
X162835880Y-95246883D01*
X163229803Y-95316342D01*
X162951966Y-96892035D01*
X162558043Y-96822576D01*
X162558043Y-96822576D01*
G37*
D13*
X143905000Y-117705000D03*
X142635000Y-117705000D03*
X141365000Y-117705000D03*
X140095000Y-117705000D03*
X140095000Y-124295000D03*
X141365000Y-124295000D03*
X142635000Y-124295000D03*
X143905000Y-124295000D03*
D14*
X155025000Y-118750000D03*
X154475000Y-118750000D03*
D10*
G36*
X159333453Y-95702082D02*
X158202082Y-96833453D01*
X157494975Y-96126346D01*
X158626346Y-94994975D01*
X159333453Y-95702082D01*
X159333453Y-95702082D01*
G37*
G36*
X156505025Y-92873654D02*
X155373654Y-94005025D01*
X154666547Y-93297918D01*
X155797918Y-92166547D01*
X156505025Y-92873654D01*
X156505025Y-92873654D01*
G37*
D14*
X153975000Y-121800000D03*
X153425000Y-121800000D03*
D15*
X167275000Y-114050000D03*
X166625000Y-114050000D03*
X165975000Y-114050000D03*
X165325000Y-114050000D03*
X164675000Y-114050000D03*
X164025000Y-114050000D03*
X163375000Y-114050000D03*
X162725000Y-114050000D03*
X162725000Y-120950000D03*
X163375000Y-120950000D03*
X164025000Y-120950000D03*
X164675000Y-120950000D03*
X165325000Y-120950000D03*
X165975000Y-120950000D03*
X166625000Y-120950000D03*
X167275000Y-120950000D03*
X134275000Y-114050000D03*
X133625000Y-114050000D03*
X132975000Y-114050000D03*
X132325000Y-114050000D03*
X131675000Y-114050000D03*
X131025000Y-114050000D03*
X130375000Y-114050000D03*
X129725000Y-114050000D03*
X129725000Y-120950000D03*
X130375000Y-120950000D03*
X131025000Y-120950000D03*
X131675000Y-120950000D03*
X132325000Y-120950000D03*
X132975000Y-120950000D03*
X133625000Y-120950000D03*
X134275000Y-120950000D03*
D16*
X154750000Y-119725000D03*
X154750000Y-120275000D03*
X157250000Y-118775000D03*
X157250000Y-118225000D03*
D17*
X138550000Y-123000000D03*
X137450000Y-123000000D03*
D18*
X127500000Y-106500000D03*
X125500000Y-106500000D03*
D16*
X151500000Y-112725000D03*
X151500000Y-113275000D03*
X151500000Y-111225000D03*
X151500000Y-111775000D03*
D10*
G36*
X139068665Y-88872721D02*
X139372721Y-88568665D01*
X139570711Y-88766655D01*
X139266655Y-89070711D01*
X139068665Y-88872721D01*
X139068665Y-88872721D01*
G37*
G36*
X139429289Y-89233345D02*
X139733345Y-88929289D01*
X139931335Y-89127279D01*
X139627279Y-89431335D01*
X139429289Y-89233345D01*
X139429289Y-89233345D01*
G37*
D19*
X156000000Y-119745000D03*
X156000000Y-120255000D03*
D20*
X128500000Y-106950000D03*
X128500000Y-106050000D03*
D19*
X128500000Y-110255000D03*
X128500000Y-109745000D03*
X124500000Y-109745000D03*
X124500000Y-110255000D03*
D10*
G36*
X137843503Y-90151472D02*
X138550609Y-89444366D01*
X139187005Y-90080762D01*
X138479899Y-90787868D01*
X137843503Y-90151472D01*
X137843503Y-90151472D01*
G37*
G36*
X136712132Y-89020101D02*
X137419238Y-88312995D01*
X138055634Y-88949391D01*
X137348528Y-89656497D01*
X136712132Y-89020101D01*
X136712132Y-89020101D01*
G37*
G36*
X134944366Y-93050609D02*
X135651472Y-92343503D01*
X136287868Y-92979899D01*
X135580762Y-93687005D01*
X134944366Y-93050609D01*
X134944366Y-93050609D01*
G37*
G36*
X133812995Y-91919238D02*
X134520101Y-91212132D01*
X135156497Y-91848528D01*
X134449391Y-92555634D01*
X133812995Y-91919238D01*
X133812995Y-91919238D01*
G37*
G36*
X161348528Y-92343503D02*
X162055634Y-93050609D01*
X161419238Y-93687005D01*
X160712132Y-92979899D01*
X161348528Y-92343503D01*
X161348528Y-92343503D01*
G37*
G36*
X162479899Y-91212132D02*
X163187005Y-91919238D01*
X162550609Y-92555634D01*
X161843503Y-91848528D01*
X162479899Y-91212132D01*
X162479899Y-91212132D01*
G37*
G36*
X158449391Y-89444366D02*
X159156497Y-90151472D01*
X158520101Y-90787868D01*
X157812995Y-90080762D01*
X158449391Y-89444366D01*
X158449391Y-89444366D01*
G37*
G36*
X159580762Y-88312995D02*
X160287868Y-89020101D01*
X159651472Y-89656497D01*
X158944366Y-88949391D01*
X159580762Y-88312995D01*
X159580762Y-88312995D01*
G37*
D18*
X165500000Y-106500000D03*
X163500000Y-106500000D03*
X171500000Y-106500000D03*
X169500000Y-106500000D03*
X133500000Y-106500000D03*
X131500000Y-106500000D03*
D20*
X166500000Y-106950000D03*
X166500000Y-106050000D03*
D19*
X166500000Y-110255000D03*
X166500000Y-109745000D03*
X162500000Y-109745000D03*
X162500000Y-110255000D03*
D20*
X172500000Y-106950000D03*
X172500000Y-106050000D03*
D19*
X172500000Y-110255000D03*
X172500000Y-109745000D03*
X168500000Y-109745000D03*
X168500000Y-110255000D03*
X134500000Y-110255000D03*
X134500000Y-109745000D03*
X130500000Y-109745000D03*
X130500000Y-110255000D03*
D20*
X134500000Y-106950000D03*
X134500000Y-106050000D03*
D21*
X144250000Y-113000000D03*
D22*
X144250000Y-114250000D03*
D17*
X154550000Y-117500000D03*
X153450000Y-117500000D03*
X153550000Y-124000000D03*
X152450000Y-124000000D03*
D16*
X157250000Y-120275000D03*
X157250000Y-119725000D03*
D14*
X155975000Y-124250000D03*
X156525000Y-124250000D03*
D16*
X139500000Y-117125000D03*
X139500000Y-117675000D03*
X145000000Y-90725000D03*
X145000000Y-91275000D03*
X152000000Y-89225000D03*
X152000000Y-89775000D03*
D23*
X152000000Y-92050000D03*
X152000000Y-90950000D03*
D20*
X148500000Y-85550000D03*
X148500000Y-86450000D03*
X152000000Y-85550000D03*
X152000000Y-86450000D03*
X145000000Y-85550000D03*
X145000000Y-86450000D03*
D24*
X137000000Y-110000000D03*
X137000000Y-109000000D03*
X137000000Y-113000000D03*
X137000000Y-112000000D03*
D10*
G36*
X139478508Y-92140031D02*
X140574524Y-93236047D01*
X140150260Y-93660311D01*
X139054244Y-92564295D01*
X139478508Y-92140031D01*
X139478508Y-92140031D01*
G37*
G36*
X138771402Y-92847138D02*
X139867418Y-93943154D01*
X139443154Y-94367418D01*
X138347138Y-93271402D01*
X138771402Y-92847138D01*
X138771402Y-92847138D01*
G37*
G36*
X138064295Y-93554244D02*
X139160311Y-94650260D01*
X138736047Y-95074524D01*
X137640031Y-93978508D01*
X138064295Y-93554244D01*
X138064295Y-93554244D01*
G37*
G36*
X142306936Y-92705717D02*
X143579728Y-93978509D01*
X142731200Y-94827037D01*
X141458408Y-93554245D01*
X142306936Y-92705717D01*
X142306936Y-92705717D01*
G37*
G36*
X139054245Y-95958408D02*
X140327037Y-97231200D01*
X139478509Y-98079728D01*
X138205717Y-96806936D01*
X139054245Y-95958408D01*
X139054245Y-95958408D01*
G37*
D25*
X137000000Y-102000000D03*
X138000000Y-102000000D03*
D26*
X163500760Y-99950000D03*
X163500760Y-98050000D03*
X161501780Y-99000000D03*
X136950000Y-97999240D03*
X135050000Y-97999240D03*
X136000000Y-99998220D03*
D19*
X145000000Y-89245000D03*
X145000000Y-89755000D03*
D27*
X148755000Y-87500000D03*
X148245000Y-87500000D03*
D19*
X145000000Y-92245000D03*
X145000000Y-92755000D03*
D27*
X153755000Y-86500000D03*
X153245000Y-86500000D03*
X143245000Y-86500000D03*
X143755000Y-86500000D03*
D19*
X165000000Y-99255000D03*
X165000000Y-98745000D03*
X138500000Y-99745000D03*
X138500000Y-100255000D03*
D10*
G36*
X148851790Y-89999240D02*
X149601090Y-90499620D01*
X149601090Y-91500380D01*
X148851790Y-92000760D01*
X148851790Y-89999240D01*
X148851790Y-89999240D01*
G37*
D28*
X150351660Y-89498860D03*
X150351660Y-92501140D03*
X146648340Y-89498860D03*
D29*
X146648340Y-91000000D03*
D28*
X146648340Y-92501140D03*
D29*
X150351660Y-91000000D03*
D10*
G36*
X148148210Y-92000760D02*
X147398910Y-91500380D01*
X147398910Y-90499620D01*
X148148210Y-89999240D01*
X148148210Y-92000760D01*
X148148210Y-92000760D01*
G37*
D30*
X148500000Y-91000000D03*
D31*
X137750000Y-115750000D03*
D32*
X136500000Y-115750000D03*
X139000000Y-115750000D03*
D33*
X139000000Y-114500000D03*
X138500000Y-114500000D03*
X138000000Y-114500000D03*
X137500000Y-114500000D03*
X137000000Y-114500000D03*
X136500000Y-114500000D03*
X136500000Y-117000000D03*
X137000000Y-117000000D03*
X137500000Y-117000000D03*
X138000000Y-117000000D03*
X138500000Y-117000000D03*
X139000000Y-117000000D03*
D14*
X156025000Y-117200000D03*
X156575000Y-117200000D03*
X157425000Y-117200000D03*
X157975000Y-117200000D03*
D25*
X159000000Y-116000000D03*
X160000000Y-116000000D03*
D34*
X141312420Y-133250000D03*
X143500000Y-133250000D03*
D16*
X156000000Y-118225000D03*
X156000000Y-118775000D03*
D35*
X154950000Y-123350000D03*
X157550000Y-123350000D03*
X154950000Y-121150000D03*
X157550000Y-121150000D03*
D36*
X157100000Y-113600000D03*
X155900000Y-113200000D03*
X157100000Y-112800000D03*
X155900000Y-112400000D03*
D37*
X156500000Y-115500000D03*
X156500000Y-110500000D03*
D36*
X139900000Y-112400000D03*
X141100000Y-112800000D03*
X139900000Y-113200000D03*
X141100000Y-113600000D03*
D37*
X140500000Y-110500000D03*
X140500000Y-115500000D03*
D38*
X147900000Y-114600000D03*
D39*
X150100000Y-114000000D03*
X150100000Y-112000000D03*
D38*
X149100000Y-111400000D03*
X148300000Y-111400000D03*
X147900000Y-111400000D03*
X147500000Y-111400000D03*
X148300000Y-114600000D03*
X148700000Y-114600000D03*
X149100000Y-114600000D03*
D40*
X165200000Y-126100000D03*
X164400000Y-126100000D03*
D41*
X167500000Y-125750000D03*
D34*
X167500000Y-126500000D03*
X162500000Y-126500000D03*
D41*
X162500000Y-125750000D03*
D40*
X132200000Y-126100000D03*
X131400000Y-126100000D03*
D41*
X134500000Y-125750000D03*
D34*
X134500000Y-126500000D03*
X129500000Y-126500000D03*
D41*
X129500000Y-125750000D03*
D40*
X126900000Y-111600000D03*
D41*
X128500000Y-111250000D03*
D40*
X126100000Y-111600000D03*
D34*
X128500000Y-112000000D03*
D41*
X124500000Y-111250000D03*
D34*
X124500000Y-112000000D03*
D40*
X170900000Y-111600000D03*
D41*
X172500000Y-111250000D03*
D40*
X170100000Y-111600000D03*
D34*
X172500000Y-112000000D03*
D41*
X168500000Y-111250000D03*
D34*
X168500000Y-112000000D03*
D40*
X164900000Y-111600000D03*
D41*
X166500000Y-111250000D03*
D40*
X164100000Y-111600000D03*
D34*
X166500000Y-112000000D03*
D41*
X162500000Y-111250000D03*
D34*
X162500000Y-112000000D03*
D40*
X132900000Y-111600000D03*
D41*
X134500000Y-111250000D03*
D40*
X132100000Y-111600000D03*
D34*
X134500000Y-112000000D03*
D41*
X130500000Y-111250000D03*
D34*
X130500000Y-112000000D03*
D10*
G36*
X153452727Y-119002980D02*
X153608290Y-119158543D01*
X152901183Y-119865650D01*
X152745620Y-119710087D01*
X153452727Y-119002980D01*
X153452727Y-119002980D01*
G37*
G36*
X148502980Y-116047273D02*
X148658543Y-115891710D01*
X149365650Y-116598817D01*
X149210087Y-116754380D01*
X148502980Y-116047273D01*
X148502980Y-116047273D01*
G37*
G36*
X149634350Y-123401183D02*
X149789913Y-123245620D01*
X150497020Y-123952727D01*
X150341457Y-124108290D01*
X149634350Y-123401183D01*
X149634350Y-123401183D01*
G37*
G36*
X150065685Y-119434315D02*
X150631370Y-120000000D01*
X150065685Y-120565685D01*
X149500000Y-120000000D01*
X150065685Y-119434315D01*
X150065685Y-119434315D01*
G37*
G36*
X149500000Y-118868630D02*
X150065685Y-119434315D01*
X149500000Y-120000000D01*
X148934315Y-119434315D01*
X149500000Y-118868630D01*
X149500000Y-118868630D01*
G37*
G36*
X148934315Y-119434315D02*
X149500000Y-120000000D01*
X148934315Y-120565685D01*
X148368630Y-120000000D01*
X148934315Y-119434315D01*
X148934315Y-119434315D01*
G37*
G36*
X149500000Y-120000000D02*
X150065685Y-120565685D01*
X149500000Y-121131370D01*
X148934315Y-120565685D01*
X149500000Y-120000000D01*
X149500000Y-120000000D01*
G37*
G36*
X153169885Y-118720137D02*
X153325448Y-118875700D01*
X152618341Y-119582807D01*
X152462778Y-119427244D01*
X153169885Y-118720137D01*
X153169885Y-118720137D01*
G37*
G36*
X152887042Y-118437294D02*
X153042605Y-118592857D01*
X152335498Y-119299964D01*
X152179935Y-119144401D01*
X152887042Y-118437294D01*
X152887042Y-118437294D01*
G37*
G36*
X152604199Y-118154451D02*
X152759762Y-118310014D01*
X152052655Y-119017121D01*
X151897092Y-118861558D01*
X152604199Y-118154451D01*
X152604199Y-118154451D01*
G37*
G36*
X150907143Y-116457395D02*
X151062706Y-116612958D01*
X150355599Y-117320065D01*
X150200036Y-117164502D01*
X150907143Y-116457395D01*
X150907143Y-116457395D01*
G37*
G36*
X150624300Y-116174552D02*
X150779863Y-116330115D01*
X150072756Y-117037222D01*
X149917193Y-116881659D01*
X150624300Y-116174552D01*
X150624300Y-116174552D01*
G37*
G36*
X150341457Y-115891710D02*
X150497020Y-116047273D01*
X149789913Y-116754380D01*
X149634350Y-116598817D01*
X150341457Y-115891710D01*
X150341457Y-115891710D01*
G37*
G36*
X146098817Y-120134350D02*
X146254380Y-120289913D01*
X145547273Y-120997020D01*
X145391710Y-120841457D01*
X146098817Y-120134350D01*
X146098817Y-120134350D01*
G37*
G36*
X146381659Y-120417193D02*
X146537222Y-120572756D01*
X145830115Y-121279863D01*
X145674552Y-121124300D01*
X146381659Y-120417193D01*
X146381659Y-120417193D01*
G37*
G36*
X146664502Y-120700036D02*
X146820065Y-120855599D01*
X146112958Y-121562706D01*
X145957395Y-121407143D01*
X146664502Y-120700036D01*
X146664502Y-120700036D01*
G37*
G36*
X146947345Y-120982879D02*
X147102908Y-121138442D01*
X146395801Y-121845549D01*
X146240238Y-121689986D01*
X146947345Y-120982879D01*
X146947345Y-120982879D01*
G37*
G36*
X147230188Y-121265721D02*
X147385751Y-121421284D01*
X146678644Y-122128391D01*
X146523081Y-121972828D01*
X147230188Y-121265721D01*
X147230188Y-121265721D01*
G37*
G36*
X147513030Y-121548564D02*
X147668593Y-121704127D01*
X146961486Y-122411234D01*
X146805923Y-122255671D01*
X147513030Y-121548564D01*
X147513030Y-121548564D01*
G37*
G36*
X147795873Y-121831407D02*
X147951436Y-121986970D01*
X147244329Y-122694077D01*
X147088766Y-122538514D01*
X147795873Y-121831407D01*
X147795873Y-121831407D01*
G37*
G36*
X148078716Y-122114249D02*
X148234279Y-122269812D01*
X147527172Y-122976919D01*
X147371609Y-122821356D01*
X148078716Y-122114249D01*
X148078716Y-122114249D01*
G37*
G36*
X148361558Y-122397092D02*
X148517121Y-122552655D01*
X147810014Y-123259762D01*
X147654451Y-123104199D01*
X148361558Y-122397092D01*
X148361558Y-122397092D01*
G37*
G36*
X148644401Y-122679935D02*
X148799964Y-122835498D01*
X148092857Y-123542605D01*
X147937294Y-123387042D01*
X148644401Y-122679935D01*
X148644401Y-122679935D01*
G37*
G36*
X148927244Y-122962778D02*
X149082807Y-123118341D01*
X148375700Y-123825448D01*
X148220137Y-123669885D01*
X148927244Y-122962778D01*
X148927244Y-122962778D01*
G37*
G36*
X149210087Y-123245620D02*
X149365650Y-123401183D01*
X148658543Y-124108290D01*
X148502980Y-123952727D01*
X149210087Y-123245620D01*
X149210087Y-123245620D01*
G37*
G36*
X148220137Y-116330115D02*
X148375700Y-116174552D01*
X149082807Y-116881659D01*
X148927244Y-117037222D01*
X148220137Y-116330115D01*
X148220137Y-116330115D01*
G37*
G36*
X147937294Y-116612958D02*
X148092857Y-116457395D01*
X148799964Y-117164502D01*
X148644401Y-117320065D01*
X147937294Y-116612958D01*
X147937294Y-116612958D01*
G37*
G36*
X147654451Y-116895801D02*
X147810014Y-116740238D01*
X148517121Y-117447345D01*
X148361558Y-117602908D01*
X147654451Y-116895801D01*
X147654451Y-116895801D01*
G37*
G36*
X147371609Y-117178644D02*
X147527172Y-117023081D01*
X148234279Y-117730188D01*
X148078716Y-117885751D01*
X147371609Y-117178644D01*
X147371609Y-117178644D01*
G37*
G36*
X147088766Y-117461486D02*
X147244329Y-117305923D01*
X147951436Y-118013030D01*
X147795873Y-118168593D01*
X147088766Y-117461486D01*
X147088766Y-117461486D01*
G37*
G36*
X146805923Y-117744329D02*
X146961486Y-117588766D01*
X147668593Y-118295873D01*
X147513030Y-118451436D01*
X146805923Y-117744329D01*
X146805923Y-117744329D01*
G37*
G36*
X146523081Y-118027172D02*
X146678644Y-117871609D01*
X147385751Y-118578716D01*
X147230188Y-118734279D01*
X146523081Y-118027172D01*
X146523081Y-118027172D01*
G37*
G36*
X146240238Y-118310014D02*
X146395801Y-118154451D01*
X147102908Y-118861558D01*
X146947345Y-119017121D01*
X146240238Y-118310014D01*
X146240238Y-118310014D01*
G37*
G36*
X145957395Y-118592857D02*
X146112958Y-118437294D01*
X146820065Y-119144401D01*
X146664502Y-119299964D01*
X145957395Y-118592857D01*
X145957395Y-118592857D01*
G37*
G36*
X145674552Y-118875700D02*
X145830115Y-118720137D01*
X146537222Y-119427244D01*
X146381659Y-119582807D01*
X145674552Y-118875700D01*
X145674552Y-118875700D01*
G37*
G36*
X145391710Y-119158543D02*
X145547273Y-119002980D01*
X146254380Y-119710087D01*
X146098817Y-119865650D01*
X145391710Y-119158543D01*
X145391710Y-119158543D01*
G37*
G36*
X149917193Y-123118341D02*
X150072756Y-122962778D01*
X150779863Y-123669885D01*
X150624300Y-123825448D01*
X149917193Y-123118341D01*
X149917193Y-123118341D01*
G37*
G36*
X150200036Y-122835498D02*
X150355599Y-122679935D01*
X151062706Y-123387042D01*
X150907143Y-123542605D01*
X150200036Y-122835498D01*
X150200036Y-122835498D01*
G37*
G36*
X150482879Y-122552655D02*
X150638442Y-122397092D01*
X151345549Y-123104199D01*
X151189986Y-123259762D01*
X150482879Y-122552655D01*
X150482879Y-122552655D01*
G37*
G36*
X150765721Y-122269812D02*
X150921284Y-122114249D01*
X151628391Y-122821356D01*
X151472828Y-122976919D01*
X150765721Y-122269812D01*
X150765721Y-122269812D01*
G37*
G36*
X151048564Y-121986970D02*
X151204127Y-121831407D01*
X151911234Y-122538514D01*
X151755671Y-122694077D01*
X151048564Y-121986970D01*
X151048564Y-121986970D01*
G37*
G36*
X151331407Y-121704127D02*
X151486970Y-121548564D01*
X152194077Y-122255671D01*
X152038514Y-122411234D01*
X151331407Y-121704127D01*
X151331407Y-121704127D01*
G37*
G36*
X151614249Y-121421284D02*
X151769812Y-121265721D01*
X152476919Y-121972828D01*
X152321356Y-122128391D01*
X151614249Y-121421284D01*
X151614249Y-121421284D01*
G37*
G36*
X151897092Y-121138442D02*
X152052655Y-120982879D01*
X152759762Y-121689986D01*
X152604199Y-121845549D01*
X151897092Y-121138442D01*
X151897092Y-121138442D01*
G37*
G36*
X152179935Y-120855599D02*
X152335498Y-120700036D01*
X153042605Y-121407143D01*
X152887042Y-121562706D01*
X152179935Y-120855599D01*
X152179935Y-120855599D01*
G37*
G36*
X152462778Y-120572756D02*
X152618341Y-120417193D01*
X153325448Y-121124300D01*
X153169885Y-121279863D01*
X152462778Y-120572756D01*
X152462778Y-120572756D01*
G37*
G36*
X152745620Y-120289913D02*
X152901183Y-120134350D01*
X153608290Y-120841457D01*
X153452727Y-120997020D01*
X152745620Y-120289913D01*
X152745620Y-120289913D01*
G37*
G36*
X151189986Y-116740238D02*
X151345549Y-116895801D01*
X150638442Y-117602908D01*
X150482879Y-117447345D01*
X151189986Y-116740238D01*
X151189986Y-116740238D01*
G37*
G36*
X152321356Y-117871609D02*
X152476919Y-118027172D01*
X151769812Y-118734279D01*
X151614249Y-118578716D01*
X152321356Y-117871609D01*
X152321356Y-117871609D01*
G37*
G36*
X152038514Y-117588766D02*
X152194077Y-117744329D01*
X151486970Y-118451436D01*
X151331407Y-118295873D01*
X152038514Y-117588766D01*
X152038514Y-117588766D01*
G37*
G36*
X151755671Y-117305923D02*
X151911234Y-117461486D01*
X151204127Y-118168593D01*
X151048564Y-118013030D01*
X151755671Y-117305923D01*
X151755671Y-117305923D01*
G37*
G36*
X151472828Y-117023081D02*
X151628391Y-117178644D01*
X150921284Y-117885751D01*
X150765721Y-117730188D01*
X151472828Y-117023081D01*
X151472828Y-117023081D01*
G37*
M02*
