G04 #@! TF.FileFunction,Legend,Top*
%FSLAX46Y46*%
G04 Gerber Fmt 4.6, Leading zero omitted, Abs format (unit mm)*
G04 Created by KiCad (PCBNEW 4.0.1-stable) date 2017/02/22 22:44:27*
%MOMM*%
G01*
G04 APERTURE LIST*
%ADD10C,0.100000*%
%ADD11C,0.150000*%
G04 APERTURE END LIST*
D10*
D11*
X127300000Y-107300000D02*
X127700000Y-107700000D01*
X127400000Y-108500000D02*
G75*
G03X127400000Y-108500000I-900000J0D01*
G01*
X127700000Y-109700000D02*
X127700000Y-107300000D01*
X127700000Y-107300000D02*
X125300000Y-107300000D01*
X125300000Y-107300000D02*
X125300000Y-109700000D01*
X125300000Y-109700000D02*
X127700000Y-109700000D01*
X165300000Y-107300000D02*
X165700000Y-107700000D01*
X165400000Y-108500000D02*
G75*
G03X165400000Y-108500000I-900000J0D01*
G01*
X165700000Y-109700000D02*
X165700000Y-107300000D01*
X165700000Y-107300000D02*
X163300000Y-107300000D01*
X163300000Y-107300000D02*
X163300000Y-109700000D01*
X163300000Y-109700000D02*
X165700000Y-109700000D01*
X163700000Y-105700000D02*
X163300000Y-105300000D01*
X165400000Y-104500000D02*
G75*
G03X165400000Y-104500000I-900000J0D01*
G01*
X163300000Y-103300000D02*
X163300000Y-105700000D01*
X163300000Y-105700000D02*
X165700000Y-105700000D01*
X165700000Y-105700000D02*
X165700000Y-103300000D01*
X165700000Y-103300000D02*
X163300000Y-103300000D01*
X171300000Y-107300000D02*
X171700000Y-107700000D01*
X171400000Y-108500000D02*
G75*
G03X171400000Y-108500000I-900000J0D01*
G01*
X171700000Y-109700000D02*
X171700000Y-107300000D01*
X171700000Y-107300000D02*
X169300000Y-107300000D01*
X169300000Y-107300000D02*
X169300000Y-109700000D01*
X169300000Y-109700000D02*
X171700000Y-109700000D01*
X169700000Y-105700000D02*
X169300000Y-105300000D01*
X171400000Y-104500000D02*
G75*
G03X171400000Y-104500000I-900000J0D01*
G01*
X169300000Y-103300000D02*
X169300000Y-105700000D01*
X169300000Y-105700000D02*
X171700000Y-105700000D01*
X171700000Y-105700000D02*
X171700000Y-103300000D01*
X171700000Y-103300000D02*
X169300000Y-103300000D01*
X133300000Y-107300000D02*
X133700000Y-107700000D01*
X133400000Y-108500000D02*
G75*
G03X133400000Y-108500000I-900000J0D01*
G01*
X133700000Y-109700000D02*
X133700000Y-107300000D01*
X133700000Y-107300000D02*
X131300000Y-107300000D01*
X131300000Y-107300000D02*
X131300000Y-109700000D01*
X131300000Y-109700000D02*
X133700000Y-109700000D01*
X131700000Y-105700000D02*
X131300000Y-105300000D01*
X133400000Y-104500000D02*
G75*
G03X133400000Y-104500000I-900000J0D01*
G01*
X131300000Y-103300000D02*
X131300000Y-105700000D01*
X131300000Y-105700000D02*
X133700000Y-105700000D01*
X133700000Y-105700000D02*
X133700000Y-103300000D01*
X133700000Y-103300000D02*
X131300000Y-103300000D01*
X125700000Y-105700000D02*
X125300000Y-105300000D01*
X127400000Y-104500000D02*
G75*
G03X127400000Y-104500000I-900000J0D01*
G01*
X125300000Y-103300000D02*
X125300000Y-105700000D01*
X125300000Y-105700000D02*
X127700000Y-105700000D01*
X127700000Y-105700000D02*
X127700000Y-103300000D01*
X127700000Y-103300000D02*
X125300000Y-103300000D01*
X144000000Y-119500000D02*
G75*
G03X144000000Y-119500000I-500000J0D01*
G01*
X144755000Y-118250000D02*
X144455000Y-118250000D01*
X144755000Y-123750000D02*
X144455000Y-123750000D01*
X139245000Y-123750000D02*
X139545000Y-123750000D01*
X139245000Y-118250000D02*
X139545000Y-118250000D01*
X144755000Y-118250000D02*
X144755000Y-123750000D01*
X139245000Y-118250000D02*
X139245000Y-123750000D01*
X154625000Y-118350000D02*
X154875000Y-118350000D01*
X154875000Y-119150000D02*
X154625000Y-119150000D01*
X156363604Y-92307969D02*
X157000000Y-91671573D01*
X157000000Y-91671573D02*
X159828427Y-94500000D01*
X159828427Y-94500000D02*
X159192031Y-95136396D01*
X157000000Y-97328427D02*
X154171573Y-94500000D01*
X154171573Y-94500000D02*
X154807969Y-93863604D01*
X157636396Y-96692031D02*
X157000000Y-97328427D01*
X153575000Y-121400000D02*
X153825000Y-121400000D01*
X153825000Y-122200000D02*
X153575000Y-122200000D01*
X168275000Y-114725000D02*
X167700000Y-114725000D01*
X168275000Y-120275000D02*
X167700000Y-120275000D01*
X161725000Y-120275000D02*
X162300000Y-120275000D01*
X161725000Y-114725000D02*
X162300000Y-114725000D01*
X168275000Y-114725000D02*
X168275000Y-120275000D01*
X161725000Y-114725000D02*
X161725000Y-120275000D01*
X167700000Y-114725000D02*
X167700000Y-113450000D01*
X135275000Y-114725000D02*
X134700000Y-114725000D01*
X135275000Y-120275000D02*
X134700000Y-120275000D01*
X128725000Y-120275000D02*
X129300000Y-120275000D01*
X128725000Y-114725000D02*
X129300000Y-114725000D01*
X135275000Y-114725000D02*
X135275000Y-120275000D01*
X128725000Y-114725000D02*
X128725000Y-120275000D01*
X134700000Y-114725000D02*
X134700000Y-113450000D01*
X154350000Y-120125000D02*
X154350000Y-119875000D01*
X155150000Y-119875000D02*
X155150000Y-120125000D01*
X157650000Y-118375000D02*
X157650000Y-118625000D01*
X156850000Y-118625000D02*
X156850000Y-118375000D01*
X137750000Y-123475000D02*
X138250000Y-123475000D01*
X138250000Y-122525000D02*
X137750000Y-122525000D01*
X126000000Y-107350000D02*
X127000000Y-107350000D01*
X127000000Y-105650000D02*
X126000000Y-105650000D01*
X151100000Y-113125000D02*
X151100000Y-112875000D01*
X151900000Y-112875000D02*
X151900000Y-113125000D01*
X151100000Y-111625000D02*
X151100000Y-111375000D01*
X151900000Y-111375000D02*
X151900000Y-111625000D01*
X139892444Y-88770190D02*
X139729810Y-88607556D01*
X139107556Y-89229810D02*
X139270190Y-89392444D01*
X156440000Y-120115000D02*
X156440000Y-119885000D01*
X155560000Y-119885000D02*
X155560000Y-120115000D01*
X127975000Y-106250000D02*
X127975000Y-106750000D01*
X129025000Y-106750000D02*
X129025000Y-106250000D01*
X128060000Y-109885000D02*
X128060000Y-110115000D01*
X128940000Y-110115000D02*
X128940000Y-109885000D01*
X124940000Y-110115000D02*
X124940000Y-109885000D01*
X124060000Y-109885000D02*
X124060000Y-110115000D01*
X134909010Y-92520280D02*
X134979720Y-92590990D01*
X137299999Y-91000000D02*
G75*
G03X137299999Y-91000000I-799999J0D01*
G01*
X136959619Y-88348350D02*
X133848350Y-91459619D01*
X136040381Y-93651650D02*
X139151650Y-90540381D01*
X138020280Y-89409010D02*
X138090990Y-89479720D01*
X158979720Y-89409010D02*
X158909010Y-89479720D01*
X161299999Y-91000000D02*
G75*
G03X161299999Y-91000000I-799999J0D01*
G01*
X163151650Y-91459619D02*
X160040381Y-88348350D01*
X157848350Y-90540381D02*
X160959619Y-93651650D01*
X162090990Y-92520280D02*
X162020280Y-92590990D01*
X164000000Y-107350000D02*
X165000000Y-107350000D01*
X165000000Y-105650000D02*
X164000000Y-105650000D01*
X170000000Y-107350000D02*
X171000000Y-107350000D01*
X171000000Y-105650000D02*
X170000000Y-105650000D01*
X132000000Y-107350000D02*
X133000000Y-107350000D01*
X133000000Y-105650000D02*
X132000000Y-105650000D01*
X165975000Y-106250000D02*
X165975000Y-106750000D01*
X167025000Y-106750000D02*
X167025000Y-106250000D01*
X166060000Y-109885000D02*
X166060000Y-110115000D01*
X166940000Y-110115000D02*
X166940000Y-109885000D01*
X162940000Y-110115000D02*
X162940000Y-109885000D01*
X162060000Y-109885000D02*
X162060000Y-110115000D01*
X171975000Y-106250000D02*
X171975000Y-106750000D01*
X173025000Y-106750000D02*
X173025000Y-106250000D01*
X172060000Y-109885000D02*
X172060000Y-110115000D01*
X172940000Y-110115000D02*
X172940000Y-109885000D01*
X168940000Y-110115000D02*
X168940000Y-109885000D01*
X168060000Y-109885000D02*
X168060000Y-110115000D01*
X134060000Y-109885000D02*
X134060000Y-110115000D01*
X134940000Y-110115000D02*
X134940000Y-109885000D01*
X130940000Y-110115000D02*
X130940000Y-109885000D01*
X130060000Y-109885000D02*
X130060000Y-110115000D01*
X133975000Y-106250000D02*
X133975000Y-106750000D01*
X135025000Y-106750000D02*
X135025000Y-106250000D01*
X146550000Y-111450000D02*
X142950000Y-111450000D01*
X142950000Y-111450000D02*
X142950000Y-115800000D01*
X142950000Y-115800000D02*
X146550000Y-115800000D01*
X146550000Y-115800000D02*
X146550000Y-111450000D01*
X147050000Y-113000000D02*
X147650000Y-112700000D01*
X147650000Y-112700000D02*
X147650000Y-113300000D01*
X147650000Y-113300000D02*
X147050000Y-113000000D01*
X144250000Y-111450000D02*
X144250000Y-111950000D01*
X144250000Y-111950000D02*
X143450000Y-111950000D01*
X143450000Y-111950000D02*
X143450000Y-115300000D01*
X143450000Y-115300000D02*
X144250000Y-115300000D01*
X144250000Y-115300000D02*
X144250000Y-115800000D01*
X145000000Y-111450000D02*
X145000000Y-111950000D01*
X145000000Y-111950000D02*
X145800000Y-111950000D01*
X145800000Y-111950000D02*
X145800000Y-112450000D01*
X145800000Y-112450000D02*
X146550000Y-112450000D01*
X145000000Y-115800000D02*
X145000000Y-115300000D01*
X145000000Y-115300000D02*
X145800000Y-115300000D01*
X145800000Y-115300000D02*
X145800000Y-114800000D01*
X145800000Y-114800000D02*
X146550000Y-114800000D01*
X145800000Y-112450000D02*
X145800000Y-113250000D01*
X145800000Y-113250000D02*
X146300000Y-113250000D01*
X146300000Y-113250000D02*
X146300000Y-114000000D01*
X146300000Y-114000000D02*
X145800000Y-114000000D01*
X145800000Y-114000000D02*
X145800000Y-113250000D01*
X145800000Y-113250000D02*
X146300000Y-113250000D01*
X146300000Y-113250000D02*
X146300000Y-114000000D01*
X146300000Y-114000000D02*
X145800000Y-114000000D01*
X145800000Y-114000000D02*
X145800000Y-114800000D01*
X153750000Y-117975000D02*
X154250000Y-117975000D01*
X154250000Y-117025000D02*
X153750000Y-117025000D01*
X152750000Y-124475000D02*
X153250000Y-124475000D01*
X153250000Y-123525000D02*
X152750000Y-123525000D01*
X157650000Y-119875000D02*
X157650000Y-120125000D01*
X156850000Y-120125000D02*
X156850000Y-119875000D01*
X156375000Y-124650000D02*
X156125000Y-124650000D01*
X156125000Y-123850000D02*
X156375000Y-123850000D01*
X139100000Y-117525000D02*
X139100000Y-117275000D01*
X139900000Y-117275000D02*
X139900000Y-117525000D01*
X144600000Y-91125000D02*
X144600000Y-90875000D01*
X145400000Y-90875000D02*
X145400000Y-91125000D01*
X151600000Y-89625000D02*
X151600000Y-89375000D01*
X152400000Y-89375000D02*
X152400000Y-89625000D01*
X151525000Y-91250000D02*
X151525000Y-91750000D01*
X152475000Y-91750000D02*
X152475000Y-91250000D01*
X148500000Y-85900000D02*
X148250000Y-86100000D01*
X148750000Y-86100000D02*
X148500000Y-85900000D01*
X149025000Y-86250000D02*
X149025000Y-85200000D01*
X147975000Y-86250000D02*
X147975000Y-85200000D01*
X152000000Y-85900000D02*
X151750000Y-86100000D01*
X152250000Y-86100000D02*
X152000000Y-85900000D01*
X152525000Y-86250000D02*
X152525000Y-85200000D01*
X151475000Y-86250000D02*
X151475000Y-85200000D01*
X145000000Y-85900000D02*
X144750000Y-86100000D01*
X145250000Y-86100000D02*
X145000000Y-85900000D01*
X145525000Y-86250000D02*
X145525000Y-85200000D01*
X144475000Y-86250000D02*
X144475000Y-85200000D01*
X137500000Y-110500000D02*
X138000000Y-110000000D01*
X136250000Y-110500000D02*
X138000000Y-110500000D01*
X138000000Y-110500000D02*
X138000000Y-108500000D01*
X138000000Y-108500000D02*
X136250000Y-108500000D01*
X136250000Y-108500000D02*
X136250000Y-110500000D01*
X137500000Y-113500000D02*
X138000000Y-113000000D01*
X136250000Y-113500000D02*
X138000000Y-113500000D01*
X138000000Y-113500000D02*
X138000000Y-111500000D01*
X138000000Y-111500000D02*
X136250000Y-111500000D01*
X136250000Y-111500000D02*
X136250000Y-113500000D01*
X140541682Y-91963254D02*
G75*
G03X140541682Y-91963254I-250000J0D01*
G01*
X142377647Y-94897748D02*
X140397748Y-96877647D01*
X141811961Y-92776427D02*
X141104854Y-92069320D01*
X141104854Y-92069320D02*
X140468458Y-92705717D01*
X140751301Y-92422874D02*
X141458408Y-93129981D01*
X141458408Y-93129981D02*
X141458408Y-93129981D01*
X141458408Y-93129981D02*
X140751301Y-92422874D01*
X140751301Y-92422874D02*
X140751301Y-92422874D01*
X141175565Y-92847138D02*
X141175565Y-92847138D01*
X141175565Y-92847138D02*
X141529118Y-92493585D01*
X141529118Y-92493585D02*
X141529118Y-92493585D01*
X141529118Y-92493585D02*
X141175565Y-92847138D01*
X138276427Y-96311961D02*
X137569320Y-95604854D01*
X137569320Y-95604854D02*
X138205717Y-94968458D01*
X137922874Y-95251301D02*
X138629981Y-95958408D01*
X138629981Y-95958408D02*
X138629981Y-95958408D01*
X138629981Y-95958408D02*
X137922874Y-95251301D01*
X137922874Y-95251301D02*
X137922874Y-95251301D01*
X138347138Y-95675565D02*
X138347138Y-95675565D01*
X138347138Y-95675565D02*
X137993585Y-96029118D01*
X137993585Y-96029118D02*
X137993585Y-96029118D01*
X137993585Y-96029118D02*
X138347138Y-95675565D01*
X141741250Y-94261351D02*
X142094804Y-94614905D01*
X142094804Y-94614905D02*
X140114905Y-96594804D01*
X140114905Y-96594804D02*
X139761351Y-96241250D01*
X141316986Y-93837087D02*
X140857367Y-93377468D01*
X140857367Y-93377468D02*
X138877468Y-95357367D01*
X138877468Y-95357367D02*
X139337087Y-95816986D01*
X141458408Y-94544194D02*
X141316986Y-94402773D01*
X140751301Y-95251301D02*
X140609880Y-95109880D01*
X140044194Y-95958408D02*
X139902773Y-95816986D01*
X136500000Y-102500000D02*
X137000000Y-103000000D01*
X136500000Y-101250000D02*
X136500000Y-103000000D01*
X136500000Y-103000000D02*
X138500000Y-103000000D01*
X138500000Y-103000000D02*
X138500000Y-101250000D01*
X138500000Y-101250000D02*
X136500000Y-101250000D01*
X161849760Y-97700840D02*
X161849760Y-97749100D01*
X162550800Y-100499820D02*
X161849760Y-100499820D01*
X161849760Y-100499820D02*
X161849760Y-100250900D01*
X161849760Y-97700840D02*
X161849760Y-97500180D01*
X161849760Y-97500180D02*
X162550800Y-97500180D01*
X134700840Y-99650240D02*
X134749100Y-99650240D01*
X137499820Y-98949200D02*
X137499820Y-99650240D01*
X137499820Y-99650240D02*
X137250900Y-99650240D01*
X134700840Y-99650240D02*
X134500180Y-99650240D01*
X134500180Y-99650240D02*
X134500180Y-98949200D01*
X145440000Y-89615000D02*
X145440000Y-89385000D01*
X144560000Y-89385000D02*
X144560000Y-89615000D01*
X148385000Y-87940000D02*
X148615000Y-87940000D01*
X148615000Y-87060000D02*
X148385000Y-87060000D01*
X145440000Y-92615000D02*
X145440000Y-92385000D01*
X144560000Y-92385000D02*
X144560000Y-92615000D01*
X153385000Y-86940000D02*
X153615000Y-86940000D01*
X153615000Y-86060000D02*
X153385000Y-86060000D01*
X143615000Y-86060000D02*
X143385000Y-86060000D01*
X143385000Y-86940000D02*
X143615000Y-86940000D01*
X164560000Y-98885000D02*
X164560000Y-99115000D01*
X165440000Y-99115000D02*
X165440000Y-98885000D01*
X138940000Y-100115000D02*
X138940000Y-99885000D01*
X138060000Y-99885000D02*
X138060000Y-100115000D01*
X145551060Y-88150120D02*
X145551060Y-88650500D01*
X146351160Y-87949460D02*
X146749940Y-88399040D01*
X146749940Y-88399040D02*
X145551060Y-88399040D01*
X147199520Y-88698760D02*
X149800480Y-88698760D01*
X149800480Y-93301240D02*
X147199520Y-93301240D01*
X139950000Y-114800000D02*
G75*
G03X139950000Y-114800000I-200000J0D01*
G01*
X139250000Y-116750000D02*
X139250000Y-114750000D01*
X139250000Y-114750000D02*
X136250000Y-114750000D01*
X136250000Y-114750000D02*
X136250000Y-116750000D01*
X136250000Y-116750000D02*
X139250000Y-116750000D01*
X156425000Y-117600000D02*
X156175000Y-117600000D01*
X156175000Y-116800000D02*
X156425000Y-116800000D01*
X157825000Y-117600000D02*
X157575000Y-117600000D01*
X157575000Y-116800000D02*
X157825000Y-116800000D01*
X158500000Y-116500000D02*
X159000000Y-117000000D01*
X158500000Y-115250000D02*
X158500000Y-117000000D01*
X158500000Y-117000000D02*
X160500000Y-117000000D01*
X160500000Y-117000000D02*
X160500000Y-115250000D01*
X160500000Y-115250000D02*
X158500000Y-115250000D01*
X155600000Y-118625000D02*
X155600000Y-118375000D01*
X156400000Y-118375000D02*
X156400000Y-118625000D01*
X154650000Y-120950000D02*
X157850000Y-120950000D01*
X157850000Y-120950000D02*
X157850000Y-123550000D01*
X157850000Y-123550000D02*
X154650000Y-123550000D01*
X154650000Y-123550000D02*
X154650000Y-120950000D01*
X146500000Y-112000000D02*
G75*
G03X146500000Y-112000000I-200000J0D01*
G01*
X149700000Y-114600000D02*
X150500000Y-114600000D01*
X150100000Y-114200000D02*
X150100000Y-115000000D01*
X146500000Y-114600000D02*
X147300000Y-114600000D01*
X146900000Y-114200000D02*
X146900000Y-115000000D01*
X149700000Y-111400000D02*
X150500000Y-111400000D01*
X150100000Y-111800000D02*
X150100000Y-111000000D01*
X146900000Y-111800000D02*
X146900000Y-111000000D01*
X147300000Y-111400000D02*
X146500000Y-111400000D01*
X127750000Y-110500000D02*
G75*
G03X127750000Y-110500000I-250000J0D01*
G01*
X171750000Y-110500000D02*
G75*
G03X171750000Y-110500000I-250000J0D01*
G01*
X165750000Y-110500000D02*
G75*
G03X165750000Y-110500000I-250000J0D01*
G01*
X133750000Y-110500000D02*
G75*
G03X133750000Y-110500000I-250000J0D01*
G01*
X152121320Y-120000000D02*
G75*
G03X152121320Y-120000000I-500000J0D01*
G01*
X149500000Y-124419417D02*
X149075736Y-123995153D01*
X149500000Y-115580583D02*
X149924264Y-116004847D01*
X145080583Y-120000000D02*
X145504847Y-120424264D01*
X153919417Y-120000000D02*
X153495153Y-120424264D01*
X149500000Y-115580583D02*
X149075736Y-116004847D01*
X145080583Y-120000000D02*
X145504847Y-119575736D01*
X149500000Y-124419417D02*
X149924264Y-123995153D01*
X125761905Y-108452381D02*
X125761905Y-107452381D01*
X126000000Y-107452381D01*
X126142858Y-107500000D01*
X126238096Y-107595238D01*
X126285715Y-107690476D01*
X126333334Y-107880952D01*
X126333334Y-108023810D01*
X126285715Y-108214286D01*
X126238096Y-108309524D01*
X126142858Y-108404762D01*
X126000000Y-108452381D01*
X125761905Y-108452381D01*
X126904762Y-107880952D02*
X126809524Y-107833333D01*
X126761905Y-107785714D01*
X126714286Y-107690476D01*
X126714286Y-107642857D01*
X126761905Y-107547619D01*
X126809524Y-107500000D01*
X126904762Y-107452381D01*
X127095239Y-107452381D01*
X127190477Y-107500000D01*
X127238096Y-107547619D01*
X127285715Y-107642857D01*
X127285715Y-107690476D01*
X127238096Y-107785714D01*
X127190477Y-107833333D01*
X127095239Y-107880952D01*
X126904762Y-107880952D01*
X126809524Y-107928571D01*
X126761905Y-107976190D01*
X126714286Y-108071429D01*
X126714286Y-108261905D01*
X126761905Y-108357143D01*
X126809524Y-108404762D01*
X126904762Y-108452381D01*
X127095239Y-108452381D01*
X127190477Y-108404762D01*
X127238096Y-108357143D01*
X127285715Y-108261905D01*
X127285715Y-108071429D01*
X127238096Y-107976190D01*
X127190477Y-107928571D01*
X127095239Y-107880952D01*
X163761905Y-108452381D02*
X163761905Y-107452381D01*
X164000000Y-107452381D01*
X164142858Y-107500000D01*
X164238096Y-107595238D01*
X164285715Y-107690476D01*
X164333334Y-107880952D01*
X164333334Y-108023810D01*
X164285715Y-108214286D01*
X164238096Y-108309524D01*
X164142858Y-108404762D01*
X164000000Y-108452381D01*
X163761905Y-108452381D01*
X164714286Y-107547619D02*
X164761905Y-107500000D01*
X164857143Y-107452381D01*
X165095239Y-107452381D01*
X165190477Y-107500000D01*
X165238096Y-107547619D01*
X165285715Y-107642857D01*
X165285715Y-107738095D01*
X165238096Y-107880952D01*
X164666667Y-108452381D01*
X165285715Y-108452381D01*
X163761905Y-105452381D02*
X163761905Y-104452381D01*
X164000000Y-104452381D01*
X164142858Y-104500000D01*
X164238096Y-104595238D01*
X164285715Y-104690476D01*
X164333334Y-104880952D01*
X164333334Y-105023810D01*
X164285715Y-105214286D01*
X164238096Y-105309524D01*
X164142858Y-105404762D01*
X164000000Y-105452381D01*
X163761905Y-105452381D01*
X164666667Y-104452381D02*
X165285715Y-104452381D01*
X164952381Y-104833333D01*
X165095239Y-104833333D01*
X165190477Y-104880952D01*
X165238096Y-104928571D01*
X165285715Y-105023810D01*
X165285715Y-105261905D01*
X165238096Y-105357143D01*
X165190477Y-105404762D01*
X165095239Y-105452381D01*
X164809524Y-105452381D01*
X164714286Y-105404762D01*
X164666667Y-105357143D01*
X169761905Y-108452381D02*
X169761905Y-107452381D01*
X170000000Y-107452381D01*
X170142858Y-107500000D01*
X170238096Y-107595238D01*
X170285715Y-107690476D01*
X170333334Y-107880952D01*
X170333334Y-108023810D01*
X170285715Y-108214286D01*
X170238096Y-108309524D01*
X170142858Y-108404762D01*
X170000000Y-108452381D01*
X169761905Y-108452381D01*
X171190477Y-107785714D02*
X171190477Y-108452381D01*
X170952381Y-107404762D02*
X170714286Y-108119048D01*
X171333334Y-108119048D01*
X169761905Y-105452381D02*
X169761905Y-104452381D01*
X170000000Y-104452381D01*
X170142858Y-104500000D01*
X170238096Y-104595238D01*
X170285715Y-104690476D01*
X170333334Y-104880952D01*
X170333334Y-105023810D01*
X170285715Y-105214286D01*
X170238096Y-105309524D01*
X170142858Y-105404762D01*
X170000000Y-105452381D01*
X169761905Y-105452381D01*
X171238096Y-104452381D02*
X170761905Y-104452381D01*
X170714286Y-104928571D01*
X170761905Y-104880952D01*
X170857143Y-104833333D01*
X171095239Y-104833333D01*
X171190477Y-104880952D01*
X171238096Y-104928571D01*
X171285715Y-105023810D01*
X171285715Y-105261905D01*
X171238096Y-105357143D01*
X171190477Y-105404762D01*
X171095239Y-105452381D01*
X170857143Y-105452381D01*
X170761905Y-105404762D01*
X170714286Y-105357143D01*
X131761905Y-108452381D02*
X131761905Y-107452381D01*
X132000000Y-107452381D01*
X132142858Y-107500000D01*
X132238096Y-107595238D01*
X132285715Y-107690476D01*
X132333334Y-107880952D01*
X132333334Y-108023810D01*
X132285715Y-108214286D01*
X132238096Y-108309524D01*
X132142858Y-108404762D01*
X132000000Y-108452381D01*
X131761905Y-108452381D01*
X133190477Y-107452381D02*
X133000000Y-107452381D01*
X132904762Y-107500000D01*
X132857143Y-107547619D01*
X132761905Y-107690476D01*
X132714286Y-107880952D01*
X132714286Y-108261905D01*
X132761905Y-108357143D01*
X132809524Y-108404762D01*
X132904762Y-108452381D01*
X133095239Y-108452381D01*
X133190477Y-108404762D01*
X133238096Y-108357143D01*
X133285715Y-108261905D01*
X133285715Y-108023810D01*
X133238096Y-107928571D01*
X133190477Y-107880952D01*
X133095239Y-107833333D01*
X132904762Y-107833333D01*
X132809524Y-107880952D01*
X132761905Y-107928571D01*
X132714286Y-108023810D01*
X131761905Y-105452381D02*
X131761905Y-104452381D01*
X132000000Y-104452381D01*
X132142858Y-104500000D01*
X132238096Y-104595238D01*
X132285715Y-104690476D01*
X132333334Y-104880952D01*
X132333334Y-105023810D01*
X132285715Y-105214286D01*
X132238096Y-105309524D01*
X132142858Y-105404762D01*
X132000000Y-105452381D01*
X131761905Y-105452381D01*
X132666667Y-104452381D02*
X133333334Y-104452381D01*
X132904762Y-105452381D01*
X125761905Y-105452381D02*
X125761905Y-104452381D01*
X126000000Y-104452381D01*
X126142858Y-104500000D01*
X126238096Y-104595238D01*
X126285715Y-104690476D01*
X126333334Y-104880952D01*
X126333334Y-105023810D01*
X126285715Y-105214286D01*
X126238096Y-105309524D01*
X126142858Y-105404762D01*
X126000000Y-105452381D01*
X125761905Y-105452381D01*
X126809524Y-105452381D02*
X127000000Y-105452381D01*
X127095239Y-105404762D01*
X127142858Y-105357143D01*
X127238096Y-105214286D01*
X127285715Y-105023810D01*
X127285715Y-104642857D01*
X127238096Y-104547619D01*
X127190477Y-104500000D01*
X127095239Y-104452381D01*
X126904762Y-104452381D01*
X126809524Y-104500000D01*
X126761905Y-104547619D01*
X126714286Y-104642857D01*
X126714286Y-104880952D01*
X126761905Y-104976190D01*
X126809524Y-105023810D01*
X126904762Y-105071429D01*
X127095239Y-105071429D01*
X127190477Y-105023810D01*
X127238096Y-104976190D01*
X127285715Y-104880952D01*
X133938497Y-97066081D02*
X133764849Y-96081273D01*
X134140015Y-96015122D01*
X134242075Y-96045479D01*
X134297239Y-96084106D01*
X134360673Y-96169628D01*
X134385480Y-96310315D01*
X134355122Y-96412375D01*
X134316495Y-96467539D01*
X134230973Y-96530973D01*
X133855808Y-96597125D01*
X135171718Y-95833204D02*
X134984135Y-95866280D01*
X134898613Y-95929714D01*
X134859986Y-95984878D01*
X134791002Y-96142103D01*
X134777182Y-96337954D01*
X134843334Y-96713120D01*
X134906767Y-96798642D01*
X134961932Y-96837268D01*
X135063992Y-96867626D01*
X135251575Y-96834550D01*
X135337097Y-96771117D01*
X135375724Y-96715952D01*
X135406082Y-96613892D01*
X135364737Y-96379414D01*
X135301303Y-96293891D01*
X135246139Y-96255265D01*
X135144079Y-96224907D01*
X134956495Y-96257983D01*
X134870973Y-96321416D01*
X134832347Y-96376581D01*
X134801989Y-96478642D01*
X140317339Y-91305437D02*
X139332532Y-91131789D01*
X139398684Y-90756623D01*
X139462117Y-90671101D01*
X139517281Y-90632474D01*
X139619342Y-90602117D01*
X139760028Y-90626924D01*
X139845550Y-90690357D01*
X139884177Y-90745522D01*
X139914535Y-90847582D01*
X139848383Y-91222747D01*
X139908870Y-89782803D02*
X140565408Y-89898568D01*
X139492360Y-89951130D02*
X140154450Y-90309642D01*
X140261946Y-89699999D01*
X156343633Y-88882717D02*
X157328441Y-88709069D01*
X157394593Y-89084234D01*
X157364235Y-89186294D01*
X157325608Y-89241459D01*
X157240086Y-89304892D01*
X157099400Y-89329699D01*
X156997339Y-89299341D01*
X156942175Y-89260715D01*
X156878742Y-89175193D01*
X156812590Y-88800027D01*
X156608240Y-90383377D02*
X156509012Y-89820629D01*
X156558626Y-90102002D02*
X157543434Y-89928354D01*
X157386209Y-89859370D01*
X157275880Y-89782117D01*
X157212447Y-89696595D01*
X157700544Y-90819371D02*
X157717082Y-90913163D01*
X157686725Y-91015223D01*
X157648098Y-91070388D01*
X157562576Y-91133821D01*
X157383262Y-91213792D01*
X157148784Y-91255137D01*
X156952932Y-91241318D01*
X156850872Y-91210960D01*
X156795708Y-91172333D01*
X156732274Y-91086811D01*
X156715736Y-90993019D01*
X156746094Y-90890959D01*
X156784721Y-90835794D01*
X156870243Y-90772361D01*
X157049556Y-90692390D01*
X157284035Y-90651045D01*
X157479886Y-90664864D01*
X157581946Y-90695222D01*
X157637111Y-90733849D01*
X157700544Y-90819371D01*
X161607739Y-96809743D02*
X161781387Y-95824936D01*
X162156553Y-95891088D01*
X162242075Y-95954521D01*
X162280702Y-96009685D01*
X162311059Y-96111746D01*
X162286252Y-96252432D01*
X162222819Y-96337954D01*
X162167654Y-96376581D01*
X162065594Y-96406939D01*
X161690429Y-96340787D01*
X162832461Y-96445451D02*
X162746939Y-96382017D01*
X162708312Y-96326853D01*
X162677955Y-96224793D01*
X162686224Y-96177897D01*
X162749657Y-96092375D01*
X162804822Y-96053748D01*
X162906882Y-96023391D01*
X163094465Y-96056467D01*
X163179987Y-96119900D01*
X163218614Y-96175065D01*
X163248971Y-96277125D01*
X163240703Y-96324020D01*
X163177269Y-96409543D01*
X163122105Y-96448169D01*
X163020044Y-96478527D01*
X162832461Y-96445451D01*
X162730401Y-96475808D01*
X162675237Y-96514435D01*
X162611803Y-96599958D01*
X162578727Y-96787540D01*
X162609085Y-96889601D01*
X162647711Y-96944765D01*
X162733234Y-97008198D01*
X162920817Y-97041274D01*
X163022877Y-97010917D01*
X163078041Y-96972290D01*
X163141475Y-96886768D01*
X163174551Y-96699186D01*
X163144193Y-96597125D01*
X163105567Y-96541960D01*
X163020044Y-96478527D01*
X144738095Y-124202381D02*
X144738095Y-125011905D01*
X144785714Y-125107143D01*
X144833333Y-125154762D01*
X144928571Y-125202381D01*
X145119048Y-125202381D01*
X145214286Y-125154762D01*
X145261905Y-125107143D01*
X145309524Y-125011905D01*
X145309524Y-124202381D01*
X145690476Y-124202381D02*
X146309524Y-124202381D01*
X145976190Y-124583333D01*
X146119048Y-124583333D01*
X146214286Y-124630952D01*
X146261905Y-124678571D01*
X146309524Y-124773810D01*
X146309524Y-125011905D01*
X146261905Y-125107143D01*
X146214286Y-125154762D01*
X146119048Y-125202381D01*
X145833333Y-125202381D01*
X145738095Y-125154762D01*
X145690476Y-125107143D01*
X150083334Y-118857143D02*
X150035715Y-118904762D01*
X149892858Y-118952381D01*
X149797620Y-118952381D01*
X149654762Y-118904762D01*
X149559524Y-118809524D01*
X149511905Y-118714286D01*
X149464286Y-118523810D01*
X149464286Y-118380952D01*
X149511905Y-118190476D01*
X149559524Y-118095238D01*
X149654762Y-118000000D01*
X149797620Y-117952381D01*
X149892858Y-117952381D01*
X150035715Y-118000000D01*
X150083334Y-118047619D01*
X151035715Y-118952381D02*
X150464286Y-118952381D01*
X150750000Y-118952381D02*
X150750000Y-117952381D01*
X150654762Y-118095238D01*
X150559524Y-118190476D01*
X150464286Y-118238095D01*
X156393908Y-95678512D02*
X156528595Y-95611168D01*
X156696955Y-95442809D01*
X156730626Y-95341794D01*
X156730626Y-95274450D01*
X156696955Y-95173435D01*
X156629611Y-95106092D01*
X156528596Y-95072420D01*
X156461253Y-95072420D01*
X156360237Y-95106091D01*
X156191877Y-95207107D01*
X156090862Y-95240778D01*
X156023519Y-95240778D01*
X155922504Y-95207107D01*
X155855160Y-95139763D01*
X155821488Y-95038748D01*
X155821488Y-94971405D01*
X155855160Y-94870390D01*
X156023519Y-94702030D01*
X156158206Y-94634687D01*
X157134687Y-95005076D02*
X156427580Y-94297970D01*
X156696955Y-94028595D01*
X156797970Y-93994924D01*
X156865313Y-93994924D01*
X156966328Y-94028595D01*
X157067343Y-94129610D01*
X157101015Y-94230626D01*
X157101015Y-94297969D01*
X157067343Y-94398984D01*
X156797969Y-94668359D01*
X158212183Y-93927580D02*
X157808122Y-94331641D01*
X158010152Y-94129611D02*
X157303045Y-93422504D01*
X157336717Y-93590863D01*
X157336717Y-93725550D01*
X157303045Y-93826565D01*
X152833334Y-123107143D02*
X152785715Y-123154762D01*
X152642858Y-123202381D01*
X152547620Y-123202381D01*
X152404762Y-123154762D01*
X152309524Y-123059524D01*
X152261905Y-122964286D01*
X152214286Y-122773810D01*
X152214286Y-122630952D01*
X152261905Y-122440476D01*
X152309524Y-122345238D01*
X152404762Y-122250000D01*
X152547620Y-122202381D01*
X152642858Y-122202381D01*
X152785715Y-122250000D01*
X152833334Y-122297619D01*
X153690477Y-122535714D02*
X153690477Y-123202381D01*
X153452381Y-122154762D02*
X153214286Y-122869048D01*
X153833334Y-122869048D01*
X166702381Y-124488095D02*
X167511905Y-124488095D01*
X167607143Y-124440476D01*
X167654762Y-124392857D01*
X167702381Y-124297619D01*
X167702381Y-124107142D01*
X167654762Y-124011904D01*
X167607143Y-123964285D01*
X167511905Y-123916666D01*
X166702381Y-123916666D01*
X167702381Y-122916666D02*
X167702381Y-123488095D01*
X167702381Y-123202381D02*
X166702381Y-123202381D01*
X166845238Y-123297619D01*
X166940476Y-123392857D01*
X166988095Y-123488095D01*
X167702381Y-121964285D02*
X167702381Y-122535714D01*
X167702381Y-122250000D02*
X166702381Y-122250000D01*
X166845238Y-122345238D01*
X166940476Y-122440476D01*
X166988095Y-122535714D01*
X136261905Y-117702381D02*
X136261905Y-118511905D01*
X136309524Y-118607143D01*
X136357143Y-118654762D01*
X136452381Y-118702381D01*
X136642858Y-118702381D01*
X136738096Y-118654762D01*
X136785715Y-118607143D01*
X136833334Y-118511905D01*
X136833334Y-117702381D01*
X137833334Y-118702381D02*
X137261905Y-118702381D01*
X137547619Y-118702381D02*
X137547619Y-117702381D01*
X137452381Y-117845238D01*
X137357143Y-117940476D01*
X137261905Y-117988095D01*
X138214286Y-117797619D02*
X138261905Y-117750000D01*
X138357143Y-117702381D01*
X138595239Y-117702381D01*
X138690477Y-117750000D01*
X138738096Y-117797619D01*
X138785715Y-117892857D01*
X138785715Y-117988095D01*
X138738096Y-118130952D01*
X138166667Y-118702381D01*
X138785715Y-118702381D01*
X150333334Y-121607143D02*
X150285715Y-121654762D01*
X150142858Y-121702381D01*
X150047620Y-121702381D01*
X149904762Y-121654762D01*
X149809524Y-121559524D01*
X149761905Y-121464286D01*
X149714286Y-121273810D01*
X149714286Y-121130952D01*
X149761905Y-120940476D01*
X149809524Y-120845238D01*
X149904762Y-120750000D01*
X150047620Y-120702381D01*
X150142858Y-120702381D01*
X150285715Y-120750000D01*
X150333334Y-120797619D01*
X151238096Y-120702381D02*
X150761905Y-120702381D01*
X150714286Y-121178571D01*
X150761905Y-121130952D01*
X150857143Y-121083333D01*
X151095239Y-121083333D01*
X151190477Y-121130952D01*
X151238096Y-121178571D01*
X151285715Y-121273810D01*
X151285715Y-121511905D01*
X151238096Y-121607143D01*
X151190477Y-121654762D01*
X151095239Y-121702381D01*
X150857143Y-121702381D01*
X150761905Y-121654762D01*
X150714286Y-121607143D01*
X160607143Y-118666666D02*
X160654762Y-118714285D01*
X160702381Y-118857142D01*
X160702381Y-118952380D01*
X160654762Y-119095238D01*
X160559524Y-119190476D01*
X160464286Y-119238095D01*
X160273810Y-119285714D01*
X160130952Y-119285714D01*
X159940476Y-119238095D01*
X159845238Y-119190476D01*
X159750000Y-119095238D01*
X159702381Y-118952380D01*
X159702381Y-118857142D01*
X159750000Y-118714285D01*
X159797619Y-118666666D01*
X159702381Y-117809523D02*
X159702381Y-118000000D01*
X159750000Y-118095238D01*
X159797619Y-118142857D01*
X159940476Y-118238095D01*
X160130952Y-118285714D01*
X160511905Y-118285714D01*
X160607143Y-118238095D01*
X160654762Y-118190476D01*
X160702381Y-118095238D01*
X160702381Y-117904761D01*
X160654762Y-117809523D01*
X160607143Y-117761904D01*
X160511905Y-117714285D01*
X160273810Y-117714285D01*
X160178571Y-117761904D01*
X160130952Y-117809523D01*
X160083333Y-117904761D01*
X160083333Y-118095238D01*
X160130952Y-118190476D01*
X160178571Y-118238095D01*
X160273810Y-118285714D01*
X137833334Y-122107143D02*
X137785715Y-122154762D01*
X137642858Y-122202381D01*
X137547620Y-122202381D01*
X137404762Y-122154762D01*
X137309524Y-122059524D01*
X137261905Y-121964286D01*
X137214286Y-121773810D01*
X137214286Y-121630952D01*
X137261905Y-121440476D01*
X137309524Y-121345238D01*
X137404762Y-121250000D01*
X137547620Y-121202381D01*
X137642858Y-121202381D01*
X137785715Y-121250000D01*
X137833334Y-121297619D01*
X138309524Y-122202381D02*
X138500000Y-122202381D01*
X138595239Y-122154762D01*
X138642858Y-122107143D01*
X138738096Y-121964286D01*
X138785715Y-121773810D01*
X138785715Y-121392857D01*
X138738096Y-121297619D01*
X138690477Y-121250000D01*
X138595239Y-121202381D01*
X138404762Y-121202381D01*
X138309524Y-121250000D01*
X138261905Y-121297619D01*
X138214286Y-121392857D01*
X138214286Y-121630952D01*
X138261905Y-121726190D01*
X138309524Y-121773810D01*
X138404762Y-121821429D01*
X138595239Y-121821429D01*
X138690477Y-121773810D01*
X138738096Y-121726190D01*
X138785715Y-121630952D01*
X125857143Y-108957143D02*
X125809524Y-109004762D01*
X125666667Y-109052381D01*
X125571429Y-109052381D01*
X125428571Y-109004762D01*
X125333333Y-108909524D01*
X125285714Y-108814286D01*
X125238095Y-108623810D01*
X125238095Y-108480952D01*
X125285714Y-108290476D01*
X125333333Y-108195238D01*
X125428571Y-108100000D01*
X125571429Y-108052381D01*
X125666667Y-108052381D01*
X125809524Y-108100000D01*
X125857143Y-108147619D01*
X126238095Y-108147619D02*
X126285714Y-108100000D01*
X126380952Y-108052381D01*
X126619048Y-108052381D01*
X126714286Y-108100000D01*
X126761905Y-108147619D01*
X126809524Y-108242857D01*
X126809524Y-108338095D01*
X126761905Y-108480952D01*
X126190476Y-109052381D01*
X126809524Y-109052381D01*
X127714286Y-108052381D02*
X127238095Y-108052381D01*
X127190476Y-108528571D01*
X127238095Y-108480952D01*
X127333333Y-108433333D01*
X127571429Y-108433333D01*
X127666667Y-108480952D01*
X127714286Y-108528571D01*
X127761905Y-108623810D01*
X127761905Y-108861905D01*
X127714286Y-108957143D01*
X127666667Y-109004762D01*
X127571429Y-109052381D01*
X127333333Y-109052381D01*
X127238095Y-109004762D01*
X127190476Y-108957143D01*
X151607143Y-115107143D02*
X151559524Y-115154762D01*
X151416667Y-115202381D01*
X151321429Y-115202381D01*
X151178571Y-115154762D01*
X151083333Y-115059524D01*
X151035714Y-114964286D01*
X150988095Y-114773810D01*
X150988095Y-114630952D01*
X151035714Y-114440476D01*
X151083333Y-114345238D01*
X151178571Y-114250000D01*
X151321429Y-114202381D01*
X151416667Y-114202381D01*
X151559524Y-114250000D01*
X151607143Y-114297619D01*
X151988095Y-114297619D02*
X152035714Y-114250000D01*
X152130952Y-114202381D01*
X152369048Y-114202381D01*
X152464286Y-114250000D01*
X152511905Y-114297619D01*
X152559524Y-114392857D01*
X152559524Y-114488095D01*
X152511905Y-114630952D01*
X151940476Y-115202381D01*
X152559524Y-115202381D01*
X153416667Y-114202381D02*
X153226190Y-114202381D01*
X153130952Y-114250000D01*
X153083333Y-114297619D01*
X152988095Y-114440476D01*
X152940476Y-114630952D01*
X152940476Y-115011905D01*
X152988095Y-115107143D01*
X153035714Y-115154762D01*
X153130952Y-115202381D01*
X153321429Y-115202381D01*
X153416667Y-115154762D01*
X153464286Y-115107143D01*
X153511905Y-115011905D01*
X153511905Y-114773810D01*
X153464286Y-114678571D01*
X153416667Y-114630952D01*
X153321429Y-114583333D01*
X153130952Y-114583333D01*
X153035714Y-114630952D01*
X152988095Y-114678571D01*
X152940476Y-114773810D01*
X151607143Y-110357143D02*
X151559524Y-110404762D01*
X151416667Y-110452381D01*
X151321429Y-110452381D01*
X151178571Y-110404762D01*
X151083333Y-110309524D01*
X151035714Y-110214286D01*
X150988095Y-110023810D01*
X150988095Y-109880952D01*
X151035714Y-109690476D01*
X151083333Y-109595238D01*
X151178571Y-109500000D01*
X151321429Y-109452381D01*
X151416667Y-109452381D01*
X151559524Y-109500000D01*
X151607143Y-109547619D01*
X151988095Y-109547619D02*
X152035714Y-109500000D01*
X152130952Y-109452381D01*
X152369048Y-109452381D01*
X152464286Y-109500000D01*
X152511905Y-109547619D01*
X152559524Y-109642857D01*
X152559524Y-109738095D01*
X152511905Y-109880952D01*
X151940476Y-110452381D01*
X152559524Y-110452381D01*
X152892857Y-109452381D02*
X153559524Y-109452381D01*
X153130952Y-110452381D01*
X138952030Y-88187732D02*
X138379609Y-88086717D01*
X138547969Y-88591794D02*
X137840862Y-87884687D01*
X138110236Y-87615312D01*
X138211252Y-87581641D01*
X138278595Y-87581641D01*
X138379610Y-87615312D01*
X138480625Y-87716328D01*
X138514297Y-87817343D01*
X138514297Y-87884686D01*
X138480625Y-87985701D01*
X138211251Y-88255076D01*
X139625465Y-87514297D02*
X139221404Y-87918359D01*
X139423434Y-87716328D02*
X138716327Y-87009222D01*
X138749999Y-87177580D01*
X138749999Y-87312267D01*
X138716327Y-87413282D01*
X156702381Y-122166666D02*
X156226190Y-122500000D01*
X156702381Y-122738095D02*
X155702381Y-122738095D01*
X155702381Y-122357142D01*
X155750000Y-122261904D01*
X155797619Y-122214285D01*
X155892857Y-122166666D01*
X156035714Y-122166666D01*
X156130952Y-122214285D01*
X156178571Y-122261904D01*
X156226190Y-122357142D01*
X156226190Y-122738095D01*
X155797619Y-121785714D02*
X155750000Y-121738095D01*
X155702381Y-121642857D01*
X155702381Y-121404761D01*
X155750000Y-121309523D01*
X155797619Y-121261904D01*
X155892857Y-121214285D01*
X155988095Y-121214285D01*
X156130952Y-121261904D01*
X156702381Y-121833333D01*
X156702381Y-121214285D01*
X127152381Y-107142857D02*
X126676190Y-107476191D01*
X127152381Y-107714286D02*
X126152381Y-107714286D01*
X126152381Y-107333333D01*
X126200000Y-107238095D01*
X126247619Y-107190476D01*
X126342857Y-107142857D01*
X126485714Y-107142857D01*
X126580952Y-107190476D01*
X126628571Y-107238095D01*
X126676190Y-107333333D01*
X126676190Y-107714286D01*
X126247619Y-106761905D02*
X126200000Y-106714286D01*
X126152381Y-106619048D01*
X126152381Y-106380952D01*
X126200000Y-106285714D01*
X126247619Y-106238095D01*
X126342857Y-106190476D01*
X126438095Y-106190476D01*
X126580952Y-106238095D01*
X127152381Y-106809524D01*
X127152381Y-106190476D01*
X126485714Y-105333333D02*
X127152381Y-105333333D01*
X126104762Y-105571429D02*
X126819048Y-105809524D01*
X126819048Y-105190476D01*
X127252381Y-110642857D02*
X126776190Y-110976191D01*
X127252381Y-111214286D02*
X126252381Y-111214286D01*
X126252381Y-110833333D01*
X126300000Y-110738095D01*
X126347619Y-110690476D01*
X126442857Y-110642857D01*
X126585714Y-110642857D01*
X126680952Y-110690476D01*
X126728571Y-110738095D01*
X126776190Y-110833333D01*
X126776190Y-111214286D01*
X126347619Y-110261905D02*
X126300000Y-110214286D01*
X126252381Y-110119048D01*
X126252381Y-109880952D01*
X126300000Y-109785714D01*
X126347619Y-109738095D01*
X126442857Y-109690476D01*
X126538095Y-109690476D01*
X126680952Y-109738095D01*
X127252381Y-110309524D01*
X127252381Y-109690476D01*
X126252381Y-108833333D02*
X126252381Y-109023810D01*
X126300000Y-109119048D01*
X126347619Y-109166667D01*
X126490476Y-109261905D01*
X126680952Y-109309524D01*
X127061905Y-109309524D01*
X127157143Y-109261905D01*
X127204762Y-109214286D01*
X127252381Y-109119048D01*
X127252381Y-108928571D01*
X127204762Y-108833333D01*
X127157143Y-108785714D01*
X127061905Y-108738095D01*
X126823810Y-108738095D01*
X126728571Y-108785714D01*
X126680952Y-108833333D01*
X126633333Y-108928571D01*
X126633333Y-109119048D01*
X126680952Y-109214286D01*
X126728571Y-109261905D01*
X126823810Y-109309524D01*
X126652381Y-110642857D02*
X126176190Y-110976191D01*
X126652381Y-111214286D02*
X125652381Y-111214286D01*
X125652381Y-110833333D01*
X125700000Y-110738095D01*
X125747619Y-110690476D01*
X125842857Y-110642857D01*
X125985714Y-110642857D01*
X126080952Y-110690476D01*
X126128571Y-110738095D01*
X126176190Y-110833333D01*
X126176190Y-111214286D01*
X125747619Y-110261905D02*
X125700000Y-110214286D01*
X125652381Y-110119048D01*
X125652381Y-109880952D01*
X125700000Y-109785714D01*
X125747619Y-109738095D01*
X125842857Y-109690476D01*
X125938095Y-109690476D01*
X126080952Y-109738095D01*
X126652381Y-110309524D01*
X126652381Y-109690476D01*
X126080952Y-109119048D02*
X126033333Y-109214286D01*
X125985714Y-109261905D01*
X125890476Y-109309524D01*
X125842857Y-109309524D01*
X125747619Y-109261905D01*
X125700000Y-109214286D01*
X125652381Y-109119048D01*
X125652381Y-108928571D01*
X125700000Y-108833333D01*
X125747619Y-108785714D01*
X125842857Y-108738095D01*
X125890476Y-108738095D01*
X125985714Y-108785714D01*
X126033333Y-108833333D01*
X126080952Y-108928571D01*
X126080952Y-109119048D01*
X126128571Y-109214286D01*
X126176190Y-109261905D01*
X126271429Y-109309524D01*
X126461905Y-109309524D01*
X126557143Y-109261905D01*
X126604762Y-109214286D01*
X126652381Y-109119048D01*
X126652381Y-108928571D01*
X126604762Y-108833333D01*
X126557143Y-108785714D01*
X126461905Y-108738095D01*
X126271429Y-108738095D01*
X126176190Y-108785714D01*
X126128571Y-108833333D01*
X126080952Y-108928571D01*
X132770981Y-92843401D02*
X132838325Y-92978088D01*
X133006684Y-93146447D01*
X133107699Y-93180119D01*
X133175043Y-93180119D01*
X133276058Y-93146447D01*
X133343401Y-93079104D01*
X133377073Y-92978089D01*
X133377073Y-92910745D01*
X133343402Y-92809729D01*
X133242386Y-92641370D01*
X133208714Y-92540355D01*
X133208714Y-92473012D01*
X133242386Y-92371996D01*
X133309729Y-92304653D01*
X133410745Y-92270981D01*
X133478088Y-92270981D01*
X133579103Y-92304653D01*
X133747462Y-92473012D01*
X133814806Y-92607699D01*
X134084180Y-92809729D02*
X133545431Y-93685195D01*
X134185196Y-93314806D01*
X133814806Y-93954569D01*
X134690271Y-93415821D01*
X134622928Y-94762691D02*
X134218867Y-94358630D01*
X134420897Y-94560660D02*
X135128004Y-93853553D01*
X134959645Y-93887225D01*
X134824958Y-93887225D01*
X134723943Y-93853553D01*
X162343401Y-94729019D02*
X162478088Y-94661675D01*
X162646447Y-94493316D01*
X162680119Y-94392301D01*
X162680119Y-94324957D01*
X162646447Y-94223942D01*
X162579104Y-94156599D01*
X162478089Y-94122927D01*
X162410745Y-94122927D01*
X162309729Y-94156598D01*
X162141370Y-94257614D01*
X162040355Y-94291286D01*
X161973012Y-94291286D01*
X161871996Y-94257614D01*
X161804653Y-94190271D01*
X161770981Y-94089255D01*
X161770981Y-94021912D01*
X161804653Y-93920897D01*
X161973012Y-93752538D01*
X162107699Y-93685194D01*
X162309729Y-93415820D02*
X163185195Y-93954569D01*
X162814806Y-93314804D01*
X163454569Y-93685194D01*
X162915821Y-92809729D01*
X163218867Y-92641370D02*
X163218867Y-92574027D01*
X163252538Y-92473012D01*
X163420898Y-92304652D01*
X163521913Y-92270981D01*
X163589256Y-92270981D01*
X163690271Y-92304652D01*
X163757615Y-92371996D01*
X163824958Y-92506683D01*
X163824958Y-93314805D01*
X164262691Y-92877072D01*
X163857143Y-108957143D02*
X163809524Y-109004762D01*
X163666667Y-109052381D01*
X163571429Y-109052381D01*
X163428571Y-109004762D01*
X163333333Y-108909524D01*
X163285714Y-108814286D01*
X163238095Y-108623810D01*
X163238095Y-108480952D01*
X163285714Y-108290476D01*
X163333333Y-108195238D01*
X163428571Y-108100000D01*
X163571429Y-108052381D01*
X163666667Y-108052381D01*
X163809524Y-108100000D01*
X163857143Y-108147619D01*
X164809524Y-109052381D02*
X164238095Y-109052381D01*
X164523809Y-109052381D02*
X164523809Y-108052381D01*
X164428571Y-108195238D01*
X164333333Y-108290476D01*
X164238095Y-108338095D01*
X165666667Y-108052381D02*
X165476190Y-108052381D01*
X165380952Y-108100000D01*
X165333333Y-108147619D01*
X165238095Y-108290476D01*
X165190476Y-108480952D01*
X165190476Y-108861905D01*
X165238095Y-108957143D01*
X165285714Y-109004762D01*
X165380952Y-109052381D01*
X165571429Y-109052381D01*
X165666667Y-109004762D01*
X165714286Y-108957143D01*
X165761905Y-108861905D01*
X165761905Y-108623810D01*
X165714286Y-108528571D01*
X165666667Y-108480952D01*
X165571429Y-108433333D01*
X165380952Y-108433333D01*
X165285714Y-108480952D01*
X165238095Y-108528571D01*
X165190476Y-108623810D01*
X169857143Y-108957143D02*
X169809524Y-109004762D01*
X169666667Y-109052381D01*
X169571429Y-109052381D01*
X169428571Y-109004762D01*
X169333333Y-108909524D01*
X169285714Y-108814286D01*
X169238095Y-108623810D01*
X169238095Y-108480952D01*
X169285714Y-108290476D01*
X169333333Y-108195238D01*
X169428571Y-108100000D01*
X169571429Y-108052381D01*
X169666667Y-108052381D01*
X169809524Y-108100000D01*
X169857143Y-108147619D01*
X170809524Y-109052381D02*
X170238095Y-109052381D01*
X170523809Y-109052381D02*
X170523809Y-108052381D01*
X170428571Y-108195238D01*
X170333333Y-108290476D01*
X170238095Y-108338095D01*
X171285714Y-109052381D02*
X171476190Y-109052381D01*
X171571429Y-109004762D01*
X171619048Y-108957143D01*
X171714286Y-108814286D01*
X171761905Y-108623810D01*
X171761905Y-108242857D01*
X171714286Y-108147619D01*
X171666667Y-108100000D01*
X171571429Y-108052381D01*
X171380952Y-108052381D01*
X171285714Y-108100000D01*
X171238095Y-108147619D01*
X171190476Y-108242857D01*
X171190476Y-108480952D01*
X171238095Y-108576190D01*
X171285714Y-108623810D01*
X171380952Y-108671429D01*
X171571429Y-108671429D01*
X171666667Y-108623810D01*
X171714286Y-108576190D01*
X171761905Y-108480952D01*
X131857143Y-108957143D02*
X131809524Y-109004762D01*
X131666667Y-109052381D01*
X131571429Y-109052381D01*
X131428571Y-109004762D01*
X131333333Y-108909524D01*
X131285714Y-108814286D01*
X131238095Y-108623810D01*
X131238095Y-108480952D01*
X131285714Y-108290476D01*
X131333333Y-108195238D01*
X131428571Y-108100000D01*
X131571429Y-108052381D01*
X131666667Y-108052381D01*
X131809524Y-108100000D01*
X131857143Y-108147619D01*
X132238095Y-108147619D02*
X132285714Y-108100000D01*
X132380952Y-108052381D01*
X132619048Y-108052381D01*
X132714286Y-108100000D01*
X132761905Y-108147619D01*
X132809524Y-108242857D01*
X132809524Y-108338095D01*
X132761905Y-108480952D01*
X132190476Y-109052381D01*
X132809524Y-109052381D01*
X133190476Y-108147619D02*
X133238095Y-108100000D01*
X133333333Y-108052381D01*
X133571429Y-108052381D01*
X133666667Y-108100000D01*
X133714286Y-108147619D01*
X133761905Y-108242857D01*
X133761905Y-108338095D01*
X133714286Y-108480952D01*
X133142857Y-109052381D01*
X133761905Y-109052381D01*
X165152381Y-106666666D02*
X164676190Y-107000000D01*
X165152381Y-107238095D02*
X164152381Y-107238095D01*
X164152381Y-106857142D01*
X164200000Y-106761904D01*
X164247619Y-106714285D01*
X164342857Y-106666666D01*
X164485714Y-106666666D01*
X164580952Y-106714285D01*
X164628571Y-106761904D01*
X164676190Y-106857142D01*
X164676190Y-107238095D01*
X164152381Y-105809523D02*
X164152381Y-106000000D01*
X164200000Y-106095238D01*
X164247619Y-106142857D01*
X164390476Y-106238095D01*
X164580952Y-106285714D01*
X164961905Y-106285714D01*
X165057143Y-106238095D01*
X165104762Y-106190476D01*
X165152381Y-106095238D01*
X165152381Y-105904761D01*
X165104762Y-105809523D01*
X165057143Y-105761904D01*
X164961905Y-105714285D01*
X164723810Y-105714285D01*
X164628571Y-105761904D01*
X164580952Y-105809523D01*
X164533333Y-105904761D01*
X164533333Y-106095238D01*
X164580952Y-106190476D01*
X164628571Y-106238095D01*
X164723810Y-106285714D01*
X165252381Y-110166666D02*
X164776190Y-110500000D01*
X165252381Y-110738095D02*
X164252381Y-110738095D01*
X164252381Y-110357142D01*
X164300000Y-110261904D01*
X164347619Y-110214285D01*
X164442857Y-110166666D01*
X164585714Y-110166666D01*
X164680952Y-110214285D01*
X164728571Y-110261904D01*
X164776190Y-110357142D01*
X164776190Y-110738095D01*
X164680952Y-109595238D02*
X164633333Y-109690476D01*
X164585714Y-109738095D01*
X164490476Y-109785714D01*
X164442857Y-109785714D01*
X164347619Y-109738095D01*
X164300000Y-109690476D01*
X164252381Y-109595238D01*
X164252381Y-109404761D01*
X164300000Y-109309523D01*
X164347619Y-109261904D01*
X164442857Y-109214285D01*
X164490476Y-109214285D01*
X164585714Y-109261904D01*
X164633333Y-109309523D01*
X164680952Y-109404761D01*
X164680952Y-109595238D01*
X164728571Y-109690476D01*
X164776190Y-109738095D01*
X164871429Y-109785714D01*
X165061905Y-109785714D01*
X165157143Y-109738095D01*
X165204762Y-109690476D01*
X165252381Y-109595238D01*
X165252381Y-109404761D01*
X165204762Y-109309523D01*
X165157143Y-109261904D01*
X165061905Y-109214285D01*
X164871429Y-109214285D01*
X164776190Y-109261904D01*
X164728571Y-109309523D01*
X164680952Y-109404761D01*
X164652381Y-110642857D02*
X164176190Y-110976191D01*
X164652381Y-111214286D02*
X163652381Y-111214286D01*
X163652381Y-110833333D01*
X163700000Y-110738095D01*
X163747619Y-110690476D01*
X163842857Y-110642857D01*
X163985714Y-110642857D01*
X164080952Y-110690476D01*
X164128571Y-110738095D01*
X164176190Y-110833333D01*
X164176190Y-111214286D01*
X164652381Y-109690476D02*
X164652381Y-110261905D01*
X164652381Y-109976191D02*
X163652381Y-109976191D01*
X163795238Y-110071429D01*
X163890476Y-110166667D01*
X163938095Y-110261905D01*
X163652381Y-109071429D02*
X163652381Y-108976190D01*
X163700000Y-108880952D01*
X163747619Y-108833333D01*
X163842857Y-108785714D01*
X164033333Y-108738095D01*
X164271429Y-108738095D01*
X164461905Y-108785714D01*
X164557143Y-108833333D01*
X164604762Y-108880952D01*
X164652381Y-108976190D01*
X164652381Y-109071429D01*
X164604762Y-109166667D01*
X164557143Y-109214286D01*
X164461905Y-109261905D01*
X164271429Y-109309524D01*
X164033333Y-109309524D01*
X163842857Y-109261905D01*
X163747619Y-109214286D01*
X163700000Y-109166667D01*
X163652381Y-109071429D01*
X171152381Y-107142857D02*
X170676190Y-107476191D01*
X171152381Y-107714286D02*
X170152381Y-107714286D01*
X170152381Y-107333333D01*
X170200000Y-107238095D01*
X170247619Y-107190476D01*
X170342857Y-107142857D01*
X170485714Y-107142857D01*
X170580952Y-107190476D01*
X170628571Y-107238095D01*
X170676190Y-107333333D01*
X170676190Y-107714286D01*
X171152381Y-106190476D02*
X171152381Y-106761905D01*
X171152381Y-106476191D02*
X170152381Y-106476191D01*
X170295238Y-106571429D01*
X170390476Y-106666667D01*
X170438095Y-106761905D01*
X170247619Y-105809524D02*
X170200000Y-105761905D01*
X170152381Y-105666667D01*
X170152381Y-105428571D01*
X170200000Y-105333333D01*
X170247619Y-105285714D01*
X170342857Y-105238095D01*
X170438095Y-105238095D01*
X170580952Y-105285714D01*
X171152381Y-105857143D01*
X171152381Y-105238095D01*
X171252381Y-110642857D02*
X170776190Y-110976191D01*
X171252381Y-111214286D02*
X170252381Y-111214286D01*
X170252381Y-110833333D01*
X170300000Y-110738095D01*
X170347619Y-110690476D01*
X170442857Y-110642857D01*
X170585714Y-110642857D01*
X170680952Y-110690476D01*
X170728571Y-110738095D01*
X170776190Y-110833333D01*
X170776190Y-111214286D01*
X171252381Y-109690476D02*
X171252381Y-110261905D01*
X171252381Y-109976191D02*
X170252381Y-109976191D01*
X170395238Y-110071429D01*
X170490476Y-110166667D01*
X170538095Y-110261905D01*
X170585714Y-108833333D02*
X171252381Y-108833333D01*
X170204762Y-109071429D02*
X170919048Y-109309524D01*
X170919048Y-108690476D01*
X170652381Y-110642857D02*
X170176190Y-110976191D01*
X170652381Y-111214286D02*
X169652381Y-111214286D01*
X169652381Y-110833333D01*
X169700000Y-110738095D01*
X169747619Y-110690476D01*
X169842857Y-110642857D01*
X169985714Y-110642857D01*
X170080952Y-110690476D01*
X170128571Y-110738095D01*
X170176190Y-110833333D01*
X170176190Y-111214286D01*
X170652381Y-109690476D02*
X170652381Y-110261905D01*
X170652381Y-109976191D02*
X169652381Y-109976191D01*
X169795238Y-110071429D01*
X169890476Y-110166667D01*
X169938095Y-110261905D01*
X169652381Y-108833333D02*
X169652381Y-109023810D01*
X169700000Y-109119048D01*
X169747619Y-109166667D01*
X169890476Y-109261905D01*
X170080952Y-109309524D01*
X170461905Y-109309524D01*
X170557143Y-109261905D01*
X170604762Y-109214286D01*
X170652381Y-109119048D01*
X170652381Y-108928571D01*
X170604762Y-108833333D01*
X170557143Y-108785714D01*
X170461905Y-108738095D01*
X170223810Y-108738095D01*
X170128571Y-108785714D01*
X170080952Y-108833333D01*
X170033333Y-108928571D01*
X170033333Y-109119048D01*
X170080952Y-109214286D01*
X170128571Y-109261905D01*
X170223810Y-109309524D01*
X133252381Y-110642857D02*
X132776190Y-110976191D01*
X133252381Y-111214286D02*
X132252381Y-111214286D01*
X132252381Y-110833333D01*
X132300000Y-110738095D01*
X132347619Y-110690476D01*
X132442857Y-110642857D01*
X132585714Y-110642857D01*
X132680952Y-110690476D01*
X132728571Y-110738095D01*
X132776190Y-110833333D01*
X132776190Y-111214286D01*
X132347619Y-110261905D02*
X132300000Y-110214286D01*
X132252381Y-110119048D01*
X132252381Y-109880952D01*
X132300000Y-109785714D01*
X132347619Y-109738095D01*
X132442857Y-109690476D01*
X132538095Y-109690476D01*
X132680952Y-109738095D01*
X133252381Y-110309524D01*
X133252381Y-109690476D01*
X132252381Y-109071429D02*
X132252381Y-108976190D01*
X132300000Y-108880952D01*
X132347619Y-108833333D01*
X132442857Y-108785714D01*
X132633333Y-108738095D01*
X132871429Y-108738095D01*
X133061905Y-108785714D01*
X133157143Y-108833333D01*
X133204762Y-108880952D01*
X133252381Y-108976190D01*
X133252381Y-109071429D01*
X133204762Y-109166667D01*
X133157143Y-109214286D01*
X133061905Y-109261905D01*
X132871429Y-109309524D01*
X132633333Y-109309524D01*
X132442857Y-109261905D01*
X132347619Y-109214286D01*
X132300000Y-109166667D01*
X132252381Y-109071429D01*
X132652381Y-110642857D02*
X132176190Y-110976191D01*
X132652381Y-111214286D02*
X131652381Y-111214286D01*
X131652381Y-110833333D01*
X131700000Y-110738095D01*
X131747619Y-110690476D01*
X131842857Y-110642857D01*
X131985714Y-110642857D01*
X132080952Y-110690476D01*
X132128571Y-110738095D01*
X132176190Y-110833333D01*
X132176190Y-111214286D01*
X131747619Y-110261905D02*
X131700000Y-110214286D01*
X131652381Y-110119048D01*
X131652381Y-109880952D01*
X131700000Y-109785714D01*
X131747619Y-109738095D01*
X131842857Y-109690476D01*
X131938095Y-109690476D01*
X132080952Y-109738095D01*
X132652381Y-110309524D01*
X132652381Y-109690476D01*
X131747619Y-109309524D02*
X131700000Y-109261905D01*
X131652381Y-109166667D01*
X131652381Y-108928571D01*
X131700000Y-108833333D01*
X131747619Y-108785714D01*
X131842857Y-108738095D01*
X131938095Y-108738095D01*
X132080952Y-108785714D01*
X132652381Y-109357143D01*
X132652381Y-108738095D01*
X133152381Y-107142857D02*
X132676190Y-107476191D01*
X133152381Y-107714286D02*
X132152381Y-107714286D01*
X132152381Y-107333333D01*
X132200000Y-107238095D01*
X132247619Y-107190476D01*
X132342857Y-107142857D01*
X132485714Y-107142857D01*
X132580952Y-107190476D01*
X132628571Y-107238095D01*
X132676190Y-107333333D01*
X132676190Y-107714286D01*
X133152381Y-106190476D02*
X133152381Y-106761905D01*
X133152381Y-106476191D02*
X132152381Y-106476191D01*
X132295238Y-106571429D01*
X132390476Y-106666667D01*
X132438095Y-106761905D01*
X132580952Y-105619048D02*
X132533333Y-105714286D01*
X132485714Y-105761905D01*
X132390476Y-105809524D01*
X132342857Y-105809524D01*
X132247619Y-105761905D01*
X132200000Y-105714286D01*
X132152381Y-105619048D01*
X132152381Y-105428571D01*
X132200000Y-105333333D01*
X132247619Y-105285714D01*
X132342857Y-105238095D01*
X132390476Y-105238095D01*
X132485714Y-105285714D01*
X132533333Y-105333333D01*
X132580952Y-105428571D01*
X132580952Y-105619048D01*
X132628571Y-105714286D01*
X132676190Y-105761905D01*
X132771429Y-105809524D01*
X132961905Y-105809524D01*
X133057143Y-105761905D01*
X133104762Y-105714286D01*
X133152381Y-105619048D01*
X133152381Y-105428571D01*
X133104762Y-105333333D01*
X133057143Y-105285714D01*
X132961905Y-105238095D01*
X132771429Y-105238095D01*
X132676190Y-105285714D01*
X132628571Y-105333333D01*
X132580952Y-105428571D01*
X143261905Y-110952381D02*
X143261905Y-109952381D01*
X143642858Y-109952381D01*
X143738096Y-110000000D01*
X143785715Y-110047619D01*
X143833334Y-110142857D01*
X143833334Y-110285714D01*
X143785715Y-110380952D01*
X143738096Y-110428571D01*
X143642858Y-110476190D01*
X143261905Y-110476190D01*
X144166667Y-109952381D02*
X144785715Y-109952381D01*
X144452381Y-110333333D01*
X144595239Y-110333333D01*
X144690477Y-110380952D01*
X144738096Y-110428571D01*
X144785715Y-110523810D01*
X144785715Y-110761905D01*
X144738096Y-110857143D01*
X144690477Y-110904762D01*
X144595239Y-110952381D01*
X144309524Y-110952381D01*
X144214286Y-110904762D01*
X144166667Y-110857143D01*
X153833334Y-116607143D02*
X153785715Y-116654762D01*
X153642858Y-116702381D01*
X153547620Y-116702381D01*
X153404762Y-116654762D01*
X153309524Y-116559524D01*
X153261905Y-116464286D01*
X153214286Y-116273810D01*
X153214286Y-116130952D01*
X153261905Y-115940476D01*
X153309524Y-115845238D01*
X153404762Y-115750000D01*
X153547620Y-115702381D01*
X153642858Y-115702381D01*
X153785715Y-115750000D01*
X153833334Y-115797619D01*
X154214286Y-115797619D02*
X154261905Y-115750000D01*
X154357143Y-115702381D01*
X154595239Y-115702381D01*
X154690477Y-115750000D01*
X154738096Y-115797619D01*
X154785715Y-115892857D01*
X154785715Y-115988095D01*
X154738096Y-116130952D01*
X154166667Y-116702381D01*
X154785715Y-116702381D01*
X152833334Y-125607143D02*
X152785715Y-125654762D01*
X152642858Y-125702381D01*
X152547620Y-125702381D01*
X152404762Y-125654762D01*
X152309524Y-125559524D01*
X152261905Y-125464286D01*
X152214286Y-125273810D01*
X152214286Y-125130952D01*
X152261905Y-124940476D01*
X152309524Y-124845238D01*
X152404762Y-124750000D01*
X152547620Y-124702381D01*
X152642858Y-124702381D01*
X152785715Y-124750000D01*
X152833334Y-124797619D01*
X153166667Y-124702381D02*
X153785715Y-124702381D01*
X153452381Y-125083333D01*
X153595239Y-125083333D01*
X153690477Y-125130952D01*
X153738096Y-125178571D01*
X153785715Y-125273810D01*
X153785715Y-125511905D01*
X153738096Y-125607143D01*
X153690477Y-125654762D01*
X153595239Y-125702381D01*
X153309524Y-125702381D01*
X153214286Y-125654762D01*
X153166667Y-125607143D01*
X158833334Y-121857143D02*
X158785715Y-121904762D01*
X158642858Y-121952381D01*
X158547620Y-121952381D01*
X158404762Y-121904762D01*
X158309524Y-121809524D01*
X158261905Y-121714286D01*
X158214286Y-121523810D01*
X158214286Y-121380952D01*
X158261905Y-121190476D01*
X158309524Y-121095238D01*
X158404762Y-121000000D01*
X158547620Y-120952381D01*
X158642858Y-120952381D01*
X158785715Y-121000000D01*
X158833334Y-121047619D01*
X159166667Y-120952381D02*
X159833334Y-120952381D01*
X159404762Y-121952381D01*
X156083334Y-125607143D02*
X156035715Y-125654762D01*
X155892858Y-125702381D01*
X155797620Y-125702381D01*
X155654762Y-125654762D01*
X155559524Y-125559524D01*
X155511905Y-125464286D01*
X155464286Y-125273810D01*
X155464286Y-125130952D01*
X155511905Y-124940476D01*
X155559524Y-124845238D01*
X155654762Y-124750000D01*
X155797620Y-124702381D01*
X155892858Y-124702381D01*
X156035715Y-124750000D01*
X156083334Y-124797619D01*
X156654762Y-125130952D02*
X156559524Y-125083333D01*
X156511905Y-125035714D01*
X156464286Y-124940476D01*
X156464286Y-124892857D01*
X156511905Y-124797619D01*
X156559524Y-124750000D01*
X156654762Y-124702381D01*
X156845239Y-124702381D01*
X156940477Y-124750000D01*
X156988096Y-124797619D01*
X157035715Y-124892857D01*
X157035715Y-124940476D01*
X156988096Y-125035714D01*
X156940477Y-125083333D01*
X156845239Y-125130952D01*
X156654762Y-125130952D01*
X156559524Y-125178571D01*
X156511905Y-125226190D01*
X156464286Y-125321429D01*
X156464286Y-125511905D01*
X156511905Y-125607143D01*
X156559524Y-125654762D01*
X156654762Y-125702381D01*
X156845239Y-125702381D01*
X156940477Y-125654762D01*
X156988096Y-125607143D01*
X157035715Y-125511905D01*
X157035715Y-125321429D01*
X156988096Y-125226190D01*
X156940477Y-125178571D01*
X156845239Y-125130952D01*
X140357143Y-120642857D02*
X140404762Y-120690476D01*
X140452381Y-120833333D01*
X140452381Y-120928571D01*
X140404762Y-121071429D01*
X140309524Y-121166667D01*
X140214286Y-121214286D01*
X140023810Y-121261905D01*
X139880952Y-121261905D01*
X139690476Y-121214286D01*
X139595238Y-121166667D01*
X139500000Y-121071429D01*
X139452381Y-120928571D01*
X139452381Y-120833333D01*
X139500000Y-120690476D01*
X139547619Y-120642857D01*
X140452381Y-119690476D02*
X140452381Y-120261905D01*
X140452381Y-119976191D02*
X139452381Y-119976191D01*
X139595238Y-120071429D01*
X139690476Y-120166667D01*
X139738095Y-120261905D01*
X139452381Y-119071429D02*
X139452381Y-118976190D01*
X139500000Y-118880952D01*
X139547619Y-118833333D01*
X139642857Y-118785714D01*
X139833333Y-118738095D01*
X140071429Y-118738095D01*
X140261905Y-118785714D01*
X140357143Y-118833333D01*
X140404762Y-118880952D01*
X140452381Y-118976190D01*
X140452381Y-119071429D01*
X140404762Y-119166667D01*
X140357143Y-119214286D01*
X140261905Y-119261905D01*
X140071429Y-119309524D01*
X139833333Y-119309524D01*
X139642857Y-119261905D01*
X139547619Y-119214286D01*
X139500000Y-119166667D01*
X139452381Y-119071429D01*
X142607143Y-91607143D02*
X142559524Y-91654762D01*
X142416667Y-91702381D01*
X142321429Y-91702381D01*
X142178571Y-91654762D01*
X142083333Y-91559524D01*
X142035714Y-91464286D01*
X141988095Y-91273810D01*
X141988095Y-91130952D01*
X142035714Y-90940476D01*
X142083333Y-90845238D01*
X142178571Y-90750000D01*
X142321429Y-90702381D01*
X142416667Y-90702381D01*
X142559524Y-90750000D01*
X142607143Y-90797619D01*
X143559524Y-91702381D02*
X142988095Y-91702381D01*
X143273809Y-91702381D02*
X143273809Y-90702381D01*
X143178571Y-90845238D01*
X143083333Y-90940476D01*
X142988095Y-90988095D01*
X144511905Y-91702381D02*
X143940476Y-91702381D01*
X144226190Y-91702381D02*
X144226190Y-90702381D01*
X144130952Y-90845238D01*
X144035714Y-90940476D01*
X143940476Y-90988095D01*
X153857143Y-90642857D02*
X153904762Y-90690476D01*
X153952381Y-90833333D01*
X153952381Y-90928571D01*
X153904762Y-91071429D01*
X153809524Y-91166667D01*
X153714286Y-91214286D01*
X153523810Y-91261905D01*
X153380952Y-91261905D01*
X153190476Y-91214286D01*
X153095238Y-91166667D01*
X153000000Y-91071429D01*
X152952381Y-90928571D01*
X152952381Y-90833333D01*
X153000000Y-90690476D01*
X153047619Y-90642857D01*
X153952381Y-89690476D02*
X153952381Y-90261905D01*
X153952381Y-89976191D02*
X152952381Y-89976191D01*
X153095238Y-90071429D01*
X153190476Y-90166667D01*
X153238095Y-90261905D01*
X153047619Y-89309524D02*
X153000000Y-89261905D01*
X152952381Y-89166667D01*
X152952381Y-88928571D01*
X153000000Y-88833333D01*
X153047619Y-88785714D01*
X153142857Y-88738095D01*
X153238095Y-88738095D01*
X153380952Y-88785714D01*
X153952381Y-89357143D01*
X153952381Y-88738095D01*
X151857143Y-93857143D02*
X151809524Y-93904762D01*
X151666667Y-93952381D01*
X151571429Y-93952381D01*
X151428571Y-93904762D01*
X151333333Y-93809524D01*
X151285714Y-93714286D01*
X151238095Y-93523810D01*
X151238095Y-93380952D01*
X151285714Y-93190476D01*
X151333333Y-93095238D01*
X151428571Y-93000000D01*
X151571429Y-92952381D01*
X151666667Y-92952381D01*
X151809524Y-93000000D01*
X151857143Y-93047619D01*
X152809524Y-93952381D02*
X152238095Y-93952381D01*
X152523809Y-93952381D02*
X152523809Y-92952381D01*
X152428571Y-93095238D01*
X152333333Y-93190476D01*
X152238095Y-93238095D01*
X153142857Y-92952381D02*
X153761905Y-92952381D01*
X153428571Y-93333333D01*
X153571429Y-93333333D01*
X153666667Y-93380952D01*
X153714286Y-93428571D01*
X153761905Y-93523810D01*
X153761905Y-93761905D01*
X153714286Y-93857143D01*
X153666667Y-93904762D01*
X153571429Y-93952381D01*
X153285714Y-93952381D01*
X153190476Y-93904762D01*
X153142857Y-93857143D01*
X150452381Y-86738095D02*
X149452381Y-86738095D01*
X149452381Y-86500000D01*
X149500000Y-86357142D01*
X149595238Y-86261904D01*
X149690476Y-86214285D01*
X149880952Y-86166666D01*
X150023810Y-86166666D01*
X150214286Y-86214285D01*
X150309524Y-86261904D01*
X150404762Y-86357142D01*
X150452381Y-86500000D01*
X150452381Y-86738095D01*
X150452381Y-85214285D02*
X150452381Y-85785714D01*
X150452381Y-85500000D02*
X149452381Y-85500000D01*
X149595238Y-85595238D01*
X149690476Y-85690476D01*
X149738095Y-85785714D01*
X151285714Y-88202381D02*
X151285714Y-87202381D01*
X151523809Y-87202381D01*
X151666667Y-87250000D01*
X151761905Y-87345238D01*
X151809524Y-87440476D01*
X151857143Y-87630952D01*
X151857143Y-87773810D01*
X151809524Y-87964286D01*
X151761905Y-88059524D01*
X151666667Y-88154762D01*
X151523809Y-88202381D01*
X151285714Y-88202381D01*
X152809524Y-88202381D02*
X152238095Y-88202381D01*
X152523809Y-88202381D02*
X152523809Y-87202381D01*
X152428571Y-87345238D01*
X152333333Y-87440476D01*
X152238095Y-87488095D01*
X153428571Y-87202381D02*
X153523810Y-87202381D01*
X153619048Y-87250000D01*
X153666667Y-87297619D01*
X153714286Y-87392857D01*
X153761905Y-87583333D01*
X153761905Y-87821429D01*
X153714286Y-88011905D01*
X153666667Y-88107143D01*
X153619048Y-88154762D01*
X153523810Y-88202381D01*
X153428571Y-88202381D01*
X153333333Y-88154762D01*
X153285714Y-88107143D01*
X153238095Y-88011905D01*
X153190476Y-87821429D01*
X153190476Y-87583333D01*
X153238095Y-87392857D01*
X153285714Y-87297619D01*
X153333333Y-87250000D01*
X153428571Y-87202381D01*
X146952381Y-87714286D02*
X145952381Y-87714286D01*
X145952381Y-87476191D01*
X146000000Y-87333333D01*
X146095238Y-87238095D01*
X146190476Y-87190476D01*
X146380952Y-87142857D01*
X146523810Y-87142857D01*
X146714286Y-87190476D01*
X146809524Y-87238095D01*
X146904762Y-87333333D01*
X146952381Y-87476191D01*
X146952381Y-87714286D01*
X146952381Y-86190476D02*
X146952381Y-86761905D01*
X146952381Y-86476191D02*
X145952381Y-86476191D01*
X146095238Y-86571429D01*
X146190476Y-86666667D01*
X146238095Y-86761905D01*
X146952381Y-85238095D02*
X146952381Y-85809524D01*
X146952381Y-85523810D02*
X145952381Y-85523810D01*
X146095238Y-85619048D01*
X146190476Y-85714286D01*
X146238095Y-85809524D01*
X136261905Y-108202381D02*
X136261905Y-107202381D01*
X136642858Y-107202381D01*
X136738096Y-107250000D01*
X136785715Y-107297619D01*
X136833334Y-107392857D01*
X136833334Y-107535714D01*
X136785715Y-107630952D01*
X136738096Y-107678571D01*
X136642858Y-107726190D01*
X136261905Y-107726190D01*
X137785715Y-108202381D02*
X137214286Y-108202381D01*
X137500000Y-108202381D02*
X137500000Y-107202381D01*
X137404762Y-107345238D01*
X137309524Y-107440476D01*
X137214286Y-107488095D01*
X138261905Y-111952381D02*
X138261905Y-110952381D01*
X138642858Y-110952381D01*
X138738096Y-111000000D01*
X138785715Y-111047619D01*
X138833334Y-111142857D01*
X138833334Y-111285714D01*
X138785715Y-111380952D01*
X138738096Y-111428571D01*
X138642858Y-111476190D01*
X138261905Y-111476190D01*
X139214286Y-111047619D02*
X139261905Y-111000000D01*
X139357143Y-110952381D01*
X139595239Y-110952381D01*
X139690477Y-111000000D01*
X139738096Y-111047619D01*
X139785715Y-111142857D01*
X139785715Y-111238095D01*
X139738096Y-111380952D01*
X139166667Y-111952381D01*
X139785715Y-111952381D01*
X142643233Y-97446279D02*
X141936126Y-96739172D01*
X142205500Y-96469797D01*
X142306516Y-96436126D01*
X142373859Y-96436126D01*
X142474874Y-96469797D01*
X142575889Y-96570812D01*
X142609561Y-96671828D01*
X142609561Y-96739171D01*
X142575889Y-96840186D01*
X142306515Y-97109561D01*
X143720729Y-96368782D02*
X143316668Y-96772843D01*
X143518698Y-96570813D02*
X142811591Y-95863706D01*
X142845263Y-96032065D01*
X142845263Y-96166752D01*
X142811591Y-96267767D01*
X143619714Y-95055584D02*
X143485026Y-95190271D01*
X143451355Y-95291286D01*
X143451355Y-95358630D01*
X143485026Y-95526989D01*
X143586042Y-95695347D01*
X143855416Y-95964722D01*
X143956431Y-95998393D01*
X144023775Y-95998393D01*
X144124790Y-95964722D01*
X144259477Y-95830034D01*
X144293149Y-95729019D01*
X144293149Y-95661675D01*
X144259477Y-95560660D01*
X144091119Y-95392302D01*
X143990103Y-95358629D01*
X143922759Y-95358629D01*
X143821744Y-95392301D01*
X143687057Y-95526989D01*
X143653385Y-95628004D01*
X143653385Y-95695347D01*
X143687057Y-95796363D01*
X136285714Y-104452381D02*
X136285714Y-103452381D01*
X136666667Y-103452381D01*
X136761905Y-103500000D01*
X136809524Y-103547619D01*
X136857143Y-103642857D01*
X136857143Y-103785714D01*
X136809524Y-103880952D01*
X136761905Y-103928571D01*
X136666667Y-103976190D01*
X136285714Y-103976190D01*
X137809524Y-104452381D02*
X137238095Y-104452381D01*
X137523809Y-104452381D02*
X137523809Y-103452381D01*
X137428571Y-103595238D01*
X137333333Y-103690476D01*
X137238095Y-103738095D01*
X138142857Y-103452381D02*
X138809524Y-103452381D01*
X138380952Y-104452381D01*
X160797619Y-99095238D02*
X160750000Y-99190476D01*
X160654762Y-99285714D01*
X160511905Y-99428571D01*
X160464286Y-99523810D01*
X160464286Y-99619048D01*
X160702381Y-99571429D02*
X160654762Y-99666667D01*
X160559524Y-99761905D01*
X160369048Y-99809524D01*
X160035714Y-99809524D01*
X159845238Y-99761905D01*
X159750000Y-99666667D01*
X159702381Y-99571429D01*
X159702381Y-99380952D01*
X159750000Y-99285714D01*
X159845238Y-99190476D01*
X160035714Y-99142857D01*
X160369048Y-99142857D01*
X160559524Y-99190476D01*
X160654762Y-99285714D01*
X160702381Y-99380952D01*
X160702381Y-99571429D01*
X159702381Y-98238095D02*
X159702381Y-98714286D01*
X160178571Y-98761905D01*
X160130952Y-98714286D01*
X160083333Y-98619048D01*
X160083333Y-98380952D01*
X160130952Y-98285714D01*
X160178571Y-98238095D01*
X160273810Y-98190476D01*
X160511905Y-98190476D01*
X160607143Y-98238095D01*
X160654762Y-98285714D01*
X160702381Y-98380952D01*
X160702381Y-98619048D01*
X160654762Y-98714286D01*
X160607143Y-98761905D01*
X132904762Y-100547619D02*
X132809524Y-100500000D01*
X132714286Y-100404762D01*
X132571429Y-100261905D01*
X132476190Y-100214286D01*
X132380952Y-100214286D01*
X132428571Y-100452381D02*
X132333333Y-100404762D01*
X132238095Y-100309524D01*
X132190476Y-100119048D01*
X132190476Y-99785714D01*
X132238095Y-99595238D01*
X132333333Y-99500000D01*
X132428571Y-99452381D01*
X132619048Y-99452381D01*
X132714286Y-99500000D01*
X132809524Y-99595238D01*
X132857143Y-99785714D01*
X132857143Y-100119048D01*
X132809524Y-100309524D01*
X132714286Y-100404762D01*
X132619048Y-100452381D01*
X132428571Y-100452381D01*
X133714286Y-99452381D02*
X133523809Y-99452381D01*
X133428571Y-99500000D01*
X133380952Y-99547619D01*
X133285714Y-99690476D01*
X133238095Y-99880952D01*
X133238095Y-100261905D01*
X133285714Y-100357143D01*
X133333333Y-100404762D01*
X133428571Y-100452381D01*
X133619048Y-100452381D01*
X133714286Y-100404762D01*
X133761905Y-100357143D01*
X133809524Y-100261905D01*
X133809524Y-100023810D01*
X133761905Y-99928571D01*
X133714286Y-99880952D01*
X133619048Y-99833333D01*
X133428571Y-99833333D01*
X133333333Y-99880952D01*
X133285714Y-99928571D01*
X133238095Y-100023810D01*
X143333334Y-90452381D02*
X143000000Y-89976190D01*
X142761905Y-90452381D02*
X142761905Y-89452381D01*
X143142858Y-89452381D01*
X143238096Y-89500000D01*
X143285715Y-89547619D01*
X143333334Y-89642857D01*
X143333334Y-89785714D01*
X143285715Y-89880952D01*
X143238096Y-89928571D01*
X143142858Y-89976190D01*
X142761905Y-89976190D01*
X143666667Y-89452381D02*
X144285715Y-89452381D01*
X143952381Y-89833333D01*
X144095239Y-89833333D01*
X144190477Y-89880952D01*
X144238096Y-89928571D01*
X144285715Y-90023810D01*
X144285715Y-90261905D01*
X144238096Y-90357143D01*
X144190477Y-90404762D01*
X144095239Y-90452381D01*
X143809524Y-90452381D01*
X143714286Y-90404762D01*
X143666667Y-90357143D01*
X149833334Y-88202381D02*
X149500000Y-87726190D01*
X149261905Y-88202381D02*
X149261905Y-87202381D01*
X149642858Y-87202381D01*
X149738096Y-87250000D01*
X149785715Y-87297619D01*
X149833334Y-87392857D01*
X149833334Y-87535714D01*
X149785715Y-87630952D01*
X149738096Y-87678571D01*
X149642858Y-87726190D01*
X149261905Y-87726190D01*
X150690477Y-87535714D02*
X150690477Y-88202381D01*
X150452381Y-87154762D02*
X150214286Y-87869048D01*
X150833334Y-87869048D01*
X144833334Y-94202381D02*
X144500000Y-93726190D01*
X144261905Y-94202381D02*
X144261905Y-93202381D01*
X144642858Y-93202381D01*
X144738096Y-93250000D01*
X144785715Y-93297619D01*
X144833334Y-93392857D01*
X144833334Y-93535714D01*
X144785715Y-93630952D01*
X144738096Y-93678571D01*
X144642858Y-93726190D01*
X144261905Y-93726190D01*
X145738096Y-93202381D02*
X145261905Y-93202381D01*
X145214286Y-93678571D01*
X145261905Y-93630952D01*
X145357143Y-93583333D01*
X145595239Y-93583333D01*
X145690477Y-93630952D01*
X145738096Y-93678571D01*
X145785715Y-93773810D01*
X145785715Y-94011905D01*
X145738096Y-94107143D01*
X145690477Y-94154762D01*
X145595239Y-94202381D01*
X145357143Y-94202381D01*
X145261905Y-94154762D01*
X145214286Y-94107143D01*
X156607143Y-87952381D02*
X156273809Y-87476190D01*
X156035714Y-87952381D02*
X156035714Y-86952381D01*
X156416667Y-86952381D01*
X156511905Y-87000000D01*
X156559524Y-87047619D01*
X156607143Y-87142857D01*
X156607143Y-87285714D01*
X156559524Y-87380952D01*
X156511905Y-87428571D01*
X156416667Y-87476190D01*
X156035714Y-87476190D01*
X156940476Y-86952381D02*
X157559524Y-86952381D01*
X157226190Y-87333333D01*
X157369048Y-87333333D01*
X157464286Y-87380952D01*
X157511905Y-87428571D01*
X157559524Y-87523810D01*
X157559524Y-87761905D01*
X157511905Y-87857143D01*
X157464286Y-87904762D01*
X157369048Y-87952381D01*
X157083333Y-87952381D01*
X156988095Y-87904762D01*
X156940476Y-87857143D01*
X158178571Y-86952381D02*
X158273810Y-86952381D01*
X158369048Y-87000000D01*
X158416667Y-87047619D01*
X158464286Y-87142857D01*
X158511905Y-87333333D01*
X158511905Y-87571429D01*
X158464286Y-87761905D01*
X158416667Y-87857143D01*
X158369048Y-87904762D01*
X158273810Y-87952381D01*
X158178571Y-87952381D01*
X158083333Y-87904762D01*
X158035714Y-87857143D01*
X157988095Y-87761905D01*
X157940476Y-87571429D01*
X157940476Y-87333333D01*
X157988095Y-87142857D01*
X158035714Y-87047619D01*
X158083333Y-87000000D01*
X158178571Y-86952381D01*
X143357143Y-88452381D02*
X143023809Y-87976190D01*
X142785714Y-88452381D02*
X142785714Y-87452381D01*
X143166667Y-87452381D01*
X143261905Y-87500000D01*
X143309524Y-87547619D01*
X143357143Y-87642857D01*
X143357143Y-87785714D01*
X143309524Y-87880952D01*
X143261905Y-87928571D01*
X143166667Y-87976190D01*
X142785714Y-87976190D01*
X143690476Y-87452381D02*
X144309524Y-87452381D01*
X143976190Y-87833333D01*
X144119048Y-87833333D01*
X144214286Y-87880952D01*
X144261905Y-87928571D01*
X144309524Y-88023810D01*
X144309524Y-88261905D01*
X144261905Y-88357143D01*
X144214286Y-88404762D01*
X144119048Y-88452381D01*
X143833333Y-88452381D01*
X143738095Y-88404762D01*
X143690476Y-88357143D01*
X145261905Y-88452381D02*
X144690476Y-88452381D01*
X144976190Y-88452381D02*
X144976190Y-87452381D01*
X144880952Y-87595238D01*
X144785714Y-87690476D01*
X144690476Y-87738095D01*
X163752381Y-99642857D02*
X163276190Y-99976191D01*
X163752381Y-100214286D02*
X162752381Y-100214286D01*
X162752381Y-99833333D01*
X162800000Y-99738095D01*
X162847619Y-99690476D01*
X162942857Y-99642857D01*
X163085714Y-99642857D01*
X163180952Y-99690476D01*
X163228571Y-99738095D01*
X163276190Y-99833333D01*
X163276190Y-100214286D01*
X162752381Y-99309524D02*
X162752381Y-98690476D01*
X163133333Y-99023810D01*
X163133333Y-98880952D01*
X163180952Y-98785714D01*
X163228571Y-98738095D01*
X163323810Y-98690476D01*
X163561905Y-98690476D01*
X163657143Y-98738095D01*
X163704762Y-98785714D01*
X163752381Y-98880952D01*
X163752381Y-99166667D01*
X163704762Y-99261905D01*
X163657143Y-99309524D01*
X162847619Y-98309524D02*
X162800000Y-98261905D01*
X162752381Y-98166667D01*
X162752381Y-97928571D01*
X162800000Y-97833333D01*
X162847619Y-97785714D01*
X162942857Y-97738095D01*
X163038095Y-97738095D01*
X163180952Y-97785714D01*
X163752381Y-98357143D01*
X163752381Y-97738095D01*
X140452381Y-101142857D02*
X139976190Y-101476191D01*
X140452381Y-101714286D02*
X139452381Y-101714286D01*
X139452381Y-101333333D01*
X139500000Y-101238095D01*
X139547619Y-101190476D01*
X139642857Y-101142857D01*
X139785714Y-101142857D01*
X139880952Y-101190476D01*
X139928571Y-101238095D01*
X139976190Y-101333333D01*
X139976190Y-101714286D01*
X139452381Y-100809524D02*
X139452381Y-100190476D01*
X139833333Y-100523810D01*
X139833333Y-100380952D01*
X139880952Y-100285714D01*
X139928571Y-100238095D01*
X140023810Y-100190476D01*
X140261905Y-100190476D01*
X140357143Y-100238095D01*
X140404762Y-100285714D01*
X140452381Y-100380952D01*
X140452381Y-100666667D01*
X140404762Y-100761905D01*
X140357143Y-100809524D01*
X139452381Y-99857143D02*
X139452381Y-99238095D01*
X139833333Y-99571429D01*
X139833333Y-99428571D01*
X139880952Y-99333333D01*
X139928571Y-99285714D01*
X140023810Y-99238095D01*
X140261905Y-99238095D01*
X140357143Y-99285714D01*
X140404762Y-99333333D01*
X140452381Y-99428571D01*
X140452381Y-99714286D01*
X140404762Y-99809524D01*
X140357143Y-99857143D01*
X147738095Y-93952381D02*
X147738095Y-94761905D01*
X147785714Y-94857143D01*
X147833333Y-94904762D01*
X147928571Y-94952381D01*
X148119048Y-94952381D01*
X148214286Y-94904762D01*
X148261905Y-94857143D01*
X148309524Y-94761905D01*
X148309524Y-93952381D01*
X149261905Y-93952381D02*
X148785714Y-93952381D01*
X148738095Y-94428571D01*
X148785714Y-94380952D01*
X148880952Y-94333333D01*
X149119048Y-94333333D01*
X149214286Y-94380952D01*
X149261905Y-94428571D01*
X149309524Y-94523810D01*
X149309524Y-94761905D01*
X149261905Y-94857143D01*
X149214286Y-94904762D01*
X149119048Y-94952381D01*
X148880952Y-94952381D01*
X148785714Y-94904762D01*
X148738095Y-94857143D01*
X133702381Y-123761905D02*
X134511905Y-123761905D01*
X134607143Y-123714286D01*
X134654762Y-123666667D01*
X134702381Y-123571429D01*
X134702381Y-123380952D01*
X134654762Y-123285714D01*
X134607143Y-123238095D01*
X134511905Y-123190476D01*
X133702381Y-123190476D01*
X134035714Y-122285714D02*
X134702381Y-122285714D01*
X133654762Y-122523810D02*
X134369048Y-122761905D01*
X134369048Y-122142857D01*
X158607143Y-114392857D02*
X158654762Y-114440476D01*
X158702381Y-114583333D01*
X158702381Y-114678571D01*
X158654762Y-114821429D01*
X158559524Y-114916667D01*
X158464286Y-114964286D01*
X158273810Y-115011905D01*
X158130952Y-115011905D01*
X157940476Y-114964286D01*
X157845238Y-114916667D01*
X157750000Y-114821429D01*
X157702381Y-114678571D01*
X157702381Y-114583333D01*
X157750000Y-114440476D01*
X157797619Y-114392857D01*
X157797619Y-114011905D02*
X157750000Y-113964286D01*
X157702381Y-113869048D01*
X157702381Y-113630952D01*
X157750000Y-113535714D01*
X157797619Y-113488095D01*
X157892857Y-113440476D01*
X157988095Y-113440476D01*
X158130952Y-113488095D01*
X158702381Y-114059524D01*
X158702381Y-113440476D01*
X158130952Y-112869048D02*
X158083333Y-112964286D01*
X158035714Y-113011905D01*
X157940476Y-113059524D01*
X157892857Y-113059524D01*
X157797619Y-113011905D01*
X157750000Y-112964286D01*
X157702381Y-112869048D01*
X157702381Y-112678571D01*
X157750000Y-112583333D01*
X157797619Y-112535714D01*
X157892857Y-112488095D01*
X157940476Y-112488095D01*
X158035714Y-112535714D01*
X158083333Y-112583333D01*
X158130952Y-112678571D01*
X158130952Y-112869048D01*
X158178571Y-112964286D01*
X158226190Y-113011905D01*
X158321429Y-113059524D01*
X158511905Y-113059524D01*
X158607143Y-113011905D01*
X158654762Y-112964286D01*
X158702381Y-112869048D01*
X158702381Y-112678571D01*
X158654762Y-112583333D01*
X158607143Y-112535714D01*
X158511905Y-112488095D01*
X158321429Y-112488095D01*
X158226190Y-112535714D01*
X158178571Y-112583333D01*
X158130952Y-112678571D01*
X159857143Y-114392857D02*
X159904762Y-114440476D01*
X159952381Y-114583333D01*
X159952381Y-114678571D01*
X159904762Y-114821429D01*
X159809524Y-114916667D01*
X159714286Y-114964286D01*
X159523810Y-115011905D01*
X159380952Y-115011905D01*
X159190476Y-114964286D01*
X159095238Y-114916667D01*
X159000000Y-114821429D01*
X158952381Y-114678571D01*
X158952381Y-114583333D01*
X159000000Y-114440476D01*
X159047619Y-114392857D01*
X159047619Y-114011905D02*
X159000000Y-113964286D01*
X158952381Y-113869048D01*
X158952381Y-113630952D01*
X159000000Y-113535714D01*
X159047619Y-113488095D01*
X159142857Y-113440476D01*
X159238095Y-113440476D01*
X159380952Y-113488095D01*
X159952381Y-114059524D01*
X159952381Y-113440476D01*
X159952381Y-112964286D02*
X159952381Y-112773810D01*
X159904762Y-112678571D01*
X159857143Y-112630952D01*
X159714286Y-112535714D01*
X159523810Y-112488095D01*
X159142857Y-112488095D01*
X159047619Y-112535714D01*
X159000000Y-112583333D01*
X158952381Y-112678571D01*
X158952381Y-112869048D01*
X159000000Y-112964286D01*
X159047619Y-113011905D01*
X159142857Y-113059524D01*
X159380952Y-113059524D01*
X159476190Y-113011905D01*
X159523810Y-112964286D01*
X159571429Y-112869048D01*
X159571429Y-112678571D01*
X159523810Y-112583333D01*
X159476190Y-112535714D01*
X159380952Y-112488095D01*
X160702381Y-112214286D02*
X159702381Y-112214286D01*
X159702381Y-111833333D01*
X159750000Y-111738095D01*
X159797619Y-111690476D01*
X159892857Y-111642857D01*
X160035714Y-111642857D01*
X160130952Y-111690476D01*
X160178571Y-111738095D01*
X160226190Y-111833333D01*
X160226190Y-112214286D01*
X160702381Y-110690476D02*
X160702381Y-111261905D01*
X160702381Y-110976191D02*
X159702381Y-110976191D01*
X159845238Y-111071429D01*
X159940476Y-111166667D01*
X159988095Y-111261905D01*
X160702381Y-110214286D02*
X160702381Y-110023810D01*
X160654762Y-109928571D01*
X160607143Y-109880952D01*
X160464286Y-109785714D01*
X160273810Y-109738095D01*
X159892857Y-109738095D01*
X159797619Y-109785714D01*
X159750000Y-109833333D01*
X159702381Y-109928571D01*
X159702381Y-110119048D01*
X159750000Y-110214286D01*
X159797619Y-110261905D01*
X159892857Y-110309524D01*
X160130952Y-110309524D01*
X160226190Y-110261905D01*
X160273810Y-110214286D01*
X160321429Y-110119048D01*
X160321429Y-109928571D01*
X160273810Y-109833333D01*
X160226190Y-109785714D01*
X160130952Y-109738095D01*
X139785714Y-133702381D02*
X139785714Y-132702381D01*
X140166667Y-132702381D01*
X140261905Y-132750000D01*
X140309524Y-132797619D01*
X140357143Y-132892857D01*
X140357143Y-133035714D01*
X140309524Y-133130952D01*
X140261905Y-133178571D01*
X140166667Y-133226190D01*
X139785714Y-133226190D01*
X141309524Y-133702381D02*
X140738095Y-133702381D01*
X141023809Y-133702381D02*
X141023809Y-132702381D01*
X140928571Y-132845238D01*
X140833333Y-132940476D01*
X140738095Y-132988095D01*
X141880952Y-133130952D02*
X141785714Y-133083333D01*
X141738095Y-133035714D01*
X141690476Y-132940476D01*
X141690476Y-132892857D01*
X141738095Y-132797619D01*
X141785714Y-132750000D01*
X141880952Y-132702381D01*
X142071429Y-132702381D01*
X142166667Y-132750000D01*
X142214286Y-132797619D01*
X142261905Y-132892857D01*
X142261905Y-132940476D01*
X142214286Y-133035714D01*
X142166667Y-133083333D01*
X142071429Y-133130952D01*
X141880952Y-133130952D01*
X141785714Y-133178571D01*
X141738095Y-133226190D01*
X141690476Y-133321429D01*
X141690476Y-133511905D01*
X141738095Y-133607143D01*
X141785714Y-133654762D01*
X141880952Y-133702381D01*
X142071429Y-133702381D01*
X142166667Y-133654762D01*
X142214286Y-133607143D01*
X142261905Y-133511905D01*
X142261905Y-133321429D01*
X142214286Y-133226190D01*
X142166667Y-133178571D01*
X142071429Y-133130952D01*
X159202381Y-118666666D02*
X159202381Y-119142857D01*
X158202381Y-119142857D01*
X159202381Y-117809523D02*
X159202381Y-118380952D01*
X159202381Y-118095238D02*
X158202381Y-118095238D01*
X158345238Y-118190476D01*
X158440476Y-118285714D01*
X158488095Y-118380952D01*
X158238095Y-122202381D02*
X158238095Y-123011905D01*
X158285714Y-123107143D01*
X158333333Y-123154762D01*
X158428571Y-123202381D01*
X158619048Y-123202381D01*
X158714286Y-123154762D01*
X158761905Y-123107143D01*
X158809524Y-123011905D01*
X158809524Y-122202381D01*
X159238095Y-122297619D02*
X159285714Y-122250000D01*
X159380952Y-122202381D01*
X159619048Y-122202381D01*
X159714286Y-122250000D01*
X159761905Y-122297619D01*
X159809524Y-122392857D01*
X159809524Y-122488095D01*
X159761905Y-122630952D01*
X159190476Y-123202381D01*
X159809524Y-123202381D01*
X155285714Y-109452381D02*
X155285714Y-108452381D01*
X155666667Y-108452381D01*
X155761905Y-108500000D01*
X155809524Y-108547619D01*
X155857143Y-108642857D01*
X155857143Y-108785714D01*
X155809524Y-108880952D01*
X155761905Y-108928571D01*
X155666667Y-108976190D01*
X155285714Y-108976190D01*
X156809524Y-109452381D02*
X156238095Y-109452381D01*
X156523809Y-109452381D02*
X156523809Y-108452381D01*
X156428571Y-108595238D01*
X156333333Y-108690476D01*
X156238095Y-108738095D01*
X157666667Y-108785714D02*
X157666667Y-109452381D01*
X157428571Y-108404762D02*
X157190476Y-109119048D01*
X157809524Y-109119048D01*
X139285714Y-109452381D02*
X139285714Y-108452381D01*
X139666667Y-108452381D01*
X139761905Y-108500000D01*
X139809524Y-108547619D01*
X139857143Y-108642857D01*
X139857143Y-108785714D01*
X139809524Y-108880952D01*
X139761905Y-108928571D01*
X139666667Y-108976190D01*
X139285714Y-108976190D01*
X140809524Y-109452381D02*
X140238095Y-109452381D01*
X140523809Y-109452381D02*
X140523809Y-108452381D01*
X140428571Y-108595238D01*
X140333333Y-108690476D01*
X140238095Y-108738095D01*
X141190476Y-108547619D02*
X141238095Y-108500000D01*
X141333333Y-108452381D01*
X141571429Y-108452381D01*
X141666667Y-108500000D01*
X141714286Y-108547619D01*
X141761905Y-108642857D01*
X141761905Y-108738095D01*
X141714286Y-108880952D01*
X141142857Y-109452381D01*
X141761905Y-109452381D01*
X147261905Y-109452381D02*
X147261905Y-110261905D01*
X147309524Y-110357143D01*
X147357143Y-110404762D01*
X147452381Y-110452381D01*
X147642858Y-110452381D01*
X147738096Y-110404762D01*
X147785715Y-110357143D01*
X147833334Y-110261905D01*
X147833334Y-109452381D01*
X148833334Y-110452381D02*
X148261905Y-110452381D01*
X148547619Y-110452381D02*
X148547619Y-109452381D01*
X148452381Y-109595238D01*
X148357143Y-109690476D01*
X148261905Y-109738095D01*
X149452381Y-109452381D02*
X149547620Y-109452381D01*
X149642858Y-109500000D01*
X149690477Y-109547619D01*
X149738096Y-109642857D01*
X149785715Y-109833333D01*
X149785715Y-110071429D01*
X149738096Y-110261905D01*
X149690477Y-110357143D01*
X149642858Y-110404762D01*
X149547620Y-110452381D01*
X149452381Y-110452381D01*
X149357143Y-110404762D01*
X149309524Y-110357143D01*
X149261905Y-110261905D01*
X149214286Y-110071429D01*
X149214286Y-109833333D01*
X149261905Y-109642857D01*
X149309524Y-109547619D01*
X149357143Y-109500000D01*
X149452381Y-109452381D01*
X125285714Y-111952381D02*
X125285714Y-110952381D01*
X125666667Y-110952381D01*
X125761905Y-111000000D01*
X125809524Y-111047619D01*
X125857143Y-111142857D01*
X125857143Y-111285714D01*
X125809524Y-111380952D01*
X125761905Y-111428571D01*
X125666667Y-111476190D01*
X125285714Y-111476190D01*
X126809524Y-111952381D02*
X126238095Y-111952381D01*
X126523809Y-111952381D02*
X126523809Y-110952381D01*
X126428571Y-111095238D01*
X126333333Y-111190476D01*
X126238095Y-111238095D01*
X127761905Y-111952381D02*
X127190476Y-111952381D01*
X127476190Y-111952381D02*
X127476190Y-110952381D01*
X127380952Y-111095238D01*
X127285714Y-111190476D01*
X127190476Y-111238095D01*
X169761905Y-111952381D02*
X169761905Y-110952381D01*
X170142858Y-110952381D01*
X170238096Y-111000000D01*
X170285715Y-111047619D01*
X170333334Y-111142857D01*
X170333334Y-111285714D01*
X170285715Y-111380952D01*
X170238096Y-111428571D01*
X170142858Y-111476190D01*
X169761905Y-111476190D01*
X170666667Y-110952381D02*
X171333334Y-110952381D01*
X170904762Y-111952381D01*
X163761905Y-111952381D02*
X163761905Y-110952381D01*
X164142858Y-110952381D01*
X164238096Y-111000000D01*
X164285715Y-111047619D01*
X164333334Y-111142857D01*
X164333334Y-111285714D01*
X164285715Y-111380952D01*
X164238096Y-111428571D01*
X164142858Y-111476190D01*
X163761905Y-111476190D01*
X165238096Y-110952381D02*
X164761905Y-110952381D01*
X164714286Y-111428571D01*
X164761905Y-111380952D01*
X164857143Y-111333333D01*
X165095239Y-111333333D01*
X165190477Y-111380952D01*
X165238096Y-111428571D01*
X165285715Y-111523810D01*
X165285715Y-111761905D01*
X165238096Y-111857143D01*
X165190477Y-111904762D01*
X165095239Y-111952381D01*
X164857143Y-111952381D01*
X164761905Y-111904762D01*
X164714286Y-111857143D01*
X131761905Y-111952381D02*
X131761905Y-110952381D01*
X132142858Y-110952381D01*
X132238096Y-111000000D01*
X132285715Y-111047619D01*
X132333334Y-111142857D01*
X132333334Y-111285714D01*
X132285715Y-111380952D01*
X132238096Y-111428571D01*
X132142858Y-111476190D01*
X131761905Y-111476190D01*
X132809524Y-111952381D02*
X133000000Y-111952381D01*
X133095239Y-111904762D01*
X133142858Y-111857143D01*
X133238096Y-111714286D01*
X133285715Y-111523810D01*
X133285715Y-111142857D01*
X133238096Y-111047619D01*
X133190477Y-111000000D01*
X133095239Y-110952381D01*
X132904762Y-110952381D01*
X132809524Y-111000000D01*
X132761905Y-111047619D01*
X132714286Y-111142857D01*
X132714286Y-111380952D01*
X132761905Y-111476190D01*
X132809524Y-111523810D01*
X132904762Y-111571429D01*
X133095239Y-111571429D01*
X133190477Y-111523810D01*
X133238096Y-111476190D01*
X133285715Y-111380952D01*
X147848477Y-123824027D02*
X147276057Y-124396447D01*
X147242385Y-124497462D01*
X147242385Y-124564805D01*
X147276057Y-124665820D01*
X147410745Y-124800508D01*
X147511760Y-124834180D01*
X147579103Y-124834180D01*
X147680118Y-124800508D01*
X148252538Y-124228088D01*
X148252538Y-125642302D02*
X147848477Y-125238240D01*
X148050507Y-125440271D02*
X148757614Y-124733164D01*
X148589255Y-124766836D01*
X148454569Y-124766836D01*
X148353553Y-124733164D01*
M02*
