G04 #@! TF.FileFunction,Copper,L1,Top,Signal*
%FSLAX46Y46*%
G04 Gerber Fmt 4.6, Leading zero omitted, Abs format (unit mm)*
G04 Created by KiCad (PCBNEW 4.0.1-stable) date 2017/02/17 13:25:48*
%MOMM*%
G01*
G04 APERTURE LIST*
%ADD10C,0.100000*%
%ADD11R,0.300000X0.350000*%
%ADD12R,0.400000X1.200000*%
%ADD13R,1.000000X0.750000*%
%ADD14R,0.350000X0.300000*%
%ADD15R,0.600000X0.500000*%
%ADD16R,1.000000X1.250000*%
%ADD17R,0.430000X0.280000*%
%ADD18R,0.600000X0.400000*%
%ADD19R,1.200000X1.400000*%
%ADD20R,0.400000X0.800000*%
%ADD21R,1.000000X1.500000*%
%ADD22C,1.200000*%
%ADD23R,1.250000X0.950000*%
%ADD24O,1.250000X0.950000*%
%ADD25R,0.200000X0.800000*%
%ADD26R,0.800000X0.200000*%
%ADD27R,0.650000X1.700000*%
%ADD28R,0.500000X0.600000*%
%ADD29R,0.400000X0.600000*%
%ADD30R,0.800000X0.500000*%
%ADD31R,0.500000X0.800000*%
%ADD32R,0.800100X0.800100*%
%ADD33R,0.280000X0.430000*%
%ADD34R,1.000000X1.600000*%
%ADD35R,1.501140X0.701040*%
%ADD36R,1.501140X1.000760*%
%ADD37R,0.800100X1.998980*%
%ADD38R,1.800000X0.900000*%
%ADD39R,1.000000X0.900000*%
%ADD40R,0.300000X0.800000*%
%ADD41R,0.800000X0.400000*%
%ADD42O,1.200000X1.600000*%
%ADD43R,1.000000X1.524000*%
%ADD44R,0.624840X5.540000*%
%ADD45R,0.500000X5.540000*%
%ADD46R,5.000000X0.500000*%
%ADD47R,0.500000X2.700000*%
%ADD48R,3.000000X0.500000*%
%ADD49R,2.800000X0.500000*%
%ADD50R,0.500000X4.670000*%
%ADD51R,2.700000X0.500000*%
%ADD52R,1.000000X1.000000*%
%ADD53C,0.400000*%
%ADD54C,0.190000*%
%ADD55C,0.180000*%
G04 APERTURE END LIST*
D10*
G36*
X153389087Y-119080762D02*
X153530508Y-119222183D01*
X152964823Y-119787868D01*
X152823402Y-119646447D01*
X153389087Y-119080762D01*
X153389087Y-119080762D01*
G37*
G36*
X153106245Y-118797919D02*
X153247666Y-118939340D01*
X152681981Y-119505025D01*
X152540560Y-119363604D01*
X153106245Y-118797919D01*
X153106245Y-118797919D01*
G37*
G36*
X152823402Y-118515076D02*
X152964823Y-118656497D01*
X152399138Y-119222182D01*
X152257717Y-119080761D01*
X152823402Y-118515076D01*
X152823402Y-118515076D01*
G37*
G36*
X152540559Y-118232233D02*
X152681980Y-118373654D01*
X152116295Y-118939339D01*
X151974874Y-118797918D01*
X152540559Y-118232233D01*
X152540559Y-118232233D01*
G37*
G36*
X152257716Y-117949391D02*
X152399137Y-118090812D01*
X151833452Y-118656497D01*
X151692031Y-118515076D01*
X152257716Y-117949391D01*
X152257716Y-117949391D01*
G37*
G36*
X151974874Y-117666548D02*
X152116295Y-117807969D01*
X151550610Y-118373654D01*
X151409189Y-118232233D01*
X151974874Y-117666548D01*
X151974874Y-117666548D01*
G37*
G36*
X151692031Y-117383705D02*
X151833452Y-117525126D01*
X151267767Y-118090811D01*
X151126346Y-117949390D01*
X151692031Y-117383705D01*
X151692031Y-117383705D01*
G37*
G36*
X151409188Y-117100863D02*
X151550609Y-117242284D01*
X150984924Y-117807969D01*
X150843503Y-117666548D01*
X151409188Y-117100863D01*
X151409188Y-117100863D01*
G37*
G36*
X151126346Y-116818020D02*
X151267767Y-116959441D01*
X150702082Y-117525126D01*
X150560661Y-117383705D01*
X151126346Y-116818020D01*
X151126346Y-116818020D01*
G37*
G36*
X150843503Y-116535177D02*
X150984924Y-116676598D01*
X150419239Y-117242283D01*
X150277818Y-117100862D01*
X150843503Y-116535177D01*
X150843503Y-116535177D01*
G37*
G36*
X150560660Y-116252334D02*
X150702081Y-116393755D01*
X150136396Y-116959440D01*
X149994975Y-116818019D01*
X150560660Y-116252334D01*
X150560660Y-116252334D01*
G37*
G36*
X150277817Y-115969492D02*
X150419238Y-116110913D01*
X149853553Y-116676598D01*
X149712132Y-116535177D01*
X150277817Y-115969492D01*
X150277817Y-115969492D01*
G37*
G36*
X148580762Y-116110913D02*
X148722183Y-115969492D01*
X149287868Y-116535177D01*
X149146447Y-116676598D01*
X148580762Y-116110913D01*
X148580762Y-116110913D01*
G37*
G36*
X148297919Y-116393755D02*
X148439340Y-116252334D01*
X149005025Y-116818019D01*
X148863604Y-116959440D01*
X148297919Y-116393755D01*
X148297919Y-116393755D01*
G37*
G36*
X148015076Y-116676598D02*
X148156497Y-116535177D01*
X148722182Y-117100862D01*
X148580761Y-117242283D01*
X148015076Y-116676598D01*
X148015076Y-116676598D01*
G37*
G36*
X147732233Y-116959441D02*
X147873654Y-116818020D01*
X148439339Y-117383705D01*
X148297918Y-117525126D01*
X147732233Y-116959441D01*
X147732233Y-116959441D01*
G37*
G36*
X147449391Y-117242284D02*
X147590812Y-117100863D01*
X148156497Y-117666548D01*
X148015076Y-117807969D01*
X147449391Y-117242284D01*
X147449391Y-117242284D01*
G37*
G36*
X147166548Y-117525126D02*
X147307969Y-117383705D01*
X147873654Y-117949390D01*
X147732233Y-118090811D01*
X147166548Y-117525126D01*
X147166548Y-117525126D01*
G37*
G36*
X146883705Y-117807969D02*
X147025126Y-117666548D01*
X147590811Y-118232233D01*
X147449390Y-118373654D01*
X146883705Y-117807969D01*
X146883705Y-117807969D01*
G37*
G36*
X146600863Y-118090812D02*
X146742284Y-117949391D01*
X147307969Y-118515076D01*
X147166548Y-118656497D01*
X146600863Y-118090812D01*
X146600863Y-118090812D01*
G37*
G36*
X146318020Y-118373654D02*
X146459441Y-118232233D01*
X147025126Y-118797918D01*
X146883705Y-118939339D01*
X146318020Y-118373654D01*
X146318020Y-118373654D01*
G37*
G36*
X146035177Y-118656497D02*
X146176598Y-118515076D01*
X146742283Y-119080761D01*
X146600862Y-119222182D01*
X146035177Y-118656497D01*
X146035177Y-118656497D01*
G37*
G36*
X145752334Y-118939340D02*
X145893755Y-118797919D01*
X146459440Y-119363604D01*
X146318019Y-119505025D01*
X145752334Y-118939340D01*
X145752334Y-118939340D01*
G37*
G36*
X145469492Y-119222183D02*
X145610913Y-119080762D01*
X146176598Y-119646447D01*
X146035177Y-119787868D01*
X145469492Y-119222183D01*
X145469492Y-119222183D01*
G37*
G36*
X146035177Y-120212132D02*
X146176598Y-120353553D01*
X145610913Y-120919238D01*
X145469492Y-120777817D01*
X146035177Y-120212132D01*
X146035177Y-120212132D01*
G37*
G36*
X146318019Y-120494975D02*
X146459440Y-120636396D01*
X145893755Y-121202081D01*
X145752334Y-121060660D01*
X146318019Y-120494975D01*
X146318019Y-120494975D01*
G37*
G36*
X146600862Y-120777818D02*
X146742283Y-120919239D01*
X146176598Y-121484924D01*
X146035177Y-121343503D01*
X146600862Y-120777818D01*
X146600862Y-120777818D01*
G37*
G36*
X146883705Y-121060661D02*
X147025126Y-121202082D01*
X146459441Y-121767767D01*
X146318020Y-121626346D01*
X146883705Y-121060661D01*
X146883705Y-121060661D01*
G37*
G36*
X147166548Y-121343503D02*
X147307969Y-121484924D01*
X146742284Y-122050609D01*
X146600863Y-121909188D01*
X147166548Y-121343503D01*
X147166548Y-121343503D01*
G37*
G36*
X147449390Y-121626346D02*
X147590811Y-121767767D01*
X147025126Y-122333452D01*
X146883705Y-122192031D01*
X147449390Y-121626346D01*
X147449390Y-121626346D01*
G37*
G36*
X147732233Y-121909189D02*
X147873654Y-122050610D01*
X147307969Y-122616295D01*
X147166548Y-122474874D01*
X147732233Y-121909189D01*
X147732233Y-121909189D01*
G37*
G36*
X148015076Y-122192031D02*
X148156497Y-122333452D01*
X147590812Y-122899137D01*
X147449391Y-122757716D01*
X148015076Y-122192031D01*
X148015076Y-122192031D01*
G37*
G36*
X148297918Y-122474874D02*
X148439339Y-122616295D01*
X147873654Y-123181980D01*
X147732233Y-123040559D01*
X148297918Y-122474874D01*
X148297918Y-122474874D01*
G37*
G36*
X148580761Y-122757717D02*
X148722182Y-122899138D01*
X148156497Y-123464823D01*
X148015076Y-123323402D01*
X148580761Y-122757717D01*
X148580761Y-122757717D01*
G37*
G36*
X148863604Y-123040560D02*
X149005025Y-123181981D01*
X148439340Y-123747666D01*
X148297919Y-123606245D01*
X148863604Y-123040560D01*
X148863604Y-123040560D01*
G37*
G36*
X149146447Y-123323402D02*
X149287868Y-123464823D01*
X148722183Y-124030508D01*
X148580762Y-123889087D01*
X149146447Y-123323402D01*
X149146447Y-123323402D01*
G37*
G36*
X149712132Y-123464823D02*
X149853553Y-123323402D01*
X150419238Y-123889087D01*
X150277817Y-124030508D01*
X149712132Y-123464823D01*
X149712132Y-123464823D01*
G37*
G36*
X149994975Y-123181981D02*
X150136396Y-123040560D01*
X150702081Y-123606245D01*
X150560660Y-123747666D01*
X149994975Y-123181981D01*
X149994975Y-123181981D01*
G37*
G36*
X150277818Y-122899138D02*
X150419239Y-122757717D01*
X150984924Y-123323402D01*
X150843503Y-123464823D01*
X150277818Y-122899138D01*
X150277818Y-122899138D01*
G37*
G36*
X150560661Y-122616295D02*
X150702082Y-122474874D01*
X151267767Y-123040559D01*
X151126346Y-123181980D01*
X150560661Y-122616295D01*
X150560661Y-122616295D01*
G37*
G36*
X150843503Y-122333452D02*
X150984924Y-122192031D01*
X151550609Y-122757716D01*
X151409188Y-122899137D01*
X150843503Y-122333452D01*
X150843503Y-122333452D01*
G37*
G36*
X151126346Y-122050610D02*
X151267767Y-121909189D01*
X151833452Y-122474874D01*
X151692031Y-122616295D01*
X151126346Y-122050610D01*
X151126346Y-122050610D01*
G37*
G36*
X151409189Y-121767767D02*
X151550610Y-121626346D01*
X152116295Y-122192031D01*
X151974874Y-122333452D01*
X151409189Y-121767767D01*
X151409189Y-121767767D01*
G37*
G36*
X151692031Y-121484924D02*
X151833452Y-121343503D01*
X152399137Y-121909188D01*
X152257716Y-122050609D01*
X151692031Y-121484924D01*
X151692031Y-121484924D01*
G37*
G36*
X151974874Y-121202082D02*
X152116295Y-121060661D01*
X152681980Y-121626346D01*
X152540559Y-121767767D01*
X151974874Y-121202082D01*
X151974874Y-121202082D01*
G37*
G36*
X152257717Y-120919239D02*
X152399138Y-120777818D01*
X152964823Y-121343503D01*
X152823402Y-121484924D01*
X152257717Y-120919239D01*
X152257717Y-120919239D01*
G37*
G36*
X152540560Y-120636396D02*
X152681981Y-120494975D01*
X153247666Y-121060660D01*
X153106245Y-121202081D01*
X152540560Y-120636396D01*
X152540560Y-120636396D01*
G37*
G36*
X152823402Y-120353553D02*
X152964823Y-120212132D01*
X153530508Y-120777817D01*
X153389087Y-120919238D01*
X152823402Y-120353553D01*
X152823402Y-120353553D01*
G37*
G36*
X149500000Y-118868629D02*
X150631371Y-120000000D01*
X149500000Y-121131371D01*
X148368629Y-120000000D01*
X149500000Y-118868629D01*
X149500000Y-118868629D01*
G37*
D11*
X154775000Y-119000000D03*
X154225000Y-119000000D03*
X154025000Y-121750000D03*
X153475000Y-121750000D03*
D12*
X167275000Y-114050000D03*
X166625000Y-114050000D03*
X165975000Y-114050000D03*
X165325000Y-114050000D03*
X164675000Y-114050000D03*
X164025000Y-114050000D03*
X163375000Y-114050000D03*
X162725000Y-114050000D03*
X162725000Y-120950000D03*
X163375000Y-120950000D03*
X164025000Y-120950000D03*
X164675000Y-120950000D03*
X165325000Y-120950000D03*
X165975000Y-120950000D03*
X166625000Y-120950000D03*
X167275000Y-120950000D03*
X134275000Y-114050000D03*
X133625000Y-114050000D03*
X132975000Y-114050000D03*
X132325000Y-114050000D03*
X131675000Y-114050000D03*
X131025000Y-114050000D03*
X130375000Y-114050000D03*
X129725000Y-114050000D03*
X129725000Y-120950000D03*
X130375000Y-120950000D03*
X131025000Y-120950000D03*
X131675000Y-120950000D03*
X132325000Y-120950000D03*
X132975000Y-120950000D03*
X133625000Y-120950000D03*
X134275000Y-120950000D03*
D13*
X124500000Y-104500000D03*
X128500000Y-104500000D03*
D14*
X155000000Y-120225000D03*
X155000000Y-120775000D03*
X157000000Y-120225000D03*
X157000000Y-120775000D03*
D15*
X138550000Y-123000000D03*
X137450000Y-123000000D03*
D16*
X127500000Y-106500000D03*
X125500000Y-106500000D03*
D14*
X151000000Y-112725000D03*
X151000000Y-113275000D03*
X151000000Y-111225000D03*
X151000000Y-111775000D03*
D10*
G36*
X139068665Y-88872721D02*
X139372721Y-88568665D01*
X139570711Y-88766655D01*
X139266655Y-89070711D01*
X139068665Y-88872721D01*
X139068665Y-88872721D01*
G37*
G36*
X139429289Y-89233345D02*
X139733345Y-88929289D01*
X139931335Y-89127279D01*
X139627279Y-89431335D01*
X139429289Y-89233345D01*
X139429289Y-89233345D01*
G37*
D17*
X156000000Y-120245000D03*
X156000000Y-120755000D03*
D18*
X128500000Y-106450000D03*
X128500000Y-105550000D03*
D17*
X128500000Y-110255000D03*
X128500000Y-109745000D03*
X124500000Y-107255000D03*
X124500000Y-106745000D03*
X124500000Y-109745000D03*
X124500000Y-110255000D03*
D10*
G36*
X137843503Y-90151472D02*
X138550609Y-89444366D01*
X139187005Y-90080762D01*
X138479899Y-90787868D01*
X137843503Y-90151472D01*
X137843503Y-90151472D01*
G37*
G36*
X136712132Y-89020101D02*
X137419238Y-88312995D01*
X138055634Y-88949391D01*
X137348528Y-89656497D01*
X136712132Y-89020101D01*
X136712132Y-89020101D01*
G37*
G36*
X134944366Y-93050609D02*
X135651472Y-92343503D01*
X136287868Y-92979899D01*
X135580762Y-93687005D01*
X134944366Y-93050609D01*
X134944366Y-93050609D01*
G37*
G36*
X133812995Y-91919238D02*
X134520101Y-91212132D01*
X135156497Y-91848528D01*
X134449391Y-92555634D01*
X133812995Y-91919238D01*
X133812995Y-91919238D01*
G37*
G36*
X161348528Y-92343503D02*
X162055634Y-93050609D01*
X161419238Y-93687005D01*
X160712132Y-92979899D01*
X161348528Y-92343503D01*
X161348528Y-92343503D01*
G37*
G36*
X162479899Y-91212132D02*
X163187005Y-91919238D01*
X162550609Y-92555634D01*
X161843503Y-91848528D01*
X162479899Y-91212132D01*
X162479899Y-91212132D01*
G37*
G36*
X158449391Y-89444366D02*
X159156497Y-90151472D01*
X158520101Y-90787868D01*
X157812995Y-90080762D01*
X158449391Y-89444366D01*
X158449391Y-89444366D01*
G37*
G36*
X159580762Y-88312995D02*
X160287868Y-89020101D01*
X159651472Y-89656497D01*
X158944366Y-88949391D01*
X159580762Y-88312995D01*
X159580762Y-88312995D01*
G37*
D19*
X156800000Y-124850000D03*
X156800000Y-122650000D03*
X155200000Y-124850000D03*
X155200000Y-122650000D03*
D13*
X128500000Y-108500000D03*
X124500000Y-108500000D03*
D16*
X165500000Y-106500000D03*
X163500000Y-106500000D03*
X171500000Y-106500000D03*
X169500000Y-106500000D03*
X133500000Y-106500000D03*
X131500000Y-106500000D03*
D13*
X166500000Y-108500000D03*
X162500000Y-108500000D03*
X162500000Y-104500000D03*
X166500000Y-104500000D03*
X172500000Y-108500000D03*
X168500000Y-108500000D03*
X168500000Y-104500000D03*
X172500000Y-104500000D03*
X134500000Y-108500000D03*
X130500000Y-108500000D03*
X130500000Y-104500000D03*
X134500000Y-104500000D03*
D18*
X166500000Y-106450000D03*
X166500000Y-105550000D03*
D17*
X166500000Y-110255000D03*
X166500000Y-109745000D03*
X162500000Y-107255000D03*
X162500000Y-106745000D03*
X162500000Y-109745000D03*
X162500000Y-110255000D03*
D18*
X172500000Y-106450000D03*
X172500000Y-105550000D03*
D17*
X172500000Y-110255000D03*
X172500000Y-109745000D03*
X168500000Y-107255000D03*
X168500000Y-106745000D03*
X168500000Y-109745000D03*
X168500000Y-110255000D03*
X134500000Y-110255000D03*
X134500000Y-109745000D03*
X130500000Y-107255000D03*
X130500000Y-106745000D03*
X130500000Y-109745000D03*
X130500000Y-110255000D03*
D18*
X134500000Y-106450000D03*
X134500000Y-105550000D03*
D20*
X126900000Y-111600000D03*
D21*
X128500000Y-111750000D03*
X124500000Y-111750000D03*
D20*
X126100000Y-111600000D03*
X170900000Y-111600000D03*
D21*
X172500000Y-111750000D03*
X168500000Y-111750000D03*
D20*
X170100000Y-111600000D03*
X164900000Y-111600000D03*
D21*
X166500000Y-111750000D03*
X162500000Y-111750000D03*
D20*
X164100000Y-111600000D03*
X132900000Y-111600000D03*
D21*
X134500000Y-111750000D03*
X130500000Y-111750000D03*
D20*
X132100000Y-111600000D03*
D22*
X160333422Y-95617974D02*
X160727346Y-95687434D01*
X164272654Y-96312566D02*
X164666578Y-96382026D01*
D10*
G36*
X161804927Y-96486696D02*
X162013304Y-95304927D01*
X162407227Y-95374386D01*
X162198850Y-96556155D01*
X161804927Y-96486696D01*
X161804927Y-96486696D01*
G37*
G36*
X162592773Y-96625614D02*
X162801150Y-95443845D01*
X163195073Y-95513304D01*
X162986696Y-96695073D01*
X162592773Y-96625614D01*
X162592773Y-96625614D01*
G37*
D22*
X155117974Y-86833422D02*
X155187434Y-87227346D01*
X155812566Y-90772654D02*
X155882026Y-91166578D01*
D10*
G36*
X154804927Y-88513304D02*
X155986696Y-88304927D01*
X156056155Y-88698850D01*
X154874386Y-88907227D01*
X154804927Y-88513304D01*
X154804927Y-88513304D01*
G37*
G36*
X154943845Y-89301150D02*
X156125614Y-89092773D01*
X156195073Y-89486696D01*
X155013304Y-89695073D01*
X154943845Y-89301150D01*
X154943845Y-89301150D01*
G37*
D22*
X141117974Y-91166578D02*
X141187434Y-90772654D01*
X141812566Y-87227346D02*
X141882026Y-86833422D01*
D10*
G36*
X141986696Y-89695073D02*
X140804927Y-89486696D01*
X140874386Y-89092773D01*
X142056155Y-89301150D01*
X141986696Y-89695073D01*
X141986696Y-89695073D01*
G37*
G36*
X142125614Y-88907227D02*
X140943845Y-88698850D01*
X141013304Y-88304927D01*
X142195073Y-88513304D01*
X142125614Y-88907227D01*
X142125614Y-88907227D01*
G37*
D22*
X132333422Y-96382026D02*
X132727346Y-96312566D01*
X136272654Y-95687434D02*
X136666578Y-95617974D01*
D10*
G36*
X134013304Y-96695073D02*
X133804927Y-95513304D01*
X134198850Y-95443845D01*
X134407227Y-96625614D01*
X134013304Y-96695073D01*
X134013304Y-96695073D01*
G37*
G36*
X134801150Y-96556155D02*
X134592773Y-95374386D01*
X134986696Y-95304927D01*
X135195073Y-96486696D01*
X134801150Y-96556155D01*
X134801150Y-96556155D01*
G37*
D23*
X144250000Y-113000000D03*
D24*
X144250000Y-114250000D03*
D25*
X147900000Y-114600000D03*
X148300000Y-114600000D03*
X148700000Y-114600000D03*
X149100000Y-114600000D03*
D26*
X150100000Y-114000000D03*
X150100000Y-112000000D03*
D25*
X149100000Y-111400000D03*
X148300000Y-111400000D03*
X147900000Y-111400000D03*
X147500000Y-111400000D03*
D27*
X143905000Y-117350000D03*
X142635000Y-117350000D03*
X141365000Y-117350000D03*
X140095000Y-117350000D03*
X140095000Y-124650000D03*
X141365000Y-124650000D03*
X142635000Y-124650000D03*
X143905000Y-124650000D03*
D15*
X155050000Y-117750000D03*
X153950000Y-117750000D03*
X154050000Y-124800000D03*
X152950000Y-124800000D03*
D14*
X153750000Y-123025000D03*
X153750000Y-122475000D03*
D11*
X158225000Y-123000000D03*
X158775000Y-123000000D03*
D14*
X140500000Y-109775000D03*
X140500000Y-109225000D03*
X143500000Y-89725000D03*
X143500000Y-90275000D03*
X152000000Y-91275000D03*
X152000000Y-90725000D03*
D28*
X153500000Y-91550000D03*
X153500000Y-90450000D03*
D29*
X148050000Y-93000000D03*
X148950000Y-93000000D03*
D18*
X152500000Y-85550000D03*
X152500000Y-86450000D03*
X148500000Y-85550000D03*
X148500000Y-86450000D03*
X144500000Y-85550000D03*
X144500000Y-86450000D03*
D30*
X137000000Y-109500000D03*
X137000000Y-110500000D03*
X137000000Y-112000000D03*
X137000000Y-113000000D03*
D10*
G36*
X139478508Y-92140031D02*
X140574524Y-93236047D01*
X140150260Y-93660311D01*
X139054244Y-92564295D01*
X139478508Y-92140031D01*
X139478508Y-92140031D01*
G37*
G36*
X138771402Y-92847138D02*
X139867418Y-93943154D01*
X139443154Y-94367418D01*
X138347138Y-93271402D01*
X138771402Y-92847138D01*
X138771402Y-92847138D01*
G37*
G36*
X138064295Y-93554244D02*
X139160311Y-94650260D01*
X138736047Y-95074524D01*
X137640031Y-93978508D01*
X138064295Y-93554244D01*
X138064295Y-93554244D01*
G37*
G36*
X142306936Y-92705717D02*
X143579728Y-93978509D01*
X142731200Y-94827037D01*
X141458408Y-93554245D01*
X142306936Y-92705717D01*
X142306936Y-92705717D01*
G37*
G36*
X139054245Y-95958408D02*
X140327037Y-97231200D01*
X139478509Y-98079728D01*
X138205717Y-96806936D01*
X139054245Y-95958408D01*
X139054245Y-95958408D01*
G37*
D31*
X137000000Y-102000000D03*
X138000000Y-102000000D03*
D32*
X158450000Y-93999240D03*
X156550000Y-93999240D03*
X157500000Y-95998220D03*
X136950000Y-97999240D03*
X135050000Y-97999240D03*
X136000000Y-99998220D03*
D17*
X145000000Y-88745000D03*
X145000000Y-89255000D03*
D33*
X150755000Y-93000000D03*
X150245000Y-93000000D03*
D17*
X145000000Y-90745000D03*
X145000000Y-91255000D03*
X153500000Y-88255000D03*
X153500000Y-87745000D03*
D33*
X150755000Y-87000000D03*
X150245000Y-87000000D03*
D17*
X143500000Y-88255000D03*
X143500000Y-87745000D03*
D33*
X157755000Y-92500000D03*
X157245000Y-92500000D03*
D17*
X138500000Y-99745000D03*
X138500000Y-100255000D03*
D34*
X162000000Y-99000000D03*
X158000000Y-99000000D03*
D10*
G36*
X148851790Y-88999240D02*
X149601090Y-89499620D01*
X149601090Y-90500380D01*
X148851790Y-91000760D01*
X148851790Y-88999240D01*
X148851790Y-88999240D01*
G37*
D35*
X150351660Y-88498860D03*
X150351660Y-91501140D03*
X146648340Y-88498860D03*
D36*
X146648340Y-90000000D03*
D35*
X146648340Y-91501140D03*
D36*
X150351660Y-90000000D03*
D10*
G36*
X148148210Y-91000760D02*
X147398910Y-90500380D01*
X147398910Y-89499620D01*
X148148210Y-88999240D01*
X148148210Y-91000760D01*
X148148210Y-91000760D01*
G37*
D37*
X148500000Y-90000000D03*
D38*
X137900000Y-115800000D03*
D39*
X136650000Y-115800000D03*
X139150000Y-115800000D03*
D40*
X139150000Y-114550000D03*
X138650000Y-114550000D03*
X138150000Y-114550000D03*
X137650000Y-114550000D03*
X137150000Y-114550000D03*
X136650000Y-114550000D03*
X136650000Y-117050000D03*
X137150000Y-117050000D03*
X137650000Y-117050000D03*
X138150000Y-117050000D03*
X138650000Y-117050000D03*
X139150000Y-117050000D03*
D41*
X139900000Y-112400000D03*
X141100000Y-112800000D03*
X139900000Y-113200000D03*
X141100000Y-113600000D03*
D42*
X140500000Y-111000000D03*
X140500000Y-115000000D03*
D41*
X157100000Y-113600000D03*
X155900000Y-113200000D03*
X157100000Y-112800000D03*
X155900000Y-112400000D03*
D42*
X156500000Y-115000000D03*
X156500000Y-111000000D03*
D20*
X132200000Y-126600000D03*
X131400000Y-126600000D03*
D43*
X134000000Y-126750000D03*
X130000000Y-126750000D03*
D20*
X165200000Y-126600000D03*
X164400000Y-126600000D03*
D43*
X167000000Y-126750000D03*
X163000000Y-126750000D03*
D11*
X156225000Y-117500000D03*
X156775000Y-117500000D03*
D14*
X157500000Y-118725000D03*
X157500000Y-119275000D03*
X156000000Y-118725000D03*
X156000000Y-119275000D03*
D31*
X159000000Y-116000000D03*
X160000000Y-116000000D03*
D44*
X141312420Y-131230000D03*
D45*
X143500000Y-131230000D03*
D46*
X143500000Y-128710000D03*
D47*
X145750000Y-129810000D03*
D48*
X147000000Y-131410000D03*
D49*
X149400000Y-128710000D03*
D47*
X148250000Y-129810000D03*
X150550000Y-129810000D03*
X153050000Y-129810000D03*
D50*
X155250000Y-130795000D03*
D48*
X151800000Y-131410000D03*
D51*
X154150000Y-128710000D03*
D52*
X141312420Y-134500000D03*
X143500000Y-134500000D03*
D53*
X169890039Y-108775012D03*
X170000000Y-105500000D03*
X132182122Y-105185424D03*
X132178410Y-108821591D03*
X126000000Y-109000000D03*
X127500760Y-105450000D03*
X172000000Y-109000000D03*
X169000000Y-104000000D03*
X134000000Y-109000000D03*
X131000000Y-104000000D03*
X128000000Y-109000000D03*
X125000000Y-104000000D03*
X171000000Y-104500000D03*
X171000000Y-109000000D03*
X132742363Y-104872218D03*
X133158432Y-109000000D03*
X126700708Y-105250000D03*
X127000000Y-109000000D03*
X163400000Y-108050000D03*
X169400000Y-108050000D03*
X131400000Y-108050000D03*
X125400000Y-108050000D03*
X163890039Y-108775012D03*
X164000000Y-105500000D03*
X166000000Y-109000000D03*
X163000000Y-104000000D03*
X165000000Y-104500000D03*
X164874558Y-108724004D03*
X162469998Y-108000000D03*
X168469998Y-108000000D03*
X130469998Y-108000000D03*
X124469998Y-108000000D03*
D54*
X149100000Y-114600000D02*
X149100000Y-111400000D01*
X151000000Y-112725000D02*
X151000000Y-111775000D01*
X150100000Y-112000000D02*
X150775000Y-112000000D01*
X150775000Y-112000000D02*
X151000000Y-111775000D01*
X150100000Y-112000000D02*
X149110000Y-112000000D01*
X149110000Y-112000000D02*
X149100000Y-111990000D01*
X149100000Y-111990000D02*
X149100000Y-111400000D01*
X152950000Y-124800000D02*
X151188730Y-124800000D01*
X151188730Y-124800000D02*
X150065685Y-123676955D01*
X151397021Y-121362726D02*
X151397021Y-121357021D01*
X150590000Y-121040000D02*
X149490000Y-122140000D01*
X151080000Y-121040000D02*
X150590000Y-121040000D01*
X151397021Y-121357021D02*
X151080000Y-121040000D01*
X150065685Y-123676955D02*
X150065685Y-123675685D01*
X150065685Y-123675685D02*
X149490000Y-123100000D01*
X149490000Y-123100000D02*
X149490000Y-122140000D01*
X152129874Y-120629873D02*
X151994096Y-120765651D01*
X151397021Y-121614178D02*
X151397021Y-121362726D01*
X151397021Y-121362726D02*
X151994096Y-120765651D01*
X151762742Y-121979899D02*
X151397021Y-121614178D01*
X153950000Y-117750000D02*
X153164213Y-117750000D01*
X153164213Y-117750000D02*
X152328427Y-118585786D01*
X150750000Y-119250000D02*
X151707107Y-119250000D01*
X147790776Y-118573619D02*
X150073619Y-118573619D01*
X147237258Y-118020101D02*
X147790776Y-118573619D01*
X150073619Y-118573619D02*
X150750000Y-119250000D01*
X152129874Y-120629873D02*
X152129874Y-120649975D01*
X152129874Y-120649975D02*
X152611270Y-121131371D01*
X152300035Y-119800035D02*
X152300035Y-120459712D01*
X152300035Y-120459712D02*
X152129874Y-120629873D01*
X152000000Y-119479899D02*
X152000000Y-119500000D01*
X152000000Y-119500000D02*
X152300035Y-119800035D01*
X152300035Y-119800035D02*
X152559782Y-119800035D01*
X151707107Y-119250000D02*
X151750000Y-119250000D01*
X152000000Y-119479899D02*
X152245550Y-119234349D01*
X151750000Y-119250000D02*
X152000000Y-119500000D01*
X154225000Y-119000000D02*
X153611270Y-119000000D01*
X153611270Y-119000000D02*
X153176955Y-119434315D01*
X153475000Y-121750000D02*
X153229899Y-121750000D01*
X153229899Y-121750000D02*
X152611270Y-121131371D01*
X149500000Y-115231002D02*
X149500000Y-114010000D01*
X147900000Y-114600000D02*
X147900000Y-115190000D01*
X149510000Y-114000000D02*
X150100000Y-114000000D01*
X149500000Y-114010000D02*
X149510000Y-114000000D01*
X148005001Y-115295001D02*
X149436001Y-115295001D01*
X147900000Y-115190000D02*
X148005001Y-115295001D01*
X149436001Y-115295001D02*
X149500000Y-115231002D01*
X151707107Y-119250000D02*
X151664213Y-119250000D01*
X151664213Y-119250000D02*
X152328427Y-118585786D01*
X152611270Y-118868629D02*
X152245550Y-119234349D01*
X152823403Y-119787867D02*
X153176955Y-119434315D01*
X152559782Y-119800035D02*
X152811235Y-119800035D01*
X152811235Y-119800035D02*
X152823403Y-119787867D01*
X151000000Y-113750000D02*
X150750000Y-114000000D01*
X150750000Y-114000000D02*
X150100000Y-114000000D01*
X151000000Y-113275000D02*
X151000000Y-113750000D01*
D55*
X172500000Y-105550000D02*
X172500000Y-104500000D01*
X171500000Y-106500000D02*
X171500000Y-105695000D01*
X171500000Y-105695000D02*
X171645000Y-105550000D01*
X171645000Y-105550000D02*
X172020000Y-105550000D01*
X172020000Y-105550000D02*
X172500000Y-105550000D01*
X168500000Y-110255000D02*
X168500000Y-111750000D01*
X169890039Y-108492170D02*
X169890039Y-108775012D01*
X169500000Y-107305000D02*
X169890039Y-107695039D01*
X169500000Y-106500000D02*
X169500000Y-107305000D01*
X169890039Y-107695039D02*
X169890039Y-108492170D01*
X169500000Y-106500000D02*
X168745000Y-106500000D01*
X168745000Y-106500000D02*
X168500000Y-106745000D01*
X169500000Y-106500000D02*
X169500000Y-106000000D01*
X169500000Y-106000000D02*
X170000000Y-105500000D01*
X134450000Y-105550000D02*
X133500000Y-106500000D01*
X134500000Y-104500000D02*
X134500000Y-105550000D01*
X134500000Y-105550000D02*
X134450000Y-105550000D01*
X131500000Y-105867546D02*
X132182122Y-105185424D01*
X131500000Y-106500000D02*
X131500000Y-105867546D01*
X132178410Y-107983410D02*
X132178410Y-108821591D01*
X131500000Y-107305000D02*
X132178410Y-107983410D01*
X131500000Y-106500000D02*
X131500000Y-107305000D01*
X130500000Y-106745000D02*
X131255000Y-106745000D01*
X131255000Y-106745000D02*
X131500000Y-106500000D01*
X130500000Y-111750000D02*
X130500000Y-110255000D01*
X128500000Y-105550000D02*
X128450000Y-105550000D01*
X128450000Y-105550000D02*
X127500000Y-106500000D01*
X128500000Y-104500000D02*
X128500000Y-105550000D01*
X127500760Y-104869950D02*
X127500760Y-105450000D01*
X127390808Y-104759998D02*
X127500760Y-104869950D01*
X126435002Y-104759998D02*
X127390808Y-104759998D01*
X125500000Y-106500000D02*
X125500000Y-105695000D01*
X125500000Y-105695000D02*
X126435002Y-104759998D01*
X125500000Y-106500000D02*
X125500000Y-106625000D01*
X125500000Y-106625000D02*
X126000000Y-107125000D01*
X126000000Y-107125000D02*
X126000000Y-109000000D01*
X124500000Y-106745000D02*
X125255000Y-106745000D01*
X125255000Y-106745000D02*
X125500000Y-106500000D01*
X124500000Y-111750000D02*
X124500000Y-110255000D01*
D54*
X150635000Y-111225000D02*
X151000000Y-111225000D01*
X148763999Y-110704999D02*
X150114999Y-110704999D01*
X148700000Y-110768998D02*
X148763999Y-110704999D01*
X150114999Y-110704999D02*
X150635000Y-111225000D01*
X148700000Y-114600000D02*
X148700000Y-110768998D01*
D55*
X172500000Y-108500000D02*
X172500000Y-106450000D01*
X172500000Y-110255000D02*
X172500000Y-111750000D01*
X172000000Y-109000000D02*
X172500000Y-108500000D01*
X168500000Y-104500000D02*
X169000000Y-104000000D01*
X134500000Y-110255000D02*
X134500000Y-111750000D01*
X134500000Y-108500000D02*
X134000000Y-109000000D01*
X134500000Y-106450000D02*
X134500000Y-108500000D01*
X130500000Y-104500000D02*
X131000000Y-104000000D01*
X128000000Y-109000000D02*
X128500000Y-108500000D01*
X128500000Y-110255000D02*
X128500000Y-111750000D01*
X128500000Y-106450000D02*
X128500000Y-108500000D01*
X124500000Y-104500000D02*
X125000000Y-104000000D01*
X171000000Y-109000000D02*
X170709999Y-108709999D01*
X170709999Y-108709999D02*
X170709999Y-104790001D01*
X170709999Y-104790001D02*
X171000000Y-104500000D01*
X132958433Y-108800001D02*
X133158432Y-109000000D01*
X132558421Y-108399989D02*
X132958433Y-108800001D01*
X132742363Y-105350387D02*
X132558421Y-105534329D01*
X132742363Y-104872218D02*
X132742363Y-105350387D01*
X132558421Y-105534329D02*
X132558421Y-108399989D01*
X126709999Y-105259291D02*
X126700708Y-105250000D01*
X127000000Y-109000000D02*
X126709999Y-108709999D01*
X126709999Y-108709999D02*
X126709999Y-105259291D01*
X163510010Y-108429820D02*
X163400019Y-108539811D01*
X163400000Y-108050000D02*
X163510010Y-108050000D01*
X163510010Y-108050000D02*
X163510010Y-108429820D01*
X163400019Y-108539811D02*
X163400019Y-109010213D01*
X163400019Y-109010213D02*
X164134806Y-109745000D01*
X164134806Y-109745000D02*
X166105000Y-109745000D01*
X166105000Y-109745000D02*
X166500000Y-109745000D01*
X162500000Y-107255000D02*
X162605000Y-107255000D01*
X162605000Y-107255000D02*
X163400000Y-108050000D01*
X169510010Y-108050000D02*
X169510010Y-108429820D01*
X169400000Y-108050000D02*
X169510010Y-108050000D01*
X169510010Y-108429820D02*
X169400019Y-108539811D01*
X169400019Y-108539811D02*
X169400019Y-109010213D01*
X169400019Y-109010213D02*
X170134806Y-109745000D01*
X170134806Y-109745000D02*
X172105000Y-109745000D01*
X172105000Y-109745000D02*
X172500000Y-109745000D01*
X168500000Y-107255000D02*
X168605000Y-107255000D01*
X168605000Y-107255000D02*
X169400000Y-108050000D01*
X132408827Y-109745000D02*
X134105000Y-109745000D01*
X131400000Y-108736173D02*
X132408827Y-109745000D01*
X131400000Y-108050000D02*
X131400000Y-108736173D01*
X134105000Y-109745000D02*
X134500000Y-109745000D01*
X130500000Y-107255000D02*
X130605000Y-107255000D01*
X130605000Y-107255000D02*
X131400000Y-108050000D01*
X125400000Y-108555000D02*
X125400000Y-108050000D01*
X128500000Y-109745000D02*
X126019796Y-109745000D01*
X125400000Y-109125204D02*
X125400000Y-108555000D01*
X126019796Y-109745000D02*
X125400000Y-109125204D01*
X125400000Y-108050000D02*
X124605000Y-107255000D01*
X124605000Y-107255000D02*
X124500000Y-107255000D01*
X165500000Y-106500000D02*
X165500000Y-105695000D01*
X165500000Y-105695000D02*
X165645000Y-105550000D01*
X165645000Y-105550000D02*
X166020000Y-105550000D01*
X166020000Y-105550000D02*
X166500000Y-105550000D01*
X166500000Y-104500000D02*
X166500000Y-105550000D01*
X162500000Y-110255000D02*
X162500000Y-111750000D01*
X163890039Y-108492170D02*
X163890039Y-108775012D01*
X163500000Y-106500000D02*
X163500000Y-107305000D01*
X163890039Y-107695039D02*
X163890039Y-108492170D01*
X163500000Y-107305000D02*
X163890039Y-107695039D01*
X163500000Y-106500000D02*
X163500000Y-106000000D01*
X163500000Y-106000000D02*
X164000000Y-105500000D01*
X162745000Y-106500000D02*
X162500000Y-106745000D01*
X163500000Y-106500000D02*
X162745000Y-106500000D01*
X166500000Y-108500000D02*
X166500000Y-106450000D01*
X166500000Y-110255000D02*
X166500000Y-111750000D01*
X166000000Y-109000000D02*
X166500000Y-108500000D01*
X162500000Y-104500000D02*
X163000000Y-104000000D01*
X164874558Y-108724004D02*
X164674559Y-108524005D01*
X164674559Y-108524005D02*
X164674559Y-104825441D01*
X164674559Y-104825441D02*
X165000000Y-104500000D01*
X162500000Y-108500000D02*
X162500000Y-109745000D01*
X162500000Y-108500000D02*
X162500000Y-108030002D01*
X162500000Y-108030002D02*
X162469998Y-108000000D01*
X168500000Y-109745000D02*
X168500000Y-108500000D01*
X168500000Y-108500000D02*
X168500000Y-108030002D01*
X168500000Y-108030002D02*
X168469998Y-108000000D01*
X130500000Y-108500000D02*
X130500000Y-108030002D01*
X130500000Y-108030002D02*
X130469998Y-108000000D01*
X130500000Y-108500000D02*
X130500000Y-109745000D01*
X124469998Y-108000000D02*
X124469998Y-108469998D01*
X124469998Y-108469998D02*
X124500000Y-108500000D01*
X124500000Y-109745000D02*
X124500000Y-108500000D01*
M02*
