G04 #@! TF.FileFunction,Copper,L1,Top,Signal*
%FSLAX46Y46*%
G04 Gerber Fmt 4.6, Leading zero omitted, Abs format (unit mm)*
G04 Created by KiCad (PCBNEW 4.0.1-stable) date 2017/02/22 22:44:27*
%MOMM*%
G01*
G04 APERTURE LIST*
%ADD10C,0.100000*%
%ADD11R,0.800000X0.600000*%
%ADD12C,1.200000*%
%ADD13R,0.400000X1.500000*%
%ADD14R,0.300000X0.350000*%
%ADD15R,0.400000X1.200000*%
%ADD16R,0.350000X0.300000*%
%ADD17R,0.600000X0.500000*%
%ADD18R,1.000000X1.250000*%
%ADD19R,0.430000X0.280000*%
%ADD20R,0.600000X0.400000*%
%ADD21R,1.250000X0.950000*%
%ADD22O,1.250000X0.950000*%
%ADD23R,0.500000X0.600000*%
%ADD24R,0.800000X0.500000*%
%ADD25R,0.500000X0.800000*%
%ADD26R,0.800100X0.800100*%
%ADD27R,0.280000X0.430000*%
%ADD28R,1.501140X0.701040*%
%ADD29R,1.501140X1.000760*%
%ADD30R,0.800100X1.998980*%
%ADD31R,1.500000X0.900000*%
%ADD32R,1.000000X0.900000*%
%ADD33R,0.300000X0.800000*%
%ADD34R,0.624840X5.540000*%
%ADD35R,0.500000X5.540000*%
%ADD36R,5.000000X0.500000*%
%ADD37R,0.500000X2.700000*%
%ADD38R,3.000000X0.500000*%
%ADD39R,2.800000X0.500000*%
%ADD40R,0.500000X4.670000*%
%ADD41R,2.700000X0.500000*%
%ADD42R,1.000000X1.000000*%
%ADD43R,1.000000X0.800000*%
%ADD44R,0.800000X0.400000*%
%ADD45O,1.200000X1.600000*%
%ADD46R,0.220000X1.000000*%
%ADD47R,1.000000X0.220000*%
%ADD48R,0.400000X0.800000*%
%ADD49R,1.000000X0.500000*%
%ADD50C,0.380000*%
%ADD51C,0.360000*%
%ADD52C,0.340000*%
%ADD53C,0.238000*%
%ADD54C,0.299800*%
%ADD55C,0.320000*%
%ADD56C,0.219800*%
%ADD57C,0.160000*%
%ADD58C,0.240000*%
%ADD59C,0.300000*%
G04 APERTURE END LIST*
D10*
D11*
X128300000Y-108500000D03*
X124700000Y-108500000D03*
X166300000Y-108500000D03*
X162700000Y-108500000D03*
X162700000Y-104500000D03*
X166300000Y-104500000D03*
X172300000Y-108500000D03*
X168700000Y-108500000D03*
X168700000Y-104500000D03*
X172300000Y-104500000D03*
X134300000Y-108500000D03*
X130700000Y-108500000D03*
X130700000Y-104500000D03*
X134300000Y-104500000D03*
X124700000Y-104500000D03*
X128300000Y-104500000D03*
D12*
X132333422Y-96382026D02*
X132727346Y-96312566D01*
X136272654Y-95687434D02*
X136666578Y-95617974D01*
D10*
G36*
X134048034Y-96892035D02*
X133770197Y-95316342D01*
X134164120Y-95246883D01*
X134441957Y-96822576D01*
X134048034Y-96892035D01*
X134048034Y-96892035D01*
G37*
G36*
X134835880Y-96753117D02*
X134558043Y-95177424D01*
X134951966Y-95107965D01*
X135229803Y-96683658D01*
X134835880Y-96753117D01*
X134835880Y-96753117D01*
G37*
D12*
X141117974Y-91166578D02*
X141187434Y-90772654D01*
X141812566Y-87227346D02*
X141882026Y-86833422D01*
D10*
G36*
X142183658Y-89729803D02*
X140607965Y-89451966D01*
X140677424Y-89058043D01*
X142253117Y-89335880D01*
X142183658Y-89729803D01*
X142183658Y-89729803D01*
G37*
G36*
X142322576Y-88941957D02*
X140746883Y-88664120D01*
X140816342Y-88270197D01*
X142392035Y-88548034D01*
X142322576Y-88941957D01*
X142322576Y-88941957D01*
G37*
D12*
X155117974Y-86833422D02*
X155187434Y-87227346D01*
X155812566Y-90772654D02*
X155882026Y-91166578D01*
D10*
G36*
X154607965Y-88548034D02*
X156183658Y-88270197D01*
X156253117Y-88664120D01*
X154677424Y-88941957D01*
X154607965Y-88548034D01*
X154607965Y-88548034D01*
G37*
G36*
X154746883Y-89335880D02*
X156322576Y-89058043D01*
X156392035Y-89451966D01*
X154816342Y-89729803D01*
X154746883Y-89335880D01*
X154746883Y-89335880D01*
G37*
D12*
X160333422Y-95617974D02*
X160727346Y-95687434D01*
X164272654Y-96312566D02*
X164666578Y-96382026D01*
D10*
G36*
X161770197Y-96683658D02*
X162048034Y-95107965D01*
X162441957Y-95177424D01*
X162164120Y-96753117D01*
X161770197Y-96683658D01*
X161770197Y-96683658D01*
G37*
G36*
X162558043Y-96822576D02*
X162835880Y-95246883D01*
X163229803Y-95316342D01*
X162951966Y-96892035D01*
X162558043Y-96822576D01*
X162558043Y-96822576D01*
G37*
D13*
X143905000Y-117705000D03*
X142635000Y-117705000D03*
X141365000Y-117705000D03*
X140095000Y-117705000D03*
X140095000Y-124295000D03*
X141365000Y-124295000D03*
X142635000Y-124295000D03*
X143905000Y-124295000D03*
D14*
X155025000Y-118750000D03*
X154475000Y-118750000D03*
D10*
G36*
X159333453Y-95702082D02*
X158202082Y-96833453D01*
X157494975Y-96126346D01*
X158626346Y-94994975D01*
X159333453Y-95702082D01*
X159333453Y-95702082D01*
G37*
G36*
X156505025Y-92873654D02*
X155373654Y-94005025D01*
X154666547Y-93297918D01*
X155797918Y-92166547D01*
X156505025Y-92873654D01*
X156505025Y-92873654D01*
G37*
D14*
X153975000Y-121800000D03*
X153425000Y-121800000D03*
D15*
X167275000Y-114050000D03*
X166625000Y-114050000D03*
X165975000Y-114050000D03*
X165325000Y-114050000D03*
X164675000Y-114050000D03*
X164025000Y-114050000D03*
X163375000Y-114050000D03*
X162725000Y-114050000D03*
X162725000Y-120950000D03*
X163375000Y-120950000D03*
X164025000Y-120950000D03*
X164675000Y-120950000D03*
X165325000Y-120950000D03*
X165975000Y-120950000D03*
X166625000Y-120950000D03*
X167275000Y-120950000D03*
X134275000Y-114050000D03*
X133625000Y-114050000D03*
X132975000Y-114050000D03*
X132325000Y-114050000D03*
X131675000Y-114050000D03*
X131025000Y-114050000D03*
X130375000Y-114050000D03*
X129725000Y-114050000D03*
X129725000Y-120950000D03*
X130375000Y-120950000D03*
X131025000Y-120950000D03*
X131675000Y-120950000D03*
X132325000Y-120950000D03*
X132975000Y-120950000D03*
X133625000Y-120950000D03*
X134275000Y-120950000D03*
D16*
X154750000Y-119725000D03*
X154750000Y-120275000D03*
X157250000Y-118775000D03*
X157250000Y-118225000D03*
D17*
X138550000Y-123000000D03*
X137450000Y-123000000D03*
D18*
X127500000Y-106500000D03*
X125500000Y-106500000D03*
D16*
X151500000Y-112725000D03*
X151500000Y-113275000D03*
X151500000Y-111225000D03*
X151500000Y-111775000D03*
D10*
G36*
X139068665Y-88872721D02*
X139372721Y-88568665D01*
X139570711Y-88766655D01*
X139266655Y-89070711D01*
X139068665Y-88872721D01*
X139068665Y-88872721D01*
G37*
G36*
X139429289Y-89233345D02*
X139733345Y-88929289D01*
X139931335Y-89127279D01*
X139627279Y-89431335D01*
X139429289Y-89233345D01*
X139429289Y-89233345D01*
G37*
D19*
X156000000Y-119745000D03*
X156000000Y-120255000D03*
D20*
X128500000Y-106950000D03*
X128500000Y-106050000D03*
D19*
X128500000Y-110255000D03*
X128500000Y-109745000D03*
X124500000Y-109745000D03*
X124500000Y-110255000D03*
D10*
G36*
X137843503Y-90151472D02*
X138550609Y-89444366D01*
X139187005Y-90080762D01*
X138479899Y-90787868D01*
X137843503Y-90151472D01*
X137843503Y-90151472D01*
G37*
G36*
X136712132Y-89020101D02*
X137419238Y-88312995D01*
X138055634Y-88949391D01*
X137348528Y-89656497D01*
X136712132Y-89020101D01*
X136712132Y-89020101D01*
G37*
G36*
X134944366Y-93050609D02*
X135651472Y-92343503D01*
X136287868Y-92979899D01*
X135580762Y-93687005D01*
X134944366Y-93050609D01*
X134944366Y-93050609D01*
G37*
G36*
X133812995Y-91919238D02*
X134520101Y-91212132D01*
X135156497Y-91848528D01*
X134449391Y-92555634D01*
X133812995Y-91919238D01*
X133812995Y-91919238D01*
G37*
G36*
X161348528Y-92343503D02*
X162055634Y-93050609D01*
X161419238Y-93687005D01*
X160712132Y-92979899D01*
X161348528Y-92343503D01*
X161348528Y-92343503D01*
G37*
G36*
X162479899Y-91212132D02*
X163187005Y-91919238D01*
X162550609Y-92555634D01*
X161843503Y-91848528D01*
X162479899Y-91212132D01*
X162479899Y-91212132D01*
G37*
G36*
X158449391Y-89444366D02*
X159156497Y-90151472D01*
X158520101Y-90787868D01*
X157812995Y-90080762D01*
X158449391Y-89444366D01*
X158449391Y-89444366D01*
G37*
G36*
X159580762Y-88312995D02*
X160287868Y-89020101D01*
X159651472Y-89656497D01*
X158944366Y-88949391D01*
X159580762Y-88312995D01*
X159580762Y-88312995D01*
G37*
D18*
X165500000Y-106500000D03*
X163500000Y-106500000D03*
X171500000Y-106500000D03*
X169500000Y-106500000D03*
X133500000Y-106500000D03*
X131500000Y-106500000D03*
D20*
X166500000Y-106950000D03*
X166500000Y-106050000D03*
D19*
X166500000Y-110255000D03*
X166500000Y-109745000D03*
X162500000Y-109745000D03*
X162500000Y-110255000D03*
D20*
X172500000Y-106950000D03*
X172500000Y-106050000D03*
D19*
X172500000Y-110255000D03*
X172500000Y-109745000D03*
X168500000Y-109745000D03*
X168500000Y-110255000D03*
X134500000Y-110255000D03*
X134500000Y-109745000D03*
X130500000Y-109745000D03*
X130500000Y-110255000D03*
D20*
X134500000Y-106950000D03*
X134500000Y-106050000D03*
D21*
X144250000Y-113000000D03*
D22*
X144250000Y-114250000D03*
D17*
X154550000Y-117500000D03*
X153450000Y-117500000D03*
X153550000Y-124000000D03*
X152450000Y-124000000D03*
D16*
X157250000Y-120275000D03*
X157250000Y-119725000D03*
D14*
X155975000Y-124250000D03*
X156525000Y-124250000D03*
D16*
X139500000Y-117125000D03*
X139500000Y-117675000D03*
X145000000Y-90725000D03*
X145000000Y-91275000D03*
X152000000Y-89225000D03*
X152000000Y-89775000D03*
D23*
X152000000Y-92050000D03*
X152000000Y-90950000D03*
D20*
X148500000Y-85550000D03*
X148500000Y-86450000D03*
X152000000Y-85550000D03*
X152000000Y-86450000D03*
X145000000Y-85550000D03*
X145000000Y-86450000D03*
D24*
X137000000Y-110000000D03*
X137000000Y-109000000D03*
X137000000Y-113000000D03*
X137000000Y-112000000D03*
D10*
G36*
X139478508Y-92140031D02*
X140574524Y-93236047D01*
X140150260Y-93660311D01*
X139054244Y-92564295D01*
X139478508Y-92140031D01*
X139478508Y-92140031D01*
G37*
G36*
X138771402Y-92847138D02*
X139867418Y-93943154D01*
X139443154Y-94367418D01*
X138347138Y-93271402D01*
X138771402Y-92847138D01*
X138771402Y-92847138D01*
G37*
G36*
X138064295Y-93554244D02*
X139160311Y-94650260D01*
X138736047Y-95074524D01*
X137640031Y-93978508D01*
X138064295Y-93554244D01*
X138064295Y-93554244D01*
G37*
G36*
X142306936Y-92705717D02*
X143579728Y-93978509D01*
X142731200Y-94827037D01*
X141458408Y-93554245D01*
X142306936Y-92705717D01*
X142306936Y-92705717D01*
G37*
G36*
X139054245Y-95958408D02*
X140327037Y-97231200D01*
X139478509Y-98079728D01*
X138205717Y-96806936D01*
X139054245Y-95958408D01*
X139054245Y-95958408D01*
G37*
D25*
X137000000Y-102000000D03*
X138000000Y-102000000D03*
D26*
X163500760Y-99950000D03*
X163500760Y-98050000D03*
X161501780Y-99000000D03*
X136950000Y-97999240D03*
X135050000Y-97999240D03*
X136000000Y-99998220D03*
D19*
X145000000Y-89245000D03*
X145000000Y-89755000D03*
D27*
X148755000Y-87500000D03*
X148245000Y-87500000D03*
D19*
X145000000Y-92245000D03*
X145000000Y-92755000D03*
D27*
X153755000Y-86500000D03*
X153245000Y-86500000D03*
X143245000Y-86500000D03*
X143755000Y-86500000D03*
D19*
X165000000Y-99255000D03*
X165000000Y-98745000D03*
X138500000Y-99745000D03*
X138500000Y-100255000D03*
D10*
G36*
X148851790Y-89999240D02*
X149601090Y-90499620D01*
X149601090Y-91500380D01*
X148851790Y-92000760D01*
X148851790Y-89999240D01*
X148851790Y-89999240D01*
G37*
D28*
X150351660Y-89498860D03*
X150351660Y-92501140D03*
X146648340Y-89498860D03*
D29*
X146648340Y-91000000D03*
D28*
X146648340Y-92501140D03*
D29*
X150351660Y-91000000D03*
D10*
G36*
X148148210Y-92000760D02*
X147398910Y-91500380D01*
X147398910Y-90499620D01*
X148148210Y-89999240D01*
X148148210Y-92000760D01*
X148148210Y-92000760D01*
G37*
D30*
X148500000Y-91000000D03*
D31*
X137750000Y-115750000D03*
D32*
X136500000Y-115750000D03*
X139000000Y-115750000D03*
D33*
X139000000Y-114500000D03*
X138500000Y-114500000D03*
X138000000Y-114500000D03*
X137500000Y-114500000D03*
X137000000Y-114500000D03*
X136500000Y-114500000D03*
X136500000Y-117000000D03*
X137000000Y-117000000D03*
X137500000Y-117000000D03*
X138000000Y-117000000D03*
X138500000Y-117000000D03*
X139000000Y-117000000D03*
D14*
X156025000Y-117200000D03*
X156575000Y-117200000D03*
X157425000Y-117200000D03*
X157975000Y-117200000D03*
D25*
X159000000Y-116000000D03*
X160000000Y-116000000D03*
D34*
X141312420Y-129980000D03*
D35*
X143500000Y-129980000D03*
D36*
X143500000Y-127460000D03*
D37*
X145750000Y-128560000D03*
D38*
X147000000Y-130160000D03*
D39*
X149400000Y-127460000D03*
D37*
X148250000Y-128560000D03*
X150550000Y-128560000D03*
X153050000Y-128560000D03*
D40*
X155250000Y-129545000D03*
D38*
X151800000Y-130160000D03*
D41*
X154150000Y-127460000D03*
D42*
X141312420Y-133250000D03*
X143500000Y-133250000D03*
D16*
X156000000Y-118225000D03*
X156000000Y-118775000D03*
D43*
X154950000Y-123350000D03*
X157550000Y-123350000D03*
X154950000Y-121150000D03*
X157550000Y-121150000D03*
D44*
X157100000Y-113600000D03*
X155900000Y-113200000D03*
X157100000Y-112800000D03*
X155900000Y-112400000D03*
D45*
X156500000Y-115500000D03*
X156500000Y-110500000D03*
D44*
X139900000Y-112400000D03*
X141100000Y-112800000D03*
X139900000Y-113200000D03*
X141100000Y-113600000D03*
D45*
X140500000Y-110500000D03*
X140500000Y-115500000D03*
D46*
X147900000Y-114600000D03*
D47*
X150100000Y-114000000D03*
X150100000Y-112000000D03*
D46*
X149100000Y-111400000D03*
X148300000Y-111400000D03*
X147900000Y-111400000D03*
X147500000Y-111400000D03*
X148300000Y-114600000D03*
X148700000Y-114600000D03*
X149100000Y-114600000D03*
D48*
X165200000Y-126100000D03*
X164400000Y-126100000D03*
D49*
X167500000Y-125750000D03*
D42*
X167500000Y-126500000D03*
X162500000Y-126500000D03*
D49*
X162500000Y-125750000D03*
D48*
X132200000Y-126100000D03*
X131400000Y-126100000D03*
D49*
X134500000Y-125750000D03*
D42*
X134500000Y-126500000D03*
X129500000Y-126500000D03*
D49*
X129500000Y-125750000D03*
D48*
X126900000Y-111600000D03*
D49*
X128500000Y-111250000D03*
D48*
X126100000Y-111600000D03*
D42*
X128500000Y-112000000D03*
D49*
X124500000Y-111250000D03*
D42*
X124500000Y-112000000D03*
D48*
X170900000Y-111600000D03*
D49*
X172500000Y-111250000D03*
D48*
X170100000Y-111600000D03*
D42*
X172500000Y-112000000D03*
D49*
X168500000Y-111250000D03*
D42*
X168500000Y-112000000D03*
D48*
X164900000Y-111600000D03*
D49*
X166500000Y-111250000D03*
D48*
X164100000Y-111600000D03*
D42*
X166500000Y-112000000D03*
D49*
X162500000Y-111250000D03*
D42*
X162500000Y-112000000D03*
D48*
X132900000Y-111600000D03*
D49*
X134500000Y-111250000D03*
D48*
X132100000Y-111600000D03*
D42*
X134500000Y-112000000D03*
D49*
X130500000Y-111250000D03*
D42*
X130500000Y-112000000D03*
D10*
G36*
X153452727Y-119002980D02*
X153608290Y-119158543D01*
X152901183Y-119865650D01*
X152745620Y-119710087D01*
X153452727Y-119002980D01*
X153452727Y-119002980D01*
G37*
G36*
X148502980Y-116047273D02*
X148658543Y-115891710D01*
X149365650Y-116598817D01*
X149210087Y-116754380D01*
X148502980Y-116047273D01*
X148502980Y-116047273D01*
G37*
G36*
X149634350Y-123401183D02*
X149789913Y-123245620D01*
X150497020Y-123952727D01*
X150341457Y-124108290D01*
X149634350Y-123401183D01*
X149634350Y-123401183D01*
G37*
G36*
X150065685Y-119434315D02*
X150631370Y-120000000D01*
X150065685Y-120565685D01*
X149500000Y-120000000D01*
X150065685Y-119434315D01*
X150065685Y-119434315D01*
G37*
G36*
X149500000Y-118868630D02*
X150065685Y-119434315D01*
X149500000Y-120000000D01*
X148934315Y-119434315D01*
X149500000Y-118868630D01*
X149500000Y-118868630D01*
G37*
G36*
X148934315Y-119434315D02*
X149500000Y-120000000D01*
X148934315Y-120565685D01*
X148368630Y-120000000D01*
X148934315Y-119434315D01*
X148934315Y-119434315D01*
G37*
G36*
X149500000Y-120000000D02*
X150065685Y-120565685D01*
X149500000Y-121131370D01*
X148934315Y-120565685D01*
X149500000Y-120000000D01*
X149500000Y-120000000D01*
G37*
G36*
X153169885Y-118720137D02*
X153325448Y-118875700D01*
X152618341Y-119582807D01*
X152462778Y-119427244D01*
X153169885Y-118720137D01*
X153169885Y-118720137D01*
G37*
G36*
X152887042Y-118437294D02*
X153042605Y-118592857D01*
X152335498Y-119299964D01*
X152179935Y-119144401D01*
X152887042Y-118437294D01*
X152887042Y-118437294D01*
G37*
G36*
X152604199Y-118154451D02*
X152759762Y-118310014D01*
X152052655Y-119017121D01*
X151897092Y-118861558D01*
X152604199Y-118154451D01*
X152604199Y-118154451D01*
G37*
G36*
X150907143Y-116457395D02*
X151062706Y-116612958D01*
X150355599Y-117320065D01*
X150200036Y-117164502D01*
X150907143Y-116457395D01*
X150907143Y-116457395D01*
G37*
G36*
X150624300Y-116174552D02*
X150779863Y-116330115D01*
X150072756Y-117037222D01*
X149917193Y-116881659D01*
X150624300Y-116174552D01*
X150624300Y-116174552D01*
G37*
G36*
X150341457Y-115891710D02*
X150497020Y-116047273D01*
X149789913Y-116754380D01*
X149634350Y-116598817D01*
X150341457Y-115891710D01*
X150341457Y-115891710D01*
G37*
G36*
X146098817Y-120134350D02*
X146254380Y-120289913D01*
X145547273Y-120997020D01*
X145391710Y-120841457D01*
X146098817Y-120134350D01*
X146098817Y-120134350D01*
G37*
G36*
X146381659Y-120417193D02*
X146537222Y-120572756D01*
X145830115Y-121279863D01*
X145674552Y-121124300D01*
X146381659Y-120417193D01*
X146381659Y-120417193D01*
G37*
G36*
X146664502Y-120700036D02*
X146820065Y-120855599D01*
X146112958Y-121562706D01*
X145957395Y-121407143D01*
X146664502Y-120700036D01*
X146664502Y-120700036D01*
G37*
G36*
X146947345Y-120982879D02*
X147102908Y-121138442D01*
X146395801Y-121845549D01*
X146240238Y-121689986D01*
X146947345Y-120982879D01*
X146947345Y-120982879D01*
G37*
G36*
X147230188Y-121265721D02*
X147385751Y-121421284D01*
X146678644Y-122128391D01*
X146523081Y-121972828D01*
X147230188Y-121265721D01*
X147230188Y-121265721D01*
G37*
G36*
X147513030Y-121548564D02*
X147668593Y-121704127D01*
X146961486Y-122411234D01*
X146805923Y-122255671D01*
X147513030Y-121548564D01*
X147513030Y-121548564D01*
G37*
G36*
X147795873Y-121831407D02*
X147951436Y-121986970D01*
X147244329Y-122694077D01*
X147088766Y-122538514D01*
X147795873Y-121831407D01*
X147795873Y-121831407D01*
G37*
G36*
X148078716Y-122114249D02*
X148234279Y-122269812D01*
X147527172Y-122976919D01*
X147371609Y-122821356D01*
X148078716Y-122114249D01*
X148078716Y-122114249D01*
G37*
G36*
X148361558Y-122397092D02*
X148517121Y-122552655D01*
X147810014Y-123259762D01*
X147654451Y-123104199D01*
X148361558Y-122397092D01*
X148361558Y-122397092D01*
G37*
G36*
X148644401Y-122679935D02*
X148799964Y-122835498D01*
X148092857Y-123542605D01*
X147937294Y-123387042D01*
X148644401Y-122679935D01*
X148644401Y-122679935D01*
G37*
G36*
X148927244Y-122962778D02*
X149082807Y-123118341D01*
X148375700Y-123825448D01*
X148220137Y-123669885D01*
X148927244Y-122962778D01*
X148927244Y-122962778D01*
G37*
G36*
X149210087Y-123245620D02*
X149365650Y-123401183D01*
X148658543Y-124108290D01*
X148502980Y-123952727D01*
X149210087Y-123245620D01*
X149210087Y-123245620D01*
G37*
G36*
X148220137Y-116330115D02*
X148375700Y-116174552D01*
X149082807Y-116881659D01*
X148927244Y-117037222D01*
X148220137Y-116330115D01*
X148220137Y-116330115D01*
G37*
G36*
X147937294Y-116612958D02*
X148092857Y-116457395D01*
X148799964Y-117164502D01*
X148644401Y-117320065D01*
X147937294Y-116612958D01*
X147937294Y-116612958D01*
G37*
G36*
X147654451Y-116895801D02*
X147810014Y-116740238D01*
X148517121Y-117447345D01*
X148361558Y-117602908D01*
X147654451Y-116895801D01*
X147654451Y-116895801D01*
G37*
G36*
X147371609Y-117178644D02*
X147527172Y-117023081D01*
X148234279Y-117730188D01*
X148078716Y-117885751D01*
X147371609Y-117178644D01*
X147371609Y-117178644D01*
G37*
G36*
X147088766Y-117461486D02*
X147244329Y-117305923D01*
X147951436Y-118013030D01*
X147795873Y-118168593D01*
X147088766Y-117461486D01*
X147088766Y-117461486D01*
G37*
G36*
X146805923Y-117744329D02*
X146961486Y-117588766D01*
X147668593Y-118295873D01*
X147513030Y-118451436D01*
X146805923Y-117744329D01*
X146805923Y-117744329D01*
G37*
G36*
X146523081Y-118027172D02*
X146678644Y-117871609D01*
X147385751Y-118578716D01*
X147230188Y-118734279D01*
X146523081Y-118027172D01*
X146523081Y-118027172D01*
G37*
G36*
X146240238Y-118310014D02*
X146395801Y-118154451D01*
X147102908Y-118861558D01*
X146947345Y-119017121D01*
X146240238Y-118310014D01*
X146240238Y-118310014D01*
G37*
G36*
X145957395Y-118592857D02*
X146112958Y-118437294D01*
X146820065Y-119144401D01*
X146664502Y-119299964D01*
X145957395Y-118592857D01*
X145957395Y-118592857D01*
G37*
G36*
X145674552Y-118875700D02*
X145830115Y-118720137D01*
X146537222Y-119427244D01*
X146381659Y-119582807D01*
X145674552Y-118875700D01*
X145674552Y-118875700D01*
G37*
G36*
X145391710Y-119158543D02*
X145547273Y-119002980D01*
X146254380Y-119710087D01*
X146098817Y-119865650D01*
X145391710Y-119158543D01*
X145391710Y-119158543D01*
G37*
G36*
X149917193Y-123118341D02*
X150072756Y-122962778D01*
X150779863Y-123669885D01*
X150624300Y-123825448D01*
X149917193Y-123118341D01*
X149917193Y-123118341D01*
G37*
G36*
X150200036Y-122835498D02*
X150355599Y-122679935D01*
X151062706Y-123387042D01*
X150907143Y-123542605D01*
X150200036Y-122835498D01*
X150200036Y-122835498D01*
G37*
G36*
X150482879Y-122552655D02*
X150638442Y-122397092D01*
X151345549Y-123104199D01*
X151189986Y-123259762D01*
X150482879Y-122552655D01*
X150482879Y-122552655D01*
G37*
G36*
X150765721Y-122269812D02*
X150921284Y-122114249D01*
X151628391Y-122821356D01*
X151472828Y-122976919D01*
X150765721Y-122269812D01*
X150765721Y-122269812D01*
G37*
G36*
X151048564Y-121986970D02*
X151204127Y-121831407D01*
X151911234Y-122538514D01*
X151755671Y-122694077D01*
X151048564Y-121986970D01*
X151048564Y-121986970D01*
G37*
G36*
X151331407Y-121704127D02*
X151486970Y-121548564D01*
X152194077Y-122255671D01*
X152038514Y-122411234D01*
X151331407Y-121704127D01*
X151331407Y-121704127D01*
G37*
G36*
X151614249Y-121421284D02*
X151769812Y-121265721D01*
X152476919Y-121972828D01*
X152321356Y-122128391D01*
X151614249Y-121421284D01*
X151614249Y-121421284D01*
G37*
G36*
X151897092Y-121138442D02*
X152052655Y-120982879D01*
X152759762Y-121689986D01*
X152604199Y-121845549D01*
X151897092Y-121138442D01*
X151897092Y-121138442D01*
G37*
G36*
X152179935Y-120855599D02*
X152335498Y-120700036D01*
X153042605Y-121407143D01*
X152887042Y-121562706D01*
X152179935Y-120855599D01*
X152179935Y-120855599D01*
G37*
G36*
X152462778Y-120572756D02*
X152618341Y-120417193D01*
X153325448Y-121124300D01*
X153169885Y-121279863D01*
X152462778Y-120572756D01*
X152462778Y-120572756D01*
G37*
G36*
X152745620Y-120289913D02*
X152901183Y-120134350D01*
X153608290Y-120841457D01*
X153452727Y-120997020D01*
X152745620Y-120289913D01*
X152745620Y-120289913D01*
G37*
G36*
X151189986Y-116740238D02*
X151345549Y-116895801D01*
X150638442Y-117602908D01*
X150482879Y-117447345D01*
X151189986Y-116740238D01*
X151189986Y-116740238D01*
G37*
G36*
X152321356Y-117871609D02*
X152476919Y-118027172D01*
X151769812Y-118734279D01*
X151614249Y-118578716D01*
X152321356Y-117871609D01*
X152321356Y-117871609D01*
G37*
G36*
X152038514Y-117588766D02*
X152194077Y-117744329D01*
X151486970Y-118451436D01*
X151331407Y-118295873D01*
X152038514Y-117588766D01*
X152038514Y-117588766D01*
G37*
G36*
X151755671Y-117305923D02*
X151911234Y-117461486D01*
X151204127Y-118168593D01*
X151048564Y-118013030D01*
X151755671Y-117305923D01*
X151755671Y-117305923D01*
G37*
G36*
X151472828Y-117023081D02*
X151628391Y-117178644D01*
X150921284Y-117885751D01*
X150765721Y-117730188D01*
X151472828Y-117023081D01*
X151472828Y-117023081D01*
G37*
D50*
X141508600Y-112241300D03*
X151754500Y-90291400D03*
X137328000Y-121499800D03*
X155211000Y-117559300D03*
D51*
X151994800Y-88600600D03*
X148500700Y-88814000D03*
X139643200Y-116577500D03*
X146546600Y-117236700D03*
X148248600Y-115773600D03*
X150087300Y-114700700D03*
D52*
X144984600Y-120786700D03*
X142567900Y-122623200D03*
D50*
X140895600Y-98396700D03*
D52*
X170423900Y-107787000D03*
D51*
X170193900Y-105531200D03*
D52*
X132563200Y-107769300D03*
D51*
X132191500Y-105565500D03*
D52*
X126289100Y-107776600D03*
D51*
X126653700Y-105796100D03*
X169443900Y-105243900D03*
X130680700Y-105170800D03*
X124859400Y-105142400D03*
D52*
X142732600Y-97804300D03*
X142290000Y-90470700D03*
X160055200Y-94628900D03*
X149955100Y-117778300D03*
X143051600Y-90303600D03*
X141426700Y-98253900D03*
X134260800Y-97245600D03*
X146564200Y-111597500D03*
X136020500Y-96969100D03*
X171252800Y-104500000D03*
X149755800Y-117192300D03*
X154090900Y-110328900D03*
X133141500Y-104500000D03*
X149799500Y-115844100D03*
X153482600Y-110325800D03*
X143293000Y-114313500D03*
X140632500Y-112268400D03*
X152453100Y-113517600D03*
X141873400Y-114962700D03*
X151961300Y-113934000D03*
X146498500Y-115247300D03*
X141790800Y-114203200D03*
X163433400Y-121905400D03*
X166695000Y-121886500D03*
X162723400Y-115043100D03*
X163091200Y-122603200D03*
X130428600Y-121886500D03*
X133573000Y-121886500D03*
X129652500Y-115912500D03*
X130353900Y-125430100D03*
X150136900Y-122430500D03*
X139495600Y-111770900D03*
X140194100Y-108835000D03*
X150633700Y-121926000D03*
X151996200Y-122925700D03*
X158304400Y-116102000D03*
X146064900Y-111961200D03*
X139650300Y-102048600D03*
X145557800Y-92221700D03*
X145536400Y-90505400D03*
X152619200Y-116445900D03*
X166493800Y-109202500D03*
X172475100Y-109220600D03*
X134489300Y-109202500D03*
X127530300Y-108968300D03*
X150495500Y-118197000D03*
X159118000Y-94928100D03*
X146011600Y-121950200D03*
X142826900Y-123195700D03*
X147595100Y-119707600D03*
X141824400Y-119071800D03*
X144581000Y-120005500D03*
X147997800Y-121024500D03*
X146652600Y-122586700D03*
X142048400Y-123537100D03*
X141287700Y-125507600D03*
X148416000Y-121949800D03*
X164274200Y-107772900D03*
D51*
X164260100Y-105651400D03*
X162670900Y-105180600D03*
D52*
X165259200Y-104500000D03*
X162370100Y-107261000D03*
X168440800Y-107461400D03*
X130553200Y-107461400D03*
X124440000Y-107265600D03*
X151458600Y-115036700D03*
X136383800Y-93783000D03*
D53*
X150100000Y-112000000D02*
X151500000Y-112000000D01*
X150100000Y-112000000D02*
X149100000Y-112000000D01*
X149100000Y-111400000D02*
X149100000Y-112000000D01*
X149100000Y-112000000D02*
X149100000Y-114600000D01*
D54*
X136529600Y-114529600D02*
X136500000Y-114500000D01*
X136529600Y-114641400D02*
X136529600Y-114529600D01*
D55*
X138250000Y-116250000D02*
X137750000Y-115750000D01*
X138500000Y-116250000D02*
X138250000Y-116250000D01*
X138500000Y-117000000D02*
X138500000Y-116250000D01*
X138500000Y-116250000D02*
X139000000Y-115750000D01*
X137720400Y-115720400D02*
X137750000Y-115750000D01*
X136529600Y-115720400D02*
X137720400Y-115720400D01*
X136529600Y-114641400D02*
X136529600Y-115720400D01*
X136529600Y-115720400D02*
X136500000Y-115750000D01*
X146648300Y-91000000D02*
X147773600Y-91000000D01*
X146373300Y-91275000D02*
X146648300Y-91000000D01*
X145000000Y-91275000D02*
X146373300Y-91275000D01*
X140095000Y-117675000D02*
X139500000Y-117675000D01*
X140095000Y-117675000D02*
X140095000Y-117705000D01*
D53*
X151500000Y-112725000D02*
X151500000Y-112000000D01*
D55*
X163902900Y-97647900D02*
X165000000Y-98745000D01*
X163500800Y-98050000D02*
X163902900Y-97647900D01*
X155050000Y-118775000D02*
X155025000Y-118750000D01*
X156000000Y-118775000D02*
X155050000Y-118775000D01*
X141508600Y-112391400D02*
X141508600Y-112241300D01*
X141100000Y-112800000D02*
X141508600Y-112391400D01*
X148500000Y-91000000D02*
X147773600Y-91000000D01*
X145417000Y-93172000D02*
X145000000Y-92755000D01*
X147573200Y-93172000D02*
X145417000Y-93172000D01*
X147773600Y-92971600D02*
X147573200Y-93172000D01*
X147773600Y-91000000D02*
X147773600Y-92971600D01*
X149226400Y-91000000D02*
X148500000Y-91000000D01*
X154295400Y-124745400D02*
X153550000Y-124000000D01*
X156263300Y-124745400D02*
X154295400Y-124745400D01*
X156525000Y-124483700D02*
X156263300Y-124745400D01*
X156525000Y-124250000D02*
X156525000Y-124483700D01*
X157425000Y-123350000D02*
X156525000Y-124250000D01*
X157550000Y-123350000D02*
X157425000Y-123350000D01*
X156464400Y-118775000D02*
X156000000Y-118775000D01*
X157014400Y-118225000D02*
X156464400Y-118775000D01*
X157250000Y-118225000D02*
X157014400Y-118225000D01*
X157975000Y-117500000D02*
X157372500Y-118102500D01*
X157975000Y-117200000D02*
X157975000Y-117500000D01*
X157372500Y-118102500D02*
X157250000Y-118225000D01*
X158370400Y-122529600D02*
X157550000Y-123350000D01*
X158370400Y-120606600D02*
X158370400Y-122529600D01*
X157369400Y-119605600D02*
X158370400Y-120606600D01*
X157745300Y-119229700D02*
X157369400Y-119605600D01*
X157745300Y-118475300D02*
X157745300Y-119229700D01*
X157372500Y-118102500D02*
X157745300Y-118475300D01*
X157369400Y-119605600D02*
X157250000Y-119725000D01*
X151754500Y-90020500D02*
X151754500Y-90291400D01*
X152000000Y-89775000D02*
X151754500Y-90020500D01*
X150351700Y-91000000D02*
X149226400Y-91000000D01*
X152000000Y-85550000D02*
X151055500Y-85550000D01*
X151055500Y-85550000D02*
X148500000Y-85550000D01*
X151055500Y-88559600D02*
X151055500Y-85550000D01*
X151494400Y-88998500D02*
X151055500Y-88559600D01*
X151494400Y-90060700D02*
X151494400Y-88998500D01*
X151725100Y-90291400D02*
X151494400Y-90060700D01*
X151754500Y-90291400D02*
X151725100Y-90291400D01*
X137328000Y-122878000D02*
X137328000Y-121499800D01*
X137450000Y-123000000D02*
X137328000Y-122878000D01*
X150647200Y-90704500D02*
X150351700Y-91000000D01*
X151754500Y-90704500D02*
X150647200Y-90704500D01*
X151754500Y-90291400D02*
X151754500Y-90704500D01*
X151754500Y-90704500D02*
X152000000Y-90950000D01*
D53*
X151500000Y-112000000D02*
X151500000Y-111887500D01*
X151500000Y-111887500D02*
X151500000Y-111775000D01*
D55*
X155112500Y-111887500D02*
X156500000Y-110500000D01*
X151500000Y-111887500D02*
X155112500Y-111887500D01*
X137383900Y-88984700D02*
X134484700Y-91883900D01*
X134484700Y-93057200D02*
X134484700Y-91883900D01*
X136114700Y-94687200D02*
X134484700Y-93057200D01*
X136469600Y-94687200D02*
X136114700Y-94687200D01*
X139417900Y-92503700D02*
X139814400Y-92900200D01*
X138653100Y-92503700D02*
X139417900Y-92503700D01*
X136469600Y-94687200D02*
X138653100Y-92503700D01*
X136469600Y-94687200D02*
X136469600Y-95652700D01*
X140500000Y-115500000D02*
X140172500Y-115827500D01*
X140172500Y-117597500D02*
X140172500Y-115827500D01*
X140095000Y-117675000D02*
X140172500Y-117597500D01*
X140095000Y-115750000D02*
X139000000Y-115750000D01*
X140172500Y-115827500D02*
X140095000Y-115750000D01*
X154609300Y-117559300D02*
X154550000Y-117500000D01*
X155211000Y-117559300D02*
X154609300Y-117559300D01*
X164469600Y-97081200D02*
X164469600Y-96347300D01*
X163902900Y-97647900D02*
X164469600Y-97081200D01*
X135050000Y-97999200D02*
X135750600Y-97999200D01*
X135750600Y-98056800D02*
X135750600Y-97999200D01*
X136573200Y-98879400D02*
X135750600Y-98056800D01*
X136812500Y-98879400D02*
X136573200Y-98879400D01*
X138188100Y-100255000D02*
X136812500Y-98879400D01*
X138500000Y-100255000D02*
X138188100Y-100255000D01*
X150065700Y-120000000D02*
X149500000Y-120565700D01*
X150065700Y-120000000D02*
X149500000Y-119434300D01*
X136510800Y-95693900D02*
X136469600Y-95652700D01*
X136510800Y-97172300D02*
X136510800Y-95693900D01*
X135750600Y-97932500D02*
X136510800Y-97172300D01*
X135750600Y-97999200D02*
X135750600Y-97932500D01*
X139338200Y-87030400D02*
X137383900Y-88984700D01*
X141847300Y-87030400D02*
X139338200Y-87030400D01*
X154950000Y-121149900D02*
X154950000Y-121150000D01*
X155918000Y-121149900D02*
X154950000Y-121149900D01*
X156645000Y-120422900D02*
X155918000Y-121149900D01*
X156645000Y-120081100D02*
X156645000Y-120422900D01*
X157001100Y-119725000D02*
X156645000Y-120081100D01*
X157250000Y-119725000D02*
X157001100Y-119725000D01*
X154625000Y-121150000D02*
X153975000Y-121800000D01*
X154950000Y-121150000D02*
X154625000Y-121150000D01*
X157832200Y-88984700D02*
X155847300Y-90969600D01*
X159616100Y-88984700D02*
X157832200Y-88984700D01*
X164469600Y-93838200D02*
X162515300Y-91883900D01*
X164469600Y-96347300D02*
X164469600Y-93838200D01*
X162515300Y-91883900D02*
X159616100Y-88984700D01*
X145000000Y-85550000D02*
X148500000Y-85550000D01*
X143259500Y-85618200D02*
X141847300Y-87030400D01*
X144931800Y-85618200D02*
X143259500Y-85618200D01*
X145000000Y-85550000D02*
X144931800Y-85618200D01*
X158981900Y-117200000D02*
X157975000Y-117200000D01*
X160000000Y-116181900D02*
X158981900Y-117200000D01*
X160000000Y-116000000D02*
X160000000Y-116181900D01*
D53*
X160268900Y-95914200D02*
X160530400Y-95652700D01*
X158414200Y-95914200D02*
X160268900Y-95914200D01*
X151548900Y-92501100D02*
X152000000Y-92050000D01*
X150351700Y-92501100D02*
X151548900Y-92501100D01*
X152190600Y-89225000D02*
X152000000Y-89225000D01*
X152529400Y-89563800D02*
X152190600Y-89225000D01*
X152529400Y-91520600D02*
X152529400Y-89563800D01*
X152000000Y-92050000D02*
X152529400Y-91520600D01*
X152000000Y-88605800D02*
X151994800Y-88600600D01*
X152000000Y-89225000D02*
X152000000Y-88605800D01*
X148755000Y-88559700D02*
X148755000Y-87500000D01*
X148500700Y-88814000D02*
X148755000Y-88559700D01*
X139680300Y-89497200D02*
X139680300Y-89180300D01*
X141152700Y-90969600D02*
X139680300Y-89497200D01*
X152328500Y-118585800D02*
X152346400Y-118603600D01*
X152328400Y-118585800D02*
X152328500Y-118585800D01*
D56*
X149645000Y-123165400D02*
X149645000Y-123241300D01*
X149565400Y-123085800D02*
X149645000Y-123165400D01*
D53*
X150065700Y-123662000D02*
X150065700Y-123677000D01*
X149645000Y-123241300D02*
X150065700Y-123662000D01*
X152450000Y-122667200D02*
X152450000Y-124000000D01*
X151762700Y-121979900D02*
X152450000Y-122667200D01*
X152346400Y-118603600D02*
X153450000Y-117500000D01*
X155450000Y-115500000D02*
X156500000Y-115500000D01*
X153450000Y-117500000D02*
X155450000Y-115500000D01*
X139500000Y-116720700D02*
X139500000Y-117000000D01*
X139643200Y-116577500D02*
X139500000Y-116720700D01*
X139000000Y-117000000D02*
X139500000Y-117000000D01*
X139500000Y-117000000D02*
X139500000Y-117125000D01*
X139557400Y-109557400D02*
X140500000Y-110500000D01*
X139557400Y-102591100D02*
X139557400Y-109557400D01*
X139201000Y-102234700D02*
X139557400Y-102591100D01*
X139201000Y-101944900D02*
X139201000Y-102234700D01*
X136574900Y-99318800D02*
X139201000Y-101944900D01*
X135124800Y-99318800D02*
X136574900Y-99318800D01*
X132530400Y-96724400D02*
X135124800Y-99318800D01*
X132530400Y-96347300D02*
X132530400Y-96724400D01*
X146546600Y-117329400D02*
X146546600Y-117236700D01*
X147237300Y-118020100D02*
X146546600Y-117329400D01*
X149565400Y-122318000D02*
X149565400Y-123085800D01*
X150420200Y-121463200D02*
X149565400Y-122318000D01*
X151246000Y-121463200D02*
X150420200Y-121463200D01*
X151762700Y-121979900D02*
X151246000Y-121463200D01*
X153861300Y-118750000D02*
X154475000Y-118750000D01*
X153177000Y-119434300D02*
X153861300Y-118750000D01*
X150100000Y-114688000D02*
X150087300Y-114700700D01*
X150100000Y-114000000D02*
X150100000Y-114688000D01*
X150775000Y-114000000D02*
X151500000Y-113275000D01*
X150100000Y-114000000D02*
X150775000Y-114000000D01*
X147908700Y-114608700D02*
X147900000Y-114600000D01*
X147908700Y-115433700D02*
X147908700Y-114608700D01*
X148248600Y-115773600D02*
X147908700Y-115433700D01*
X152346400Y-118603600D02*
X152611300Y-118868600D01*
X152175400Y-119552000D02*
X152617400Y-119993900D01*
X152175400Y-119304500D02*
X152175400Y-119552000D01*
X152611300Y-118868600D02*
X152175400Y-119304500D01*
X152617400Y-119993900D02*
X153177000Y-119434300D01*
X153279900Y-121800000D02*
X152611300Y-121131400D01*
X153425000Y-121800000D02*
X153279900Y-121800000D01*
X151936700Y-120703600D02*
X152183500Y-120703600D01*
X151246000Y-121394300D02*
X151936700Y-120703600D01*
X151246000Y-121463200D02*
X151246000Y-121394300D01*
X152611300Y-121131400D02*
X152183500Y-120703600D01*
X152563100Y-120048200D02*
X152617400Y-119993900D01*
X152563100Y-120077400D02*
X152563100Y-120048200D01*
X152183500Y-120457000D02*
X152563100Y-120077400D01*
X152183500Y-120703600D02*
X152183500Y-120457000D01*
D57*
X153698500Y-123350000D02*
X154950000Y-123350000D01*
X152045600Y-121697100D02*
X153698500Y-123350000D01*
X155075000Y-123350000D02*
X155975000Y-124250000D01*
X154950000Y-123350000D02*
X155075000Y-123350000D01*
D53*
X156000000Y-118225000D02*
X155740600Y-118225000D01*
D57*
X156025000Y-117940600D02*
X156025000Y-117200000D01*
X155740600Y-118225000D02*
X156025000Y-117940600D01*
D53*
X153821000Y-118225000D02*
X153357500Y-118688000D01*
X155740600Y-118225000D02*
X153821000Y-118225000D01*
X153357500Y-118688000D02*
X152894000Y-119151000D01*
D57*
X152894100Y-119151400D02*
X152894100Y-119151500D01*
X153357500Y-118688000D02*
X152894100Y-119151400D01*
X142834700Y-122623200D02*
X142567900Y-122623200D01*
X143905000Y-123693500D02*
X142834700Y-122623200D01*
X143905000Y-124295000D02*
X143905000Y-123693500D01*
X138926800Y-122623200D02*
X138550000Y-123000000D01*
X142567900Y-122623200D02*
X138926800Y-122623200D01*
X145463700Y-121265800D02*
X144984600Y-120786700D01*
X145621500Y-121265800D02*
X145463700Y-121265800D01*
X146038800Y-120848500D02*
X145621500Y-121265800D01*
X146105900Y-120848500D02*
X146038800Y-120848500D01*
D55*
X146648300Y-89498900D02*
X150351700Y-89498900D01*
X139000000Y-105368400D02*
X139000000Y-114500000D01*
X137000000Y-103368400D02*
X139000000Y-105368400D01*
X137000000Y-102000000D02*
X137000000Y-103368400D01*
X146394400Y-89245000D02*
X145000000Y-89245000D01*
X146648300Y-89498900D02*
X146394400Y-89245000D01*
X144464600Y-90443500D02*
X144746100Y-90725000D01*
X144464600Y-89472400D02*
X144464600Y-90443500D01*
X144692000Y-89245000D02*
X144464600Y-89472400D01*
X145000000Y-89245000D02*
X144692000Y-89245000D01*
X144746100Y-90725000D02*
X145000000Y-90725000D01*
X140895600Y-98080900D02*
X140895600Y-98396700D01*
X144253500Y-94723000D02*
X140895600Y-98080900D01*
X144253500Y-91217600D02*
X144253500Y-94723000D01*
X144746100Y-90725000D02*
X144253500Y-91217600D01*
D57*
X170423900Y-111276100D02*
X170423900Y-107787000D01*
X170100000Y-111600000D02*
X170423900Y-111276100D01*
D58*
X172500000Y-104700000D02*
X172300000Y-104500000D01*
X172500000Y-106050000D02*
X172500000Y-104700000D01*
X171950000Y-106050000D02*
X172500000Y-106050000D01*
X171500000Y-106500000D02*
X171950000Y-106050000D01*
X168500000Y-112000000D02*
X168500000Y-111250000D01*
X168500000Y-111250000D02*
X168500000Y-110255000D01*
X169500000Y-109565300D02*
X169500000Y-106500000D01*
X168810300Y-110255000D02*
X169500000Y-109565300D01*
X168500000Y-110255000D02*
X168810300Y-110255000D01*
X170193900Y-105806100D02*
X170193900Y-105531200D01*
X169500000Y-106500000D02*
X170193900Y-105806100D01*
D57*
X132100000Y-108232500D02*
X132563200Y-107769300D01*
X132100000Y-111600000D02*
X132100000Y-108232500D01*
D58*
X134500000Y-104700000D02*
X134300000Y-104500000D01*
X134500000Y-106050000D02*
X134500000Y-104700000D01*
X133950000Y-106050000D02*
X134500000Y-106050000D01*
X133500000Y-106500000D02*
X133950000Y-106050000D01*
X132191500Y-105808500D02*
X132191500Y-105565500D01*
X131500000Y-106500000D02*
X132191500Y-105808500D01*
X130500000Y-112000000D02*
X130500000Y-111250000D01*
X130500000Y-111250000D02*
X130500000Y-110255000D01*
X131500000Y-109546600D02*
X131500000Y-106500000D01*
X130791600Y-110255000D02*
X131500000Y-109546600D01*
X130500000Y-110255000D02*
X130791600Y-110255000D01*
D57*
X126289100Y-111410900D02*
X126289100Y-107776600D01*
X126100000Y-111600000D02*
X126289100Y-111410900D01*
D58*
X128500000Y-104700000D02*
X128300000Y-104500000D01*
X128500000Y-106050000D02*
X128500000Y-104700000D01*
X127950000Y-106050000D02*
X128500000Y-106050000D01*
X127500000Y-106500000D02*
X127950000Y-106050000D01*
X124500000Y-112000000D02*
X124500000Y-111250000D01*
X124500000Y-111250000D02*
X124500000Y-110255000D01*
X125500000Y-109546600D02*
X125500000Y-106500000D01*
X124791600Y-110255000D02*
X125500000Y-109546600D01*
X124500000Y-110255000D02*
X124791600Y-110255000D01*
X125949800Y-106500000D02*
X126653700Y-105796100D01*
X125500000Y-106500000D02*
X125949800Y-106500000D01*
D57*
X150934600Y-110659600D02*
X151500000Y-111225000D01*
X148859700Y-110659600D02*
X150934600Y-110659600D01*
X148700000Y-110819300D02*
X148859700Y-110659600D01*
X148700000Y-114600000D02*
X148700000Y-110819300D01*
X148245000Y-86705000D02*
X148245000Y-87500000D01*
X148500000Y-86450000D02*
X148245000Y-86705000D01*
X172500000Y-112000000D02*
X172500000Y-111250000D01*
X172500000Y-108300000D02*
X172500000Y-106950000D01*
X172300000Y-108500000D02*
X172500000Y-108300000D01*
X172500000Y-111250000D02*
X172500000Y-110255000D01*
X171989800Y-108810200D02*
X172300000Y-108500000D01*
X171989800Y-109943100D02*
X171989800Y-108810200D01*
X172301700Y-110255000D02*
X171989800Y-109943100D01*
X172500000Y-110255000D02*
X172301700Y-110255000D01*
D58*
X168700000Y-104500000D02*
X169443900Y-105243900D01*
D57*
X134500000Y-112000000D02*
X134500000Y-111250000D01*
X134500000Y-111250000D02*
X134500000Y-110255000D01*
X134044600Y-108755400D02*
X134300000Y-108500000D01*
X134044600Y-110047500D02*
X134044600Y-108755400D01*
X134252100Y-110255000D02*
X134044600Y-110047500D01*
X134500000Y-110255000D02*
X134252100Y-110255000D01*
X134500000Y-108300000D02*
X134500000Y-106950000D01*
X134300000Y-108500000D02*
X134500000Y-108300000D01*
D58*
X130680700Y-104519300D02*
X130700000Y-104500000D01*
X130680700Y-105170800D02*
X130680700Y-104519300D01*
D57*
X128500000Y-112000000D02*
X128500000Y-111250000D01*
X128500000Y-111250000D02*
X128500000Y-110255000D01*
X128300000Y-107150000D02*
X128500000Y-106950000D01*
X128300000Y-108500000D02*
X128300000Y-107150000D01*
X127416400Y-108500000D02*
X128300000Y-108500000D01*
X127113100Y-108803300D02*
X127416400Y-108500000D01*
X127113100Y-109140100D02*
X127113100Y-108803300D01*
X128228000Y-110255000D02*
X127113100Y-109140100D01*
X128500000Y-110255000D02*
X128228000Y-110255000D01*
D58*
X124859400Y-104659400D02*
X124859400Y-105142400D01*
X124700000Y-104500000D02*
X124859400Y-104659400D01*
D57*
X153195000Y-86450000D02*
X153245000Y-86500000D01*
X152000000Y-86450000D02*
X153195000Y-86450000D01*
X143805000Y-86450000D02*
X143755000Y-86500000D01*
X145000000Y-86450000D02*
X143805000Y-86450000D01*
D53*
X138500000Y-111350000D02*
X138500000Y-114500000D01*
X137150000Y-110000000D02*
X138500000Y-111350000D01*
X137000000Y-110000000D02*
X137150000Y-110000000D01*
X136850000Y-109000000D02*
X137000000Y-109000000D01*
X136321000Y-109529000D02*
X136850000Y-109000000D01*
X136321000Y-110473000D02*
X136321000Y-109529000D01*
X136377000Y-110529000D02*
X136321000Y-110473000D01*
X136681000Y-110529000D02*
X136377000Y-110529000D01*
X138000000Y-111848000D02*
X136681000Y-110529000D01*
X138000000Y-114500000D02*
X138000000Y-111848000D01*
X137500000Y-113500000D02*
X137000000Y-113000000D01*
X137500000Y-114500000D02*
X137500000Y-113500000D01*
X136850000Y-112000000D02*
X137000000Y-112000000D01*
X136321000Y-112529000D02*
X136850000Y-112000000D01*
X136321000Y-113473000D02*
X136321000Y-112529000D01*
X136377000Y-113529000D02*
X136321000Y-113473000D01*
X136667000Y-113529000D02*
X136377000Y-113529000D01*
X137000000Y-113862000D02*
X136667000Y-113529000D01*
X137000000Y-114500000D02*
X137000000Y-113862000D01*
D57*
X142289900Y-90470700D02*
X142290000Y-90470700D01*
X142289900Y-90253300D02*
X142289900Y-90470700D01*
X141430500Y-89393900D02*
X142289900Y-90253300D01*
X142240500Y-98296400D02*
X142732600Y-97804300D01*
X142240500Y-108030900D02*
X142240500Y-98296400D01*
X142849900Y-108640300D02*
X142240500Y-108030900D01*
X142849900Y-114453100D02*
X142849900Y-108640300D01*
X142924300Y-114527500D02*
X142849900Y-114453100D01*
X142924300Y-114722100D02*
X142924300Y-114527500D01*
X144476300Y-116274100D02*
X142924300Y-114722100D01*
X144476300Y-119219000D02*
X144476300Y-116274100D01*
X145823000Y-120565700D02*
X144476300Y-119219000D01*
X162106100Y-95824600D02*
X162106100Y-95930500D01*
X160910400Y-94628900D02*
X162106100Y-95824600D01*
X160055200Y-94628900D02*
X160910400Y-94628900D01*
X141941500Y-88606100D02*
X141569500Y-88606100D01*
X143051600Y-89716200D02*
X141941500Y-88606100D01*
X143051600Y-90303600D02*
X143051600Y-89716200D01*
X149555200Y-118178200D02*
X149955100Y-117778300D01*
X147961000Y-118178200D02*
X149555200Y-118178200D01*
X147520100Y-117737300D02*
X147961000Y-118178200D01*
X134106100Y-97090900D02*
X134106100Y-96069500D01*
X134260800Y-97245600D02*
X134106100Y-97090900D01*
X141915800Y-98027500D02*
X141915800Y-98253900D01*
X143774400Y-96168900D02*
X141915800Y-98027500D01*
X148821700Y-96168900D02*
X143774400Y-96168900D01*
X152888800Y-92101800D02*
X148821700Y-96168900D01*
X152888800Y-88473800D02*
X152888800Y-92101800D01*
X151459600Y-87044600D02*
X152888800Y-88473800D01*
X151459600Y-86124600D02*
X151459600Y-87044600D01*
X151574600Y-86009600D02*
X151459600Y-86124600D01*
X153966200Y-86009600D02*
X151574600Y-86009600D01*
X154243300Y-86286700D02*
X153966200Y-86009600D01*
X154243300Y-87589700D02*
X154243300Y-86286700D01*
X155259700Y-88606100D02*
X154243300Y-87589700D01*
X155430500Y-88606100D02*
X155259700Y-88606100D01*
X141915800Y-108159100D02*
X141915800Y-98253900D01*
X142529600Y-108772900D02*
X141915800Y-108159100D01*
X142529600Y-114585700D02*
X142529600Y-108772900D01*
X142604000Y-114660100D02*
X142529600Y-114585700D01*
X142604000Y-114854800D02*
X142604000Y-114660100D01*
X143340100Y-115590900D02*
X142604000Y-114854800D01*
X143340100Y-119722400D02*
X143340100Y-115590900D01*
X145233200Y-121615500D02*
X143340100Y-119722400D01*
X145724700Y-121615500D02*
X145233200Y-121615500D01*
X145800300Y-121539900D02*
X145724700Y-121615500D01*
X145980200Y-121539900D02*
X145800300Y-121539900D01*
X146388700Y-121131400D02*
X145980200Y-121539900D01*
X141915800Y-98253900D02*
X141426700Y-98253900D01*
X134981900Y-95930500D02*
X134893900Y-95930500D01*
X136020500Y-96969100D02*
X134981900Y-95930500D01*
X146564200Y-112970700D02*
X146564200Y-111597500D01*
X146069600Y-113465300D02*
X146564200Y-112970700D01*
X146069600Y-117418100D02*
X146069600Y-113465300D01*
X146954400Y-118302900D02*
X146069600Y-117418100D01*
X170759600Y-104993200D02*
X171252800Y-104500000D01*
X170759600Y-107517800D02*
X170759600Y-104993200D01*
X170900000Y-107658200D02*
X170759600Y-107517800D01*
X170900000Y-111600000D02*
X170900000Y-107658200D01*
X149676900Y-117113400D02*
X149755800Y-117192300D01*
X149676900Y-116711800D02*
X149676900Y-117113400D01*
X150065700Y-116323000D02*
X149676900Y-116711800D01*
X162682400Y-96281000D02*
X162893900Y-96069500D01*
X162682400Y-99635900D02*
X162682400Y-96281000D01*
X154090900Y-108227400D02*
X162682400Y-99635900D01*
X154090900Y-110328900D02*
X154090900Y-108227400D01*
X132759600Y-104881900D02*
X133141500Y-104500000D01*
X132759600Y-107385400D02*
X132759600Y-104881900D01*
X132973500Y-107599300D02*
X132759600Y-107385400D01*
X132973500Y-111526500D02*
X132973500Y-107599300D01*
X132900000Y-111600000D02*
X132973500Y-111526500D01*
X149320600Y-116323000D02*
X149799500Y-115844100D01*
X148934300Y-116323000D02*
X149320600Y-116323000D01*
X154393500Y-90569900D02*
X155569500Y-89393900D01*
X154393500Y-93867100D02*
X154393500Y-90569900D01*
X155073700Y-94547300D02*
X154393500Y-93867100D01*
X155073700Y-106736900D02*
X155073700Y-94547300D01*
X153482600Y-108328000D02*
X155073700Y-106736900D01*
X153482600Y-110325800D02*
X153482600Y-108328000D01*
X140031600Y-112268400D02*
X139900000Y-112400000D01*
X140632500Y-112268400D02*
X140031600Y-112268400D01*
X152575900Y-113640400D02*
X152453100Y-113517600D01*
X157059600Y-113640400D02*
X152575900Y-113640400D01*
X157100000Y-113600000D02*
X157059600Y-113640400D01*
X143293100Y-114313500D02*
X143293000Y-114313500D01*
X143293100Y-114638000D02*
X143293100Y-114313500D01*
X144796600Y-116141500D02*
X143293100Y-114638000D01*
X144796600Y-118407900D02*
X144796600Y-116141500D01*
X145823000Y-119434300D02*
X144796600Y-118407900D01*
X141506900Y-114962700D02*
X141873400Y-114962700D01*
X139900000Y-113355800D02*
X141506900Y-114962700D01*
X139900000Y-113200000D02*
X139900000Y-113355800D01*
X151961300Y-113421800D02*
X151961300Y-113934000D01*
X152362900Y-113020200D02*
X151961300Y-113421800D01*
X155720200Y-113020200D02*
X152362900Y-113020200D01*
X155900000Y-113200000D02*
X155720200Y-113020200D01*
X141703200Y-114203200D02*
X141100000Y-113600000D01*
X141790800Y-114203200D02*
X141703200Y-114203200D01*
X146545300Y-115247300D02*
X146498500Y-115247300D01*
X146545300Y-116196800D02*
X146545300Y-115247300D01*
X147802900Y-117454400D02*
X146545300Y-116196800D01*
X156050900Y-112400000D02*
X155900000Y-112400000D01*
X157343000Y-111107900D02*
X156050900Y-112400000D01*
X157343000Y-109954400D02*
X157343000Y-111107900D01*
X156810800Y-109422200D02*
X157343000Y-109954400D01*
X155577900Y-109422200D02*
X156810800Y-109422200D01*
X154207400Y-110792700D02*
X155577900Y-109422200D01*
X153369300Y-110792700D02*
X154207400Y-110792700D01*
X152915200Y-110338600D02*
X153369300Y-110792700D01*
X147611400Y-110338600D02*
X152915200Y-110338600D01*
X146974500Y-110975500D02*
X147611400Y-110338600D01*
X146974500Y-113013300D02*
X146974500Y-110975500D01*
X146545300Y-113442500D02*
X146974500Y-113013300D01*
X146545300Y-115247300D02*
X146545300Y-113442500D01*
X162500000Y-126500000D02*
X162500000Y-125750000D01*
X163375000Y-115485800D02*
X163375000Y-114050000D01*
X162278700Y-116582100D02*
X163375000Y-115485800D01*
X162278700Y-125528700D02*
X162278700Y-116582100D01*
X162500000Y-125750000D02*
X162278700Y-125528700D01*
X167500000Y-126500000D02*
X167500000Y-125750000D01*
X167500000Y-121175000D02*
X167275000Y-120950000D01*
X167500000Y-125750000D02*
X167500000Y-121175000D01*
X167275000Y-120950000D02*
X166625000Y-120950000D01*
X163433400Y-121008400D02*
X163433400Y-121905400D01*
X163375000Y-120950000D02*
X163433400Y-121008400D01*
X166756500Y-121948000D02*
X166695000Y-121886500D01*
X166756500Y-124543500D02*
X166756500Y-121948000D01*
X165200000Y-126100000D02*
X166756500Y-124543500D01*
X162725000Y-115041500D02*
X162725000Y-114050000D01*
X162723400Y-115043100D02*
X162725000Y-115041500D01*
X162725000Y-122237000D02*
X163091200Y-122603200D01*
X162725000Y-120950000D02*
X162725000Y-122237000D01*
X164025000Y-122263000D02*
X164025000Y-120950000D01*
X163227400Y-123060600D02*
X164025000Y-122263000D01*
X163227400Y-124927400D02*
X163227400Y-123060600D01*
X164400000Y-126100000D02*
X163227400Y-124927400D01*
X151090200Y-116429900D02*
X150631400Y-116888700D01*
X151090200Y-115304400D02*
X151090200Y-116429900D01*
X150992400Y-115206600D02*
X151090200Y-115304400D01*
X150992400Y-114908600D02*
X150992400Y-115206600D01*
X151556700Y-114344300D02*
X150992400Y-114908600D01*
X157356100Y-114344300D02*
X151556700Y-114344300D01*
X157740400Y-113960000D02*
X157356100Y-114344300D01*
X157740400Y-113299900D02*
X157740400Y-113960000D01*
X157240500Y-112800000D02*
X157740400Y-113299900D01*
X157100000Y-112800000D02*
X157240500Y-112800000D01*
X129500000Y-126500000D02*
X129500000Y-125750000D01*
X130375000Y-115783600D02*
X130375000Y-114050000D01*
X129250400Y-116908200D02*
X130375000Y-115783600D01*
X129250400Y-125500400D02*
X129250400Y-116908200D01*
X129500000Y-125750000D02*
X129250400Y-125500400D01*
X134500000Y-126500000D02*
X134500000Y-125750000D01*
X133625000Y-120950000D02*
X134275000Y-120950000D01*
X134500000Y-121175000D02*
X134500000Y-125750000D01*
X134275000Y-120950000D02*
X134500000Y-121175000D01*
X130375000Y-121832900D02*
X130428600Y-121886500D01*
X130375000Y-120950000D02*
X130375000Y-121832900D01*
X129725000Y-115840000D02*
X129652500Y-115912500D01*
X129725000Y-114050000D02*
X129725000Y-115840000D01*
X133790900Y-122104400D02*
X133573000Y-121886500D01*
X133790900Y-124509100D02*
X133790900Y-122104400D01*
X132200000Y-126100000D02*
X133790900Y-124509100D01*
X129725000Y-124801200D02*
X129725000Y-120950000D01*
X130353900Y-125430100D02*
X129725000Y-124801200D01*
X131025000Y-122110300D02*
X131025000Y-120950000D01*
X130254900Y-122880400D02*
X131025000Y-122110300D01*
X130254900Y-124674100D02*
X130254900Y-122880400D01*
X131400000Y-125819200D02*
X130254900Y-124674100D01*
X131400000Y-126100000D02*
X131400000Y-125819200D01*
X150516300Y-122430500D02*
X150136900Y-122430500D01*
X150914200Y-122828400D02*
X150516300Y-122430500D01*
X139495600Y-111770800D02*
X139495600Y-111770900D01*
X140650900Y-111770800D02*
X139495600Y-111770800D01*
X141341800Y-111079900D02*
X140650900Y-111770800D01*
X141341800Y-108848200D02*
X141341800Y-111079900D01*
X140571000Y-108077400D02*
X141341800Y-108848200D01*
X140571000Y-99133500D02*
X140571000Y-108077400D01*
X140145000Y-98707500D02*
X140571000Y-99133500D01*
X140145000Y-97812500D02*
X140145000Y-98707500D01*
X140571000Y-97386500D02*
X140145000Y-97812500D01*
X140571000Y-95071000D02*
X140571000Y-97386500D01*
X139107300Y-93607300D02*
X140571000Y-95071000D01*
X140194100Y-100340700D02*
X140194100Y-108835000D01*
X137944700Y-98091300D02*
X140194100Y-100340700D01*
X137944700Y-94769900D02*
X137944700Y-98091300D01*
X138400200Y-94314400D02*
X137944700Y-94769900D01*
X151197100Y-122489400D02*
X151197100Y-122545600D01*
X150633700Y-121926000D02*
X151197100Y-122489400D01*
X164305000Y-99950000D02*
X165000000Y-99255000D01*
X163500800Y-99950000D02*
X164305000Y-99950000D01*
X151996200Y-122779000D02*
X151996200Y-122925700D01*
X151479900Y-122262700D02*
X151996200Y-122779000D01*
X162874900Y-99950000D02*
X163500800Y-99950000D01*
X158304400Y-104520500D02*
X162874900Y-99950000D01*
X158304400Y-116102000D02*
X158304400Y-104520500D01*
X155585800Y-94606300D02*
X155585800Y-93085800D01*
X159979500Y-99000000D02*
X155585800Y-94606300D01*
X161501800Y-99000000D02*
X159979500Y-99000000D01*
X138566000Y-99615200D02*
X138566000Y-99679000D01*
X136950000Y-97999200D02*
X138566000Y-99615200D01*
X138566000Y-99679000D02*
X138500000Y-99745000D01*
X138687700Y-99679000D02*
X138566000Y-99679000D01*
X139650300Y-100641600D02*
X138687700Y-99679000D01*
X139650300Y-102048600D02*
X139650300Y-100641600D01*
X145717500Y-112308600D02*
X146064900Y-111961200D01*
X145717500Y-117631700D02*
X145717500Y-112308600D01*
X146671600Y-118585800D02*
X145717500Y-117631700D01*
X145023300Y-92221700D02*
X145000000Y-92245000D01*
X145557800Y-92221700D02*
X145023300Y-92221700D01*
X145536400Y-90291400D02*
X145000000Y-89755000D01*
X145536400Y-90505400D02*
X145536400Y-90291400D01*
X152619200Y-117729300D02*
X152619200Y-116445900D01*
X152045600Y-118302900D02*
X152619200Y-117729300D01*
X166500000Y-109208700D02*
X166493800Y-109202500D01*
X166500000Y-109745000D02*
X166500000Y-109208700D01*
X172500000Y-109245500D02*
X172475100Y-109220600D01*
X172500000Y-109745000D02*
X172500000Y-109245500D01*
X134500000Y-109213200D02*
X134500000Y-109745000D01*
X134489300Y-109202500D02*
X134500000Y-109213200D01*
X128307000Y-109745000D02*
X128500000Y-109745000D01*
X127530300Y-108968300D02*
X128307000Y-109745000D01*
X145342000Y-117821900D02*
X146388700Y-118868600D01*
X145342000Y-112091800D02*
X145342000Y-117821900D01*
X148125400Y-109308400D02*
X145342000Y-112091800D01*
X150577800Y-109308400D02*
X148125400Y-109308400D01*
X154741400Y-105144800D02*
X150577800Y-109308400D01*
X154741400Y-95241700D02*
X154741400Y-105144800D01*
X153755000Y-94255300D02*
X154741400Y-95241700D01*
X153755000Y-86500000D02*
X153755000Y-94255300D01*
X143245000Y-89456500D02*
X143245000Y-86500000D01*
X143471600Y-89683100D02*
X143245000Y-89456500D01*
X143471600Y-90868300D02*
X143471600Y-89683100D01*
X140891400Y-93448500D02*
X143471600Y-90868300D01*
X140891400Y-97519000D02*
X140891400Y-93448500D01*
X140465300Y-97945100D02*
X140891400Y-97519000D01*
X140465300Y-98574900D02*
X140465300Y-97945100D01*
X140891400Y-99001000D02*
X140465300Y-98574900D01*
X140891400Y-107926600D02*
X140891400Y-99001000D01*
X142201100Y-109236300D02*
X140891400Y-107926600D01*
X142201100Y-114710100D02*
X142201100Y-109236300D01*
X142283700Y-114792700D02*
X142201100Y-114710100D01*
X142283700Y-115132700D02*
X142283700Y-114792700D01*
X142154200Y-115262200D02*
X142283700Y-115132700D01*
X142154200Y-118821300D02*
X142154200Y-115262200D01*
X142234700Y-118901800D02*
X142154200Y-118821300D01*
X142234700Y-119522800D02*
X142234700Y-118901800D01*
X146255400Y-123543500D02*
X142234700Y-119522800D01*
X147936400Y-123543500D02*
X146255400Y-123543500D01*
X148368600Y-123111300D02*
X147936400Y-123543500D01*
X150193900Y-118498600D02*
X150495500Y-118197000D01*
X147854500Y-118498600D02*
X150193900Y-118498600D01*
X146812700Y-119540400D02*
X147854500Y-118498600D01*
X146494800Y-119540400D02*
X146812700Y-119540400D01*
X146105900Y-119151500D02*
X146494800Y-119540400D01*
X159118000Y-94928100D02*
X161207400Y-92838700D01*
X158484700Y-90116100D02*
X161207400Y-92838700D01*
X161207400Y-92838700D02*
X161383900Y-93015300D01*
X148181700Y-123863900D02*
X148651500Y-123394100D01*
X146122900Y-123863900D02*
X148181700Y-123863900D01*
X142970800Y-120711800D02*
X146122900Y-123863900D01*
X141316100Y-120711800D02*
X142970800Y-120711800D01*
X138000000Y-117395700D02*
X141316100Y-120711800D01*
X138000000Y-117000000D02*
X138000000Y-117395700D01*
X148300000Y-113226000D02*
X148300000Y-111400000D01*
X147532700Y-113993300D02*
X148300000Y-113226000D01*
X147532700Y-114795400D02*
X147532700Y-113993300D01*
X147549400Y-114812100D02*
X147532700Y-114795400D01*
X147549400Y-115668700D02*
X147549400Y-114812100D01*
X148074600Y-116193900D02*
X147549400Y-115668700D01*
X148239500Y-116193900D02*
X148074600Y-116193900D01*
X148651500Y-116605900D02*
X148239500Y-116193900D01*
X148408100Y-124203200D02*
X148934300Y-123677000D01*
X146009300Y-124203200D02*
X148408100Y-124203200D01*
X142838200Y-121032100D02*
X146009300Y-124203200D01*
X141114500Y-121032100D02*
X142838200Y-121032100D01*
X137500000Y-117417600D02*
X141114500Y-121032100D01*
X137500000Y-117000000D02*
X137500000Y-117417600D01*
X142635000Y-123387600D02*
X142635000Y-124295000D01*
X142826900Y-123195700D02*
X142635000Y-123387600D01*
X146135600Y-121950200D02*
X146011600Y-121950200D01*
X146671600Y-121414200D02*
X146135600Y-121950200D01*
X141365000Y-118612400D02*
X141365000Y-117705000D01*
X141824400Y-119071800D02*
X141365000Y-118612400D01*
X147587500Y-121064000D02*
X146954400Y-121697100D01*
X147587500Y-119715200D02*
X147587500Y-121064000D01*
X147595100Y-119707600D02*
X147587500Y-119715200D01*
X143905000Y-119329500D02*
X144581000Y-120005500D01*
X143905000Y-117705000D02*
X143905000Y-119329500D01*
X147997800Y-121219400D02*
X147237300Y-121979900D01*
X147997800Y-121024500D02*
X147997800Y-121219400D01*
X141365000Y-124220500D02*
X141365000Y-124295000D01*
X142048400Y-123537100D02*
X141365000Y-124220500D01*
X146735000Y-122669100D02*
X146652600Y-122586700D01*
X147113700Y-122669100D02*
X146735000Y-122669100D01*
X147520100Y-122262700D02*
X147113700Y-122669100D01*
X147343000Y-123005500D02*
X147802900Y-122545600D01*
X146170300Y-123005500D02*
X147343000Y-123005500D01*
X142635000Y-119470200D02*
X146170300Y-123005500D01*
X142635000Y-117705000D02*
X142635000Y-119470200D01*
X140095000Y-124314900D02*
X141287700Y-125507600D01*
X140095000Y-124295000D02*
X140095000Y-124314900D01*
X148514400Y-122048200D02*
X148416000Y-121949800D01*
X148514400Y-122399800D02*
X148514400Y-122048200D01*
X148085800Y-122828400D02*
X148514400Y-122399800D01*
X150755400Y-123801000D02*
X150348500Y-123394100D01*
X150755400Y-124034400D02*
X150755400Y-123801000D01*
X150256900Y-124532900D02*
X150755400Y-124034400D01*
X145886100Y-124532900D02*
X150256900Y-124532900D01*
X142961300Y-121608100D02*
X145886100Y-124532900D01*
X141106900Y-121608100D02*
X142961300Y-121608100D01*
X137000000Y-117501200D02*
X141106900Y-121608100D01*
X137000000Y-117000000D02*
X137000000Y-117501200D01*
X147500000Y-113119900D02*
X147500000Y-111400000D01*
X146892000Y-113727900D02*
X147500000Y-113119900D01*
X146892000Y-115060500D02*
X146892000Y-113727900D01*
X146908800Y-115077300D02*
X146892000Y-115060500D01*
X146908800Y-115994600D02*
X146908800Y-115077300D01*
X148085800Y-117171600D02*
X146908800Y-115994600D01*
X151083100Y-123563000D02*
X150631400Y-123111300D01*
X151083100Y-124231400D02*
X151083100Y-123563000D01*
X150461200Y-124853300D02*
X151083100Y-124231400D01*
X145753600Y-124853300D02*
X150461200Y-124853300D01*
X143073500Y-122173200D02*
X145753600Y-124853300D01*
X141218900Y-122173200D02*
X143073500Y-122173200D01*
X136500000Y-117454300D02*
X141218900Y-122173200D01*
X136500000Y-117000000D02*
X136500000Y-117454300D01*
X148300000Y-115152600D02*
X148300000Y-114600000D01*
X148518800Y-115371400D02*
X148300000Y-115152600D01*
X150203700Y-115371400D02*
X148518800Y-115371400D01*
X150767700Y-115935400D02*
X150203700Y-115371400D01*
X150767700Y-116186700D02*
X150767700Y-115935400D01*
X150348500Y-116605900D02*
X150767700Y-116186700D01*
X147900000Y-113173000D02*
X147900000Y-111400000D01*
X147212400Y-113860600D02*
X147900000Y-113173000D01*
X147212400Y-114928000D02*
X147212400Y-113860600D01*
X147229100Y-114944700D02*
X147212400Y-114928000D01*
X147229100Y-115801300D02*
X147229100Y-114944700D01*
X148316500Y-116888700D02*
X147229100Y-115801300D01*
X148368600Y-116888700D02*
X148316500Y-116888700D01*
X164274200Y-111425800D02*
X164274200Y-107772900D01*
X164100000Y-111600000D02*
X164274200Y-111425800D01*
D58*
X166500000Y-104700000D02*
X166300000Y-104500000D01*
X166500000Y-106050000D02*
X166500000Y-104700000D01*
X165950000Y-106050000D02*
X166500000Y-106050000D01*
X165500000Y-106500000D02*
X165950000Y-106050000D01*
X164260100Y-105739900D02*
X164260100Y-105651400D01*
X163500000Y-106500000D02*
X164260100Y-105739900D01*
X162500000Y-112000000D02*
X162500000Y-111250000D01*
X163500000Y-109565300D02*
X163500000Y-106500000D01*
X162810300Y-110255000D02*
X163500000Y-109565300D01*
X162500000Y-110255000D02*
X162810300Y-110255000D01*
X162500000Y-111250000D02*
X162500000Y-110255000D01*
D57*
X166500000Y-112000000D02*
X166500000Y-111250000D01*
X166500000Y-111250000D02*
X166500000Y-110255000D01*
X166044600Y-108755400D02*
X166300000Y-108500000D01*
X166044600Y-110069500D02*
X166044600Y-108755400D01*
X166230100Y-110255000D02*
X166044600Y-110069500D01*
X166500000Y-110255000D02*
X166230100Y-110255000D01*
X166500000Y-108300000D02*
X166500000Y-106950000D01*
X166300000Y-108500000D02*
X166500000Y-108300000D01*
D58*
X162670900Y-104529100D02*
X162700000Y-104500000D01*
X162670900Y-105180600D02*
X162670900Y-104529100D01*
D57*
X164720100Y-105039100D02*
X165259200Y-104500000D01*
X164720100Y-111420100D02*
X164720100Y-105039100D01*
X164900000Y-111600000D02*
X164720100Y-111420100D01*
D59*
X136123800Y-99998200D02*
X136000000Y-99998200D01*
X138000000Y-101874400D02*
X136123800Y-99998200D01*
X138000000Y-102000000D02*
X138000000Y-101874400D01*
D57*
X154017700Y-119725000D02*
X154750000Y-119725000D01*
X153177000Y-120565700D02*
X154017700Y-119725000D01*
X155980000Y-119725000D02*
X156000000Y-119745000D01*
X154750000Y-119725000D02*
X155980000Y-119725000D01*
X156280000Y-119745000D02*
X156000000Y-119745000D01*
X157250000Y-118775000D02*
X156280000Y-119745000D01*
X154558400Y-120275000D02*
X154750000Y-120275000D01*
X153587000Y-121246400D02*
X154558400Y-120275000D01*
X153292000Y-121246400D02*
X153587000Y-121246400D01*
X152894100Y-120848500D02*
X153292000Y-121246400D01*
X155980000Y-120275000D02*
X156000000Y-120255000D01*
X154750000Y-120275000D02*
X155980000Y-120275000D01*
X157550000Y-120575000D02*
X157550000Y-121150000D01*
X157250000Y-120275000D02*
X157550000Y-120575000D01*
X156483900Y-122216100D02*
X157550000Y-121150000D01*
X153130300Y-122216100D02*
X156483900Y-122216100D01*
X152328400Y-121414200D02*
X153130300Y-122216100D01*
X162700000Y-109545000D02*
X162700000Y-108500000D01*
X162500000Y-109745000D02*
X162700000Y-109545000D01*
X162370100Y-108170100D02*
X162370100Y-107261000D01*
X162700000Y-108500000D02*
X162370100Y-108170100D01*
X168700000Y-109545000D02*
X168700000Y-108500000D01*
X168500000Y-109745000D02*
X168700000Y-109545000D01*
X168440800Y-108240800D02*
X168440800Y-107461400D01*
X168700000Y-108500000D02*
X168440800Y-108240800D01*
X130700000Y-109545000D02*
X130700000Y-108500000D01*
X130500000Y-109745000D02*
X130700000Y-109545000D01*
X130700000Y-107608200D02*
X130553200Y-107461400D01*
X130700000Y-108500000D02*
X130700000Y-107608200D01*
X124700000Y-107525600D02*
X124440000Y-107265600D01*
X124700000Y-108500000D02*
X124700000Y-107525600D01*
X124700000Y-109545000D02*
X124700000Y-108500000D01*
X124500000Y-109745000D02*
X124700000Y-109545000D01*
X157425000Y-117200000D02*
X156575000Y-117200000D01*
X158331800Y-116668200D02*
X159000000Y-116000000D01*
X157839800Y-116668200D02*
X158331800Y-116668200D01*
X157425000Y-117083000D02*
X157839800Y-116668200D01*
X157425000Y-117200000D02*
X157425000Y-117083000D01*
X138515300Y-89624100D02*
X139319700Y-88819700D01*
X138515300Y-90116100D02*
X138515300Y-89624100D01*
X135616100Y-93015300D02*
X138515300Y-90116100D01*
X136383800Y-93783000D02*
X135616100Y-93015300D01*
X151458600Y-116627200D02*
X151458600Y-115036700D01*
X150914200Y-117171600D02*
X151458600Y-116627200D01*
M02*
