G04 #@! TF.FileFunction,Legend,Bot*
%FSLAX46Y46*%
G04 Gerber Fmt 4.6, Leading zero omitted, Abs format (unit mm)*
G04 Created by KiCad (PCBNEW 4.0.1-stable) date 2017/02/23 15:11:12*
%MOMM*%
G01*
G04 APERTURE LIST*
%ADD10C,0.100000*%
%ADD11C,0.150000*%
G04 APERTURE END LIST*
D10*
D11*
X125600000Y-106875000D02*
X125600000Y-107125000D01*
X126400000Y-107125000D02*
X126400000Y-106875000D01*
X124900000Y-106625000D02*
X124900000Y-106375000D01*
X124100000Y-106375000D02*
X124100000Y-106625000D01*
X125849760Y-105799160D02*
X125849760Y-105750900D01*
X126550800Y-103000180D02*
X125849760Y-103000180D01*
X125849760Y-103000180D02*
X125849760Y-103249100D01*
X125849760Y-105799160D02*
X125849760Y-105999820D01*
X125849760Y-105999820D02*
X126550800Y-105999820D01*
X127440000Y-106885000D02*
X127440000Y-107115000D01*
X126560000Y-107115000D02*
X126560000Y-106885000D01*
X124060000Y-108615000D02*
X124060000Y-108385000D01*
X124940000Y-108385000D02*
X124940000Y-108615000D01*
X128060000Y-104615000D02*
X128060000Y-104385000D01*
X128940000Y-104385000D02*
X128940000Y-104615000D01*
X126300000Y-110700000D02*
G75*
G03X126300000Y-110700000I-100000J0D01*
G01*
X126750000Y-110450000D02*
X126250000Y-110450000D01*
X126750000Y-107550000D02*
X126750000Y-110450000D01*
X126250000Y-107550000D02*
X126750000Y-107550000D01*
X126250000Y-110450000D02*
X126250000Y-107550000D01*
X163600000Y-106875000D02*
X163600000Y-107125000D01*
X164400000Y-107125000D02*
X164400000Y-106875000D01*
X162900000Y-106625000D02*
X162900000Y-106375000D01*
X162100000Y-106375000D02*
X162100000Y-106625000D01*
X169600000Y-106875000D02*
X169600000Y-107125000D01*
X170400000Y-107125000D02*
X170400000Y-106875000D01*
X168900000Y-106625000D02*
X168900000Y-106375000D01*
X168100000Y-106375000D02*
X168100000Y-106625000D01*
X131600000Y-106875000D02*
X131600000Y-107125000D01*
X132400000Y-107125000D02*
X132400000Y-106875000D01*
X130900000Y-106625000D02*
X130900000Y-106375000D01*
X130100000Y-106375000D02*
X130100000Y-106625000D01*
X163849760Y-105799160D02*
X163849760Y-105750900D01*
X164550800Y-103000180D02*
X163849760Y-103000180D01*
X163849760Y-103000180D02*
X163849760Y-103249100D01*
X163849760Y-105799160D02*
X163849760Y-105999820D01*
X163849760Y-105999820D02*
X164550800Y-105999820D01*
X169849760Y-105799160D02*
X169849760Y-105750900D01*
X170550800Y-103000180D02*
X169849760Y-103000180D01*
X169849760Y-103000180D02*
X169849760Y-103249100D01*
X169849760Y-105799160D02*
X169849760Y-105999820D01*
X169849760Y-105999820D02*
X170550800Y-105999820D01*
X131849760Y-105799160D02*
X131849760Y-105750900D01*
X132550800Y-103000180D02*
X131849760Y-103000180D01*
X131849760Y-103000180D02*
X131849760Y-103249100D01*
X131849760Y-105799160D02*
X131849760Y-105999820D01*
X131849760Y-105999820D02*
X132550800Y-105999820D01*
X165440000Y-106885000D02*
X165440000Y-107115000D01*
X164560000Y-107115000D02*
X164560000Y-106885000D01*
X162060000Y-108615000D02*
X162060000Y-108385000D01*
X162940000Y-108385000D02*
X162940000Y-108615000D01*
X166060000Y-104615000D02*
X166060000Y-104385000D01*
X166940000Y-104385000D02*
X166940000Y-104615000D01*
X171440000Y-106885000D02*
X171440000Y-107115000D01*
X170560000Y-107115000D02*
X170560000Y-106885000D01*
X168060000Y-108615000D02*
X168060000Y-108385000D01*
X168940000Y-108385000D02*
X168940000Y-108615000D01*
X172060000Y-104615000D02*
X172060000Y-104385000D01*
X172940000Y-104385000D02*
X172940000Y-104615000D01*
X133440000Y-106885000D02*
X133440000Y-107115000D01*
X132560000Y-107115000D02*
X132560000Y-106885000D01*
X130060000Y-108615000D02*
X130060000Y-108385000D01*
X130940000Y-108385000D02*
X130940000Y-108615000D01*
X134060000Y-104615000D02*
X134060000Y-104385000D01*
X134940000Y-104385000D02*
X134940000Y-104615000D01*
X164300000Y-110700000D02*
G75*
G03X164300000Y-110700000I-100000J0D01*
G01*
X164750000Y-110450000D02*
X164250000Y-110450000D01*
X164750000Y-107550000D02*
X164750000Y-110450000D01*
X164250000Y-107550000D02*
X164750000Y-107550000D01*
X164250000Y-110450000D02*
X164250000Y-107550000D01*
X170300000Y-110700000D02*
G75*
G03X170300000Y-110700000I-100000J0D01*
G01*
X170750000Y-110450000D02*
X170250000Y-110450000D01*
X170750000Y-107550000D02*
X170750000Y-110450000D01*
X170250000Y-107550000D02*
X170750000Y-107550000D01*
X170250000Y-110450000D02*
X170250000Y-107550000D01*
X132300000Y-110700000D02*
G75*
G03X132300000Y-110700000I-100000J0D01*
G01*
X132750000Y-110450000D02*
X132250000Y-110450000D01*
X132750000Y-107550000D02*
X132750000Y-110450000D01*
X132250000Y-107550000D02*
X132750000Y-107550000D01*
X132250000Y-110450000D02*
X132250000Y-107550000D01*
X128057143Y-106357143D02*
X128104762Y-106309524D01*
X128152381Y-106166667D01*
X128152381Y-106071429D01*
X128104762Y-105928571D01*
X128009524Y-105833333D01*
X127914286Y-105785714D01*
X127723810Y-105738095D01*
X127580952Y-105738095D01*
X127390476Y-105785714D01*
X127295238Y-105833333D01*
X127200000Y-105928571D01*
X127152381Y-106071429D01*
X127152381Y-106166667D01*
X127200000Y-106309524D01*
X127247619Y-106357143D01*
X127247619Y-106738095D02*
X127200000Y-106785714D01*
X127152381Y-106880952D01*
X127152381Y-107119048D01*
X127200000Y-107214286D01*
X127247619Y-107261905D01*
X127342857Y-107309524D01*
X127438095Y-107309524D01*
X127580952Y-107261905D01*
X128152381Y-106690476D01*
X128152381Y-107309524D01*
X127152381Y-107642857D02*
X127152381Y-108261905D01*
X127533333Y-107928571D01*
X127533333Y-108071429D01*
X127580952Y-108166667D01*
X127628571Y-108214286D01*
X127723810Y-108261905D01*
X127961905Y-108261905D01*
X128057143Y-108214286D01*
X128104762Y-108166667D01*
X128152381Y-108071429D01*
X128152381Y-107785714D01*
X128104762Y-107690476D01*
X128057143Y-107642857D01*
X124857143Y-105857143D02*
X124904762Y-105809524D01*
X124952381Y-105666667D01*
X124952381Y-105571429D01*
X124904762Y-105428571D01*
X124809524Y-105333333D01*
X124714286Y-105285714D01*
X124523810Y-105238095D01*
X124380952Y-105238095D01*
X124190476Y-105285714D01*
X124095238Y-105333333D01*
X124000000Y-105428571D01*
X123952381Y-105571429D01*
X123952381Y-105666667D01*
X124000000Y-105809524D01*
X124047619Y-105857143D01*
X124047619Y-106238095D02*
X124000000Y-106285714D01*
X123952381Y-106380952D01*
X123952381Y-106619048D01*
X124000000Y-106714286D01*
X124047619Y-106761905D01*
X124142857Y-106809524D01*
X124238095Y-106809524D01*
X124380952Y-106761905D01*
X124952381Y-106190476D01*
X124952381Y-106809524D01*
X124285714Y-107666667D02*
X124952381Y-107666667D01*
X123904762Y-107428571D02*
X124619048Y-107190476D01*
X124619048Y-107809524D01*
X127047619Y-104404762D02*
X127000000Y-104309524D01*
X126904762Y-104214286D01*
X126761905Y-104071429D01*
X126714286Y-103976190D01*
X126714286Y-103880952D01*
X126952381Y-103928571D02*
X126904762Y-103833333D01*
X126809524Y-103738095D01*
X126619048Y-103690476D01*
X126285714Y-103690476D01*
X126095238Y-103738095D01*
X126000000Y-103833333D01*
X125952381Y-103928571D01*
X125952381Y-104119048D01*
X126000000Y-104214286D01*
X126095238Y-104309524D01*
X126285714Y-104357143D01*
X126619048Y-104357143D01*
X126809524Y-104309524D01*
X126904762Y-104214286D01*
X126952381Y-104119048D01*
X126952381Y-103928571D01*
X126285714Y-105214286D02*
X126952381Y-105214286D01*
X125904762Y-104976190D02*
X126619048Y-104738095D01*
X126619048Y-105357143D01*
X127452381Y-106357143D02*
X126976190Y-106023809D01*
X127452381Y-105785714D02*
X126452381Y-105785714D01*
X126452381Y-106166667D01*
X126500000Y-106261905D01*
X126547619Y-106309524D01*
X126642857Y-106357143D01*
X126785714Y-106357143D01*
X126880952Y-106309524D01*
X126928571Y-106261905D01*
X126976190Y-106166667D01*
X126976190Y-105785714D01*
X126547619Y-106738095D02*
X126500000Y-106785714D01*
X126452381Y-106880952D01*
X126452381Y-107119048D01*
X126500000Y-107214286D01*
X126547619Y-107261905D01*
X126642857Y-107309524D01*
X126738095Y-107309524D01*
X126880952Y-107261905D01*
X127452381Y-106690476D01*
X127452381Y-107309524D01*
X126452381Y-108214286D02*
X126452381Y-107738095D01*
X126928571Y-107690476D01*
X126880952Y-107738095D01*
X126833333Y-107833333D01*
X126833333Y-108071429D01*
X126880952Y-108166667D01*
X126928571Y-108214286D01*
X127023810Y-108261905D01*
X127261905Y-108261905D01*
X127357143Y-108214286D01*
X127404762Y-108166667D01*
X127452381Y-108071429D01*
X127452381Y-107833333D01*
X127404762Y-107738095D01*
X127357143Y-107690476D01*
X124952381Y-107857143D02*
X124476190Y-107523809D01*
X124952381Y-107285714D02*
X123952381Y-107285714D01*
X123952381Y-107666667D01*
X124000000Y-107761905D01*
X124047619Y-107809524D01*
X124142857Y-107857143D01*
X124285714Y-107857143D01*
X124380952Y-107809524D01*
X124428571Y-107761905D01*
X124476190Y-107666667D01*
X124476190Y-107285714D01*
X124047619Y-108238095D02*
X124000000Y-108285714D01*
X123952381Y-108380952D01*
X123952381Y-108619048D01*
X124000000Y-108714286D01*
X124047619Y-108761905D01*
X124142857Y-108809524D01*
X124238095Y-108809524D01*
X124380952Y-108761905D01*
X124952381Y-108190476D01*
X124952381Y-108809524D01*
X123952381Y-109142857D02*
X123952381Y-109809524D01*
X124952381Y-109380952D01*
X127252381Y-103857143D02*
X126776190Y-103523809D01*
X127252381Y-103285714D02*
X126252381Y-103285714D01*
X126252381Y-103666667D01*
X126300000Y-103761905D01*
X126347619Y-103809524D01*
X126442857Y-103857143D01*
X126585714Y-103857143D01*
X126680952Y-103809524D01*
X126728571Y-103761905D01*
X126776190Y-103666667D01*
X126776190Y-103285714D01*
X126347619Y-104238095D02*
X126300000Y-104285714D01*
X126252381Y-104380952D01*
X126252381Y-104619048D01*
X126300000Y-104714286D01*
X126347619Y-104761905D01*
X126442857Y-104809524D01*
X126538095Y-104809524D01*
X126680952Y-104761905D01*
X127252381Y-104190476D01*
X127252381Y-104809524D01*
X127252381Y-105285714D02*
X127252381Y-105476190D01*
X127204762Y-105571429D01*
X127157143Y-105619048D01*
X127014286Y-105714286D01*
X126823810Y-105761905D01*
X126442857Y-105761905D01*
X126347619Y-105714286D01*
X126300000Y-105666667D01*
X126252381Y-105571429D01*
X126252381Y-105380952D01*
X126300000Y-105285714D01*
X126347619Y-105238095D01*
X126442857Y-105190476D01*
X126680952Y-105190476D01*
X126776190Y-105238095D01*
X126823810Y-105285714D01*
X126871429Y-105380952D01*
X126871429Y-105571429D01*
X126823810Y-105666667D01*
X126776190Y-105714286D01*
X126680952Y-105761905D01*
X127211905Y-111002381D02*
X127211905Y-111811905D01*
X127164286Y-111907143D01*
X127116667Y-111954762D01*
X127021429Y-112002381D01*
X126830952Y-112002381D01*
X126735714Y-111954762D01*
X126688095Y-111907143D01*
X126640476Y-111811905D01*
X126640476Y-111002381D01*
X126116667Y-112002381D02*
X125926191Y-112002381D01*
X125830952Y-111954762D01*
X125783333Y-111907143D01*
X125688095Y-111764286D01*
X125640476Y-111573810D01*
X125640476Y-111192857D01*
X125688095Y-111097619D01*
X125735714Y-111050000D01*
X125830952Y-111002381D01*
X126021429Y-111002381D01*
X126116667Y-111050000D01*
X126164286Y-111097619D01*
X126211905Y-111192857D01*
X126211905Y-111430952D01*
X126164286Y-111526190D01*
X126116667Y-111573810D01*
X126021429Y-111621429D01*
X125830952Y-111621429D01*
X125735714Y-111573810D01*
X125688095Y-111526190D01*
X125640476Y-111430952D01*
X166057143Y-106357143D02*
X166104762Y-106309524D01*
X166152381Y-106166667D01*
X166152381Y-106071429D01*
X166104762Y-105928571D01*
X166009524Y-105833333D01*
X165914286Y-105785714D01*
X165723810Y-105738095D01*
X165580952Y-105738095D01*
X165390476Y-105785714D01*
X165295238Y-105833333D01*
X165200000Y-105928571D01*
X165152381Y-106071429D01*
X165152381Y-106166667D01*
X165200000Y-106309524D01*
X165247619Y-106357143D01*
X166152381Y-107309524D02*
X166152381Y-106738095D01*
X166152381Y-107023809D02*
X165152381Y-107023809D01*
X165295238Y-106928571D01*
X165390476Y-106833333D01*
X165438095Y-106738095D01*
X165485714Y-108166667D02*
X166152381Y-108166667D01*
X165104762Y-107928571D02*
X165819048Y-107690476D01*
X165819048Y-108309524D01*
X162857143Y-105857143D02*
X162904762Y-105809524D01*
X162952381Y-105666667D01*
X162952381Y-105571429D01*
X162904762Y-105428571D01*
X162809524Y-105333333D01*
X162714286Y-105285714D01*
X162523810Y-105238095D01*
X162380952Y-105238095D01*
X162190476Y-105285714D01*
X162095238Y-105333333D01*
X162000000Y-105428571D01*
X161952381Y-105571429D01*
X161952381Y-105666667D01*
X162000000Y-105809524D01*
X162047619Y-105857143D01*
X162952381Y-106809524D02*
X162952381Y-106238095D01*
X162952381Y-106523809D02*
X161952381Y-106523809D01*
X162095238Y-106428571D01*
X162190476Y-106333333D01*
X162238095Y-106238095D01*
X161952381Y-107714286D02*
X161952381Y-107238095D01*
X162428571Y-107190476D01*
X162380952Y-107238095D01*
X162333333Y-107333333D01*
X162333333Y-107571429D01*
X162380952Y-107666667D01*
X162428571Y-107714286D01*
X162523810Y-107761905D01*
X162761905Y-107761905D01*
X162857143Y-107714286D01*
X162904762Y-107666667D01*
X162952381Y-107571429D01*
X162952381Y-107333333D01*
X162904762Y-107238095D01*
X162857143Y-107190476D01*
X172057143Y-106357143D02*
X172104762Y-106309524D01*
X172152381Y-106166667D01*
X172152381Y-106071429D01*
X172104762Y-105928571D01*
X172009524Y-105833333D01*
X171914286Y-105785714D01*
X171723810Y-105738095D01*
X171580952Y-105738095D01*
X171390476Y-105785714D01*
X171295238Y-105833333D01*
X171200000Y-105928571D01*
X171152381Y-106071429D01*
X171152381Y-106166667D01*
X171200000Y-106309524D01*
X171247619Y-106357143D01*
X172152381Y-107309524D02*
X172152381Y-106738095D01*
X172152381Y-107023809D02*
X171152381Y-107023809D01*
X171295238Y-106928571D01*
X171390476Y-106833333D01*
X171438095Y-106738095D01*
X171152381Y-107642857D02*
X171152381Y-108309524D01*
X172152381Y-107880952D01*
X168857143Y-105857143D02*
X168904762Y-105809524D01*
X168952381Y-105666667D01*
X168952381Y-105571429D01*
X168904762Y-105428571D01*
X168809524Y-105333333D01*
X168714286Y-105285714D01*
X168523810Y-105238095D01*
X168380952Y-105238095D01*
X168190476Y-105285714D01*
X168095238Y-105333333D01*
X168000000Y-105428571D01*
X167952381Y-105571429D01*
X167952381Y-105666667D01*
X168000000Y-105809524D01*
X168047619Y-105857143D01*
X168952381Y-106809524D02*
X168952381Y-106238095D01*
X168952381Y-106523809D02*
X167952381Y-106523809D01*
X168095238Y-106428571D01*
X168190476Y-106333333D01*
X168238095Y-106238095D01*
X168380952Y-107380952D02*
X168333333Y-107285714D01*
X168285714Y-107238095D01*
X168190476Y-107190476D01*
X168142857Y-107190476D01*
X168047619Y-107238095D01*
X168000000Y-107285714D01*
X167952381Y-107380952D01*
X167952381Y-107571429D01*
X168000000Y-107666667D01*
X168047619Y-107714286D01*
X168142857Y-107761905D01*
X168190476Y-107761905D01*
X168285714Y-107714286D01*
X168333333Y-107666667D01*
X168380952Y-107571429D01*
X168380952Y-107380952D01*
X168428571Y-107285714D01*
X168476190Y-107238095D01*
X168571429Y-107190476D01*
X168761905Y-107190476D01*
X168857143Y-107238095D01*
X168904762Y-107285714D01*
X168952381Y-107380952D01*
X168952381Y-107571429D01*
X168904762Y-107666667D01*
X168857143Y-107714286D01*
X168761905Y-107761905D01*
X168571429Y-107761905D01*
X168476190Y-107714286D01*
X168428571Y-107666667D01*
X168380952Y-107571429D01*
X134057143Y-106357143D02*
X134104762Y-106309524D01*
X134152381Y-106166667D01*
X134152381Y-106071429D01*
X134104762Y-105928571D01*
X134009524Y-105833333D01*
X133914286Y-105785714D01*
X133723810Y-105738095D01*
X133580952Y-105738095D01*
X133390476Y-105785714D01*
X133295238Y-105833333D01*
X133200000Y-105928571D01*
X133152381Y-106071429D01*
X133152381Y-106166667D01*
X133200000Y-106309524D01*
X133247619Y-106357143D01*
X133247619Y-106738095D02*
X133200000Y-106785714D01*
X133152381Y-106880952D01*
X133152381Y-107119048D01*
X133200000Y-107214286D01*
X133247619Y-107261905D01*
X133342857Y-107309524D01*
X133438095Y-107309524D01*
X133580952Y-107261905D01*
X134152381Y-106690476D01*
X134152381Y-107309524D01*
X133152381Y-107928571D02*
X133152381Y-108023810D01*
X133200000Y-108119048D01*
X133247619Y-108166667D01*
X133342857Y-108214286D01*
X133533333Y-108261905D01*
X133771429Y-108261905D01*
X133961905Y-108214286D01*
X134057143Y-108166667D01*
X134104762Y-108119048D01*
X134152381Y-108023810D01*
X134152381Y-107928571D01*
X134104762Y-107833333D01*
X134057143Y-107785714D01*
X133961905Y-107738095D01*
X133771429Y-107690476D01*
X133533333Y-107690476D01*
X133342857Y-107738095D01*
X133247619Y-107785714D01*
X133200000Y-107833333D01*
X133152381Y-107928571D01*
X130857143Y-105857143D02*
X130904762Y-105809524D01*
X130952381Y-105666667D01*
X130952381Y-105571429D01*
X130904762Y-105428571D01*
X130809524Y-105333333D01*
X130714286Y-105285714D01*
X130523810Y-105238095D01*
X130380952Y-105238095D01*
X130190476Y-105285714D01*
X130095238Y-105333333D01*
X130000000Y-105428571D01*
X129952381Y-105571429D01*
X129952381Y-105666667D01*
X130000000Y-105809524D01*
X130047619Y-105857143D01*
X130047619Y-106238095D02*
X130000000Y-106285714D01*
X129952381Y-106380952D01*
X129952381Y-106619048D01*
X130000000Y-106714286D01*
X130047619Y-106761905D01*
X130142857Y-106809524D01*
X130238095Y-106809524D01*
X130380952Y-106761905D01*
X130952381Y-106190476D01*
X130952381Y-106809524D01*
X130952381Y-107761905D02*
X130952381Y-107190476D01*
X130952381Y-107476190D02*
X129952381Y-107476190D01*
X130095238Y-107380952D01*
X130190476Y-107285714D01*
X130238095Y-107190476D01*
X165047619Y-104404762D02*
X165000000Y-104309524D01*
X164904762Y-104214286D01*
X164761905Y-104071429D01*
X164714286Y-103976190D01*
X164714286Y-103880952D01*
X164952381Y-103928571D02*
X164904762Y-103833333D01*
X164809524Y-103738095D01*
X164619048Y-103690476D01*
X164285714Y-103690476D01*
X164095238Y-103738095D01*
X164000000Y-103833333D01*
X163952381Y-103928571D01*
X163952381Y-104119048D01*
X164000000Y-104214286D01*
X164095238Y-104309524D01*
X164285714Y-104357143D01*
X164619048Y-104357143D01*
X164809524Y-104309524D01*
X164904762Y-104214286D01*
X164952381Y-104119048D01*
X164952381Y-103928571D01*
X164952381Y-105309524D02*
X164952381Y-104738095D01*
X164952381Y-105023809D02*
X163952381Y-105023809D01*
X164095238Y-104928571D01*
X164190476Y-104833333D01*
X164238095Y-104738095D01*
X171047619Y-104404762D02*
X171000000Y-104309524D01*
X170904762Y-104214286D01*
X170761905Y-104071429D01*
X170714286Y-103976190D01*
X170714286Y-103880952D01*
X170952381Y-103928571D02*
X170904762Y-103833333D01*
X170809524Y-103738095D01*
X170619048Y-103690476D01*
X170285714Y-103690476D01*
X170095238Y-103738095D01*
X170000000Y-103833333D01*
X169952381Y-103928571D01*
X169952381Y-104119048D01*
X170000000Y-104214286D01*
X170095238Y-104309524D01*
X170285714Y-104357143D01*
X170619048Y-104357143D01*
X170809524Y-104309524D01*
X170904762Y-104214286D01*
X170952381Y-104119048D01*
X170952381Y-103928571D01*
X170047619Y-104738095D02*
X170000000Y-104785714D01*
X169952381Y-104880952D01*
X169952381Y-105119048D01*
X170000000Y-105214286D01*
X170047619Y-105261905D01*
X170142857Y-105309524D01*
X170238095Y-105309524D01*
X170380952Y-105261905D01*
X170952381Y-104690476D01*
X170952381Y-105309524D01*
X133047619Y-104404762D02*
X133000000Y-104309524D01*
X132904762Y-104214286D01*
X132761905Y-104071429D01*
X132714286Y-103976190D01*
X132714286Y-103880952D01*
X132952381Y-103928571D02*
X132904762Y-103833333D01*
X132809524Y-103738095D01*
X132619048Y-103690476D01*
X132285714Y-103690476D01*
X132095238Y-103738095D01*
X132000000Y-103833333D01*
X131952381Y-103928571D01*
X131952381Y-104119048D01*
X132000000Y-104214286D01*
X132095238Y-104309524D01*
X132285714Y-104357143D01*
X132619048Y-104357143D01*
X132809524Y-104309524D01*
X132904762Y-104214286D01*
X132952381Y-104119048D01*
X132952381Y-103928571D01*
X131952381Y-104690476D02*
X131952381Y-105309524D01*
X132333333Y-104976190D01*
X132333333Y-105119048D01*
X132380952Y-105214286D01*
X132428571Y-105261905D01*
X132523810Y-105309524D01*
X132761905Y-105309524D01*
X132857143Y-105261905D01*
X132904762Y-105214286D01*
X132952381Y-105119048D01*
X132952381Y-104833333D01*
X132904762Y-104738095D01*
X132857143Y-104690476D01*
X165452381Y-106833334D02*
X164976190Y-106500000D01*
X165452381Y-106261905D02*
X164452381Y-106261905D01*
X164452381Y-106642858D01*
X164500000Y-106738096D01*
X164547619Y-106785715D01*
X164642857Y-106833334D01*
X164785714Y-106833334D01*
X164880952Y-106785715D01*
X164928571Y-106738096D01*
X164976190Y-106642858D01*
X164976190Y-106261905D01*
X164452381Y-107166667D02*
X164452381Y-107833334D01*
X165452381Y-107404762D01*
X162952381Y-108333334D02*
X162476190Y-108000000D01*
X162952381Y-107761905D02*
X161952381Y-107761905D01*
X161952381Y-108142858D01*
X162000000Y-108238096D01*
X162047619Y-108285715D01*
X162142857Y-108333334D01*
X162285714Y-108333334D01*
X162380952Y-108285715D01*
X162428571Y-108238096D01*
X162476190Y-108142858D01*
X162476190Y-107761905D01*
X162952381Y-108809524D02*
X162952381Y-109000000D01*
X162904762Y-109095239D01*
X162857143Y-109142858D01*
X162714286Y-109238096D01*
X162523810Y-109285715D01*
X162142857Y-109285715D01*
X162047619Y-109238096D01*
X162000000Y-109190477D01*
X161952381Y-109095239D01*
X161952381Y-108904762D01*
X162000000Y-108809524D01*
X162047619Y-108761905D01*
X162142857Y-108714286D01*
X162380952Y-108714286D01*
X162476190Y-108761905D01*
X162523810Y-108809524D01*
X162571429Y-108904762D01*
X162571429Y-109095239D01*
X162523810Y-109190477D01*
X162476190Y-109238096D01*
X162380952Y-109285715D01*
X165252381Y-103857143D02*
X164776190Y-103523809D01*
X165252381Y-103285714D02*
X164252381Y-103285714D01*
X164252381Y-103666667D01*
X164300000Y-103761905D01*
X164347619Y-103809524D01*
X164442857Y-103857143D01*
X164585714Y-103857143D01*
X164680952Y-103809524D01*
X164728571Y-103761905D01*
X164776190Y-103666667D01*
X164776190Y-103285714D01*
X165252381Y-104809524D02*
X165252381Y-104238095D01*
X165252381Y-104523809D02*
X164252381Y-104523809D01*
X164395238Y-104428571D01*
X164490476Y-104333333D01*
X164538095Y-104238095D01*
X165252381Y-105761905D02*
X165252381Y-105190476D01*
X165252381Y-105476190D02*
X164252381Y-105476190D01*
X164395238Y-105380952D01*
X164490476Y-105285714D01*
X164538095Y-105190476D01*
X171452381Y-106357143D02*
X170976190Y-106023809D01*
X171452381Y-105785714D02*
X170452381Y-105785714D01*
X170452381Y-106166667D01*
X170500000Y-106261905D01*
X170547619Y-106309524D01*
X170642857Y-106357143D01*
X170785714Y-106357143D01*
X170880952Y-106309524D01*
X170928571Y-106261905D01*
X170976190Y-106166667D01*
X170976190Y-105785714D01*
X171452381Y-107309524D02*
X171452381Y-106738095D01*
X171452381Y-107023809D02*
X170452381Y-107023809D01*
X170595238Y-106928571D01*
X170690476Y-106833333D01*
X170738095Y-106738095D01*
X170452381Y-107642857D02*
X170452381Y-108261905D01*
X170833333Y-107928571D01*
X170833333Y-108071429D01*
X170880952Y-108166667D01*
X170928571Y-108214286D01*
X171023810Y-108261905D01*
X171261905Y-108261905D01*
X171357143Y-108214286D01*
X171404762Y-108166667D01*
X171452381Y-108071429D01*
X171452381Y-107785714D01*
X171404762Y-107690476D01*
X171357143Y-107642857D01*
X168952381Y-107857143D02*
X168476190Y-107523809D01*
X168952381Y-107285714D02*
X167952381Y-107285714D01*
X167952381Y-107666667D01*
X168000000Y-107761905D01*
X168047619Y-107809524D01*
X168142857Y-107857143D01*
X168285714Y-107857143D01*
X168380952Y-107809524D01*
X168428571Y-107761905D01*
X168476190Y-107666667D01*
X168476190Y-107285714D01*
X168952381Y-108809524D02*
X168952381Y-108238095D01*
X168952381Y-108523809D02*
X167952381Y-108523809D01*
X168095238Y-108428571D01*
X168190476Y-108333333D01*
X168238095Y-108238095D01*
X167952381Y-109714286D02*
X167952381Y-109238095D01*
X168428571Y-109190476D01*
X168380952Y-109238095D01*
X168333333Y-109333333D01*
X168333333Y-109571429D01*
X168380952Y-109666667D01*
X168428571Y-109714286D01*
X168523810Y-109761905D01*
X168761905Y-109761905D01*
X168857143Y-109714286D01*
X168904762Y-109666667D01*
X168952381Y-109571429D01*
X168952381Y-109333333D01*
X168904762Y-109238095D01*
X168857143Y-109190476D01*
X171252381Y-103857143D02*
X170776190Y-103523809D01*
X171252381Y-103285714D02*
X170252381Y-103285714D01*
X170252381Y-103666667D01*
X170300000Y-103761905D01*
X170347619Y-103809524D01*
X170442857Y-103857143D01*
X170585714Y-103857143D01*
X170680952Y-103809524D01*
X170728571Y-103761905D01*
X170776190Y-103666667D01*
X170776190Y-103285714D01*
X171252381Y-104809524D02*
X171252381Y-104238095D01*
X171252381Y-104523809D02*
X170252381Y-104523809D01*
X170395238Y-104428571D01*
X170490476Y-104333333D01*
X170538095Y-104238095D01*
X170252381Y-105142857D02*
X170252381Y-105809524D01*
X171252381Y-105380952D01*
X133452381Y-106357143D02*
X132976190Y-106023809D01*
X133452381Y-105785714D02*
X132452381Y-105785714D01*
X132452381Y-106166667D01*
X132500000Y-106261905D01*
X132547619Y-106309524D01*
X132642857Y-106357143D01*
X132785714Y-106357143D01*
X132880952Y-106309524D01*
X132928571Y-106261905D01*
X132976190Y-106166667D01*
X132976190Y-105785714D01*
X133452381Y-107309524D02*
X133452381Y-106738095D01*
X133452381Y-107023809D02*
X132452381Y-107023809D01*
X132595238Y-106928571D01*
X132690476Y-106833333D01*
X132738095Y-106738095D01*
X133452381Y-107785714D02*
X133452381Y-107976190D01*
X133404762Y-108071429D01*
X133357143Y-108119048D01*
X133214286Y-108214286D01*
X133023810Y-108261905D01*
X132642857Y-108261905D01*
X132547619Y-108214286D01*
X132500000Y-108166667D01*
X132452381Y-108071429D01*
X132452381Y-107880952D01*
X132500000Y-107785714D01*
X132547619Y-107738095D01*
X132642857Y-107690476D01*
X132880952Y-107690476D01*
X132976190Y-107738095D01*
X133023810Y-107785714D01*
X133071429Y-107880952D01*
X133071429Y-108071429D01*
X133023810Y-108166667D01*
X132976190Y-108214286D01*
X132880952Y-108261905D01*
X130952381Y-107857143D02*
X130476190Y-107523809D01*
X130952381Y-107285714D02*
X129952381Y-107285714D01*
X129952381Y-107666667D01*
X130000000Y-107761905D01*
X130047619Y-107809524D01*
X130142857Y-107857143D01*
X130285714Y-107857143D01*
X130380952Y-107809524D01*
X130428571Y-107761905D01*
X130476190Y-107666667D01*
X130476190Y-107285714D01*
X130047619Y-108238095D02*
X130000000Y-108285714D01*
X129952381Y-108380952D01*
X129952381Y-108619048D01*
X130000000Y-108714286D01*
X130047619Y-108761905D01*
X130142857Y-108809524D01*
X130238095Y-108809524D01*
X130380952Y-108761905D01*
X130952381Y-108190476D01*
X130952381Y-108809524D01*
X130952381Y-109761905D02*
X130952381Y-109190476D01*
X130952381Y-109476190D02*
X129952381Y-109476190D01*
X130095238Y-109380952D01*
X130190476Y-109285714D01*
X130238095Y-109190476D01*
X133252381Y-103857143D02*
X132776190Y-103523809D01*
X133252381Y-103285714D02*
X132252381Y-103285714D01*
X132252381Y-103666667D01*
X132300000Y-103761905D01*
X132347619Y-103809524D01*
X132442857Y-103857143D01*
X132585714Y-103857143D01*
X132680952Y-103809524D01*
X132728571Y-103761905D01*
X132776190Y-103666667D01*
X132776190Y-103285714D01*
X132347619Y-104238095D02*
X132300000Y-104285714D01*
X132252381Y-104380952D01*
X132252381Y-104619048D01*
X132300000Y-104714286D01*
X132347619Y-104761905D01*
X132442857Y-104809524D01*
X132538095Y-104809524D01*
X132680952Y-104761905D01*
X133252381Y-104190476D01*
X133252381Y-104809524D01*
X132252381Y-105142857D02*
X132252381Y-105761905D01*
X132633333Y-105428571D01*
X132633333Y-105571429D01*
X132680952Y-105666667D01*
X132728571Y-105714286D01*
X132823810Y-105761905D01*
X133061905Y-105761905D01*
X133157143Y-105714286D01*
X133204762Y-105666667D01*
X133252381Y-105571429D01*
X133252381Y-105285714D01*
X133204762Y-105190476D01*
X133157143Y-105142857D01*
X165211905Y-111002381D02*
X165211905Y-111811905D01*
X165164286Y-111907143D01*
X165116667Y-111954762D01*
X165021429Y-112002381D01*
X164830952Y-112002381D01*
X164735714Y-111954762D01*
X164688095Y-111907143D01*
X164640476Y-111811905D01*
X164640476Y-111002381D01*
X163735714Y-111002381D02*
X163926191Y-111002381D01*
X164021429Y-111050000D01*
X164069048Y-111097619D01*
X164164286Y-111240476D01*
X164211905Y-111430952D01*
X164211905Y-111811905D01*
X164164286Y-111907143D01*
X164116667Y-111954762D01*
X164021429Y-112002381D01*
X163830952Y-112002381D01*
X163735714Y-111954762D01*
X163688095Y-111907143D01*
X163640476Y-111811905D01*
X163640476Y-111573810D01*
X163688095Y-111478571D01*
X163735714Y-111430952D01*
X163830952Y-111383333D01*
X164021429Y-111383333D01*
X164116667Y-111430952D01*
X164164286Y-111478571D01*
X164211905Y-111573810D01*
X171211905Y-111002381D02*
X171211905Y-111811905D01*
X171164286Y-111907143D01*
X171116667Y-111954762D01*
X171021429Y-112002381D01*
X170830952Y-112002381D01*
X170735714Y-111954762D01*
X170688095Y-111907143D01*
X170640476Y-111811905D01*
X170640476Y-111002381D01*
X170259524Y-111002381D02*
X169592857Y-111002381D01*
X170021429Y-112002381D01*
X133211905Y-111002381D02*
X133211905Y-111811905D01*
X133164286Y-111907143D01*
X133116667Y-111954762D01*
X133021429Y-112002381D01*
X132830952Y-112002381D01*
X132735714Y-111954762D01*
X132688095Y-111907143D01*
X132640476Y-111811905D01*
X132640476Y-111002381D01*
X132021429Y-111430952D02*
X132116667Y-111383333D01*
X132164286Y-111335714D01*
X132211905Y-111240476D01*
X132211905Y-111192857D01*
X132164286Y-111097619D01*
X132116667Y-111050000D01*
X132021429Y-111002381D01*
X131830952Y-111002381D01*
X131735714Y-111050000D01*
X131688095Y-111097619D01*
X131640476Y-111192857D01*
X131640476Y-111240476D01*
X131688095Y-111335714D01*
X131735714Y-111383333D01*
X131830952Y-111430952D01*
X132021429Y-111430952D01*
X132116667Y-111478571D01*
X132164286Y-111526190D01*
X132211905Y-111621429D01*
X132211905Y-111811905D01*
X132164286Y-111907143D01*
X132116667Y-111954762D01*
X132021429Y-112002381D01*
X131830952Y-112002381D01*
X131735714Y-111954762D01*
X131688095Y-111907143D01*
X131640476Y-111811905D01*
X131640476Y-111621429D01*
X131688095Y-111526190D01*
X131735714Y-111478571D01*
X131830952Y-111430952D01*
X163202381Y-122535714D02*
X162202381Y-122535714D01*
X162202381Y-122916667D01*
X162250000Y-123011905D01*
X162297619Y-123059524D01*
X162392857Y-123107143D01*
X162535714Y-123107143D01*
X162630952Y-123059524D01*
X162678571Y-123011905D01*
X162726190Y-122916667D01*
X162726190Y-122535714D01*
X163202381Y-124059524D02*
X163202381Y-123488095D01*
X163202381Y-123773809D02*
X162202381Y-123773809D01*
X162345238Y-123678571D01*
X162440476Y-123583333D01*
X162488095Y-123488095D01*
X162202381Y-124392857D02*
X162202381Y-125011905D01*
X162583333Y-124678571D01*
X162583333Y-124821429D01*
X162630952Y-124916667D01*
X162678571Y-124964286D01*
X162773810Y-125011905D01*
X163011905Y-125011905D01*
X163107143Y-124964286D01*
X163154762Y-124916667D01*
X163202381Y-124821429D01*
X163202381Y-124535714D01*
X163154762Y-124440476D01*
X163107143Y-124392857D01*
X130202381Y-122535714D02*
X129202381Y-122535714D01*
X129202381Y-122916667D01*
X129250000Y-123011905D01*
X129297619Y-123059524D01*
X129392857Y-123107143D01*
X129535714Y-123107143D01*
X129630952Y-123059524D01*
X129678571Y-123011905D01*
X129726190Y-122916667D01*
X129726190Y-122535714D01*
X130202381Y-124059524D02*
X130202381Y-123488095D01*
X130202381Y-123773809D02*
X129202381Y-123773809D01*
X129345238Y-123678571D01*
X129440476Y-123583333D01*
X129488095Y-123488095D01*
X129202381Y-124964286D02*
X129202381Y-124488095D01*
X129678571Y-124440476D01*
X129630952Y-124488095D01*
X129583333Y-124583333D01*
X129583333Y-124821429D01*
X129630952Y-124916667D01*
X129678571Y-124964286D01*
X129773810Y-125011905D01*
X130011905Y-125011905D01*
X130107143Y-124964286D01*
X130154762Y-124916667D01*
X130202381Y-124821429D01*
X130202381Y-124583333D01*
X130154762Y-124488095D01*
X130107143Y-124440476D01*
M02*
