M48
;DRILL file {KiCad 4.0.1-stable} date 2017/02/22 22:44:30
;FORMAT={-:-/ absolute / metric / decimal}
FMAT,2
METRIC,TZ
T1C0.300
T2C0.320
T3C0.400
T4C0.600
T5C0.800
%
G90
G05
M71
T1
X124.44Y-107.266
X124.5Y-111.25
X124.5Y-112.
X124.859Y-105.142
X126.1Y-111.6
X126.289Y-107.777
X126.654Y-105.796
X126.9Y-111.6
X127.53Y-108.968
X128.5Y-111.25
X128.5Y-112.
X129.5Y-125.75
X129.5Y-126.5
X129.653Y-115.912
X130.354Y-125.43
X130.429Y-121.886
X130.5Y-111.25
X130.5Y-112.
X130.553Y-107.461
X130.681Y-105.171
X132.1Y-111.6
X132.191Y-105.566
X132.563Y-107.769
X132.9Y-111.6
X133.142Y-104.5
X133.573Y-121.886
X134.261Y-97.246
X134.489Y-109.203
X134.5Y-111.25
X134.5Y-112.
X134.5Y-125.75
X134.5Y-126.5
X136.02Y-96.969
X136.384Y-93.783
X137.Y-102.
X137.Y-109.
X137.Y-110.
X137.Y-112.
X137.Y-113.
X138.Y-102.
X139.496Y-111.771
X139.643Y-116.578
X139.65Y-102.049
X140.194Y-108.835
X140.632Y-112.268
X141.288Y-125.508
X141.427Y-98.254
X141.791Y-114.203
X141.824Y-119.072
X141.873Y-114.963
X142.048Y-123.537
X142.29Y-90.471
X142.568Y-122.623
X142.733Y-97.804
X142.827Y-123.196
X143.052Y-90.304
X143.293Y-114.313
X144.581Y-120.005
X144.985Y-120.787
X145.536Y-90.505
X145.558Y-92.222
X146.012Y-121.95
X146.065Y-111.961
X146.499Y-115.247
X146.547Y-117.237
X146.564Y-111.597
X146.653Y-122.587
X147.595Y-119.708
X147.998Y-121.024
X148.249Y-115.774
X148.416Y-121.95
X148.501Y-88.814
X149.756Y-117.192
X149.799Y-115.844
X149.955Y-117.778
X150.087Y-114.701
X150.137Y-122.43
X150.495Y-118.197
X150.634Y-121.926
X151.459Y-115.037
X151.961Y-113.934
X151.995Y-88.601
X151.996Y-122.926
X152.453Y-113.518
X152.619Y-116.446
X153.483Y-110.326
X154.091Y-110.329
X158.304Y-116.102
X159.Y-116.
X159.118Y-94.928
X160.Y-116.
X160.055Y-94.629
X162.37Y-107.261
X162.5Y-111.25
X162.5Y-112.
X162.5Y-125.75
X162.5Y-126.5
X162.671Y-105.181
X162.723Y-115.043
X163.091Y-122.603
X163.433Y-121.905
X164.1Y-111.6
X164.26Y-105.651
X164.274Y-107.773
X164.9Y-111.6
X165.259Y-104.5
X166.494Y-109.203
X166.5Y-111.25
X166.5Y-112.
X166.695Y-121.886
X167.5Y-125.75
X167.5Y-126.5
X168.441Y-107.461
X168.5Y-111.25
X168.5Y-112.
X169.444Y-105.244
X170.1Y-111.6
X170.194Y-105.531
X170.424Y-107.787
X170.9Y-111.6
X171.253Y-104.5
X172.475Y-109.221
X172.5Y-111.25
X172.5Y-112.
T2
X137.328Y-121.5
X140.896Y-98.397
X141.509Y-112.241
X151.755Y-90.291
X155.211Y-117.559
T3
X148.934Y-120.
X149.5Y-119.434
X149.5Y-120.566
X150.066Y-120.
T4
X144.25Y-113.
X144.25Y-114.25
T5
X137.75Y-115.75
T5
X132.333Y-96.382G85X132.727Y-96.313
G05
X136.273Y-95.687G85X136.667Y-95.618
G05
X140.5Y-110.3G85X140.5Y-110.7
G05
X140.5Y-115.3G85X140.5Y-115.7
G05
X141.118Y-91.167G85X141.187Y-90.773
G05
X141.813Y-87.227G85X141.882Y-86.833
G05
X155.118Y-86.833G85X155.187Y-87.227
G05
X155.813Y-90.773G85X155.882Y-91.167
G05
X156.5Y-110.7G85X156.5Y-110.3
G05
X156.5Y-115.7G85X156.5Y-115.3
G05
X160.333Y-95.618G85X160.727Y-95.687
G05
X164.273Y-96.313G85X164.667Y-96.382
G05
T0
M30
