0
SECTION
2
HEADER
9
$INSUNITS
70
4
9
$ACADVER
1
AC1014
9
$HANDSEED
5
FFFF
0
ENDSEC
0
SECTION
2
TABLES
0
TABLE
2
VPORT
5
8
100
AcDbSymbolTable
0
ENDTAB
0
TABLE
2
LTYPE
5
5
100
AcDbSymbolTable
0
LTYPE
5
14
100
AcDbSymbolTableRecord
100
AcDbLinetypeTableRecord
2
BYBLOCK
70
0
0
LTYPE
5
15
100
AcDbSymbolTableRecord
100
AcDbLinetypeTableRecord
2
BYLAYER
70
0
0
ENDTAB
0
TABLE
2
LAYER
5
2
100
AcDbSymbolTable
70
2
0
LAYER
5
50
100
AcDbSymbolTableRecord
100
AcDbLayerTableRecord
2
0
70
0
6
CONTINUOUS
0
ENDTAB
0
TABLE
2
STYLE
5
3
100
AcDbSymbolTable
70
1
0
STYLE
5
11
100
AcDbSymbolTableRecord
100
AcDbTextStyleTableRecord
2
STANDARD
70
0
0
ENDTAB
0
TABLE
2
VIEW
5
6
100
AcDbSymbolTable
70
0
0
ENDTAB
0
TABLE
2
UCS
5
7
100
AcDbSymbolTable
70
0
0
ENDTAB
0
TABLE
2
APPID
5
9
100
AcDbSymbolTable
70
2
0
APPID
5
12
100
AcDbSymbolTableRecord
100
AcDbRegAppTableRecord
2
ACAD
70
0
0
ENDTAB
0
TABLE
2
DIMSTYLE
5
A
100
AcDbSymbolTable
70
1
0
ENDTAB
0
TABLE
2
BLOCK_RECORD
5
1
100
AcDbSymbolTable
70
1
0
BLOCK_RECORD
5
1F
100
AcDbSymbolTableRecord
100
AcDbBlockTableRecord
2
*MODEL_SPACE
0
BLOCK_RECORD
5
1B
100
AcDbSymbolTableRecord
100
AcDbBlockTableRecord
2
*PAPER_SPACE
0
ENDTAB
0
ENDSEC
0
SECTION
2
BLOCKS
0
BLOCK
5
20
100
AcDbEntity
100
AcDbBlockBegin
2
*MODEL_SPACE
0
ENDBLK
5
21
100
AcDbEntity
100
AcDbBlockEnd
0
BLOCK
5
1C
100
AcDbEntity
100
AcDbBlockBegin
2
*PAPER_SPACE
0
ENDBLK
5
1D
100
AcDbEntity
100
AcDbBlockEnd
0
ENDSEC
0
SECTION
2
ENTITIES
0
ARC
5
100
100
AcDbEntity
8
0
100
AcDbCircle
10
0
20
0
30
0
40
1.4692000000000005
100
AcDbArc
50
153.9181937818538
51
170.0818062181462
0
LINE
5
101
100
AcDbEntity
8
0
100
AcDbLine
10
-1.4472423386232562
20
0.25305780623464058
30
0
11
-1.8516589845112521
21
0.32163316265073938
31
0
0
SPLINE
5
102
100
AcDbEntity
8
0
100
AcDbSpline
70
1064
71
3
72
16
73
12
74
0
42
0.000000001
43
0.0000000001
44
0.0000000001
40
0
40
0
40
0
40
0
40
0.0058634402509375339
40
0.011912301760107054
40
0.018140230337186387
40
0.024546629065544688
40
0.031131304972962119
40
0.037894171222570466
40
0.044835181268018512
40
0.051954307246878773
40
0.059251531153075097
40
0.059251531153075097
40
0.059251531153075097
40
0.059251531153075097
10
-1.8516589845112521
20
0.32163316265073938
30
0
10
-1.871232644661482
20
0.3223510020290975
30
0
10
-1.9109989484490977
20
0.32380938122702996
30
0
10
-1.9710063327351945
20
0.31444413098614682
30
0
10
-2.0317000132539915
20
0.3004786068437485
30
0
10
-2.0928396189240281
20
0.28108634494796847
30
0
10
-2.1541876902712676
20
0.25706665073773716
30
0
10
-2.2155635347181657
20
0.228559925409414
30
0
10
-2.2767356681229467
20
0.19570181932341837
30
0
10
-2.3377077477882109
20
0.15885769491072302
30
0
10
-2.3771549334670801
20
0.13139603269828684
30
0
10
-2.3971221893025114
20
0.1174955724848317
30
0
0
ARC
5
103
100
AcDbEntity
8
0
100
AcDbCircle
10
0
20
0
30
0
40
2.4000000000000012
100
AcDbArc
50
177.19387814197279
51
182.80612185802724
0
SPLINE
5
104
100
AcDbEntity
8
0
100
AcDbSpline
70
1064
71
3
72
16
73
12
74
0
42
0.000000001
43
0.0000000001
44
0.0000000001
40
-0.059251531153075097
40
-0.059251531153075097
40
-0.059251531153075097
40
-0.059251531153075097
40
-0.051954307246878773
40
-0.044835181268018512
40
-0.037894171222570466
40
-0.031131304972962119
40
-0.024546629065544688
40
-0.018140230337186387
40
-0.011912301760107054
40
-0.0058634402509375339
40
-0
40
-0
40
-0
40
-0
10
-2.3971221893025114
20
-0.1174955724848317
30
0
10
-2.3771549334670801
20
-0.13139603269828684
30
0
10
-2.3377077477882109
20
-0.15885769491072302
30
0
10
-2.2767356681229467
20
-0.19570181932341837
30
0
10
-2.2155635347181657
20
-0.228559925409414
30
0
10
-2.1541876902712676
20
-0.25706665073773716
30
0
10
-2.0928396189240281
20
-0.28108634494796847
30
0
10
-2.0317000132539915
20
-0.3004786068437485
30
0
10
-1.9710063327351945
20
-0.31444413098614682
30
0
10
-1.9109989484490977
20
-0.32380938122702996
30
0
10
-1.871232644661482
20
-0.3223510020290975
30
0
10
-1.8516589845112521
20
-0.32163316265073938
30
0
0
LINE
5
105
100
AcDbEntity
8
0
100
AcDbLine
10
-1.8516589845112521
20
-0.32163316265073938
30
0
11
-1.4472423386232562
21
-0.25305780623464086
31
0
0
ARC
5
106
100
AcDbEntity
8
0
100
AcDbCircle
10
0
20
0
30
0
40
1.4692000000000005
100
AcDbArc
50
189.91819378185377
51
206.0818062181462
0
LINE
5
107
100
AcDbEntity
8
0
100
AcDbLine
10
-1.3195872934073649
20
-0.6459396373329529
30
0
11
-1.6870748159109517
21
-0.82817114883156118
31
0
0
SPLINE
5
108
100
AcDbEntity
8
0
100
AcDbSpline
70
1064
71
3
72
16
73
12
74
0
42
0.000000001
43
0.0000000001
44
0.0000000001
40
0
40
0
40
0
40
0
40
0.0058634402509375339
40
0.011912301760107054
40
0.018140230337186387
40
0.024546629065544688
40
0.031131304972962119
40
0.037894171222570466
40
0.044835181268018512
40
0.051954307246878773
40
0.059251531153075097
40
0.059251531153075097
40
0.059251531153075097
40
0.059251531153075097
10
-1.6870748159109517
20
-0.82817114883156118
30
0
10
-1.703332175014721
20
-0.83909551334492782
30
0
10
-1.7363610043671738
20
-0.86128970669410043
30
0
10
-1.7794032420669947
20
-0.90413780880756378
30
0
10
-1.8202967319264287
20
-0.95111100549041727
30
0
10
-1.8583612263919389
20
-1.0027366334672982
30
0
10
-1.8938744366626334
20
-1.0582284658775585
30
0
10
-1.9267727051251464
20
-1.1173667073350342
30
0
10
-1.956948490456176
20
-1.1799055514281775
30
0
10
-1.9846195061243463
20
-1.2455515634497569
30
0
10
-2.0003913896669085
20
-1.2909549888598846
30
0
10
-2.0083747534552572
20
-1.31393715591102
30
0
0
ARC
5
109
100
AcDbEntity
8
0
100
AcDbCircle
10
0
20
0
30
0
40
2.4000000000000012
100
AcDbArc
50
213.1938781419727
51
218.80612185802724
0
SPLINE
5
110
100
AcDbEntity
8
0
100
AcDbSpline
70
1064
71
3
72
16
73
12
74
0
42
0.000000001
43
0.0000000001
44
0.0000000001
40
-0.059251531153075097
40
-0.059251531153075097
40
-0.059251531153075097
40
-0.059251531153075097
40
-0.051954307246878773
40
-0.044835181268018512
40
-0.037894171222570466
40
-0.031131304972962119
40
-0.024546629065544688
40
-0.018140230337186387
40
-0.011912301760107054
40
-0.0058634402509375339
40
-0
40
-0
40
-0
40
-0
10
-1.8702504240227662
20
-1.5040489857191044
30
0
10
-1.8459260892073233
20
-1.5035582357526054
30
0
10
-1.7978710855609461
20
-1.5025887131897679
30
0
10
-1.7268872039659531
20
-1.4965577467536595
30
0
10
-1.6580843982837039
20
-1.4871844351136068
30
0
10
-1.5916744643429095
20
-1.4741710441453155
30
0
10
-1.5279244100295173
20
-1.4575438933665885
30
0
10
-1.4670629444621417
20
-1.4372956042558194
30
0
10
-1.4097519963398353
20
-1.4129191003060735
30
0
10
-1.3557002466887749
20
-1.3852242913955071
30
0
10
-1.3243858449059118
20
-1.3606703909355939
30
0
10
-1.3089723566023697
20
-1.3485845379095807
30
0
0
LINE
5
111
100
AcDbEntity
8
0
100
AcDbLine
10
-1.3089723566023697
20
-1.3485845379095807
30
0
11
-1.0221000004429486
21
-1.0553957689390863
31
0
0
ARC
5
112
100
AcDbEntity
8
0
100
AcDbCircle
10
0
20
0
30
0
40
1.4692000000000003
100
AcDbArc
50
225.91819378185377
51
242.08180621814623
0
LINE
5
113
100
AcDbEntity
8
0
100
AcDbLine
10
-0.68789475323233984
20
-1.2982100941201389
30
0
11
-0.87808540919663924
21
-1.6616422299622533
31
0
0
SPLINE
5
114
100
AcDbEntity
8
0
100
AcDbSpline
70
1064
71
3
72
16
73
12
74
0
42
0.000000001
43
0.0000000001
44
0.0000000001
40
0
40
0
40
0
40
0
40
0.0058634402509375339
40
0.011912301760107054
40
0.018140230337186387
40
0.024546629065544688
40
0.031131304972962119
40
0.037894171222570466
40
0.044835181268018512
40
0.051954307246878773
40
0.059251531153075097
40
0.059251531153075097
40
0.059251531153075097
40
0.059251531153075097
10
-0.87808540919663924
20
-1.6616422299622533
30
0
10
-0.88481670864362072
20
-1.6800360624287318
30
0
10
-0.8984921733568938
20
-1.7174054008185125
30
0
10
-0.90812859262095924
20
-1.7773698361506391
30
0
10
-0.91360196861332588
20
-1.8394085408013316
30
0
10
-0.91405200875306636
20
-1.9035482996627024
30
0
10
-0.91016551867343254
20
-1.9693162763902852
30
0
10
-0.9020201907698997
20
-2.0364972357750561
30
0
10
-0.88967350366794473
20
-2.1048291050488972
30
0
10
-0.8734740678570112
20
-2.1742024593130012
30
0
10
-0.85954632581661206
20
-2.2202050826198221
30
0
10
-0.85249642393528458
20
-2.243490549830232
30
0
0
ARC
5
115
100
AcDbEntity
8
0
100
AcDbCircle
10
0
20
0
30
0
40
2.4000000000000008
100
AcDbArc
50
249.19387814197268
51
254.80612185802727
0
SPLINE
5
116
100
AcDbEntity
8
0
100
AcDbSpline
70
1064
71
3
72
16
73
12
74
0
42
0.000000001
43
0.0000000001
44
0.0000000001
40
-0.059251531153075097
40
-0.059251531153075097
40
-0.059251531153075097
40
-0.059251531153075097
40
-0.051954307246878773
40
-0.044835181268018512
40
-0.037894171222570466
40
-0.031131304972962119
40
-0.024546629065544688
40
-0.018140230337186387
40
-0.011912301760107054
40
-0.0058634402509375339
40
-0
40
-0
40
-0
40
-0
10
-0.62900656424022716
20
-2.3161068071534849
30
0
10
-0.60961621959053847
20
-2.3014122968142559
30
0
10
-0.57130877604006991
20
-2.2723819141422892
30
0
10
-0.51742652263123701
20
-2.2257794810509606
30
0
10
-0.46727337792078466
20
-2.1777550381442143
30
0
10
-0.42119569206084201
20
-2.1281922039203054
30
0
10
-0.3793940087443608
20
-2.0772692146140241
30
0
10
-0.34205769452125279
20
-2.0251145327229851
30
0
10
-0.31002031305067562
20
-1.9717069966630019
30
0
10
-0.28257012924995684
20
-1.9175306042928892
30
0
10
-0.2716686666155298
20
-1.8792599379903003
30
0
10
-0.26630277880542974
20
-1.8604224563895335
30
0
0
LINE
5
117
100
AcDbEntity
8
0
100
AcDbLine
10
-0.26630277880542974
20
-1.8604224563895335
30
0
11
-0.20655020199471691
21
-1.4546084194916316
31
0
0
ARC
5
118
100
AcDbEntity
8
0
100
AcDbCircle
10
0
20
0
30
0
40
1.4692000000000003
100
AcDbArc
50
261.91819378185374
51
278.08180621814626
0
LINE
5
119
100
AcDbEntity
8
0
100
AcDbLine
10
0.20655020199471727
20
-1.4546084194916318
30
0
11
0.26630277880542974
21
-1.8604224563895335
31
0
0
SPLINE
5
120
100
AcDbEntity
8
0
100
AcDbSpline
70
1064
71
3
72
16
73
12
74
0
42
0.000000001
43
0.0000000001
44
0.0000000001
40
0
40
0
40
0
40
0
40
0.0058634402509375339
40
0.011912301760107054
40
0.018140230337186387
40
0.024546629065544688
40
0.031131304972962119
40
0.037894171222570466
40
0.044835181268018512
40
0.051954307246878773
40
0.059251531153075097
40
0.059251531153075097
40
0.059251531153075097
40
0.059251531153075097
10
0.26630277880542974
20
-1.8604224563895335
30
0
10
0.2716686666155298
20
-1.8792599379903003
30
0
10
0.28257012924995684
20
-1.9175306042928892
30
0
10
0.31002031305067562
20
-1.9717069966630019
30
0
10
0.34205769452125279
20
-2.0251145327229851
30
0
10
0.3793940087443608
20
-2.0772692146140241
30
0
10
0.42119569206084201
20
-2.1281922039203054
30
0
10
0.46727337792078466
20
-2.1777550381442143
30
0
10
0.51742652263123701
20
-2.2257794810509606
30
0
10
0.57130877604006991
20
-2.2723819141422892
30
0
10
0.60961621959053847
20
-2.3014122968142559
30
0
10
0.62900656424022716
20
-2.3161068071534849
30
0
0
ARC
5
121
100
AcDbEntity
8
0
100
AcDbCircle
10
0
20
0
30
0
40
2.4000000000000012
100
AcDbArc
50
285.19387814197268
51
290.80612185802727
0
SPLINE
5
122
100
AcDbEntity
8
0
100
AcDbSpline
70
1064
71
3
72
16
73
12
74
0
42
0.000000001
43
0.0000000001
44
0.0000000001
40
-0.059251531153075097
40
-0.059251531153075097
40
-0.059251531153075097
40
-0.059251531153075097
40
-0.051954307246878773
40
-0.044835181268018512
40
-0.037894171222570466
40
-0.031131304972962119
40
-0.024546629065544688
40
-0.018140230337186387
40
-0.011912301760107054
40
-0.0058634402509375339
40
-0
40
-0
40
-0
40
-0
10
0.85249642393528458
20
-2.243490549830232
30
0
10
0.85954632581661206
20
-2.2202050826198221
30
0
10
0.8734740678570112
20
-2.1742024593130012
30
0
10
0.88967350366794473
20
-2.1048291050488972
30
0
10
0.9020201907698997
20
-2.0364972357750561
30
0
10
0.91016551867343254
20
-1.9693162763902852
30
0
10
0.91405200875306636
20
-1.9035482996627024
30
0
10
0.91360196861332588
20
-1.8394085408013316
30
0
10
0.90812859262095924
20
-1.7773698361506391
30
0
10
0.8984921733568938
20
-1.7174054008185125
30
0
10
0.88481670864362072
20
-1.6800360624287318
30
0
10
0.87808540919663924
20
-1.6616422299622533
30
0
0
LINE
5
123
100
AcDbEntity
8
0
100
AcDbLine
10
0.87808540919663924
20
-1.6616422299622529
30
0
11
0.68789475323233984
21
-1.2982100941201384
31
0
0
ARC
5
124
100
AcDbEntity
8
0
100
AcDbCircle
10
0
20
0
30
0
40
1.4692000000000003
100
AcDbArc
50
297.91819378185374
51
314.08180621814626
0
LINE
5
125
100
AcDbEntity
8
0
100
AcDbLine
10
1.0221000004429488
20
-1.0553957689390865
30
0
11
1.3089723566023697
21
-1.3485845379095809
31
0
0
SPLINE
5
126
100
AcDbEntity
8
0
100
AcDbSpline
70
1064
71
3
72
16
73
12
74
0
42
0.000000001
43
0.0000000001
44
0.0000000001
40
0
40
0
40
0
40
0
40
0.0058634402509375339
40
0.011912301760107054
40
0.018140230337186387
40
0.024546629065544688
40
0.031131304972962119
40
0.037894171222570466
40
0.044835181268018512
40
0.051954307246878773
40
0.059251531153075097
40
0.059251531153075097
40
0.059251531153075097
40
0.059251531153075097
10
1.3089723566023697
20
-1.3485845379095809
30
0
10
1.3243858449059114
20
-1.3606703909355942
30
0
10
1.3557002466887749
20
-1.3852242913955073
30
0
10
1.4097519963398351
20
-1.4129191003060737
30
0
10
1.4670629444621412
20
-1.4372956042558196
30
0
10
1.5279244100295171
20
-1.4575438933665887
30
0
10
1.5916744643429093
20
-1.4741710441453157
30
0
10
1.6580843982837037
20
-1.487184435113607
30
0
10
1.7268872039659526
20
-1.4965577467536597
30
0
10
1.7978710855609459
20
-1.5025887131897684
30
0
10
1.8459260892073228
20
-1.5035582357526056
30
0
10
1.870250424022766
20
-1.5040489857191046
30
0
0
ARC
5
127
100
AcDbEntity
8
0
100
AcDbCircle
10
0
20
0
30
0
40
2.4000000000000004
100
AcDbArc
50
321.19387814197268
51
326.80612185802727
0
SPLINE
5
128
100
AcDbEntity
8
0
100
AcDbSpline
70
1064
71
3
72
16
73
12
74
0
42
0.000000001
43
0.0000000001
44
0.0000000001
40
-0.059251531153075097
40
-0.059251531153075097
40
-0.059251531153075097
40
-0.059251531153075097
40
-0.051954307246878773
40
-0.044835181268018512
40
-0.037894171222570466
40
-0.031131304972962119
40
-0.024546629065544688
40
-0.018140230337186387
40
-0.011912301760107054
40
-0.0058634402509375339
40
-0
40
-0
40
-0
40
-0
10
2.0083747534552567
20
-1.3139371559110202
30
0
10
2.0003913896669081
20
-1.2909549888598848
30
0
10
1.9846195061243459
20
-1.2455515634497574
30
0
10
1.9569484904561758
20
-1.1799055514281778
30
0
10
1.9267727051251462
20
-1.1173667073350346
30
0
10
1.893874436662633
20
-1.0582284658775589
30
0
10
1.8583612263919385
20
-1.0027366334672985
30
0
10
1.8202967319264285
20
-0.9511110054904176
30
0
10
1.7794032420669945
20
-0.904137808807564
30
0
10
1.7363610043671738
20
-0.86128970669410054
30
0
10
1.7033321750147206
20
-0.83909551334492793
30
0
10
1.6870748159109517
20
-0.82817114883156129
30
0
0
LINE
5
129
100
AcDbEntity
8
0
100
AcDbLine
10
1.6870748159109514
20
-0.82817114883156129
30
0
11
1.3195872934073647
21
-0.64593963733295234
31
0
0
ARC
5
130
100
AcDbEntity
8
0
100
AcDbCircle
10
0
20
0
30
0
40
1.4692000000000003
100
AcDbArc
50
333.91819378185374
51
350.08180621814626
0
LINE
5
131
100
AcDbEntity
8
0
100
AcDbLine
10
1.4472423386232562
20
-0.25305780623464003
30
0
11
1.8516589845112521
21
-0.3216331626507396
31
0
0
SPLINE
5
132
100
AcDbEntity
8
0
100
AcDbSpline
70
1064
71
3
72
16
73
12
74
0
42
0.000000001
43
0.0000000001
44
0.0000000001
40
0
40
0
40
0
40
0
40
0.0058634402509375339
40
0.011912301760107054
40
0.018140230337186387
40
0.024546629065544688
40
0.031131304972962119
40
0.037894171222570466
40
0.044835181268018512
40
0.051954307246878773
40
0.059251531153075097
40
0.059251531153075097
40
0.059251531153075097
40
0.059251531153075097
10
1.8516589845112521
20
-0.3216331626507396
30
0
10
1.871232644661482
20
-0.32235100202909767
30
0
10
1.9109989484490977
20
-0.32380938122703018
30
0
10
1.9710063327351945
20
-0.31444413098614704
30
0
10
2.0317000132539915
20
-0.30047860684374877
30
0
10
2.0928396189240281
20
-0.28108634494796875
30
0
10
2.1541876902712676
20
-0.25706665073773738
30
0
10
2.2155635347181657
20
-0.22855992540941428
30
0
10
2.2767356681229467
20
-0.19570181932341865
30
0
10
2.3377077477882109
20
-0.1588576949107233
30
0
10
2.3771549334670801
20
-0.13139603269828712
30
0
10
2.3971221893025114
20
-0.11749557248483199
30
0
0
ARC
5
133
100
AcDbEntity
8
0
100
AcDbCircle
10
0
20
0
30
0
40
2.4000000000000012
100
AcDbArc
50
-2.8061218580272271
51
2.8061218580272373
0
SPLINE
5
134
100
AcDbEntity
8
0
100
AcDbSpline
70
1064
71
3
72
16
73
12
74
0
42
0.000000001
43
0.0000000001
44
0.0000000001
40
-0.059251531153075097
40
-0.059251531153075097
40
-0.059251531153075097
40
-0.059251531153075097
40
-0.051954307246878773
40
-0.044835181268018512
40
-0.037894171222570466
40
-0.031131304972962119
40
-0.024546629065544688
40
-0.018140230337186387
40
-0.011912301760107054
40
-0.0058634402509375339
40
-0
40
-0
40
-0
40
-0
10
2.3971221893025114
20
0.11749557248483139
30
0
10
2.3771549334670801
20
0.13139603269828654
30
0
10
2.3377077477882109
20
0.15885769491072274
30
0
10
2.2767356681229467
20
0.1957018193234181
30
0
10
2.2155635347181657
20
0.22855992540941372
30
0
10
2.1541876902712676
20
0.25706665073773682
30
0
10
2.0928396189240281
20
0.28108634494796825
30
0
10
2.0317000132539915
20
0.30047860684374827
30
0
10
1.9710063327351945
20
0.31444413098614665
30
0
10
1.9109989484490977
20
0.32380938122702979
30
0
10
1.871232644661482
20
0.32235100202909728
30
0
10
1.8516589845112521
20
0.32163316265073916
30
0
0
LINE
5
135
100
AcDbEntity
8
0
100
AcDbLine
10
1.8516589845112521
20
0.32163316265073916
30
0
11
1.4472423386232562
21
0.25305780623464064
31
0
0
ARC
5
136
100
AcDbEntity
8
0
100
AcDbCircle
10
0
20
0
30
0
40
1.4692000000000005
100
AcDbArc
50
9.9181937818537804
51
26.081806218146223
0
LINE
5
137
100
AcDbEntity
8
0
100
AcDbLine
10
1.3195872934073649
20
0.64593963733295279
30
0
11
1.6870748159109517
21
0.82817114883156073
31
0
0
SPLINE
5
138
100
AcDbEntity
8
0
100
AcDbSpline
70
1064
71
3
72
16
73
12
74
0
42
0.000000001
43
0.0000000001
44
0.0000000001
40
0
40
0
40
0
40
0
40
0.0058634402509375339
40
0.011912301760107054
40
0.018140230337186387
40
0.024546629065544688
40
0.031131304972962119
40
0.037894171222570466
40
0.044835181268018512
40
0.051954307246878773
40
0.059251531153075097
40
0.059251531153075097
40
0.059251531153075097
40
0.059251531153075097
10
1.6870748159109517
20
0.82817114883156073
30
0
10
1.7033321750147206
20
0.83909551334492738
30
0
10
1.7363610043671738
20
0.86128970669409999
30
0
10
1.7794032420669945
20
0.90413780880756334
30
0
10
1.8202967319264285
20
0.95111100549041705
30
0
10
1.8583612263919385
20
1.0027366334672978
30
0
10
1.893874436662633
20
1.058228465877558
30
0
10
1.9267727051251462
20
1.1173667073350337
30
0
10
1.9569484904561758
20
1.1799055514281773
30
0
10
1.9846195061243459
20
1.2455515634497565
30
0
10
2.0003913896669081
20
1.2909549888598839
30
0
10
2.0083747534552567
20
1.3139371559110193
30
0
0
ARC
5
139
100
AcDbEntity
8
0
100
AcDbCircle
10
0
20
0
30
0
40
2.4000000000000008
100
AcDbArc
50
33.193878141972682
51
38.806121858027247
0
SPLINE
5
140
100
AcDbEntity
8
0
100
AcDbSpline
70
1064
71
3
72
16
73
12
74
0
42
0.000000001
43
0.0000000001
44
0.0000000001
40
-0.059251531153075097
40
-0.059251531153075097
40
-0.059251531153075097
40
-0.059251531153075097
40
-0.051954307246878773
40
-0.044835181268018512
40
-0.037894171222570466
40
-0.031131304972962119
40
-0.024546629065544688
40
-0.018140230337186387
40
-0.011912301760107054
40
-0.0058634402509375339
40
-0
40
-0
40
-0
40
-0
10
1.870250424022766
20
1.5040489857191039
30
0
10
1.8459260892073228
20
1.5035582357526047
30
0
10
1.7978710855609459
20
1.5025887131897675
30
0
10
1.7268872039659526
20
1.4965577467536593
30
0
10
1.6580843982837037
20
1.4871844351136063
30
0
10
1.5916744643429093
20
1.4741710441453149
30
0
10
1.5279244100295171
20
1.4575438933665881
30
0
10
1.4670629444621412
20
1.4372956042558189
30
0
10
1.4097519963398351
20
1.4129191003060728
30
0
10
1.3557002466887749
20
1.3852242913955068
30
0
10
1.3243858449059114
20
1.3606703909355935
30
0
10
1.3089723566023697
20
1.3485845379095804
30
0
0
LINE
5
141
100
AcDbEntity
8
0
100
AcDbLine
10
1.3089723566023697
20
1.3485845379095804
30
0
11
1.0221000004429488
21
1.0553957689390863
31
0
0
ARC
5
142
100
AcDbEntity
8
0
100
AcDbCircle
10
0
20
0
30
0
40
1.4692000000000003
100
AcDbArc
50
45.918193781853766
51
62.081806218146234
0
LINE
5
143
100
AcDbEntity
8
0
100
AcDbLine
10
0.68789475323233984
20
1.2982100941201384
30
0
11
0.87808540919663935
21
1.6616422299622533
31
0
0
SPLINE
5
144
100
AcDbEntity
8
0
100
AcDbSpline
70
1064
71
3
72
16
73
12
74
0
42
0.000000001
43
0.0000000001
44
0.0000000001
40
0
40
0
40
0
40
0
40
0.0058634402509375339
40
0.011912301760107054
40
0.018140230337186387
40
0.024546629065544688
40
0.031131304972962119
40
0.037894171222570466
40
0.044835181268018512
40
0.051954307246878773
40
0.059251531153075097
40
0.059251531153075097
40
0.059251531153075097
40
0.059251531153075097
10
0.87808540919663935
20
1.6616422299622533
30
0
10
0.88481670864362072
20
1.6800360624287316
30
0
10
0.89849217335689391
20
1.7174054008185125
30
0
10
0.90812859262095924
20
1.7773698361506391
30
0
10
0.9136019686133261
20
1.8394085408013316
30
0
10
0.91405200875306658
20
1.9035482996627024
30
0
10
0.91016551867343265
20
1.9693162763902852
30
0
10
0.90202019076989981
20
2.0364972357750561
30
0
10
0.88967350366794484
20
2.1048291050488972
30
0
10
0.87347406785701132
20
2.1742024593130012
30
0
10
0.85954632581661228
20
2.2202050826198221
30
0
10
0.8524964239352848
20
2.243490549830232
30
0
0
ARC
5
145
100
AcDbEntity
8
0
100
AcDbCircle
10
0
20
0
30
0
40
2.4000000000000012
100
AcDbArc
50
69.193878141972689
51
74.806121858027268
0
SPLINE
5
146
100
AcDbEntity
8
0
100
AcDbSpline
70
1064
71
3
72
16
73
12
74
0
42
0.000000001
43
0.0000000001
44
0.0000000001
40
-0.059251531153075097
40
-0.059251531153075097
40
-0.059251531153075097
40
-0.059251531153075097
40
-0.051954307246878773
40
-0.044835181268018512
40
-0.037894171222570466
40
-0.031131304972962119
40
-0.024546629065544688
40
-0.018140230337186387
40
-0.011912301760107054
40
-0.0058634402509375339
40
-0
40
-0
40
-0
40
-0
10
0.62900656424022738
20
2.3161068071534849
30
0
10
0.60961621959053869
20
2.3014122968142559
30
0
10
0.57130877604007013
20
2.2723819141422892
30
0
10
0.51742652263123712
20
2.2257794810509606
30
0
10
0.46727337792078483
20
2.1777550381442143
30
0
10
0.42119569206084218
20
2.1281922039203054
30
0
10
0.37939400874436091
20
2.0772692146140241
30
0
10
0.3420576945212529
20
2.0251145327229851
30
0
10
0.31002031305067573
20
1.9717069966630019
30
0
10
0.282570129249957
20
1.9175306042928892
30
0
10
0.27166866661552985
20
1.8792599379903006
30
0
10
0.26630277880542991
20
1.8604224563895335
30
0
0
LINE
5
147
100
AcDbEntity
8
0
100
AcDbLine
10
0.26630277880542991
20
1.8604224563895335
30
0
11
0.20655020199471708
21
1.4546084194916316
31
0
0
ARC
5
148
100
AcDbEntity
8
0
100
AcDbCircle
10
0
20
0
30
0
40
1.4692000000000003
100
AcDbArc
50
81.918193781853788
51
98.081806218146184
0
LINE
5
149
100
AcDbEntity
8
0
100
AcDbLine
10
-0.2065502019947158
20
1.4546084194916318
30
0
11
-0.26630277880542924
21
1.8604224563895333
31
0
0
SPLINE
5
150
100
AcDbEntity
8
0
100
AcDbSpline
70
1064
71
3
72
16
73
12
74
0
42
0.000000001
43
0.0000000001
44
0.0000000001
40
0
40
0
40
0
40
0
40
0.0058634402509375339
40
0.011912301760107054
40
0.018140230337186387
40
0.024546629065544688
40
0.031131304972962119
40
0.037894171222570466
40
0.044835181268018512
40
0.051954307246878773
40
0.059251531153075097
40
0.059251531153075097
40
0.059251531153075097
40
0.059251531153075097
10
-0.26630277880542924
20
1.8604224563895333
30
0
10
-0.27166866661552919
20
1.8792599379903006
30
0
10
-0.28257012924995634
20
1.9175306042928895
30
0
10
-0.31002031305067507
20
1.9717069966630021
30
0
10
-0.34205769452125223
20
2.0251145327229851
30
0
10
-0.37939400874436024
20
2.0772692146140246
30
0
10
-0.42119569206084145
20
2.1281922039203054
30
0
10
-0.46727337792078394
20
2.1777550381442148
30
0
10
-0.51742652263123623
20
2.225779481050961
30
0
10
-0.57130877604006935
20
2.2723819141422896
30
0
10
-0.60961621959053791
20
2.3014122968142563
30
0
10
-0.6290065642402265
20
2.3161068071534849
30
0
0
ARC
5
151
100
AcDbEntity
8
0
100
AcDbCircle
10
0
20
0
30
0
40
2.4000000000000012
100
AcDbArc
50
105.19387814197266
51
110.80612185802725
0
SPLINE
5
152
100
AcDbEntity
8
0
100
AcDbSpline
70
1064
71
3
72
16
73
12
74
0
42
0.000000001
43
0.0000000001
44
0.0000000001
40
-0.059251531153075097
40
-0.059251531153075097
40
-0.059251531153075097
40
-0.059251531153075097
40
-0.051954307246878773
40
-0.044835181268018512
40
-0.037894171222570466
40
-0.031131304972962119
40
-0.024546629065544688
40
-0.018140230337186387
40
-0.011912301760107054
40
-0.0058634402509375339
40
-0
40
-0
40
-0
40
-0
10
-0.85249642393528391
20
2.243490549830232
30
0
10
-0.8595463258166115
20
2.2202050826198225
30
0
10
-0.87347406785701065
20
2.1742024593130016
30
0
10
-0.88967350366794395
20
2.1048291050488972
30
0
10
-0.90202019076989892
20
2.0364972357750561
30
0
10
-0.91016551867343198
20
1.9693162763902858
30
0
10
-0.9140520087530658
20
1.9035482996627027
30
0
10
-0.91360196861332543
20
1.8394085408013323
30
0
10
-0.90812859262095869
20
1.7773698361506394
30
0
10
-0.89849217335689335
20
1.7174054008185127
30
0
10
-0.88481670864362005
20
1.6800360624287323
30
0
10
-0.8780854091966388
20
1.6616422299622535
30
0
0
LINE
5
153
100
AcDbEntity
8
0
100
AcDbLine
10
-0.8780854091966388
20
1.6616422299622533
30
0
11
-0.68789475323233962
21
1.2982100941201384
31
0
0
ARC
5
154
100
AcDbEntity
8
0
100
AcDbCircle
10
0
20
0
30
0
40
1.4692000000000003
100
AcDbArc
50
117.91819378185377
51
134.08180621814623
0
LINE
5
155
100
AcDbEntity
8
0
100
AcDbLine
10
-1.0221000004429486
20
1.0553957689390867
30
0
11
-1.3089723566023694
21
1.3485845379095809
31
0
0
SPLINE
5
156
100
AcDbEntity
8
0
100
AcDbSpline
70
1064
71
3
72
16
73
12
74
0
42
0.000000001
43
0.0000000001
44
0.0000000001
40
0
40
0
40
0
40
0
40
0.0058634402509375339
40
0.011912301760107054
40
0.018140230337186387
40
0.024546629065544688
40
0.031131304972962119
40
0.037894171222570466
40
0.044835181268018512
40
0.051954307246878773
40
0.059251531153075097
40
0.059251531153075097
40
0.059251531153075097
40
0.059251531153075097
10
-1.3089723566023694
20
1.3485845379095809
30
0
10
-1.3243858449059112
20
1.3606703909355942
30
0
10
-1.3557002466887746
20
1.3852242913955073
30
0
10
-1.4097519963398346
20
1.4129191003060735
30
0
10
-1.4670629444621412
20
1.4372956042558196
30
0
10
-1.5279244100295166
20
1.4575438933665885
30
0
10
-1.591674464342909
20
1.4741710441453157
30
0
10
-1.6580843982837035
20
1.487184435113607
30
0
10
-1.7268872039659524
20
1.4965577467536597
30
0
10
-1.7978710855609457
20
1.5025887131897684
30
0
10
-1.8459260892073226
20
1.5035582357526056
30
0
10
-1.8702504240227658
20
1.5040489857191046
30
0
0
ARC
5
157
100
AcDbEntity
8
0
100
AcDbCircle
10
0
20
0
30
0
40
2.4000000000000004
100
AcDbArc
50
141.1938781419727
51
146.80612185802727
0
SPLINE
5
158
100
AcDbEntity
8
0
100
AcDbSpline
70
1064
71
3
72
16
73
12
74
0
42
0.000000001
43
0.0000000001
44
0.0000000001
40
-0.059251531153075097
40
-0.059251531153075097
40
-0.059251531153075097
40
-0.059251531153075097
40
-0.051954307246878773
40
-0.044835181268018512
40
-0.037894171222570466
40
-0.031131304972962119
40
-0.024546629065544688
40
-0.018140230337186387
40
-0.011912301760107054
40
-0.0058634402509375339
40
-0
40
-0
40
-0
40
-0
10
-2.0083747534552563
20
1.3139371559110202
30
0
10
-2.0003913896669081
20
1.2909549888598848
30
0
10
-1.9846195061243457
20
1.2455515634497574
30
0
10
-1.9569484904561754
20
1.1799055514281778
30
0
10
-1.926772705125146
20
1.1173667073350346
30
0
10
-1.8938744366626328
20
1.0582284658775589
30
0
10
-1.8583612263919382
20
1.0027366334672985
30
0
10
-1.8202967319264285
20
0.95111100549041772
30
0
10
-1.7794032420669943
20
0.904137808807564
30
0
10
-1.7363610043671733
20
0.86128970669410065
30
0
10
-1.7033321750147203
20
0.83909551334492805
30
0
10
-1.6870748159109514
20
0.82817114883156129
30
0
0
LINE
5
159
100
AcDbEntity
8
0
100
AcDbLine
10
-1.6870748159109512
20
0.82817114883156129
30
0
11
-1.3195872934073649
21
0.6459396373329529
31
0
0
CIRCLE
5
160
100
AcDbEntity
8
0
100
AcDbCircle
10
0
20
0
30
0
40
0.75000000000000011
0
ENDSEC
0
SECTION
2
OBJECTS
0
DICTIONARY
5
C
100
AcDbDictionary
3
ACAD_GROUP
350
D
3
ACAD_MLINESTYLE
350
17
0
DICTIONARY
5
D
100
AcDbDictionary
0
DICTIONARY
5
1A
330
C
100
AcDbDictionary
0
DICTIONARY
5
17
100
AcDbDictionary
0
ENDSEC
0
EOF
