0
SECTION
2
HEADER
9
$INSUNITS
70
4
9
$ACADVER
1
AC1014
9
$HANDSEED
5
FFFF
0
ENDSEC
0
SECTION
2
TABLES
0
TABLE
2
VPORT
5
8
100
AcDbSymbolTable
0
ENDTAB
0
TABLE
2
LTYPE
5
5
100
AcDbSymbolTable
0
LTYPE
5
14
100
AcDbSymbolTableRecord
100
AcDbLinetypeTableRecord
2
BYBLOCK
70
0
0
LTYPE
5
15
100
AcDbSymbolTableRecord
100
AcDbLinetypeTableRecord
2
BYLAYER
70
0
0
ENDTAB
0
TABLE
2
LAYER
5
2
100
AcDbSymbolTable
70
2
0
LAYER
5
50
100
AcDbSymbolTableRecord
100
AcDbLayerTableRecord
2
0
70
0
6
CONTINUOUS
0
ENDTAB
0
TABLE
2
STYLE
5
3
100
AcDbSymbolTable
70
1
0
STYLE
5
11
100
AcDbSymbolTableRecord
100
AcDbTextStyleTableRecord
2
STANDARD
70
0
0
ENDTAB
0
TABLE
2
VIEW
5
6
100
AcDbSymbolTable
70
0
0
ENDTAB
0
TABLE
2
UCS
5
7
100
AcDbSymbolTable
70
0
0
ENDTAB
0
TABLE
2
APPID
5
9
100
AcDbSymbolTable
70
2
0
APPID
5
12
100
AcDbSymbolTableRecord
100
AcDbRegAppTableRecord
2
ACAD
70
0
0
ENDTAB
0
TABLE
2
DIMSTYLE
5
A
100
AcDbSymbolTable
70
1
0
ENDTAB
0
TABLE
2
BLOCK_RECORD
5
1
100
AcDbSymbolTable
70
1
0
BLOCK_RECORD
5
1F
100
AcDbSymbolTableRecord
100
AcDbBlockTableRecord
2
*MODEL_SPACE
0
BLOCK_RECORD
5
1B
100
AcDbSymbolTableRecord
100
AcDbBlockTableRecord
2
*PAPER_SPACE
0
ENDTAB
0
ENDSEC
0
SECTION
2
BLOCKS
0
BLOCK
5
20
100
AcDbEntity
100
AcDbBlockBegin
2
*MODEL_SPACE
0
ENDBLK
5
21
100
AcDbEntity
100
AcDbBlockEnd
0
BLOCK
5
1C
100
AcDbEntity
100
AcDbBlockBegin
2
*PAPER_SPACE
0
ENDBLK
5
1D
100
AcDbEntity
100
AcDbBlockEnd
0
ENDSEC
0
SECTION
2
ENTITIES
0
ARC
5
100
100
AcDbEntity
8
0
100
AcDbCircle
10
0
20
0
30
0
40
5.4692000000000007
100
AcDbArc
50
171.8605928117739
51
176.13940718822619
0
LINE
5
101
100
AcDbEntity
8
0
100
AcDbLine
10
-5.4567894158641099
20
0.36823621618935426
30
0
11
-5.6254056692388588
21
0.37896046315800286
31
0
0
SPLINE
5
102
100
AcDbEntity
8
0
100
AcDbSpline
70
1064
71
3
72
16
73
12
74
0
42
0.000000001
43
0.0000000001
44
0.0000000001
40
0
40
0
40
0
40
0
40
0.008521316706506089
40
0.01717498720130857
40
0.025956479512421325
40
0.034865367674830623
40
0.043901513976939616
40
0.053064856453115011
40
0.062355361893254538
40
0.071773010422230568
40
0.081317789199457452
40
0.081317789199457452
40
0.081317789199457452
40
0.081317789199457452
10
-5.6254056692388588
20
0.37896046315800286
30
0
10
-5.6538295060869697
20
0.37819953218893704
30
0
10
-5.7111186611427449
20
0.37666585140873482
30
0
10
-5.7967210967294847
20
0.36289642272939826
30
0
10
-5.8826425932004467
20
0.34476446179952924
30
0
10
-5.968719309930095
20
0.32160423954245165
30
0
10
-6.0548764027824138
20
0.29429029656704297
30
0
10
-6.1410452758718872
20
0.26304274525071969
30
0
10
-6.2271275514029822
20
0.22805422239644429
30
0
10
-6.3131796978935988
20
0.18972275938791802
30
0
10
-6.3698005838916902
20
0.16161502731617206
30
0
10
-6.3983008292608901
20
0.14746693961504631
30
0
0
ARC
5
103
100
AcDbEntity
8
0
100
AcDbCircle
10
0
20
0
30
0
40
6.4000000000000004
100
AcDbArc
50
178.67969045604139
51
181.32030954395861
0
SPLINE
5
104
100
AcDbEntity
8
0
100
AcDbSpline
70
1064
71
3
72
16
73
12
74
0
42
0.000000001
43
0.0000000001
44
0.0000000001
40
-0.081317789199457452
40
-0.081317789199457452
40
-0.081317789199457452
40
-0.081317789199457452
40
-0.071773010422230568
40
-0.062355361893254538
40
-0.053064856453115011
40
-0.043901513976939616
40
-0.034865367674830623
40
-0.025956479512421325
40
-0.01717498720130857
40
-0.008521316706506089
40
-0
40
-0
40
-0
40
-0
10
-6.3983008292608901
20
-0.14746693961504631
30
0
10
-6.3698005838916902
20
-0.16161502731617206
30
0
10
-6.3131796978935988
20
-0.18972275938791802
30
0
10
-6.2271275514029822
20
-0.22805422239644429
30
0
10
-6.1410452758718872
20
-0.26304274525071969
30
0
10
-6.0548764027824138
20
-0.29429029656704297
30
0
10
-5.968719309930095
20
-0.32160423954245165
30
0
10
-5.8826425932004467
20
-0.34476446179952924
30
0
10
-5.7967210967294847
20
-0.36289642272939826
30
0
10
-5.7111186611427449
20
-0.37666585140873482
30
0
10
-5.6538295060869697
20
-0.37819953218893704
30
0
10
-5.6254056692388588
20
-0.37896046315800286
30
0
0
LINE
5
105
100
AcDbEntity
8
0
100
AcDbLine
10
-5.6254056692388579
20
-0.37896046315800286
30
0
11
-5.4567894158641082
21
-0.36823621618935432
31
0
0
ARC
5
106
100
AcDbEntity
8
0
100
AcDbCircle
10
0
20
0
30
0
40
5.4692000000000007
100
AcDbArc
50
183.86059281177381
51
188.1394071882261
0
LINE
5
107
100
AcDbEntity
8
0
100
AcDbLine
10
-5.4141060891653661
20
-0.77434094251984875
30
0
11
-5.5812673691686001
21
-0.79890833641628767
31
0
0
SPLINE
5
108
100
AcDbEntity
8
0
100
AcDbSpline
70
1064
71
3
72
16
73
12
74
0
42
0.000000001
43
0.0000000001
44
0.0000000001
40
0
40
0
40
0
40
0
40
0.008521316706506089
40
0.01717498720130857
40
0.025956479512421325
40
0.034865367674830623
40
0.043901513976939616
40
0.053064856453115011
40
0.062355361893254538
40
0.071773010422230568
40
0.081317789199457452
40
0.081317789199457452
40
0.081317789199457452
40
0.081317789199457452
10
-5.5812673691686001
20
-0.79890833641628767
30
0
10
-5.6089118705408536
20
-0.80556228719662215
30
0
10
-5.6646302499425403
20
-0.81897353846523546
30
0
10
-5.7454992417303652
20
-0.85023981921236125
30
0
10
-5.8257733007001242
20
-0.88583963690138168
30
0
10
-5.9051537536790901
20
-0.92639010844990621
30
0
10
-5.9837492192718686
20
-0.97102024308875068
30
0
10
-6.0615383645141812
20
-1.019500476537512
30
0
10
-6.1384650128447795
20
-1.0716219276757517
30
0
10
-6.2146671541869489
20
-1.1270070035255197
30
0
10
-6.2642068118773153
20
-1.1662726583570295
30
0
10
-6.2891427056697431
20
-1.1860371106002885
30
0
0
ARC
5
109
100
AcDbEntity
8
0
100
AcDbCircle
10
0
20
0
30
0
40
6.4000000000000021
100
AcDbArc
50
190.67969045604102
51
193.32030954395881
0
SPLINE
5
110
100
AcDbEntity
8
0
100
AcDbSpline
70
1064
71
3
72
16
73
12
74
0
42
0.000000001
43
0.0000000001
44
0.0000000001
40
-0.081317789199457452
40
-0.081317789199457452
40
-0.081317789199457452
40
-0.081317789199457452
40
-0.071773010422230568
40
-0.062355361893254538
40
-0.053064856453115011
40
-0.043901513976939616
40
-0.034865367674830623
40
-0.025956479512421325
40
-0.01717498720130857
40
-0.008521316706506089
40
-0
40
-0
40
-0
40
-0
10
-6.2278225041595743
20
-1.4745259769443175
30
0
10
-6.1970035046955889
20
-1.4824393607807138
30
0
10
-6.1357759948050425
20
-1.4981607273252977
30
0
10
-6.0436347348916311
20
-1.5177633086243429
30
0
10
-5.9521590406693363
20
-1.5340897368523621
30
0
10
-5.8613764329708404
20
-1.5467389381013372
30
0
10
-5.771423191244228
20
-1.5555429390384448
30
0
10
-5.6824121763268955
20
-1.5603006991563646
30
0
10
-5.5945984240475948
20
-1.5601723496276447
30
0
10
-5.5080037818631391
20
-1.555843136132856
30
0
10
-5.4516476621330785
20
-1.5454322172151351
30
0
10
-5.4236867478720772
20
-1.540266872038232
30
0
0
LINE
5
111
100
AcDbEntity
8
0
100
AcDbLine
10
-5.4236867478720789
20
-1.540266872038232
30
0
11
-5.2609848605088398
21
-1.4947196852576716
31
0
0
ARC
5
112
100
AcDbEntity
8
0
100
AcDbCircle
10
0
20
0
30
0
40
5.4692000000000007
100
AcDbArc
50
195.86059281177384
51
200.13940718822613
0
LINE
5
113
100
AcDbEntity
8
0
100
AcDbLine
10
-5.1348003466066681
20
-1.8830756863408424
30
0
11
-5.2932009031734317
21
-1.9418610081016594
31
0
0
SPLINE
5
114
100
AcDbEntity
8
0
100
AcDbSpline
70
1064
71
3
72
16
73
12
74
0
42
0.000000001
43
0.0000000001
44
0.0000000001
40
0
40
0
40
0
40
0
40
0.008521316706506089
40
0.01717498720130857
40
0.025956479512421325
40
0.034865367674830623
40
0.043901513976939616
40
0.053064856453115011
40
0.062355361893254538
40
0.071773010422230568
40
0.081317789199457452
40
0.081317789199457452
40
0.081317789199457452
40
0.081317789199457452
10
-5.2932009031734317
20
-1.9418610081016594
30
0
10
-5.3188578717068271
20
-1.9541171691149637
30
0
10
-5.3705703149081243
20
-1.978819854837226
30
0
10
-5.4431714999034284
20
-2.026216501151231
30
0
10
-5.5142897597973342
20
-2.077728292739514
30
0
10
-5.5835046423207597
20
-2.1338967633900645
30
0
10
-5.6511034816647063
20
-2.1938925386494801
30
0
10
-5.7171131401390358
20
-2.2574866353949981
30
0
10
-5.7815220976020774
20
-2.3244630572959899
30
0
10
-5.8445438345607048
20
-2.3944811524052843
30
0
10
-5.8848371431846243
20
-2.4431886324629049
30
0
10
-5.905118867185859
20
-2.4677056478449022
30
0
0
ARC
5
115
100
AcDbEntity
8
0
100
AcDbCircle
10
0
20
0
30
0
40
6.4000000000000039
100
AcDbArc
50
202.67969045604102
51
205.32030954395879
0
SPLINE
5
116
100
AcDbEntity
8
0
100
AcDbSpline
70
1064
71
3
72
16
73
12
74
0
42
0.000000001
43
0.0000000001
44
0.0000000001
40
-0.081317789199457452
40
-0.081317789199457452
40
-0.081317789199457452
40
-0.081317789199457452
40
-0.071773010422230568
40
-0.062355361893254538
40
-0.053064856453115011
40
-0.043901513976939616
40
-0.034865367674830623
40
-0.025956479512421325
40
-0.01717498720130857
40
-0.008521316706506089
40
-0
40
-0
40
-0
40
-0
10
-5.7851584512184884
20
-2.7371411535204651
30
0
10
-5.7533676358222579
20
-2.7384739806458525
30
0
10
-5.6902094380236656
20
-2.741121882505789
30
0
10
-5.596006079888495
20
-2.7411388552289639
30
0
10
-5.5031348937615938
20
-2.7380896455742674
30
0
10
-5.4117061870337855
20
-2.7315876659637124
30
0
10
-5.3218881847398762
20
-2.7214969477752837
30
0
10
-5.2338330801089841
20
-2.7076443088066258
30
0
10
-5.1479649543730845
20
-2.6892612583096125
30
0
10
-5.0641627069815707
20
-2.6670226100442913
30
0
10
-5.0112026554360947
20
-2.6451220985424841
30
0
10
-4.984926689886759
20
-2.6342562275899191
30
0
0
LINE
5
117
100
AcDbEntity
8
0
100
AcDbLine
10
-4.984926689886759
20
-2.6342562275899191
30
0
11
-4.8352500217430849
21
-2.5558767316194073
31
0
0
ARC
5
118
100
AcDbEntity
8
0
100
AcDbCircle
10
0
20
0
30
0
40
5.4692000000000007
100
AcDbArc
50
207.8605928117739
51
212.1394071882261
0
LINE
5
119
100
AcDbEntity
8
0
100
AcDbLine
10
-4.6310791893954919
20
-2.909510986669066
30
0
11
-4.773796158113611
21
-2.9999450356500459
31
0
0
SPLINE
5
120
100
AcDbEntity
8
0
100
AcDbSpline
70
1064
71
3
72
16
73
12
74
0
42
0.000000001
43
0.0000000001
44
0.0000000001
40
0
40
0
40
0
40
0
40
0.008521316706506089
40
0.01717498720130857
40
0.025956479512421325
40
0.034865367674830623
40
0.043901513976939616
40
0.053064856453115011
40
0.062355361893254538
40
0.071773010422230568
40
0.081317789199457452
40
0.081317789199457452
40
0.081317789199457452
40
0.081317789199457452
10
-4.773796158113611
20
-2.9999450356500459
30
0
10
-4.7963442611674436
20
-3.0172677538484525
30
0
10
-4.84179068625662
20
-3.0521822481216643
30
0
10
-4.9029510442959729
20
-3.1136377991242838
30
0
10
-4.961805295893388
20
-3.1788102521384216
30
0
10
-5.0178295854651456
20
-3.2481418901973425
30
0
10
-5.0714774049057088
20
-3.3208812028068224
30
0
10
-5.1228226377872446
20
-3.396809795662985
30
0
10
-5.1718989238731261
20
-3.4757139973011251
30
0
10
-5.2189859041312703
20
-3.5573049849295737
30
0
10
-5.2482718527531329
20
-3.6133255396103654
30
0
10
-5.2630129983018081
20
-3.6415236069132155
30
0
0
ARC
5
121
100
AcDbEntity
8
0
100
AcDbCircle
10
0
20
0
30
0
40
6.4000000000000012
100
AcDbArc
50
214.67969045604102
51
217.32030954395879
0
SPLINE
5
122
100
AcDbEntity
8
0
100
AcDbSpline
70
1064
71
3
72
16
73
12
74
0
42
0.000000001
43
0.0000000001
44
0.0000000001
40
-0.081317789199457452
40
-0.081317789199457452
40
-0.081317789199457452
40
-0.081317789199457452
40
-0.071773010422230568
40
-0.062355361893254538
40
-0.053064856453115011
40
-0.043901513976939616
40
-0.034865367674830623
40
-0.025956479512421325
40
-0.01717498720130857
40
-0.008521316706506089
40
-0
40
-0
40
-0
40
-0
10
-5.0896552136889506
20
-3.8801301274272886
30
0
10
-5.0582819935425505
20
-3.8748241469006746
30
0
10
-4.995953424146367
20
-3.864282858058643
30
0
10
-4.9038051065778108
20
-3.8447134804164995
30
0
10
-4.8135973450254461
20
-3.8224218979727298
30
0
10
-4.7255184124759371
20
-3.7970529052115842
30
0
10
-4.6397611273095674
20
-3.7685084807030922
30
0
10
-4.556510363572758
20
-3.7366508694431251
30
0
10
-4.4763407135159019
20
-3.7008165454961994
30
0
10
-4.3989934212561348
20
-3.6616403981024148
30
0
10
-4.3517440462783048
20
-3.6292074514594628
30
0
10
-4.3283014152212127
20
-3.6131159454320971
30
0
0
LINE
5
123
100
AcDbEntity
8
0
100
AcDbLine
10
-4.3283014152212127
20
-3.6131159454320967
30
0
11
-4.1981915549233211
21
-3.5053297003520969
31
0
0
ARC
5
124
100
AcDbEntity
8
0
100
AcDbCircle
10
0
20
0
30
0
40
5.4692000000000007
100
AcDbArc
50
219.86059281177387
51
224.13940718822613
0
LINE
5
125
100
AcDbEntity
8
0
100
AcDbLine
10
-3.9249576492242442
20
-3.8087866954971519
30
0
11
-4.0457536137287438
21
-3.9269170698071076
31
0
0
SPLINE
5
126
100
AcDbEntity
8
0
100
AcDbSpline
70
1064
71
3
72
16
73
12
74
0
42
0.000000001
43
0.0000000001
44
0.0000000001
40
0
40
0
40
0
40
0
40
0.008521316706506089
40
0.01717498720130857
40
0.025956479512421325
40
0.034865367674830623
40
0.043901513976939616
40
0.053064856453115011
40
0.062355361893254538
40
0.071773010422230568
40
0.081317789199457452
40
0.081317789199457452
40
0.081317789199457452
40
0.081317789199457452
10
-4.0457536137287438
20
-3.9269170698071076
30
0
10
-4.0642073910017578
20
-3.9485492592817231
30
0
10
-4.1014015711262743
20
-3.9921496311678122
30
0
10
-4.148448101083396
20
-4.0649781843837793
30
0
10
-4.1924661311754807
20
-4.1409629498949272
30
0
10
-4.232851297506917
20
-4.2204276300889338
30
0
10
-4.2702034299037459
20
-4.3027314230454961
30
0
10
-4.3046402041337997
20
-4.3876760681586768
30
0
10
-4.3362389496464191
20
-4.4750595572980121
30
0
10
-4.3653332462184018
20
-4.5646575197692529
30
0
10
-4.3823318983538577
20
-4.625542782017221
30
0
10
-4.3908882066536341
20
-4.6561895103904503
30
0
0
ARC
5
127
100
AcDbEntity
8
0
100
AcDbCircle
10
0
20
0
30
0
40
6.4000000000000021
100
AcDbArc
50
226.67969045604102
51
229.32030954395879
0
SPLINE
5
128
100
AcDbEntity
8
0
100
AcDbSpline
70
1064
71
3
72
16
73
12
74
0
42
0.000000001
43
0.0000000001
44
0.0000000001
40
-0.081317789199457452
40
-0.081317789199457452
40
-0.081317789199457452
40
-0.081317789199457452
40
-0.071773010422230568
40
-0.062355361893254538
40
-0.053064856453115011
40
-0.043901513976939616
40
-0.034865367674830623
40
-0.025956479512421325
40
-0.01717498720130857
40
-0.008521316706506089
40
-0
40
-0
40
-0
40
-0
10
-4.1717096204458164
20
-4.8535387958354521
30
0
10
-4.142125155815056
20
-4.8418259044667682
30
0
10
-4.0833502723895538
20
-4.8185561298278801
30
0
10
-3.9972843190420422
20
-4.7802556775276734
30
0
10
-3.9136824941089179
20
-4.7396959714145028
30
0
10
-3.8328028077397343
20
-4.6965687122203637
30
0
10
-3.7548542445717858
20
-4.6508181097141739
30
0
10
-3.6800462795858424
20
-4.6023478566447364
30
0
10
-3.6090789036121769
20
-4.550628391156545
30
0
10
-3.5415670143093974
20
-4.4962269302634166
30
0
10
-3.5020933403133987
20
-4.4546790238781631
30
0
10
-3.4825085992159703
20
-4.4340651588050042
30
0
0
LINE
5
129
100
AcDbEntity
8
0
100
AcDbLine
10
-3.4825085992159699
20
-4.4340651588050042
30
0
11
-3.3776519719952578
21
-4.3015829407412989
31
0
0
ARC
5
130
100
AcDbEntity
8
0
100
AcDbCircle
10
0
20
0
30
0
40
5.4692000000000007
100
AcDbArc
50
231.86059281177387
51
236.13940718822613
0
LINE
5
131
100
AcDbEntity
8
0
100
AcDbLine
10
-3.0472966257454921
20
-4.5416001491456894
30
0
11
-3.1408922227441769
21
-4.6822639845748517
31
0
0
SPLINE
5
132
100
AcDbEntity
8
0
100
AcDbSpline
70
1064
71
3
72
16
73
12
74
0
42
0.000000001
43
0.0000000001
44
0.0000000001
40
0
40
0
40
0
40
0
40
0.008521316706506089
40
0.01717498720130857
40
0.025956479512421325
40
0.034865367674830623
40
0.043901513976939616
40
0.053064856453115011
40
0.062355361893254538
40
0.071773010422230568
40
0.081317789199457452
40
0.081317789199457452
40
0.081317789199457452
40
0.081317789199457452
10
-3.1408922227441769
20
-4.6822639845748517
30
0
10
-3.1544451556184949
20
-4.7072602148428713
30
0
10
-3.1817615266294319
20
-4.7576409188726201
30
0
10
-3.2126380693908985
20
-4.838659517056227
30
0
10
-3.2398960788406859
20
-4.9221356961961895
30
0
10
-3.2628770963735869
20
-5.0082604306869607
30
0
10
-3.282301074305523
20
-5.0965316333009882
30
0
10
-3.2983243376042659
20
-5.186779842070111
30
0
10
-3.3110645257371187
20
-5.2788235409227475
30
0
10
-3.3208945782528194
20
-5.3725126173380646
30
0
10
-3.3248630112349669
20
-5.4356016090330677
30
0
10
-3.3268605305554217
20
-5.4673575893874471
30
0
0
ARC
5
133
100
AcDbEntity
8
0
100
AcDbCircle
10
0
20
0
30
0
40
6.4000000000000012
100
AcDbArc
50
238.67969045604104
51
241.32030954395879
0
SPLINE
5
134
100
AcDbEntity
8
0
100
AcDbSpline
70
1064
71
3
72
16
73
12
74
0
42
0.000000001
43
0.0000000001
44
0.0000000001
40
-0.081317789199457452
40
-0.081317789199457452
40
-0.081317789199457452
40
-0.081317789199457452
40
-0.071773010422230568
40
-0.062355361893254538
40
-0.053064856453115011
40
-0.043901513976939616
40
-0.034865367674830623
40
-0.025956479512421325
40
-0.01717498720130857
40
-0.008521316706506089
40
-0
40
-0
40
-0
40
-0
10
-3.0714402987054696
20
-5.6148245290024938
30
0
10
-3.0449375726567247
20
-5.5972166363492404
30
0
10
-2.9922851196407803
20
-5.5622353767259822
30
0
10
-2.9160630256658648
20
-5.5068777633191912
30
0
10
-2.8427209382676222
20
-5.4498225873208295
30
0
10
-2.7725753284768921
20
-5.3908219298680313
30
0
10
-2.705842213556509
20
-5.329864670229413
30
0
10
-2.6427465143597617
20
-5.2669001579957184
30
0
10
-2.5840830273385871
20
-5.2015559397856244
30
0
10
-2.5293571345133135
20
-5.1343067702813547
30
0
10
-2.4993843504684752
20
-5.085459747031809
30
0
10
-2.4845134464946828
20
-5.0612244477328536
30
0
0
LINE
5
135
100
AcDbEntity
8
0
100
AcDbLine
10
-2.4845134464946823
20
-5.0612244477328536
30
0
11
-2.4094927901186156
21
-4.9098363653350416
31
0
0
ARC
5
136
100
AcDbEntity
8
0
100
AcDbCircle
10
0
20
0
30
0
40
5.4692000000000007
100
AcDbArc
50
243.86059281177384
51
248.13940718822607
0
LINE
5
137
100
AcDbEntity
8
0
100
AcDbLine
10
-2.0364541171701096
20
-5.0759238832611473
30
0
11
-2.0987587699526298
21
-5.2329734952212927
31
0
0
SPLINE
5
138
100
AcDbEntity
8
0
100
AcDbSpline
70
1064
71
3
72
16
73
12
74
0
42
0.000000001
43
0.0000000001
44
0.0000000001
40
0
40
0
40
0
40
0
40
0.008521316706506089
40
0.01717498720130857
40
0.025956479512421325
40
0.034865367674830623
40
0.043901513976939616
40
0.053064856453115011
40
0.062355361893254538
40
0.071773010422230568
40
0.081317789199457452
40
0.081317789199457452
40
0.081317789199457452
40
0.081317789199457452
10
-2.0987587699526298
20
-5.2329734952212927
30
0
10
-2.1068185302274562
20
-5.2602413110747843
30
0
10
-2.1230632356331443
20
-5.3152004687286523
30
0
10
-2.1364203381181892
20
-5.4008682103689072
30
0
10
-2.1457270211142827
20
-5.4881874935461186
30
0
10
-2.1502995091073047
20
-5.5772082181640812
30
0
10
-2.1509464115321348
20
-5.6675889553091157
30
0
10
-2.1478558704052637
20
-5.7591964479520152
30
0
10
-2.1411806938027382
20
-5.851877605203426
30
0
10
-2.1313168817973955
20
-5.9455631333533994
30
0
10
-2.1220816560622602
20
-6.0080985628237986
30
0
10
-2.117433085223928
20
-6.0395759064357417
30
0
0
ARC
5
139
100
AcDbEntity
8
0
100
AcDbCircle
10
0
20
0
30
0
40
6.4000000000000021
100
AcDbArc
50
250.67969045604099
51
253.32030954395881
0
SPLINE
5
140
100
AcDbEntity
8
0
100
AcDbSpline
70
1064
71
3
72
16
73
12
74
0
42
0.000000001
43
0.0000000001
44
0.0000000001
40
-0.081317789199457452
40
-0.081317789199457452
40
-0.081317789199457452
40
-0.081317789199457452
40
-0.071773010422230568
40
-0.062355361893254538
40
-0.053064856453115011
40
-0.043901513976939616
40
-0.034865367674830623
40
-0.025956479512421325
40
-0.01717498720130857
40
-0.008521316706506089
40
-0
40
-0
40
-0
40
-0
10
-1.8369342975059402
20
-6.1307154873347685
30
0
10
-1.8146716063417307
20
-6.1079821427979342
30
0
10
-1.7704427485866414
20
-6.0628182470945529
30
0
10
-1.7073957852452133
20
-5.9928228659223564
30
0
10
-1.6475188365355375
20
-5.9217658050110389
30
0
10
-1.5911730030670959
20
-5.8494703611468335
30
0
10
-1.5385718937373123
20
-5.7759705691273791
30
0
10
-1.4899460451514146
20
-5.7012636490512927
30
0
10
-1.4461503229641994
20
-5.625150534011425
30
0
10
-1.4066022107368656
20
-5.5479927673006681
30
0
10
-1.3874402711313216
20
-5.4939814764968586
30
0
10
-1.3779331341433338
20
-5.4671839418453407
30
0
0
LINE
5
141
100
AcDbEntity
8
0
100
AcDbLine
10
-1.3779331341433338
20
-5.4671839418453398
30
0
11
-1.3360272112845957
21
-5.3035063807548237
31
0
0
ARC
5
142
100
AcDbEntity
8
0
100
AcDbCircle
10
0
20
0
30
0
40
5.4692000000000016
100
AcDbArc
50
255.8605928117739
51
260.13940718822613
0
LINE
5
143
100
AcDbEntity
8
0
100
AcDbLine
10
-0.93660879168334932
20
-5.3884053866929378
30
0
11
-0.96489948795222091
21
-5.5549769535337559
31
0
0
SPLINE
5
144
100
AcDbEntity
8
0
100
AcDbSpline
70
1064
71
3
72
16
73
12
74
0
42
0.000000001
43
0.0000000001
44
0.0000000001
40
0
40
0
40
0
40
0
40
0.008521316706506089
40
0.01717498720130857
40
0.025956479512421325
40
0.034865367674830623
40
0.043901513976939616
40
0.053064856453115011
40
0.062355361893254538
40
0.071773010422230568
40
0.081317789199457452
40
0.081317789199457452
40
0.081317789199457452
40
0.081317789199457452
10
-0.96489948795222091
20
-5.5549769535337559
30
0
10
-0.96711382542852475
20
-5.5833246205744258
30
0
10
-0.97157689365199063
20
-5.6404602529396408
30
0
10
-0.96683078638752895
20
-5.7270330466474304
30
0
10
-0.95777939622457864
20
-5.8143791621826377
30
0
10
-0.9437435150111948
20
-5.9024052440931563
30
0
10
-0.92558506918877193
20
-5.9909454438610643
30
0
10
-0.90351579511359281
20
-6.0799085333677274
30
0
10
-0.87771699102427081
20
-6.1691765377124899
30
0
10
-0.84859041041433936
20
-6.2587640104639259
30
0
10
-0.82655514964207666
20
-6.3180127793635794
30
0
10
-0.81546365349691008
20
-6.3478357752721912
30
0
0
ARC
5
145
100
AcDbEntity
8
0
100
AcDbCircle
10
0
20
0
30
0
40
6.4000000000000012
100
AcDbArc
50
262.67969045604099
51
265.32030954395879
0
SPLINE
5
146
100
AcDbEntity
8
0
100
AcDbSpline
70
1064
71
3
72
16
73
12
74
0
42
0.000000001
43
0.0000000001
44
0.0000000001
40
-0.081317789199457452
40
-0.081317789199457452
40
-0.081317789199457452
40
-0.081317789199457452
40
-0.071773010422230568
40
-0.062355361893254538
40
-0.053064856453115011
40
-0.043901513976939616
40
-0.034865367674830623
40
-0.025956479512421325
40
-0.01717498720130857
40
-0.008521316706506089
40
-0
40
-0
40
-0
40
-0
10
-0.52214545291668091
20
-6.3786647604336801
30
0
10
-0.50509578306912728
20
-6.3517995202562183
30
0
10
-0.47122353389239724
20
-6.2984268674353627
30
0
10
-0.42410715601537169
20
-6.2168528525300895
30
0
10
-0.38031225597435353
20
-6.1348994412372528
30
0
10
-0.34022878212807817
20
-6.0524688687705357
30
0
10
-0.30405859927473239
20
-5.9696388379726262
30
0
10
-0.27202778421559776
20
-5.8864545609450483
30
0
10
-0.24501391007711421
20
-5.8028990574338959
30
0
10
-0.22237202072495182
20
-5.7192048581659556
30
0
10
-0.21485839426865272
20
-5.6623898523909366
30
0
10
-0.21113053177314947
20
-5.634201263239965
30
0
0
LINE
5
147
100
AcDbEntity
8
0
100
AcDbLine
10
-0.21113053177314947
20
-5.634201263239965
30
0
11
-0.2041708323475952
21
-5.4653877182884747
31
0
0
ARC
5
148
100
AcDbEntity
8
0
100
AcDbCircle
10
0
20
0
30
0
40
5.4692000000000007
100
AcDbArc
50
267.86059281177387
51
272.13940718822607
0
LINE
5
149
100
AcDbEntity
8
0
100
AcDbLine
10
0.20417083234759076
20
-5.4653877182884756
30
0
11
0.21113053177314578
21
-5.6342012632399641
31
0
0
SPLINE
5
150
100
AcDbEntity
8
0
100
AcDbSpline
70
1064
71
3
72
16
73
12
74
0
42
0.000000001
43
0.0000000001
44
0.0000000001
40
0
40
0
40
0
40
0
40
0.008521316706506089
40
0.01717498720130857
40
0.025956479512421325
40
0.034865367674830623
40
0.043901513976939616
40
0.053064856453115011
40
0.062355361893254538
40
0.071773010422230568
40
0.081317789199457452
40
0.081317789199457452
40
0.081317789199457452
40
0.081317789199457452
10
0.21113053177314578
20
-5.6342012632399641
30
0
10
0.21485839426864906
20
-5.6623898523909366
30
0
10
0.22237202072494805
20
-5.7192048581659556
30
0
10
0.24501391007711038
20
-5.8028990574338959
30
0
10
0.27202778421559393
20
-5.8864545609450474
30
0
10
0.3040585992747285
20
-5.9696388379726262
30
0
10
0.34022878212807417
20
-6.0524688687705339
30
0
10
0.38031225597434948
20
-6.1348994412372528
30
0
10
0.42410715601536764
20
-6.2168528525300895
30
0
10
0.47122353389239319
20
-6.2984268674353627
30
0
10
0.50509578306912306
20
-6.3517995202562183
30
0
10
0.52214545291667669
20
-6.3786647604336801
30
0
0
ARC
5
151
100
AcDbEntity
8
0
100
AcDbCircle
10
0
20
0
30
0
40
6.4000000000000012
100
AcDbArc
50
274.67969045604104
51
277.32030954395873
0
SPLINE
5
152
100
AcDbEntity
8
0
100
AcDbSpline
70
1064
71
3
72
16
73
12
74
0
42
0.000000001
43
0.0000000001
44
0.0000000001
40
-0.081317789199457452
40
-0.081317789199457452
40
-0.081317789199457452
40
-0.081317789199457452
40
-0.071773010422230568
40
-0.062355361893254538
40
-0.053064856453115011
40
-0.043901513976939616
40
-0.034865367674830623
40
-0.025956479512421325
40
-0.01717498720130857
40
-0.008521316706506089
40
-0
40
-0
40
-0
40
-0
10
0.81546365349690597
20
-6.3478357752721912
30
0
10
0.82655514964207255
20
-6.3180127793635794
30
0
10
0.84859041041433547
20
-6.2587640104639259
30
0
10
0.8777169910242667
20
-6.1691765377124899
30
0
10
0.9035157951135887
20
-6.0799085333677274
30
0
10
0.92558506918876793
20
-5.9909454438610652
30
0
10
0.9437435150111908
20
-5.9024052440931563
30
0
10
0.95777939622457497
20
-5.8143791621826395
30
0
10
0.96683078638752495
20
-5.7270330466474304
30
0
10
0.97157689365198696
20
-5.6404602529396408
30
0
10
0.96711382542852109
20
-5.5833246205744258
30
0
10
0.96489948795221714
20
-5.5549769535337568
30
0
0
LINE
5
153
100
AcDbEntity
8
0
100
AcDbLine
10
0.96489948795221703
20
-5.5549769535337568
30
0
11
0.93660879168334743
21
-5.3884053866929378
31
0
0
ARC
5
154
100
AcDbEntity
8
0
100
AcDbCircle
10
0
20
0
30
0
40
5.4692000000000007
100
AcDbArc
50
279.86059281177381
51
284.13940718822613
0
LINE
5
155
100
AcDbEntity
8
0
100
AcDbLine
10
1.3360272112845941
20
-5.3035063807548237
30
0
11
1.3779331341433338
21
-5.4671839418453407
31
0
0
SPLINE
5
156
100
AcDbEntity
8
0
100
AcDbSpline
70
1064
71
3
72
16
73
12
74
0
42
0.000000001
43
0.0000000001
44
0.0000000001
40
0
40
0
40
0
40
0
40
0.008521316706506089
40
0.01717498720130857
40
0.025956479512421325
40
0.034865367674830623
40
0.043901513976939616
40
0.053064856453115011
40
0.062355361893254538
40
0.071773010422230568
40
0.081317789199457452
40
0.081317789199457452
40
0.081317789199457452
40
0.081317789199457452
10
1.3779331341433338
20
-5.4671839418453407
30
0
10
1.3874402711313216
20
-5.4939814764968586
30
0
10
1.4066022107368656
20
-5.5479927673006681
30
0
10
1.4461503229641994
20
-5.625150534011425
30
0
10
1.4899460451514146
20
-5.7012636490512927
30
0
10
1.5385718937373123
20
-5.7759705691273791
30
0
10
1.5911730030670959
20
-5.8494703611468335
30
0
10
1.6475188365355375
20
-5.9217658050110389
30
0
10
1.7073957852452133
20
-5.9928228659223564
30
0
10
1.7704427485866414
20
-6.0628182470945529
30
0
10
1.8146716063417307
20
-6.1079821427979342
30
0
10
1.8369342975059402
20
-6.1307154873347685
30
0
0
ARC
5
157
100
AcDbEntity
8
0
100
AcDbCircle
10
0
20
0
30
0
40
6.4000000000000021
100
AcDbArc
50
286.67969045604104
51
289.32030954395879
0
SPLINE
5
158
100
AcDbEntity
8
0
100
AcDbSpline
70
1064
71
3
72
16
73
12
74
0
42
0.000000001
43
0.0000000001
44
0.0000000001
40
-0.081317789199457452
40
-0.081317789199457452
40
-0.081317789199457452
40
-0.081317789199457452
40
-0.071773010422230568
40
-0.062355361893254538
40
-0.053064856453115011
40
-0.043901513976939616
40
-0.034865367674830623
40
-0.025956479512421325
40
-0.01717498720130857
40
-0.008521316706506089
40
-0
40
-0
40
-0
40
-0
10
2.117433085223928
20
-6.0395759064357417
30
0
10
2.1220816560622602
20
-6.0080985628237986
30
0
10
2.1313168817973955
20
-5.9455631333533994
30
0
10
2.1411806938027382
20
-5.851877605203426
30
0
10
2.1478558704052637
20
-5.7591964479520152
30
0
10
2.1509464115321348
20
-5.6675889553091157
30
0
10
2.1502995091073047
20
-5.5772082181640812
30
0
10
2.1457270211142827
20
-5.4881874935461186
30
0
10
2.1364203381181892
20
-5.4008682103689072
30
0
10
2.1230632356331443
20
-5.3152004687286523
30
0
10
2.1068185302274562
20
-5.2602413110747843
30
0
10
2.0987587699526298
20
-5.2329734952212927
30
0
0
LINE
5
159
100
AcDbEntity
8
0
100
AcDbLine
10
2.0987587699526302
20
-5.2329734952212927
30
0
11
2.0364541171701083
21
-5.0759238832611464
31
0
0
ARC
5
160
100
AcDbEntity
8
0
100
AcDbCircle
10
0
20
0
30
0
40
5.4692000000000007
100
AcDbArc
50
291.86059281177387
51
296.13940718822613
0
LINE
5
161
100
AcDbEntity
8
0
100
AcDbLine
10
2.4094927901186147
20
-4.9098363653350425
30
0
11
2.484513446494681
21
-5.0612244477328545
31
0
0
SPLINE
5
162
100
AcDbEntity
8
0
100
AcDbSpline
70
1064
71
3
72
16
73
12
74
0
42
0.000000001
43
0.0000000001
44
0.0000000001
40
0
40
0
40
0
40
0
40
0.008521316706506089
40
0.01717498720130857
40
0.025956479512421325
40
0.034865367674830623
40
0.043901513976939616
40
0.053064856453115011
40
0.062355361893254538
40
0.071773010422230568
40
0.081317789199457452
40
0.081317789199457452
40
0.081317789199457452
40
0.081317789199457452
10
2.484513446494681
20
-5.0612244477328545
30
0
10
2.4993843504684734
20
-5.0854597470318108
30
0
10
2.5293571345133121
20
-5.1343067702813556
30
0
10
2.5840830273385857
20
-5.2015559397856261
30
0
10
2.6427465143597599
20
-5.2669001579957193
30
0
10
2.7058422135565072
20
-5.3298646702294139
30
0
10
2.7725753284768908
20
-5.3908219298680322
30
0
10
2.8427209382676204
20
-5.4498225873208304
30
0
10
2.9160630256658631
20
-5.5068777633191939
30
0
10
2.992285119640778
20
-5.5622353767259831
30
0
10
3.0449375726567225
20
-5.5972166363492404
30
0
10
3.0714402987054674
20
-5.6148245290024956
30
0
0
ARC
5
163
100
AcDbEntity
8
0
100
AcDbCircle
10
0
20
0
30
0
40
6.4000000000000021
100
AcDbArc
50
298.67969045604099
51
301.32030954395879
0
SPLINE
5
164
100
AcDbEntity
8
0
100
AcDbSpline
70
1064
71
3
72
16
73
12
74
0
42
0.000000001
43
0.0000000001
44
0.0000000001
40
-0.081317789199457452
40
-0.081317789199457452
40
-0.081317789199457452
40
-0.081317789199457452
40
-0.071773010422230568
40
-0.062355361893254538
40
-0.053064856453115011
40
-0.043901513976939616
40
-0.034865367674830623
40
-0.025956479512421325
40
-0.01717498720130857
40
-0.008521316706506089
40
-0
40
-0
40
-0
40
-0
10
3.3268605305554195
20
-5.4673575893874489
30
0
10
3.3248630112349646
20
-5.4356016090330694
30
0
10
3.3208945782528172
20
-5.3725126173380655
30
0
10
3.311064525737117
20
-5.2788235409227502
30
0
10
3.2983243376042641
20
-5.1867798420701119
30
0
10
3.2823010743055212
20
-5.0965316333009891
30
0
10
3.2628770963735851
20
-5.0082604306869616
30
0
10
3.2398960788406845
20
-4.9221356961961904
30
0
10
3.2126380693908967
20
-4.8386595170562279
30
0
10
3.1817615266294301
20
-4.7576409188726219
30
0
10
3.154445155618494
20
-4.7072602148428739
30
0
10
3.1408922227441756
20
-4.6822639845748526
30
0
0
LINE
5
165
100
AcDbEntity
8
0
100
AcDbLine
10
3.1408922227441751
20
-4.6822639845748526
30
0
11
3.0472966257454925
21
-4.5416001491456894
31
0
0
ARC
5
166
100
AcDbEntity
8
0
100
AcDbCircle
10
0
20
0
30
0
40
5.4692000000000007
100
AcDbArc
50
303.86059281177387
51
308.13940718822613
0
LINE
5
167
100
AcDbEntity
8
0
100
AcDbLine
10
3.3776519719952587
20
-4.3015829407412989
30
0
11
3.4825085992159681
21
-4.4340651588050051
31
0
0
SPLINE
5
168
100
AcDbEntity
8
0
100
AcDbSpline
70
1064
71
3
72
16
73
12
74
0
42
0.000000001
43
0.0000000001
44
0.0000000001
40
0
40
0
40
0
40
0
40
0.008521316706506089
40
0.01717498720130857
40
0.025956479512421325
40
0.034865367674830623
40
0.043901513976939616
40
0.053064856453115011
40
0.062355361893254538
40
0.071773010422230568
40
0.081317789199457452
40
0.081317789199457452
40
0.081317789199457452
40
0.081317789199457452
10
3.4825085992159681
20
-4.4340651588050051
30
0
10
3.5020933403133969
20
-4.4546790238781639
30
0
10
3.5415670143093951
20
-4.4962269302634175
30
0
10
3.6090789036121751
20
-4.5506283911565459
30
0
10
3.6800462795858406
20
-4.6023478566447373
30
0
10
3.7548542445717836
20
-4.6508181097141748
30
0
10
3.832802807739732
20
-4.6965687122203645
30
0
10
3.9136824941089152
20
-4.7396959714145046
30
0
10
3.99728431904204
20
-4.7802556775276752
30
0
10
4.0833502723895512
20
-4.8185561298278818
30
0
10
4.1421251558150534
20
-4.8418259044667691
30
0
10
4.1717096204458146
20
-4.8535387958354539
30
0
0
ARC
5
169
100
AcDbEntity
8
0
100
AcDbCircle
10
0
20
0
30
0
40
6.4000000000000021
100
AcDbArc
50
310.67969045604099
51
313.32030954395879
0
SPLINE
5
170
100
AcDbEntity
8
0
100
AcDbSpline
70
1064
71
3
72
16
73
12
74
0
42
0.000000001
43
0.0000000001
44
0.0000000001
40
-0.081317789199457452
40
-0.081317789199457452
40
-0.081317789199457452
40
-0.081317789199457452
40
-0.071773010422230568
40
-0.062355361893254538
40
-0.053064856453115011
40
-0.043901513976939616
40
-0.034865367674830623
40
-0.025956479512421325
40
-0.01717498720130857
40
-0.008521316706506089
40
-0
40
-0
40
-0
40
-0
10
4.3908882066536323
20
-4.6561895103904511
30
0
10
4.3823318983538559
20
-4.6255427820172219
30
0
10
4.3653332462184
20
-4.5646575197692547
30
0
10
4.3362389496464164
20
-4.4750595572980139
30
0
10
4.304640204133797
20
-4.3876760681586786
30
0
10
4.2702034299037432
20
-4.3027314230454969
30
0
10
4.2328512975069144
20
-4.2204276300889347
30
0
10
4.1924661311754789
20
-4.140962949894929
30
0
10
4.1484481010833942
20
-4.0649781843837811
30
0
10
4.1014015711262726
20
-3.9921496311678135
30
0
10
4.064207391001756
20
-3.948549259281724
30
0
10
4.0457536137287411
20
-3.926917069807109
30
0
0
LINE
5
171
100
AcDbEntity
8
0
100
AcDbLine
10
4.0457536137287411
20
-3.9269170698071081
30
0
11
3.9249576492242433
21
-3.8087866954971519
31
0
0
ARC
5
172
100
AcDbEntity
8
0
100
AcDbCircle
10
0
20
0
30
0
40
5.4692000000000007
100
AcDbArc
50
315.86059281177387
51
320.13940718822607
0
LINE
5
173
100
AcDbEntity
8
0
100
AcDbLine
10
4.1981915549233202
20
-3.5053297003520978
30
0
11
4.3283014152212127
21
-3.6131159454320971
31
0
0
SPLINE
5
174
100
AcDbEntity
8
0
100
AcDbSpline
70
1064
71
3
72
16
73
12
74
0
42
0.000000001
43
0.0000000001
44
0.0000000001
40
0
40
0
40
0
40
0
40
0.008521316706506089
40
0.01717498720130857
40
0.025956479512421325
40
0.034865367674830623
40
0.043901513976939616
40
0.053064856453115011
40
0.062355361893254538
40
0.071773010422230568
40
0.081317789199457452
40
0.081317789199457452
40
0.081317789199457452
40
0.081317789199457452
10
4.3283014152212127
20
-3.6131159454320971
30
0
10
4.3517440462783039
20
-3.6292074514594637
30
0
10
4.3989934212561348
20
-3.6616403981024153
30
0
10
4.4763407135159019
20
-3.7008165454962008
30
0
10
4.5565103635727571
20
-3.7366508694431255
30
0
10
4.6397611273095665
20
-3.7685084807030926
30
0
10
4.7255184124759362
20
-3.7970529052115856
30
0
10
4.8135973450254452
20
-3.8224218979727302
30
0
10
4.903805106577809
20
-3.8447134804165
30
0
10
4.9959534241463652
20
-3.8642828580586435
30
0
10
5.0582819935425496
20
-3.874824146900675
30
0
10
5.0896552136889506
20
-3.8801301274272899
30
0
0
ARC
5
175
100
AcDbEntity
8
0
100
AcDbCircle
10
0
20
0
30
0
40
6.4000000000000021
100
AcDbArc
50
322.67969045604104
51
325.32030954395884
0
SPLINE
5
176
100
AcDbEntity
8
0
100
AcDbSpline
70
1064
71
3
72
16
73
12
74
0
42
0.000000001
43
0.0000000001
44
0.0000000001
40
-0.081317789199457452
40
-0.081317789199457452
40
-0.081317789199457452
40
-0.081317789199457452
40
-0.071773010422230568
40
-0.062355361893254538
40
-0.053064856453115011
40
-0.043901513976939616
40
-0.034865367674830623
40
-0.025956479512421325
40
-0.01717498720130857
40
-0.008521316706506089
40
-0
40
-0
40
-0
40
-0
10
5.2630129983018081
20
-3.6415236069132169
30
0
10
5.2482718527531311
20
-3.6133255396103658
30
0
10
5.2189859041312694
20
-3.5573049849295741
30
0
10
5.1718989238731252
20
-3.475713997301126
30
0
10
5.1228226377872428
20
-3.3968097956629855
30
0
10
5.0714774049057088
20
-3.3208812028068238
30
0
10
5.0178295854651447
20
-3.2481418901973429
30
0
10
4.9618052958933871
20
-3.1788102521384221
30
0
10
4.9029510442959721
20
-3.1136377991242847
30
0
10
4.8417906862566191
20
-3.0521822481216647
30
0
10
4.7963442611674436
20
-3.0172677538484534
30
0
10
4.773796158113611
20
-2.9999450356500468
30
0
0
LINE
5
177
100
AcDbEntity
8
0
100
AcDbLine
10
4.7737961581136101
20
-2.9999450356500468
30
0
11
4.6310791893954919
21
-2.9095109866690678
31
0
0
ARC
5
178
100
AcDbEntity
8
0
100
AcDbCircle
10
0
20
0
30
0
40
5.4692000000000007
100
AcDbArc
50
327.86059281177393
51
332.13940718822607
0
LINE
5
179
100
AcDbEntity
8
0
100
AcDbLine
10
4.8352500217430823
20
-2.5558767316194118
30
0
11
4.9849266898867581
21
-2.6342562275899195
31
0
0
SPLINE
5
180
100
AcDbEntity
8
0
100
AcDbSpline
70
1064
71
3
72
16
73
12
74
0
42
0.000000001
43
0.0000000001
44
0.0000000001
40
0
40
0
40
0
40
0
40
0.008521316706506089
40
0.01717498720130857
40
0.025956479512421325
40
0.034865367674830623
40
0.043901513976939616
40
0.053064856453115011
40
0.062355361893254538
40
0.071773010422230568
40
0.081317789199457452
40
0.081317789199457452
40
0.081317789199457452
40
0.081317789199457452
10
4.9849266898867581
20
-2.6342562275899195
30
0
10
5.0112026554360938
20
-2.645122098542485
30
0
10
5.0641627069815689
20
-2.6670226100442922
30
0
10
5.1479649543730837
20
-2.6892612583096138
30
0
10
5.2338330801089832
20
-2.7076443088066271
30
0
10
5.3218881847398745
20
-2.7214969477752851
30
0
10
5.4117061870337846
20
-2.7315876659637133
30
0
10
5.5031348937615929
20
-2.7380896455742687
30
0
10
5.5960060798884932
20
-2.7411388552289653
30
0
10
5.690209438023663
20
-2.7411218825057904
30
0
10
5.7533676358222561
20
-2.7384739806458533
30
0
10
5.7851584512184857
20
-2.7371411535204659
30
0
0
ARC
5
181
100
AcDbEntity
8
0
100
AcDbCircle
10
0
20
0
30
0
40
6.4000000000000012
100
AcDbArc
50
334.67969045604099
51
337.32030954395873
0
SPLINE
5
182
100
AcDbEntity
8
0
100
AcDbSpline
70
1064
71
3
72
16
73
12
74
0
42
0.000000001
43
0.0000000001
44
0.0000000001
40
-0.081317789199457452
40
-0.081317789199457452
40
-0.081317789199457452
40
-0.081317789199457452
40
-0.071773010422230568
40
-0.062355361893254538
40
-0.053064856453115011
40
-0.043901513976939616
40
-0.034865367674830623
40
-0.025956479512421325
40
-0.01717498720130857
40
-0.008521316706506089
40
-0
40
-0
40
-0
40
-0
10
5.9051188671858572
20
-2.4677056478449035
30
0
10
5.8848371431846234
20
-2.4431886324629062
30
0
10
5.844543834560703
20
-2.3944811524052851
30
0
10
5.7815220976020765
20
-2.3244630572959908
30
0
10
5.7171131401390349
20
-2.2574866353949994
30
0
10
5.6511034816647054
20
-2.1938925386494814
30
0
10
5.5835046423207588
20
-2.1338967633900654
30
0
10
5.5142897597973324
20
-2.0777282927395153
30
0
10
5.4431714999034275
20
-2.0262165011512319
30
0
10
5.3705703149081216
20
-1.9788198548372271
30
0
10
5.3188578717068253
20
-1.9541171691149648
30
0
10
5.2932009031734308
20
-1.9418610081016601
30
0
0
LINE
5
183
100
AcDbEntity
8
0
100
AcDbLine
10
5.2932009031734308
20
-1.9418610081016601
30
0
11
5.134800346606669
21
-1.8830756863408422
31
0
0
ARC
5
184
100
AcDbEntity
8
0
100
AcDbCircle
10
0
20
0
30
0
40
5.4692000000000007
100
AcDbArc
50
339.86059281177387
51
344.13940718822613
0
LINE
5
185
100
AcDbEntity
8
0
100
AcDbLine
10
5.2609848605088407
20
-1.4947196852576705
30
0
11
5.4236867478720763
21
-1.5402668720382349
31
0
0
SPLINE
5
186
100
AcDbEntity
8
0
100
AcDbSpline
70
1064
71
3
72
16
73
12
74
0
42
0.000000001
43
0.0000000001
44
0.0000000001
40
0
40
0
40
0
40
0
40
0.008521316706506089
40
0.01717498720130857
40
0.025956479512421325
40
0.034865367674830623
40
0.043901513976939616
40
0.053064856453115011
40
0.062355361893254538
40
0.071773010422230568
40
0.081317789199457452
40
0.081317789199457452
40
0.081317789199457452
40
0.081317789199457452
10
5.4236867478720763
20
-1.5402668720382349
30
0
10
5.4516476621330785
20
-1.5454322172151378
30
0
10
5.5080037818631391
20
-1.5558431361328584
30
0
10
5.5945984240475948
20
-1.5601723496276476
30
0
10
5.6824121763268938
20
-1.560300699156367
30
0
10
5.7714231912442271
20
-1.5555429390384474
30
0
10
5.8613764329708395
20
-1.5467389381013399
30
0
10
5.9521590406693345
20
-1.5340897368523647
30
0
10
6.0436347348916311
20
-1.5177633086243458
30
0
10
6.1357759948050417
20
-1.4981607273253008
30
0
10
6.1970035046955871
20
-1.4824393607807167
30
0
10
6.2278225041595734
20
-1.4745259769443206
30
0
0
ARC
5
187
100
AcDbEntity
8
0
100
AcDbCircle
10
0
20
0
30
0
40
6.4000000000000039
100
AcDbArc
50
346.67969045604104
51
349.32030954395879
0
SPLINE
5
188
100
AcDbEntity
8
0
100
AcDbSpline
70
1064
71
3
72
16
73
12
74
0
42
0.000000001
43
0.0000000001
44
0.0000000001
40
-0.081317789199457452
40
-0.081317789199457452
40
-0.081317789199457452
40
-0.081317789199457452
40
-0.071773010422230568
40
-0.062355361893254538
40
-0.053064856453115011
40
-0.043901513976939616
40
-0.034865367674830623
40
-0.025956479512421325
40
-0.01717498720130857
40
-0.008521316706506089
40
-0
40
-0
40
-0
40
-0
10
6.2891427056697422
20
-1.1860371106002916
30
0
10
6.2642068118773144
20
-1.1662726583570326
30
0
10
6.214667154186948
20
-1.1270070035255229
30
0
10
6.1384650128447795
20
-1.0716219276757544
30
0
10
6.0615383645141794
20
-1.0195004765375146
30
0
10
5.9837492192718678
20
-0.97102024308875357
30
0
10
5.9051537536790892
20
-0.92639010844990921
30
0
10
5.8257733007001233
20
-0.88583963690138456
30
0
10
5.7454992417303652
20
-0.85023981921236413
30
0
10
5.6646302499425403
20
-0.81897353846523835
30
0
10
5.6089118705408536
20
-0.80556228719662482
30
0
10
5.5812673691685983
20
-0.79890833641629022
30
0
0
LINE
5
189
100
AcDbEntity
8
0
100
AcDbLine
10
5.5812673691685983
20
-0.79890833641629022
30
0
11
5.4141060891653652
21
-0.77434094251985042
31
0
0
ARC
5
190
100
AcDbEntity
8
0
100
AcDbCircle
10
0
20
0
30
0
40
5.4692000000000007
100
AcDbArc
50
351.86059281177393
51
356.13940718822624
0
LINE
5
191
100
AcDbEntity
8
0
100
AcDbLine
10
5.4567894158641099
20
-0.3682362161893537
30
0
11
5.6254056692388588
21
-0.37896046315800352
31
0
0
SPLINE
5
192
100
AcDbEntity
8
0
100
AcDbSpline
70
1064
71
3
72
16
73
12
74
0
42
0.000000001
43
0.0000000001
44
0.0000000001
40
0
40
0
40
0
40
0
40
0.008521316706506089
40
0.01717498720130857
40
0.025956479512421325
40
0.034865367674830623
40
0.043901513976939616
40
0.053064856453115011
40
0.062355361893254538
40
0.071773010422230568
40
0.081317789199457452
40
0.081317789199457452
40
0.081317789199457452
40
0.081317789199457452
10
5.6254056692388588
20
-0.37896046315800352
30
0
10
5.6538295060869697
20
-0.37819953218893776
30
0
10
5.7111186611427449
20
-0.37666585140873554
30
0
10
5.7967210967294847
20
-0.36289642272939898
30
0
10
5.8826425932004467
20
-0.34476446179952991
30
0
10
5.968719309930095
20
-0.32160423954245237
30
0
10
6.0548764027824138
20
-0.2942902965670437
30
0
10
6.1410452758718872
20
-0.26304274525072047
30
0
10
6.2271275514029822
20
-0.22805422239644504
30
0
10
6.3131796978935988
20
-0.18972275938791877
30
0
10
6.3698005838916902
20
-0.16161502731617283
30
0
10
6.3983008292608901
20
-0.14746693961504709
30
0
0
ARC
5
193
100
AcDbEntity
8
0
100
AcDbCircle
10
0
20
0
30
0
40
6.4000000000000004
100
AcDbArc
50
-1.3203095439586083
51
1.3203095439586148
0
SPLINE
5
194
100
AcDbEntity
8
0
100
AcDbSpline
70
1064
71
3
72
16
73
12
74
0
42
0.000000001
43
0.0000000001
44
0.0000000001
40
-0.081317789199457452
40
-0.081317789199457452
40
-0.081317789199457452
40
-0.081317789199457452
40
-0.071773010422230568
40
-0.062355361893254538
40
-0.053064856453115011
40
-0.043901513976939616
40
-0.034865367674830623
40
-0.025956479512421325
40
-0.01717498720130857
40
-0.008521316706506089
40
-0
40
-0
40
-0
40
-0
10
6.3983008292608901
20
0.14746693961504553
30
0
10
6.3698005838916902
20
0.16161502731617128
30
0
10
6.3131796978935988
20
0.18972275938791724
30
0
10
6.2271275514029822
20
0.22805422239644352
30
0
10
6.1410452758718872
20
0.26304274525071891
30
0
10
6.0548764027824138
20
0.29429029656704225
30
0
10
5.968719309930095
20
0.32160423954245088
30
0
10
5.8826425932004467
20
0.34476446179952852
30
0
10
5.7967210967294847
20
0.36289642272939759
30
0
10
5.7111186611427449
20
0.3766658514087341
30
0
10
5.6538295060869697
20
0.37819953218893637
30
0
10
5.6254056692388588
20
0.37896046315800214
30
0
0
LINE
5
195
100
AcDbEntity
8
0
100
AcDbLine
10
5.6254056692388579
20
0.37896046315800214
30
0
11
5.4567894158641073
21
0.3682362161893537
31
0
0
ARC
5
196
100
AcDbEntity
8
0
100
AcDbCircle
10
0
20
0
30
0
40
5.4691999999999998
100
AcDbArc
50
3.8605928117738229
51
8.1394071882260839
0
LINE
5
197
100
AcDbEntity
8
0
100
AcDbLine
10
5.4141060891653661
20
0.77434094251984564
30
0
11
5.5812673691686001
21
0.79890833641628611
31
0
0
SPLINE
5
198
100
AcDbEntity
8
0
100
AcDbSpline
70
1064
71
3
72
16
73
12
74
0
42
0.000000001
43
0.0000000001
44
0.0000000001
40
0
40
0
40
0
40
0
40
0.008521316706506089
40
0.01717498720130857
40
0.025956479512421325
40
0.034865367674830623
40
0.043901513976939616
40
0.053064856453115011
40
0.062355361893254538
40
0.071773010422230568
40
0.081317789199457452
40
0.081317789199457452
40
0.081317789199457452
40
0.081317789199457452
10
5.5812673691686001
20
0.79890833641628611
30
0
10
5.6089118705408536
20
0.8055622871966206
30
0
10
5.6646302499425403
20
0.81897353846523391
30
0
10
5.7454992417303652
20
0.85023981921235958
30
0
10
5.8257733007001242
20
0.88583963690138001
30
0
10
5.9051537536790901
20
0.92639010844990466
30
0
10
5.9837492192718686
20
0.97102024308874912
30
0
10
6.0615383645141812
20
1.0195004765375102
30
0
10
6.1384650128447795
20
1.0716219276757499
30
0
10
6.2146671541869489
20
1.127007003525518
30
0
10
6.2642068118773153
20
1.166272658357028
30
0
10
6.2891427056697431
20
1.1860371106002867
30
0
0
ARC
5
199
100
AcDbEntity
8
0
100
AcDbCircle
10
0
20
0
30
0
40
6.4000000000000012
100
AcDbArc
50
10.679690456040989
51
13.320309543958778
0
SPLINE
5
200
100
AcDbEntity
8
0
100
AcDbSpline
70
1064
71
3
72
16
73
12
74
0
42
0.000000001
43
0.0000000001
44
0.0000000001
40
-0.081317789199457452
40
-0.081317789199457452
40
-0.081317789199457452
40
-0.081317789199457452
40
-0.071773010422230568
40
-0.062355361893254538
40
-0.053064856453115011
40
-0.043901513976939616
40
-0.034865367674830623
40
-0.025956479512421325
40
-0.01717498720130857
40
-0.008521316706506089
40
-0
40
-0
40
-0
40
-0
10
6.2278225041595743
20
1.474525976944316
30
0
10
6.1970035046955889
20
1.482439360780712
30
0
10
6.1357759948050425
20
1.4981607273252961
30
0
10
6.0436347348916311
20
1.5177633086243414
30
0
10
5.9521590406693363
20
1.5340897368523603
30
0
10
5.8613764329708404
20
1.5467389381013354
30
0
10
5.771423191244228
20
1.5555429390384432
30
0
10
5.6824121763268955
20
1.5603006991563628
30
0
10
5.5945984240475948
20
1.5601723496276432
30
0
10
5.5080037818631391
20
1.5558431361328542
30
0
10
5.4516476621330785
20
1.5454322172151336
30
0
10
5.4236867478720772
20
1.5402668720382306
30
0
0
LINE
5
201
100
AcDbEntity
8
0
100
AcDbLine
10
5.4236867478720789
20
1.5402668720382306
30
0
11
5.2609848605088407
21
1.4947196852576703
31
0
0
ARC
5
202
100
AcDbEntity
8
0
100
AcDbCircle
10
0
20
0
30
0
40
5.4692000000000007
100
AcDbArc
50
15.86059281177385
51
20.13940718822607
0
LINE
5
203
100
AcDbEntity
8
0
100
AcDbLine
10
5.1348003466066725
20
1.8830756863408378
30
0
11
5.2932009031734326
21
1.941861008101657
31
0
0
SPLINE
5
204
100
AcDbEntity
8
0
100
AcDbSpline
70
1064
71
3
72
16
73
12
74
0
42
0.000000001
43
0.0000000001
44
0.0000000001
40
0
40
0
40
0
40
0
40
0.008521316706506089
40
0.01717498720130857
40
0.025956479512421325
40
0.034865367674830623
40
0.043901513976939616
40
0.053064856453115011
40
0.062355361893254538
40
0.071773010422230568
40
0.081317789199457452
40
0.081317789199457452
40
0.081317789199457452
40
0.081317789199457452
10
5.2932009031734326
20
1.941861008101657
30
0
10
5.318857871706828
20
1.9541171691149608
30
0
10
5.3705703149081252
20
1.9788198548372236
30
0
10
5.4431714999034311
20
2.0262165011512283
30
0
10
5.514289759797335
20
2.0777282927395118
30
0
10
5.5835046423207615
20
2.1338967633900614
30
0
10
5.6511034816647072
20
2.1938925386494774
30
0
10
5.7171131401390385
20
2.2574866353949954
30
0
10
5.78152209760208
20
2.3244630572959872
30
0
10
5.8445438345607057
20
2.3944811524052816
30
0
10
5.884837143184626
20
2.4431886324629022
30
0
10
5.9051188671858599
20
2.4677056478448995
30
0
0
ARC
5
205
100
AcDbEntity
8
0
100
AcDbCircle
10
0
20
0
30
0
40
6.4000000000000039
100
AcDbArc
50
22.679690456040987
51
25.320309543958778
0
SPLINE
5
206
100
AcDbEntity
8
0
100
AcDbSpline
70
1064
71
3
72
16
73
12
74
0
42
0.000000001
43
0.0000000001
44
0.0000000001
40
-0.081317789199457452
40
-0.081317789199457452
40
-0.081317789199457452
40
-0.081317789199457452
40
-0.071773010422230568
40
-0.062355361893254538
40
-0.053064856453115011
40
-0.043901513976939616
40
-0.034865367674830623
40
-0.025956479512421325
40
-0.01717498720130857
40
-0.008521316706506089
40
-0
40
-0
40
-0
40
-0
10
5.7851584512184893
20
2.7371411535204619
30
0
10
5.7533676358222587
20
2.7384739806458498
30
0
10
5.6902094380236665
20
2.7411218825057873
30
0
10
5.5960060798884967
20
2.7411388552289617
30
0
10
5.5031348937615965
20
2.7380896455742656
30
0
10
5.4117061870337864
20
2.7315876659637093
30
0
10
5.3218881847398771
20
2.7214969477752811
30
0
10
5.233833080108985
20
2.707644308806624
30
0
10
5.1479649543730863
20
2.6892612583096103
30
0
10
5.0641627069815716
20
2.6670226100442891
30
0
10
5.0112026554360956
20
2.645122098542481
30
0
10
4.9849266898867608
20
2.6342562275899164
30
0
0
LINE
5
207
100
AcDbEntity
8
0
100
AcDbLine
10
4.9849266898867608
20
2.6342562275899164
30
0
11
4.8352500217430867
21
2.5558767316194055
31
0
0
ARC
5
208
100
AcDbEntity
8
0
100
AcDbCircle
10
0
20
0
30
0
40
5.4692000000000007
100
AcDbArc
50
27.860592811773856
51
32.139407188226123
0
LINE
5
209
100
AcDbEntity
8
0
100
AcDbLine
10
4.631079189395491
20
2.9095109866690683
30
0
11
4.773796158113611
21
2.9999450356500446
31
0
0
SPLINE
5
210
100
AcDbEntity
8
0
100
AcDbSpline
70
1064
71
3
72
16
73
12
74
0
42
0.000000001
43
0.0000000001
44
0.0000000001
40
0
40
0
40
0
40
0
40
0.008521316706506089
40
0.01717498720130857
40
0.025956479512421325
40
0.034865367674830623
40
0.043901513976939616
40
0.053064856453115011
40
0.062355361893254538
40
0.071773010422230568
40
0.081317789199457452
40
0.081317789199457452
40
0.081317789199457452
40
0.081317789199457452
10
4.773796158113611
20
2.9999450356500446
30
0
10
4.7963442611674436
20
3.0172677538484516
30
0
10
4.8417906862566191
20
3.0521822481216629
30
0
10
4.9029510442959721
20
3.1136377991242825
30
0
10
4.9618052958933871
20
3.1788102521384198
30
0
10
5.0178295854651447
20
3.2481418901973407
30
0
10
5.0714774049057088
20
3.3208812028068211
30
0
10
5.1228226377872428
20
3.3968097956629832
30
0
10
5.1718989238731252
20
3.4757139973011242
30
0
10
5.2189859041312694
20
3.5573049849295719
30
0
10
5.2482718527531311
20
3.6133255396103641
30
0
10
5.2630129983018081
20
3.6415236069132146
30
0
0
ARC
5
211
100
AcDbEntity
8
0
100
AcDbCircle
10
0
20
0
30
0
40
6.4000000000000012
100
AcDbArc
50
34.679690456041008
51
37.320309543958771
0
SPLINE
5
212
100
AcDbEntity
8
0
100
AcDbSpline
70
1064
71
3
72
16
73
12
74
0
42
0.000000001
43
0.0000000001
44
0.0000000001
40
-0.081317789199457452
40
-0.081317789199457452
40
-0.081317789199457452
40
-0.081317789199457452
40
-0.071773010422230568
40
-0.062355361893254538
40
-0.053064856453115011
40
-0.043901513976939616
40
-0.034865367674830623
40
-0.025956479512421325
40
-0.01717498720130857
40
-0.008521316706506089
40
-0
40
-0
40
-0
40
-0
10
5.0896552136889506
20
3.8801301274272877
30
0
10
5.0582819935425496
20
3.8748241469006732
30
0
10
4.9959534241463661
20
3.8642828580586412
30
0
10
4.903805106577809
20
3.8447134804164982
30
0
10
4.8135973450254452
20
3.822421897972728
30
0
10
4.7255184124759362
20
3.7970529052115829
30
0
10
4.6397611273095665
20
3.7685084807030904
30
0
10
4.5565103635727571
20
3.7366508694431233
30
0
10
4.4763407135159019
20
3.7008165454961981
30
0
10
4.3989934212561348
20
3.6616403981024135
30
0
10
4.3517440462783039
20
3.6292074514594619
30
0
10
4.3283014152212127
20
3.6131159454320958
30
0
0
LINE
5
213
100
AcDbEntity
8
0
100
AcDbLine
10
4.3283014152212127
20
3.6131159454320954
30
0
11
4.1981915549233211
21
3.5053297003520969
31
0
0
ARC
5
214
100
AcDbEntity
8
0
100
AcDbCircle
10
0
20
0
30
0
40
5.4692000000000007
100
AcDbArc
50
39.860592811773891
51
44.13940718822608
0
LINE
5
215
100
AcDbEntity
8
0
100
AcDbLine
10
3.9249576492242459
20
3.8087866954971488
30
0
11
4.0457536137287438
21
3.9269170698071072
31
0
0
SPLINE
5
216
100
AcDbEntity
8
0
100
AcDbSpline
70
1064
71
3
72
16
73
12
74
0
42
0.000000001
43
0.0000000001
44
0.0000000001
40
0
40
0
40
0
40
0
40
0.008521316706506089
40
0.01717498720130857
40
0.025956479512421325
40
0.034865367674830623
40
0.043901513976939616
40
0.053064856453115011
40
0.062355361893254538
40
0.071773010422230568
40
0.081317789199457452
40
0.081317789199457452
40
0.081317789199457452
40
0.081317789199457452
10
4.0457536137287438
20
3.9269170698071072
30
0
10
4.0642073910017587
20
3.9485492592817222
30
0
10
4.1014015711262743
20
3.9921496311678117
30
0
10
4.1484481010833969
20
4.0649781843837793
30
0
10
4.1924661311754816
20
4.1409629498949272
30
0
10
4.232851297506917
20
4.220427630088933
30
0
10
4.2702034299037459
20
4.3027314230454952
30
0
10
4.3046402041337997
20
4.3876760681586759
30
0
10
4.3362389496464191
20
4.4750595572980112
30
0
10
4.3653332462184027
20
4.564657519769252
30
0
10
4.3823318983538586
20
4.6255427820172192
30
0
10
4.390888206653635
20
4.6561895103904494
30
0
0
ARC
5
217
100
AcDbEntity
8
0
100
AcDbCircle
10
0
20
0
30
0
40
6.4000000000000021
100
AcDbArc
50
46.679690456041001
51
49.320309543958793
0
SPLINE
5
218
100
AcDbEntity
8
0
100
AcDbSpline
70
1064
71
3
72
16
73
12
74
0
42
0.000000001
43
0.0000000001
44
0.0000000001
40
-0.081317789199457452
40
-0.081317789199457452
40
-0.081317789199457452
40
-0.081317789199457452
40
-0.071773010422230568
40
-0.062355361893254538
40
-0.053064856453115011
40
-0.043901513976939616
40
-0.034865367674830623
40
-0.025956479512421325
40
-0.01717498720130857
40
-0.008521316706506089
40
-0
40
-0
40
-0
40
-0
10
4.1717096204458173
20
4.8535387958354512
30
0
10
4.142125155815056
20
4.8418259044667673
30
0
10
4.0833502723895538
20
4.8185561298278792
30
0
10
3.9972843190420426
20
4.7802556775276726
30
0
10
3.9136824941089183
20
4.7396959714145019
30
0
10
3.8328028077397347
20
4.6965687122203628
30
0
10
3.7548542445717863
20
4.650818109714173
30
0
10
3.6800462795858442
20
4.6023478566447356
30
0
10
3.6090789036121778
20
4.5506283911565442
30
0
10
3.5415670143093987
20
4.4962269302634166
30
0
10
3.5020933403133991
20
4.4546790238781622
30
0
10
3.4825085992159712
20
4.4340651588050033
30
0
0
LINE
5
219
100
AcDbEntity
8
0
100
AcDbLine
10
3.4825085992159703
20
4.4340651588050042
30
0
11
3.3776519719952578
21
4.3015829407412989
31
0
0
ARC
5
220
100
AcDbEntity
8
0
100
AcDbCircle
10
0
20
0
30
0
40
5.4692000000000007
100
AcDbArc
50
51.86059281177387
51
56.13940718822608
0
LINE
5
221
100
AcDbEntity
8
0
100
AcDbLine
10
3.0472966257454965
20
4.5416001491456868
30
0
11
3.1408922227441782
21
4.6822639845748508
31
0
0
SPLINE
5
222
100
AcDbEntity
8
0
100
AcDbSpline
70
1064
71
3
72
16
73
12
74
0
42
0.000000001
43
0.0000000001
44
0.0000000001
40
0
40
0
40
0
40
0
40
0.008521316706506089
40
0.01717498720130857
40
0.025956479512421325
40
0.034865367674830623
40
0.043901513976939616
40
0.053064856453115011
40
0.062355361893254538
40
0.071773010422230568
40
0.081317789199457452
40
0.081317789199457452
40
0.081317789199457452
40
0.081317789199457452
10
3.1408922227441782
20
4.6822639845748508
30
0
10
3.1544451556184958
20
4.7072602148428713
30
0
10
3.1817615266294332
20
4.7576409188726192
30
0
10
3.2126380693908994
20
4.8386595170562261
30
0
10
3.2398960788406872
20
4.9221356961961877
30
0
10
3.2628770963735887
20
5.0082604306869598
30
0
10
3.2823010743055248
20
5.0965316333009874
30
0
10
3.2983243376042677
20
5.1867798420701092
30
0
10
3.3110645257371201
20
5.2788235409227466
30
0
10
3.3208945782528208
20
5.3725126173380646
30
0
10
3.3248630112349686
20
5.4356016090330677
30
0
10
3.3268605305554235
20
5.4673575893874471
30
0
0
ARC
5
223
100
AcDbEntity
8
0
100
AcDbCircle
10
0
20
0
30
0
40
6.4000000000000021
100
AcDbArc
50
58.679690456041008
51
61.320309543958778
0
SPLINE
5
224
100
AcDbEntity
8
0
100
AcDbSpline
70
1064
71
3
72
16
73
12
74
0
42
0.000000001
43
0.0000000001
44
0.0000000001
40
-0.081317789199457452
40
-0.081317789199457452
40
-0.081317789199457452
40
-0.081317789199457452
40
-0.071773010422230568
40
-0.062355361893254538
40
-0.053064856453115011
40
-0.043901513976939616
40
-0.034865367674830623
40
-0.025956479512421325
40
-0.01717498720130857
40
-0.008521316706506089
40
-0
40
-0
40
-0
40
-0
10
3.071440298705471
20
5.6148245290024938
30
0
10
3.0449375726567265
20
5.5972166363492404
30
0
10
2.9922851196407816
20
5.5622353767259822
30
0
10
2.9160630256658666
20
5.5068777633191921
30
0
10
2.842720938267624
20
5.4498225873208286
30
0
10
2.7725753284768939
20
5.3908219298680304
30
0
10
2.7058422135565108
20
5.3298646702294121
30
0
10
2.6427465143597639
20
5.2669001579957175
30
0
10
2.5840830273385884
20
5.2015559397856244
30
0
10
2.5293571345133148
20
5.1343067702813538
30
0
10
2.4993843504684761
20
5.085459747031809
30
0
10
2.4845134464946836
20
5.0612244477328536
30
0
0
LINE
5
225
100
AcDbEntity
8
0
100
AcDbLine
10
2.4845134464946836
20
5.0612244477328536
30
0
11
2.4094927901186165
21
4.9098363653350416
31
0
0
ARC
5
226
100
AcDbEntity
8
0
100
AcDbCircle
10
0
20
0
30
0
40
5.4692000000000007
100
AcDbArc
50
63.860592811773856
51
68.13940718822613
0
LINE
5
227
100
AcDbEntity
8
0
100
AcDbLine
10
2.0364541171701078
20
5.0759238832611473
30
0
11
2.0987587699526302
21
5.2329734952212927
31
0
0
SPLINE
5
228
100
AcDbEntity
8
0
100
AcDbSpline
70
1064
71
3
72
16
73
12
74
0
42
0.000000001
43
0.0000000001
44
0.0000000001
40
0
40
0
40
0
40
0
40
0.008521316706506089
40
0.01717498720130857
40
0.025956479512421325
40
0.034865367674830623
40
0.043901513976939616
40
0.053064856453115011
40
0.062355361893254538
40
0.071773010422230568
40
0.081317789199457452
40
0.081317789199457452
40
0.081317789199457452
40
0.081317789199457452
10
2.0987587699526302
20
5.2329734952212927
30
0
10
2.1068185302274562
20
5.2602413110747843
30
0
10
2.1230632356331447
20
5.3152004687286523
30
0
10
2.1364203381181897
20
5.4008682103689072
30
0
10
2.1457270211142832
20
5.4881874935461186
30
0
10
2.1502995091073047
20
5.5772082181640812
30
0
10
2.1509464115321353
20
5.6675889553091157
30
0
10
2.1478558704052637
20
5.7591964479520144
30
0
10
2.1411806938027387
20
5.851877605203426
30
0
10
2.131316881797396
20
5.9455631333533994
30
0
10
2.1220816560622606
20
6.0080985628237986
30
0
10
2.117433085223928
20
6.0395759064357417
30
0
0
ARC
5
229
100
AcDbEntity
8
0
100
AcDbCircle
10
0
20
0
30
0
40
6.4000000000000021
100
AcDbArc
50
70.679690456041016
51
73.320309543958786
0
SPLINE
5
230
100
AcDbEntity
8
0
100
AcDbSpline
70
1064
71
3
72
16
73
12
74
0
42
0.000000001
43
0.0000000001
44
0.0000000001
40
-0.081317789199457452
40
-0.081317789199457452
40
-0.081317789199457452
40
-0.081317789199457452
40
-0.071773010422230568
40
-0.062355361893254538
40
-0.053064856453115011
40
-0.043901513976939616
40
-0.034865367674830623
40
-0.025956479512421325
40
-0.01717498720130857
40
-0.008521316706506089
40
-0
40
-0
40
-0
40
-0
10
1.8369342975059406
20
6.1307154873347685
30
0
10
1.8146716063417312
20
6.1079821427979342
30
0
10
1.7704427485866421
20
6.0628182470945529
30
0
10
1.7073957852452135
20
5.9928228659223564
30
0
10
1.6475188365355378
20
5.9217658050110398
30
0
10
1.5911730030670963
20
5.8494703611468335
30
0
10
1.5385718937373125
20
5.7759705691273791
30
0
10
1.4899460451514153
20
5.7012636490512927
30
0
10
1.4461503229641997
20
5.625150534011425
30
0
10
1.4066022107368659
20
5.5479927673006681
30
0
10
1.3874402711313218
20
5.4939814764968586
30
0
10
1.3779331341433341
20
5.4671839418453407
30
0
0
LINE
5
231
100
AcDbEntity
8
0
100
AcDbLine
10
1.3779331341433341
20
5.4671839418453398
30
0
11
1.3360272112845957
21
5.3035063807548237
31
0
0
ARC
5
232
100
AcDbEntity
8
0
100
AcDbCircle
10
0
20
0
30
0
40
5.4692000000000016
100
AcDbArc
50
75.860592811773884
51
80.139407188226045
0
LINE
5
233
100
AcDbEntity
8
0
100
AcDbLine
10
0.93660879168335598
20
5.388405386692936
30
0
11
0.96489948795222347
21
5.554976953533755
31
0
0
SPLINE
5
234
100
AcDbEntity
8
0
100
AcDbSpline
70
1064
71
3
72
16
73
12
74
0
42
0.000000001
43
0.0000000001
44
0.0000000001
40
0
40
0
40
0
40
0
40
0.008521316706506089
40
0.01717498720130857
40
0.025956479512421325
40
0.034865367674830623
40
0.043901513976939616
40
0.053064856453115011
40
0.062355361893254538
40
0.071773010422230568
40
0.081317789199457452
40
0.081317789199457452
40
0.081317789199457452
40
0.081317789199457452
10
0.96489948795222347
20
5.554976953533755
30
0
10
0.9671138254285272
20
5.5833246205744258
30
0
10
0.97157689365199318
20
5.6404602529396399
30
0
10
0.96683078638753139
20
5.7270330466474304
30
0
10
0.95777939622458153
20
5.8143791621826377
30
0
10
0.94374351501119746
20
5.9024052440931554
30
0
10
0.9255850691887747
20
5.9909454438610634
30
0
10
0.90351579511359548
20
6.0799085333677274
30
0
10
0.8777169910242737
20
6.1691765377124881
30
0
10
0.84859041041434247
20
6.2587640104639259
30
0
10
0.82655514964207955
20
6.3180127793635785
30
0
10
0.81546365349691285
20
6.3478357752721903
30
0
0
ARC
5
235
100
AcDbEntity
8
0
100
AcDbCircle
10
0
20
0
30
0
40
6.4000000000000004
100
AcDbArc
50
82.679690456040987
51
85.320309543958771
0
SPLINE
5
236
100
AcDbEntity
8
0
100
AcDbSpline
70
1064
71
3
72
16
73
12
74
0
42
0.000000001
43
0.0000000001
44
0.0000000001
40
-0.081317789199457452
40
-0.081317789199457452
40
-0.081317789199457452
40
-0.081317789199457452
40
-0.071773010422230568
40
-0.062355361893254538
40
-0.053064856453115011
40
-0.043901513976939616
40
-0.034865367674830623
40
-0.025956479512421325
40
-0.01717498720130857
40
-0.008521316706506089
40
-0
40
-0
40
-0
40
-0
10
0.52214545291668379
20
6.3786647604336792
30
0
10
0.50509578306913017
20
6.3517995202562174
30
0
10
0.47122353389240013
20
6.2984268674353627
30
0
10
0.42410715601537463
20
6.2168528525300886
30
0
10
0.38031225597435631
20
6.1348994412372528
30
0
10
0.34022878212808094
20
6.0524688687705339
30
0
10
0.30405859927473516
20
5.9696388379726253
30
0
10
0.27202778421560053
20
5.8864545609450483
30
0
10
0.24501391007711681
20
5.8028990574338959
30
0
10
0.22237202072495452
20
5.7192048581659547
30
0
10
0.21485839426865527
20
5.6623898523909366
30
0
10
0.21113053177315205
20
5.6342012632399641
30
0
0
LINE
5
237
100
AcDbEntity
8
0
100
AcDbLine
10
0.21113053177315205
20
5.6342012632399641
30
0
11
0.2041708323475977
21
5.4653877182884747
31
0
0
ARC
5
238
100
AcDbEntity
8
0
100
AcDbCircle
10
0
20
0
30
0
40
5.4692000000000007
100
AcDbArc
50
87.860592811773856
51
92.139407188226116
0
LINE
5
239
100
AcDbEntity
8
0
100
AcDbLine
10
-0.20417083234759253
20
5.4653877182884756
30
0
11
-0.21113053177314572
21
5.6342012632399641
31
0
0
SPLINE
5
240
100
AcDbEntity
8
0
100
AcDbSpline
70
1064
71
3
72
16
73
12
74
0
42
0.000000001
43
0.0000000001
44
0.0000000001
40
0
40
0
40
0
40
0
40
0.008521316706506089
40
0.01717498720130857
40
0.025956479512421325
40
0.034865367674830623
40
0.043901513976939616
40
0.053064856453115011
40
0.062355361893254538
40
0.071773010422230568
40
0.081317789199457452
40
0.081317789199457452
40
0.081317789199457452
40
0.081317789199457452
10
-0.21113053177314572
20
5.6342012632399641
30
0
10
-0.21485839426864897
20
5.6623898523909366
30
0
10
-0.22237202072494799
20
5.7192048581659556
30
0
10
-0.24501391007711032
20
5.8028990574338959
30
0
10
-0.27202778421559387
20
5.8864545609450474
30
0
10
-0.30405859927472834
20
5.9696388379726262
30
0
10
-0.34022878212807417
20
6.0524688687705339
30
0
10
-0.38031225597434937
20
6.1348994412372528
30
0
10
-0.42410715601536753
20
6.2168528525300895
30
0
10
-0.47122353389239308
20
6.2984268674353627
30
0
10
-0.50509578306912306
20
6.3517995202562183
30
0
10
-0.52214545291667658
20
6.3786647604336801
30
0
0
ARC
5
241
100
AcDbEntity
8
0
100
AcDbCircle
10
0
20
0
30
0
40
6.4000000000000012
100
AcDbArc
50
94.679690456041001
51
97.320309543958786
0
SPLINE
5
242
100
AcDbEntity
8
0
100
AcDbSpline
70
1064
71
3
72
16
73
12
74
0
42
0.000000001
43
0.0000000001
44
0.0000000001
40
-0.081317789199457452
40
-0.081317789199457452
40
-0.081317789199457452
40
-0.081317789199457452
40
-0.071773010422230568
40
-0.062355361893254538
40
-0.053064856453115011
40
-0.043901513976939616
40
-0.034865367674830623
40
-0.025956479512421325
40
-0.01717498720130857
40
-0.008521316706506089
40
-0
40
-0
40
-0
40
-0
10
-0.81546365349690564
20
6.3478357752721912
30
0
10
-0.82655514964207255
20
6.3180127793635794
30
0
10
-0.84859041041433514
20
6.2587640104639259
30
0
10
-0.87771699102426659
20
6.1691765377124899
30
0
10
-0.90351579511358859
20
6.0799085333677274
30
0
10
-0.92558506918876793
20
5.9909454438610652
30
0
10
-0.9437435150111908
20
5.9024052440931563
30
0
10
-0.95777939622457486
20
5.8143791621826395
30
0
10
-0.96683078638752495
20
5.7270330466474304
30
0
10
-0.97157689365198685
20
5.6404602529396408
30
0
10
-0.96711382542852098
20
5.5833246205744258
30
0
10
-0.96489948795221714
20
5.5549769535337568
30
0
0
LINE
5
243
100
AcDbEntity
8
0
100
AcDbLine
10
-0.96489948795221703
20
5.5549769535337568
30
0
11
-0.93660879168334743
21
5.3884053866929378
31
0
0
ARC
5
244
100
AcDbEntity
8
0
100
AcDbCircle
10
0
20
0
30
0
40
5.4692000000000007
100
AcDbArc
50
99.86059281177387
51
104.13940718822607
0
LINE
5
245
100
AcDbEntity
8
0
100
AcDbLine
10
-1.3360272112845912
20
5.3035063807548246
30
0
11
-1.3779331341433323
21
5.4671839418453407
31
0
0
SPLINE
5
246
100
AcDbEntity
8
0
100
AcDbSpline
70
1064
71
3
72
16
73
12
74
0
42
0.000000001
43
0.0000000001
44
0.0000000001
40
0
40
0
40
0
40
0
40
0.008521316706506089
40
0.01717498720130857
40
0.025956479512421325
40
0.034865367674830623
40
0.043901513976939616
40
0.053064856453115011
40
0.062355361893254538
40
0.071773010422230568
40
0.081317789199457452
40
0.081317789199457452
40
0.081317789199457452
40
0.081317789199457452
10
-1.3779331341433323
20
5.4671839418453407
30
0
10
-1.3874402711313198
20
5.4939814764968595
30
0
10
-1.4066022107368639
20
5.547992767300669
30
0
10
-1.4461503229641979
20
5.625150534011425
30
0
10
-1.4899460451514135
20
5.7012636490512936
30
0
10
-1.5385718937373105
20
5.7759705691273791
30
0
10
-1.5911730030670943
20
5.8494703611468344
30
0
10
-1.6475188365355358
20
5.9217658050110398
30
0
10
-1.7073957852452113
20
5.9928228659223564
30
0
10
-1.7704427485866399
20
6.0628182470945529
30
0
10
-1.814671606341729
20
6.1079821427979351
30
0
10
-1.8369342975059386
20
6.1307154873347693
30
0
0
ARC
5
247
100
AcDbEntity
8
0
100
AcDbCircle
10
0
20
0
30
0
40
6.4000000000000021
100
AcDbArc
50
106.67969045604102
51
109.32030954395877
0
SPLINE
5
248
100
AcDbEntity
8
0
100
AcDbSpline
70
1064
71
3
72
16
73
12
74
0
42
0.000000001
43
0.0000000001
44
0.0000000001
40
-0.081317789199457452
40
-0.081317789199457452
40
-0.081317789199457452
40
-0.081317789199457452
40
-0.071773010422230568
40
-0.062355361893254538
40
-0.053064856453115011
40
-0.043901513976939616
40
-0.034865367674830623
40
-0.025956479512421325
40
-0.01717498720130857
40
-0.008521316706506089
40
-0
40
-0
40
-0
40
-0
10
-2.1174330852239263
20
6.0395759064357426
30
0
10
-2.1220816560622584
20
6.0080985628237995
30
0
10
-2.1313168817973938
20
5.945563133353402
30
0
10
-2.1411806938027365
20
5.851877605203426
30
0
10
-2.1478558704052619
20
5.7591964479520161
30
0
10
-2.1509464115321335
20
5.6675889553091165
30
0
10
-2.1502995091073029
20
5.5772082181640812
30
0
10
-2.1457270211142809
20
5.4881874935461195
30
0
10
-2.1364203381181874
20
5.4008682103689072
30
0
10
-2.1230632356331429
20
5.3152004687286531
30
0
10
-2.1068185302274545
20
5.2602413110747861
30
0
10
-2.0987587699526284
20
5.2329734952212927
30
0
0
LINE
5
249
100
AcDbEntity
8
0
100
AcDbLine
10
-2.0987587699526289
20
5.2329734952212927
30
0
11
-2.0364541171701074
21
5.0759238832611491
31
0
0
ARC
5
250
100
AcDbEntity
8
0
100
AcDbCircle
10
0
20
0
30
0
40
5.4692000000000016
100
AcDbArc
50
111.86059281177387
51
116.13940718822604
0
LINE
5
251
100
AcDbEntity
8
0
100
AcDbLine
10
-2.4094927901186076
20
4.9098363653350461
30
0
11
-2.4845134464946779
21
5.0612244477328572
31
0
0
SPLINE
5
252
100
AcDbEntity
8
0
100
AcDbSpline
70
1064
71
3
72
16
73
12
74
0
42
0.000000001
43
0.0000000001
44
0.0000000001
40
0
40
0
40
0
40
0
40
0.008521316706506089
40
0.01717498720130857
40
0.025956479512421325
40
0.034865367674830623
40
0.043901513976939616
40
0.053064856453115011
40
0.062355361893254538
40
0.071773010422230568
40
0.081317789199457452
40
0.081317789199457452
40
0.081317789199457452
40
0.081317789199457452
10
-2.4845134464946779
20
5.0612244477328572
30
0
10
-2.4993843504684703
20
5.0854597470318117
30
0
10
-2.529357134513309
20
5.1343067702813574
30
0
10
-2.5840830273385826
20
5.201555939785627
30
0
10
-2.6427465143597573
20
5.2669001579957211
30
0
10
-2.7058422135565046
20
5.3298646702294139
30
0
10
-2.7725753284768873
20
5.390821929868034
30
0
10
-2.8427209382676177
20
5.4498225873208312
30
0
10
-2.9160630256658604
20
5.5068777633191948
30
0
10
-2.9922851196407754
20
5.5622353767259858
30
0
10
-3.0449375726567194
20
5.597216636349243
30
0
10
-3.0714402987054648
20
5.6148245290024965
30
0
0
ARC
5
253
100
AcDbEntity
8
0
100
AcDbCircle
10
0
20
0
30
0
40
6.4000000000000021
100
AcDbArc
50
118.67969045604097
51
121.32030954395877
0
SPLINE
5
254
100
AcDbEntity
8
0
100
AcDbSpline
70
1064
71
3
72
16
73
12
74
0
42
0.000000001
43
0.0000000001
44
0.0000000001
40
-0.081317789199457452
40
-0.081317789199457452
40
-0.081317789199457452
40
-0.081317789199457452
40
-0.071773010422230568
40
-0.062355361893254538
40
-0.053064856453115011
40
-0.043901513976939616
40
-0.034865367674830623
40
-0.025956479512421325
40
-0.01717498720130857
40
-0.008521316706506089
40
-0
40
-0
40
-0
40
-0
10
-3.3268605305554164
20
5.4673575893874506
30
0
10
-3.324863011234962
20
5.4356016090330712
30
0
10
-3.3208945782528145
20
5.3725126173380673
30
0
10
-3.3110645257371143
20
5.2788235409227511
30
0
10
-3.2983243376042615
20
5.1867798420701128
30
0
10
-3.2823010743055194
20
5.09653163330099
30
0
10
-3.2628770963735825
20
5.0082604306869634
30
0
10
-3.2398960788406814
20
4.9221356961961922
30
0
10
-3.212638069390894
20
4.8386595170562297
30
0
10
-3.1817615266294275
20
4.7576409188726227
30
0
10
-3.1544451556184909
20
4.7072602148428748
30
0
10
-3.1408922227441725
20
4.6822639845748544
30
0
0
LINE
5
255
100
AcDbEntity
8
0
100
AcDbLine
10
-3.140892222744172
20
4.6822639845748544
30
0
11
-3.0472966257454903
21
4.5416001491456912
31
0
0
ARC
5
256
100
AcDbEntity
8
0
100
AcDbCircle
10
0
20
0
30
0
40
5.4692000000000016
100
AcDbArc
50
123.86059281177384
51
128.1394071882261
0
LINE
5
257
100
AcDbEntity
8
0
100
AcDbLine
10
-3.377651971995256
20
4.3015829407413007
30
0
11
-3.4825085992159677
21
4.4340651588050068
31
0
0
SPLINE
5
258
100
AcDbEntity
8
0
100
AcDbSpline
70
1064
71
3
72
16
73
12
74
0
42
0.000000001
43
0.0000000001
44
0.0000000001
40
0
40
0
40
0
40
0
40
0.008521316706506089
40
0.01717498720130857
40
0.025956479512421325
40
0.034865367674830623
40
0.043901513976939616
40
0.053064856453115011
40
0.062355361893254538
40
0.071773010422230568
40
0.081317789199457452
40
0.081317789199457452
40
0.081317789199457452
40
0.081317789199457452
10
-3.4825085992159677
20
4.4340651588050068
30
0
10
-3.5020933403133956
20
4.4546790238781657
30
0
10
-3.5415670143093947
20
4.4962269302634192
30
0
10
-3.6090789036121746
20
4.5506283911565477
30
0
10
-3.6800462795858402
20
4.6023478566447391
30
0
10
-3.7548542445717832
20
4.6508181097141756
30
0
10
-3.8328028077397311
20
4.6965687122203663
30
0
10
-3.9136824941089148
20
4.7396959714145055
30
0
10
-3.9972843190420395
20
4.7802556775276761
30
0
10
-4.0833502723895512
20
4.8185561298278827
30
0
10
-4.1421251558150534
20
4.8418259044667709
30
0
10
-4.1717096204458137
20
4.8535387958354548
30
0
0
ARC
5
259
100
AcDbEntity
8
0
100
AcDbCircle
10
0
20
0
30
0
40
6.4000000000000021
100
AcDbArc
50
130.67969045604099
51
133.32030954395876
0
SPLINE
5
260
100
AcDbEntity
8
0
100
AcDbSpline
70
1064
71
3
72
16
73
12
74
0
42
0.000000001
43
0.0000000001
44
0.0000000001
40
-0.081317789199457452
40
-0.081317789199457452
40
-0.081317789199457452
40
-0.081317789199457452
40
-0.071773010422230568
40
-0.062355361893254538
40
-0.053064856453115011
40
-0.043901513976939616
40
-0.034865367674830623
40
-0.025956479512421325
40
-0.01717498720130857
40
-0.008521316706506089
40
-0
40
-0
40
-0
40
-0
10
-4.3908882066536314
20
4.6561895103904529
30
0
10
-4.3823318983538551
20
4.6255427820172237
30
0
10
-4.3653332462183991
20
4.5646575197692565
30
0
10
-4.3362389496464164
20
4.4750595572980147
30
0
10
-4.304640204133797
20
4.3876760681586795
30
0
10
-4.2702034299037432
20
4.3027314230454987
30
0
10
-4.2328512975069135
20
4.2204276300889356
30
0
10
-4.1924661311754789
20
4.1409629498949299
30
0
10
-4.1484481010833933
20
4.064978184383782
30
0
10
-4.1014015711262717
20
3.9921496311678144
30
0
10
-4.064207391001756
20
3.9485492592817248
30
0
10
-4.0457536137287411
20
3.9269170698071103
30
0
0
LINE
5
261
100
AcDbEntity
8
0
100
AcDbLine
10
-4.0457536137287402
20
3.9269170698071099
30
0
11
-3.9249576492242424
21
3.8087866954971528
31
0
0
ARC
5
262
100
AcDbEntity
8
0
100
AcDbCircle
10
0
20
0
30
0
40
5.4692000000000007
100
AcDbArc
50
135.86059281177387
51
140.13940718822613
0
LINE
5
263
100
AcDbEntity
8
0
100
AcDbLine
10
-4.1981915549233211
20
3.5053297003520973
30
0
11
-4.3283014152212109
21
3.6131159454320971
31
0
0
SPLINE
5
264
100
AcDbEntity
8
0
100
AcDbSpline
70
1064
71
3
72
16
73
12
74
0
42
0.000000001
43
0.0000000001
44
0.0000000001
40
0
40
0
40
0
40
0
40
0.008521316706506089
40
0.01717498720130857
40
0.025956479512421325
40
0.034865367674830623
40
0.043901513976939616
40
0.053064856453115011
40
0.062355361893254538
40
0.071773010422230568
40
0.081317789199457452
40
0.081317789199457452
40
0.081317789199457452
40
0.081317789199457452
10
-4.3283014152212109
20
3.6131159454320971
30
0
10
-4.351744046278303
20
3.6292074514594637
30
0
10
-4.3989934212561339
20
3.6616403981024153
30
0
10
-4.476340713515901
20
3.7008165454962008
30
0
10
-4.5565103635727571
20
3.7366508694431255
30
0
10
-4.6397611273095665
20
3.7685084807030926
30
0
10
-4.7255184124759362
20
3.7970529052115856
30
0
10
-4.8135973450254443
20
3.8224218979727302
30
0
10
-4.9038051065778081
20
3.8447134804165
30
0
10
-4.9959534241463652
20
3.8642828580586435
30
0
10
-5.0582819935425496
20
3.874824146900675
30
0
10
-5.0896552136889497
20
3.8801301274272899
30
0
0
ARC
5
265
100
AcDbEntity
8
0
100
AcDbCircle
10
0
20
0
30
0
40
6.4000000000000021
100
AcDbArc
50
142.67969045604104
51
145.32030954395879
0
SPLINE
5
266
100
AcDbEntity
8
0
100
AcDbSpline
70
1064
71
3
72
16
73
12
74
0
42
0.000000001
43
0.0000000001
44
0.0000000001
40
-0.081317789199457452
40
-0.081317789199457452
40
-0.081317789199457452
40
-0.081317789199457452
40
-0.071773010422230568
40
-0.062355361893254538
40
-0.053064856453115011
40
-0.043901513976939616
40
-0.034865367674830623
40
-0.025956479512421325
40
-0.01717498720130857
40
-0.008521316706506089
40
-0
40
-0
40
-0
40
-0
10
-5.2630129983018072
20
3.6415236069132169
30
0
10
-5.2482718527531311
20
3.6133255396103658
30
0
10
-5.2189859041312694
20
3.5573049849295741
30
0
10
-5.1718989238731243
20
3.475713997301126
30
0
10
-5.1228226377872419
20
3.3968097956629855
30
0
10
-5.0714774049057079
20
3.3208812028068238
30
0
10
-5.0178295854651447
20
3.2481418901973429
30
0
10
-4.9618052958933863
20
3.1788102521384221
30
0
10
-4.9029510442959712
20
3.1136377991242847
30
0
10
-4.8417906862566191
20
3.0521822481216647
30
0
10
-4.7963442611674427
20
3.0172677538484534
30
0
10
-4.7737961581136092
20
2.9999450356500468
30
0
0
LINE
5
267
100
AcDbEntity
8
0
100
AcDbLine
10
-4.7737961581136092
20
2.9999450356500468
30
0
11
-4.631079189395491
21
2.9095109866690683
31
0
0
ARC
5
268
100
AcDbEntity
8
0
100
AcDbCircle
10
0
20
0
30
0
40
5.4692000000000007
100
AcDbArc
50
147.86059281177387
51
152.13940718822604
0
LINE
5
269
100
AcDbEntity
8
0
100
AcDbLine
10
-4.8352500217430814
20
2.5558767316194144
30
0
11
-4.9849266898867555
21
2.6342562275899222
31
0
0
SPLINE
5
270
100
AcDbEntity
8
0
100
AcDbSpline
70
1064
71
3
72
16
73
12
74
0
42
0.000000001
43
0.0000000001
44
0.0000000001
40
0
40
0
40
0
40
0
40
0.008521316706506089
40
0.01717498720130857
40
0.025956479512421325
40
0.034865367674830623
40
0.043901513976939616
40
0.053064856453115011
40
0.062355361893254538
40
0.071773010422230568
40
0.081317789199457452
40
0.081317789199457452
40
0.081317789199457452
40
0.081317789199457452
10
-4.9849266898867555
20
2.6342562275899222
30
0
10
-5.011202655436092
20
2.6451220985424873
30
0
10
-5.0641627069815662
20
2.6670226100442953
30
0
10
-5.1479649543730819
20
2.6892612583096165
30
0
10
-5.2338330801089805
20
2.7076443088066298
30
0
10
-5.3218881847398736
20
2.7214969477752868
30
0
10
-5.4117061870337837
20
2.7315876659637164
30
0
10
-5.503134893761592
20
2.7380896455742718
30
0
10
-5.5960060798884923
20
2.7411388552289679
30
0
10
-5.6902094380236621
20
2.7411218825057935
30
0
10
-5.7533676358222552
20
2.7384739806458569
30
0
10
-5.7851584512184848
20
2.7371411535204695
30
0
0
ARC
5
271
100
AcDbEntity
8
0
100
AcDbCircle
10
0
20
0
30
0
40
6.4000000000000021
100
AcDbArc
50
154.67969045604099
51
157.32030954395879
0
SPLINE
5
272
100
AcDbEntity
8
0
100
AcDbSpline
70
1064
71
3
72
16
73
12
74
0
42
0.000000001
43
0.0000000001
44
0.0000000001
40
-0.081317789199457452
40
-0.081317789199457452
40
-0.081317789199457452
40
-0.081317789199457452
40
-0.071773010422230568
40
-0.062355361893254538
40
-0.053064856453115011
40
-0.043901513976939616
40
-0.034865367674830623
40
-0.025956479512421325
40
-0.01717498720130857
40
-0.008521316706506089
40
-0
40
-0
40
-0
40
-0
10
-5.9051188671858554
20
2.4677056478449066
30
0
10
-5.8848371431846225
20
2.4431886324629093
30
0
10
-5.8445438345607013
20
2.3944811524052887
30
0
10
-5.7815220976020756
20
2.3244630572959939
30
0
10
-5.717113140139034
20
2.2574866353950025
30
0
10
-5.6511034816647046
20
2.1938925386494845
30
0
10
-5.5835046423207579
20
2.1338967633900681
30
0
10
-5.5142897597973324
20
2.0777282927395184
30
0
10
-5.4431714999034266
20
2.026216501151235
30
0
10
-5.3705703149081216
20
1.9788198548372302
30
0
10
-5.3188578717068244
20
1.9541171691149675
30
0
10
-5.2932009031734299
20
1.9418610081016632
30
0
0
LINE
5
273
100
AcDbEntity
8
0
100
AcDbLine
10
-5.2932009031734299
20
1.9418610081016632
30
0
11
-5.134800346606669
21
1.8830756863408449
31
0
0
ARC
5
274
100
AcDbEntity
8
0
100
AcDbCircle
10
0
20
0
30
0
40
5.4692000000000007
100
AcDbArc
50
159.86059281177387
51
164.13940718822613
0
LINE
5
275
100
AcDbEntity
8
0
100
AcDbLine
10
-5.2609848605088407
20
1.4947196852576732
30
0
11
-5.4236867478720763
21
1.5402668720382351
31
0
0
SPLINE
5
276
100
AcDbEntity
8
0
100
AcDbSpline
70
1064
71
3
72
16
73
12
74
0
42
0.000000001
43
0.0000000001
44
0.0000000001
40
0
40
0
40
0
40
0
40
0.008521316706506089
40
0.01717498720130857
40
0.025956479512421325
40
0.034865367674830623
40
0.043901513976939616
40
0.053064856453115011
40
0.062355361893254538
40
0.071773010422230568
40
0.081317789199457452
40
0.081317789199457452
40
0.081317789199457452
40
0.081317789199457452
10
-5.4236867478720763
20
1.5402668720382351
30
0
10
-5.4516476621330785
20
1.5454322172151382
30
0
10
-5.5080037818631391
20
1.5558431361328591
30
0
10
-5.5945984240475948
20
1.5601723496276483
30
0
10
-5.6824121763268938
20
1.5603006991563675
30
0
10
-5.7714231912442271
20
1.5555429390384479
30
0
10
-5.8613764329708395
20
1.5467389381013406
30
0
10
-5.9521590406693345
20
1.5340897368523654
30
0
10
-6.0436347348916311
20
1.5177633086243465
30
0
10
-6.1357759948050417
20
1.4981607273253015
30
0
10
-6.1970035046955871
20
1.4824393607807174
30
0
10
-6.2278225041595734
20
1.4745259769443209
30
0
0
ARC
5
277
100
AcDbEntity
8
0
100
AcDbCircle
10
0
20
0
30
0
40
6.4000000000000039
100
AcDbArc
50
166.67969045604102
51
169.32030954395879
0
SPLINE
5
278
100
AcDbEntity
8
0
100
AcDbSpline
70
1064
71
3
72
16
73
12
74
0
42
0.000000001
43
0.0000000001
44
0.0000000001
40
-0.081317789199457452
40
-0.081317789199457452
40
-0.081317789199457452
40
-0.081317789199457452
40
-0.071773010422230568
40
-0.062355361893254538
40
-0.053064856453115011
40
-0.043901513976939616
40
-0.034865367674830623
40
-0.025956479512421325
40
-0.01717498720130857
40
-0.008521316706506089
40
-0
40
-0
40
-0
40
-0
10
-6.2891427056697422
20
1.1860371106002918
30
0
10
-6.2642068118773144
20
1.1662726583570331
30
0
10
-6.214667154186948
20
1.1270070035255233
30
0
10
-6.1384650128447795
20
1.0716219276757548
30
0
10
-6.0615383645141794
20
1.0195004765375153
30
0
10
-5.9837492192718678
20
0.97102024308875401
30
0
10
-5.9051537536790892
20
0.92639010844990954
30
0
10
-5.8257733007001233
20
0.8858396369013849
30
0
10
-5.7454992417303652
20
0.85023981921236447
30
0
10
-5.6646302499425403
20
0.81897353846523868
30
0
10
-5.6089118705408536
20
0.80556228719662526
30
0
10
-5.5812673691685983
20
0.79890833641629078
30
0
0
LINE
5
279
100
AcDbEntity
8
0
100
AcDbLine
10
-5.5812673691685983
20
0.79890833641629078
30
0
11
-5.4141060891653652
21
0.77434094251985175
31
0
0
CIRCLE
5
280
100
AcDbEntity
8
0
100
AcDbCircle
10
0
20
0
30
0
40
5
0
ENDSEC
0
SECTION
2
OBJECTS
0
DICTIONARY
5
C
100
AcDbDictionary
3
ACAD_GROUP
350
D
3
ACAD_MLINESTYLE
350
17
0
DICTIONARY
5
D
100
AcDbDictionary
0
DICTIONARY
5
1A
330
C
100
AcDbDictionary
0
DICTIONARY
5
17
100
AcDbDictionary
0
ENDSEC
0
EOF
